<svg width="33" height="20" viewBox="0 0 33 20" fill="none" xmlns="http://www.w3.org/2000/svg">
<path d="M26.2366 6.849C25.4786 6.83592 24.7548 6.95163 24.0756 7.18084L22.4311 4.34306L26.6237 4.38702C27.3005 4.39411 27.8507 3.85016 27.8578 3.16693L27.875 1.52308C27.8822 0.839857 27.3435 0.284487 26.6668 0.277393L24.3619 0.253229C24.0159 0.249602 23.6836 0.395108 23.452 0.64956L21.5215 2.7717L20.3819 0.807465C20.1619 0.435252 19.7674 0.205062 19.34 0.200581L15.2695 0.157908C14.8217 0.153214 14.4515 0.519239 14.4468 0.971298L14.4381 1.79322C14.4334 2.24528 14.7959 2.61899 15.2436 2.62368L18.6221 2.6591L19.5818 4.31319L11.7614 4.23121C10.8732 3.03511 9.49837 2.15244 6.69991 2.12311L3.87601 2.0935C3.18912 2.0863 2.60824 2.64535 2.61623 3.33901C2.61941 4.00693 3.15818 4.55202 3.82472 4.55901L6.67406 4.58888C7.92065 4.60195 8.63729 5.16946 9.09282 5.88836L8.50682 6.93542C7.84747 6.72815 7.14119 6.62826 6.40824 6.64627C2.98265 6.73366 0.190135 9.5352 0.0724274 12.9967C-0.0478112 16.6996 2.86648 19.7562 6.51465 19.7945C9.54716 19.8263 12.1183 17.7571 12.8756 14.9291L17.1598 14.974C17.8569 14.9813 18.4176 14.4015 18.3945 13.6974C18.313 11.2767 19.3353 8.89334 21.3213 7.30609L21.9461 8.38126C20.529 9.58402 19.6196 11.3829 19.6137 13.4019C19.6017 16.9776 22.456 19.9308 25.997 19.9987C29.6397 20.0729 32.6323 17.1142 32.6404 13.4357C32.6422 9.86 29.7777 6.91181 26.2366 6.849ZM6.5405 17.3287C4.29665 17.3052 2.48935 15.4418 2.5131 13.1764C2.53685 10.911 4.38282 9.08594 6.62667 9.10947C6.84037 9.11171 7.05391 9.12936 7.26214 9.1675L5.10997 13.0187C4.6536 13.8359 5.23327 14.849 6.1593 14.8587L10.2959 14.902C9.64982 16.3441 8.20431 17.3462 6.5405 17.3287ZM30.1849 13.6926C30.0511 15.777 28.3646 17.4445 26.3028 17.5308C23.9558 17.6346 22.0269 15.7237 22.0514 13.3812C22.063 12.2819 22.5008 11.2898 23.2056 10.5625L25.6747 14.8218C25.8996 15.2146 26.402 15.3432 26.7911 15.1161L27.4926 14.7021C27.8817 14.475 28.0092 13.9677 27.7843 13.5749L25.3551 9.39314C25.6202 9.33941 25.8902 9.31655 26.1649 9.31943C28.4852 9.33862 30.3319 11.3257 30.1849 13.6926Z" fill="#224344"/>
</svg>
