<svg width="30" height="30" viewBox="0 0 30 30" fill="none" xmlns="http://www.w3.org/2000/svg">
<path d="M21.0141 6.52413V1.4661C21.0141 0.659743 20.3546 0 19.548 0H1.4661C0.659743 0 0 0.659743 0 1.4661V2.41906V21.5272V22.1872C0 22.7245 0.317654 23.2376 0.781918 23.482L11.9243 29.2489C12.413 29.4932 12.9994 29.1514 12.9994 28.5891V22.9691H19.548C20.3546 22.9691 21.0141 22.3096 21.0141 21.503V13.4883H18.0819V19.3038C18.0819 19.7192 17.7642 20.0369 17.3488 20.0369H13.0238V12.5109V7.74612V7.59951C13.0238 7.06194 12.7062 6.54881 12.2419 6.30446L5.66891 2.93244H17.3488C17.7642 2.93244 18.0819 3.25009 18.0819 3.66549V6.54881H21.0141V6.52413Z" fill="#224344"/>
<path d="M24.7771 4.12927L29.5419 8.89408C30.1527 9.50496 30.1527 10.409 29.5419 11.0199L24.7771 15.7847C24.1662 16.3956 23.2374 16.4203 22.6265 15.8094C22.0403 15.2232 22.1134 14.2456 22.6757 13.6591L24.8257 11.5333H16.4936C16.0785 11.5333 15.6628 11.3623 15.394 11.0446C14.7099 10.3116 14.8809 9.0165 15.7606 8.5278C15.9805 8.40563 16.2493 8.33232 16.4936 8.33232H24.8259C24.8259 8.33232 22.7003 6.20648 22.6759 6.20648C22.1137 5.64448 22.0403 4.64265 22.6268 4.08064C23.2132 3.4942 24.1662 3.51839 24.7771 4.12927Z" fill="#224344"/>
</svg>
