<svg width="28" height="28" viewBox="0 0 28 28" fill="none" xmlns="http://www.w3.org/2000/svg">
<path d="M10.1716 0H2.13274C0.957216 0 0.000976562 0.956239 0.000976562 2.13176V10.1707C0.000976562 11.3462 0.957216 12.3024 2.13274 12.3024H10.1716C11.3472 12.3024 12.3034 11.3462 12.3034 10.1707V2.13176C12.3032 0.956239 11.3472 0 10.1716 0Z" fill="#224344"/>
<path d="M25.8681 0H17.8292C16.6537 0 15.6974 0.956239 15.6974 2.13176V10.1707C15.6974 11.3462 16.6537 12.3024 17.8292 12.3024H25.8681C27.0436 12.3024 27.9999 11.3462 27.9999 10.1707V2.13176C27.9999 0.956239 27.0436 0 25.8681 0Z" fill="#224344"/>
<path d="M10.1707 15.6976H2.13182C0.9563 15.6976 6.10352e-05 16.6537 6.10352e-05 17.8292V25.8681C6.10352e-05 27.0437 0.9563 27.9999 2.13182 27.9999H10.1707C11.3462 27.9999 12.3025 27.0437 12.3025 25.8681V17.8292C12.3023 16.6537 11.3462 15.6976 10.1707 15.6976Z" fill="#224344"/>
<path d="M25.8681 15.6976H17.8292C16.6537 15.6976 15.6974 16.6538 15.6974 17.8293V25.8682C15.6974 27.0438 16.6537 28 17.8292 28H25.8681C27.0436 27.9999 27.9999 27.0437 27.9999 25.8681V17.8292C27.9999 16.6537 27.0436 15.6976 25.8681 15.6976Z" fill="#224344"/>
</svg>
