<svg width="122" height="114" viewBox="0 0 122 114" fill="none" xmlns="http://www.w3.org/2000/svg">
<path d="M118.722 49.4461C118.72 49.4435 118.717 49.4409 118.714 49.4383L68.9428 3.06686C66.8213 1.08936 64.0008 0 61.0005 0C58.0003 0 55.1797 1.08849 53.0573 3.06599L3.31208 49.414C3.29532 49.4296 3.27764 49.4461 3.26181 49.4617C-1.0947 53.5442 -1.08726 60.168 3.28415 64.2401C5.27996 66.1013 7.91621 67.1794 10.7358 67.2922C10.8503 67.3026 10.9667 67.3078 11.0831 67.3078H13.0658V101.434C13.0658 108.187 18.9639 113.682 26.2126 113.682H45.6848H49.2568H50.6125C50.6125 113.682 51.8241 113.682 55.1315 113.682H66.8808C70.1882 113.682 71.8517 113.682 71.8517 113.682C71.8517 113.682 74.3419 113.682 76.3154 113.682H95.7875C103.037 113.682 108.934 108.187 108.934 101.434V67.3078H110.774C113.773 67.3078 116.594 66.2193 118.717 64.2418C123.092 60.1628 123.095 53.5277 118.722 49.4461Z" fill="#1DE8F1"/>
<path d="M118.723 49.4461C118.72 49.4435 118.717 49.4409 118.714 49.4383L68.9431 3.06686C66.8217 1.08936 64.0011 0 61.0009 0H61V113.682H66.8811C70.1885 113.682 71.852 113.682 71.852 113.682C71.852 113.682 74.3422 113.682 76.3157 113.682H95.7877C103.037 113.682 108.934 108.187 108.934 101.434V67.3078H110.774C113.773 67.3078 116.594 66.2193 118.717 64.2418C123.092 60.1628 123.095 53.5277 118.723 49.4461Z" fill="#00C7CE"/>
<rect x="21.7505" y="63.8489" width="47.2325" height="47.2325" rx="1" transform="rotate(-45 21.7505 63.8489)" fill="#224344"/>
<rect x="32.626" y="63.8489" width="47.2325" height="47.2325" rx="2" transform="rotate(-45 32.626 63.8489)" fill="white"/>
<g clip-path="url(#clip0_74:64)">
<path d="M66.1916 48.4914C75.0815 48.4914 80.6048 54.4206 80.6048 63.868C80.6048 73.3621 75.0533 79.3204 66.1158 79.3204C57.0909 79.3204 51.7026 73.4556 51.7026 63.7339C51.7026 54.3694 57.2541 48.4914 66.1916 48.4914ZM59.3207 63.9253C59.3207 69.5385 61.7542 72.6299 66.1732 72.6299C70.5542 72.6299 72.9674 69.5658 72.9674 64.0011C72.9674 58.3958 70.4907 55.1817 66.1732 55.1817C61.8821 55.1818 59.3207 58.4505 59.3207 63.9253Z" fill="#224344"/>
</g>
<defs>
<clipPath id="clip0_74:64">
<rect width="30.829" height="30.829" fill="white" transform="matrix(1 0 0 -1 50.7397 79.3204)"/>
</clipPath>
</defs>
</svg>
