<svg width="41" height="39" viewBox="0 0 41 39" fill="none" xmlns="http://www.w3.org/2000/svg">
<path d="M39.8985 16.6171C39.8976 16.6163 39.8967 16.6154 39.8957 16.6145L23.1693 1.03066C22.4563 0.366096 21.5085 0 20.5002 0C19.4919 0 18.544 0.365804 17.8307 1.03037L1.11308 16.6064C1.10744 16.6116 1.1015 16.6171 1.09618 16.6224C-0.367892 17.9944 -0.36539 20.2204 1.10369 21.5889C1.77441 22.2144 2.66036 22.5767 3.60795 22.6146C3.64643 22.6181 3.68553 22.6198 3.72463 22.6198H4.39098V34.0886C4.39098 36.358 6.37311 38.2045 8.80917 38.2045H15.3531H16.5535H17.0091C17.0091 38.2045 17.4163 38.2045 18.5278 38.2045H22.4763C23.5878 38.2045 24.1469 38.2045 24.1469 38.2045C24.1469 38.2045 24.9837 38.2045 25.647 38.2045H32.1909C34.6272 38.2045 36.6091 36.358 36.6091 34.0886V22.6198H37.2272C38.2352 22.6198 39.1831 22.254 39.8967 21.5895C41.367 20.2186 41.3679 17.9888 39.8985 16.6171Z" fill="#1DE8F1"/>
<path d="M39.8986 16.6171C39.8976 16.6163 39.8967 16.6154 39.8957 16.6145L23.1694 1.03066C22.4565 0.366096 21.5086 0 20.5003 0H20.5V38.2045H22.4764C23.5879 38.2045 24.147 38.2045 24.147 38.2045C24.147 38.2045 24.9839 38.2045 25.6471 38.2045H32.1909C34.6273 38.2045 36.6091 36.358 36.6091 34.0886V22.6198H37.2273C38.2352 22.6198 39.1831 22.254 39.8967 21.5895C41.367 20.2186 41.3679 17.9888 39.8986 16.6171Z" fill="#00C7CE"/>
<rect x="7.30957" y="21.4574" width="15.8732" height="15.8732" rx="1" transform="rotate(-45 7.30957 21.4574)" fill="#224344"/>
<rect x="10.9643" y="21.4574" width="15.8732" height="15.8732" rx="2" transform="rotate(-45 10.9643 21.4574)" fill="white"/>
<g clip-path="url(#clip0_89:936)">
<path d="M22.2448 16.2963C25.2324 16.2963 27.0885 18.2889 27.0885 21.4638C27.0885 24.6545 25.2229 26.6568 22.2193 26.6568C19.1863 26.6568 17.3755 24.6859 17.3755 21.4188C17.3755 18.2717 19.2412 16.2963 22.2448 16.2963ZM19.9357 21.4831C19.9357 23.3695 20.7535 24.4084 22.2386 24.4084C23.7109 24.4084 24.5219 23.3787 24.5219 21.5086C24.5219 19.6248 23.6895 18.5447 22.2386 18.5447C20.7965 18.5447 19.9357 19.6432 19.9357 21.4831Z" fill="#224344"/>
</g>
<defs>
<clipPath id="clip0_89:936">
<rect width="10.3606" height="10.3606" fill="white" transform="matrix(1 0 0 -1 17.0518 26.6568)"/>
</clipPath>
</defs>
</svg>