<svg width="18" height="23" viewBox="0 0 18 23" fill="none" xmlns="http://www.w3.org/2000/svg">
<path d="M16.5529 0H0.673855C0.301708 0 0 0.301708 0 0.673855V20.3422C0 20.5209 0.0710246 20.6923 0.19735 20.8187L2.18226 22.8036C2.44542 23.0667 2.87206 23.0667 3.13527 22.8036L4.64367 21.2952L6.15199 22.8036C6.27836 22.93 6.44974 23.001 6.62845 23.001C6.80715 23.001 6.97858 22.93 7.10495 22.8036L8.61331 21.2952L10.1217 22.8036C10.2481 22.93 10.4195 23.001 10.5982 23.001C10.7769 23.001 10.9483 22.93 11.0747 22.8036L12.583 21.2952L14.0914 22.8036C14.223 22.9352 14.3954 23.001 14.5679 23.001C14.7403 23.001 14.9128 22.9352 15.0444 22.8036L17.0293 20.8187C17.1556 20.6923 17.2267 20.5209 17.2267 20.3422V0.673855C17.2268 0.301708 16.925 0 16.5529 0ZM7.93941 5.0616V4.28276C7.93941 3.91061 8.24116 3.6089 8.61327 3.6089C8.98546 3.6089 9.28712 3.91061 9.28712 4.28276V5.05243H10.0569C10.429 5.05243 10.7307 5.35414 10.7307 5.72629C10.7307 6.09844 10.429 6.40014 10.0569 6.40014H8.13218C7.70778 6.40014 7.3625 6.74543 7.3625 7.16982C7.3625 7.59426 7.70778 7.93959 8.13218 7.93959H9.09458C10.2621 7.93959 11.212 8.88941 11.212 10.057C11.212 11.1595 10.3647 12.0676 9.28712 12.1652V12.9441C9.28712 13.3162 8.98546 13.6179 8.61327 13.6179C8.24116 13.6179 7.93941 13.3162 7.93941 12.9441V12.1743H7.16973C6.79763 12.1743 6.49588 11.8726 6.49588 11.5005C6.49588 11.1283 6.79763 10.8266 7.16973 10.8266H9.09458C9.51897 10.8266 9.8643 10.4813 9.8643 10.0569C9.8643 9.63254 9.51902 9.28726 9.09458 9.28726H8.13218C6.96461 9.28726 6.01479 8.33734 6.01479 7.16978C6.01483 6.06726 6.86196 5.15931 7.93941 5.0616ZM12.2223 17.2268H5.0045C4.63235 17.2268 4.33064 16.925 4.33064 16.5529C4.33064 16.1808 4.63235 15.879 5.0045 15.879H12.2223C12.5944 15.879 12.8961 16.1808 12.8961 16.5529C12.8961 16.925 12.5944 17.2268 12.2223 17.2268Z" fill="#224344"/>
</svg>
