<svg width="34" height="31" viewBox="0 0 34 31" fill="none" xmlns="http://www.w3.org/2000/svg">
<path d="M11.0234 20.5317H29.0197C29.4654 20.5317 29.8563 20.228 29.9769 19.7869L33.9615 5.41463C34.0471 5.10479 33.9885 4.77196 33.7999 4.51451C33.6111 4.25787 33.3174 4.10629 33.0041 4.10629H8.72384L8.01179 0.804148C7.91062 0.333903 7.50596 0 7.03904 0H0.996091C0.445647 0 0 0.459284 0 1.02657C0 1.59413 0.445647 2.05314 0.996091 2.05314H6.23958L9.83666 18.7349C8.77831 19.2092 8.03513 20.2949 8.03513 21.5583C8.03513 23.2564 9.37571 24.638 11.0234 24.638H29.0197C29.5704 24.638 30.0158 24.179 30.0158 23.6114C30.0158 23.0441 29.5704 22.5849 29.0197 22.5849H11.0234C10.4748 22.5849 10.0273 22.1248 10.0273 21.5583C10.0273 20.9918 10.4748 20.5317 11.0234 20.5317V20.5317Z" fill="#224344"/>
<path d="M10.0273 27.7177C10.0273 29.4161 11.3679 30.7974 13.0159 30.7974C14.6636 30.7974 16.0041 29.4161 16.0041 27.7177C16.0041 26.0196 14.6636 24.638 13.0159 24.638C11.3679 24.638 10.0273 26.0196 10.0273 27.7177Z" fill="#224344"/>
<path d="M24.0392 27.7177C24.0392 29.4161 25.3798 30.7974 27.0275 30.7974C28.6755 30.7974 30.0158 29.4161 30.0158 27.7177C30.0158 26.0196 28.6755 24.638 27.0275 24.638C25.3798 24.638 24.0392 26.0196 24.0392 27.7177Z" fill="#224344"/>
</svg>
