<svg width="32" height="30" viewBox="0 0 32 30" fill="none" xmlns="http://www.w3.org/2000/svg">
<path d="M31.1403 12.9695C31.1396 12.9688 31.1389 12.9681 31.1381 12.9674L18.0834 0.804421C17.5269 0.285733 16.7871 0 16.0001 0C15.2132 0 14.4734 0.285506 13.9167 0.804194L0.868742 12.9611C0.864347 12.9651 0.859708 12.9695 0.855557 12.9736C-0.287136 14.0444 -0.285182 15.7818 0.861417 16.8498C1.38491 17.3381 2.07638 17.6208 2.81596 17.6504C2.84599 17.6531 2.87651 17.6545 2.90703 17.6545H3.4271V26.6057C3.4271 28.377 4.97413 29.8182 6.87545 29.8182H11.9829H12.9198H13.2754C13.2754 29.8182 13.5932 29.8182 14.4607 29.8182H17.5425C18.41 29.8182 18.8463 29.8182 18.8463 29.8182C18.8463 29.8182 19.4995 29.8182 20.0171 29.8182H25.1246C27.0261 29.8182 28.5729 28.377 28.5729 26.6057V17.6545H29.0554C29.8421 17.6545 30.5819 17.369 31.1389 16.8503C32.2864 15.7804 32.2872 14.0401 31.1403 12.9695Z" fill="#224344"/>
<path d="M31.1403 12.9695C31.1396 12.9688 31.1389 12.9681 31.1381 12.9674L18.0834 0.804421C17.527 0.285733 16.7872 0 16.0002 0H16V29.8182H17.5426C18.4101 29.8182 18.8464 29.8182 18.8464 29.8182C18.8464 29.8182 19.4996 29.8182 20.0172 29.8182H25.1246C27.0262 29.8182 28.573 28.377 28.573 26.6057V17.6545H29.0554C29.8421 17.6545 30.5819 17.369 31.1389 16.8503C32.2864 15.7804 32.2872 14.0401 31.1403 12.9695Z" fill="#224344"/>
</svg>
