<svg width="27" height="27" viewBox="0 0 27 27" fill="none" xmlns="http://www.w3.org/2000/svg">
<circle cx="13.5" cy="13.5" r="13.5" fill="white"/>
<rect x="5.8263" y="5.82642" width="15.7737" height="15.3474" rx="7.67368" fill="white"/>
<path d="M8.71364 5.40002C6.88746 5.40002 5.4 6.88748 5.4 8.71366V18.2864C5.4 20.1126 6.88746 21.6 8.71364 21.6H18.2864C20.1125 21.6 21.6 20.1126 21.6 18.2864V8.71366C21.6 6.88748 20.1125 5.40002 18.2864 5.40002H8.71364ZM18.2864 7.24093H19.3909C19.5934 7.24093 19.7591 7.40662 19.7591 7.60912V8.71366C19.7591 8.91616 19.5934 9.08184 19.3909 9.08184H18.2864C18.0839 9.08184 17.9182 8.91616 17.9182 8.71366V7.60912C17.9182 7.40662 18.0839 7.24093 18.2864 7.24093ZM13.5 7.9773C15.4624 7.9773 17.1891 9.00821 18.1684 10.5546H19.7591V17.9182C19.7591 18.9344 18.9344 19.7591 17.9182 19.7591H9.08182C8.06564 19.7591 7.24091 18.9344 7.24091 17.9182V10.5546H8.83157C9.81094 9.00821 11.5376 7.9773 13.5 7.9773ZM13.5 8.71366C10.8601 8.71366 8.71364 10.8602 8.71364 13.5C8.71364 16.1399 10.8601 18.2864 13.5 18.2864C16.1399 18.2864 18.2864 16.1399 18.2864 13.5C18.2864 10.8602 16.1399 8.71366 13.5 8.71366ZM13.5 10.1864C15.3262 10.1864 16.8136 11.6738 16.8136 13.5C16.8136 15.3262 15.3262 16.8137 13.5 16.8137C11.6738 16.8137 10.1864 15.3262 10.1864 13.5C10.1864 11.6738 11.6738 10.1864 13.5 10.1864Z" fill="#224344"/>
</svg>
