<svg width="60" height="60" viewBox="0 0 51 51" fill="none" xmlns="http://www.w3.org/2000/svg">
<g clip-path="url(#clip0_17:117)">
<path d="M50.916 18.7187C50.6426 17.5077 49.8983 16.5662 48.8203 16.0674C48.2039 15.7823 47.5161 15.6641 46.8055 15.7095C46.7921 15.6883 46.7777 15.6674 46.7619 15.6473C45.5891 14.1387 42.7312 12.571 39.4813 11.6534C34.4012 10.2192 31.2931 11.0673 29.8925 11.7005C25.5533 13.6619 21.0021 14.2474 16.7302 14.5878C16.3189 14.6206 16.012 14.9806 16.0448 15.3919C16.0776 15.8032 16.4377 16.1101 16.8488 16.0772C21.0443 15.7429 25.9482 15.1232 30.508 13.062C32.5756 12.1274 35.6981 12.138 39.0753 13.0913C41.5938 13.8025 43.9615 14.9884 45.153 16.1019C44.9843 16.1712 44.8163 16.2486 44.6499 16.3357C42.825 17.2907 41.5826 19.0971 41.323 21.1708L39.7645 29.8455H34.2322C33.8195 29.8455 33.4851 30.18 33.4851 30.5926C33.4851 31.0052 33.8195 31.3397 34.2322 31.3397H45.1819V33.8205H5.8119V31.3397H31.2439C31.6566 31.3397 31.991 31.0052 31.991 30.5926C31.991 30.18 31.6566 29.8455 31.2439 29.8455H11.2353L9.67679 21.1708C9.5205 19.9223 9.00749 18.7711 8.22602 17.8439C9.3664 16.9545 10.8138 16.4549 12.5383 16.3582C13.0773 16.3279 13.6113 16.2972 14.1405 16.2648C14.5524 16.2397 14.8657 15.8854 14.8406 15.4736C14.8154 15.0618 14.4627 14.7471 14.0494 14.7734C13.5227 14.8056 12.9911 14.8362 12.4546 14.8663C10.3242 14.9859 8.53363 15.6421 7.12201 16.8157C6.87816 16.6384 6.62056 16.4775 6.34981 16.3358C4.93341 15.5946 3.41352 15.4967 2.17961 16.0676C1.1016 16.5662 0.357287 17.5078 0.0838495 18.7189C-0.272666 20.2977 0.514477 21.7486 2.30024 22.8048C3.04445 23.2449 3.81496 23.5354 4.32109 23.6993L4.31771 33.9699C4.31771 34.7115 4.92096 35.3147 5.66248 35.3147H6.82885L7.12669 38.8063C7.19104 39.562 7.81163 40.1321 8.57019 40.1321H10.2414C11 40.1321 11.6205 39.5621 11.6849 38.8064L11.9827 35.3147H39.4799L39.7777 38.8063C39.8421 39.562 40.4626 40.1321 41.2212 40.1321H42.8924C43.6507 40.1321 44.2714 39.5622 44.336 38.8064L44.6337 35.3147H45.3312C46.0727 35.3147 46.676 34.7115 46.676 33.9699L46.6786 23.6993C47.1847 23.5354 47.9552 23.2449 48.6993 22.8048C50.4854 21.7485 51.2725 20.2975 50.916 18.7187ZM1.54129 19.0478C1.71023 18.2998 2.15969 17.723 2.80697 17.4235C3.61633 17.0492 4.65529 17.1352 5.657 17.6596C7.05278 18.39 8.002 19.7782 8.19614 21.373C8.19793 21.387 8.19993 21.4009 8.20242 21.4147L9.71703 29.8454H5.81539V23.1389C5.81539 22.7942 5.57861 22.4939 5.24351 22.4126C5.20107 22.4024 1.01922 21.3599 1.54129 19.0478ZM10.1998 38.6378H8.61203L8.32853 35.3146H10.4833L10.1998 38.6378ZM42.8508 38.6378H41.263L40.9795 35.3146H43.1342L42.8508 38.6378ZM45.7574 22.4124C45.4215 22.4931 45.1846 22.7935 45.1846 23.1389V29.8454H41.2827L42.7972 21.4147C42.7997 21.4009 42.8018 21.3869 42.8036 21.373C42.9978 19.7783 43.947 18.3901 45.3428 17.6596C46.3448 17.1352 47.3838 17.0492 48.1929 17.4235C48.8402 17.723 49.2896 18.2998 49.4586 19.0478C49.9806 21.3599 45.7988 22.4024 45.7574 22.4124Z" fill="#224344"/>
</g>
<defs>
<clipPath id="clip0_17:117">
<rect width="51" height="51" fill="white"/>
</clipPath>
</defs>
</svg>
