<svg width="50" height="50" viewBox="0 0 41 41" fill="none" xmlns="http://www.w3.org/2000/svg">
<g clip-path="url(#clip0_17:95)">
<path d="M40.921 22.3939C40.5528 18.6912 38.8986 15.2004 36.2629 12.5646C34.0104 10.3122 31.2535 8.86478 28.3525 8.22118V6.18652C29.5374 5.89175 30.4181 4.81925 30.4181 3.54446C30.4181 2.04314 29.1967 0.821766 27.6954 0.821766H21.9297C20.4283 0.821766 19.207 2.04314 19.207 3.54446C19.207 4.81917 20.0877 5.89167 21.2724 6.18652V8.22687C18.3804 8.87319 15.6325 10.3186 13.3865 12.5647C12.8949 13.0562 12.4417 13.5718 12.0268 14.1077C12.0067 14.1062 11.9866 14.1047 11.9661 14.1047H6.25956C5.81737 14.1047 5.45877 14.4632 5.45877 14.9055C5.45877 15.3478 5.81737 15.7063 6.25956 15.7063H10.9372C10.35 16.6893 9.87659 17.7216 9.51623 18.7842H0.800794C0.358595 18.7842 0 19.1427 0 19.585C0 20.0273 0.358595 20.3858 0.800794 20.3858H9.0637C8.83291 21.3989 8.70046 22.4299 8.66627 23.4638H5.12508C4.68288 23.4638 4.32429 23.8223 4.32429 24.2646C4.32429 24.7069 4.68288 25.0654 5.12508 25.0654H8.69181C8.7594 26.1019 8.92605 27.133 9.19183 28.1434H4.00397C3.56177 28.1434 3.20317 28.5019 3.20317 28.9442C3.20317 29.3865 3.56177 29.745 4.00397 29.745H9.7029C10.4885 31.8231 11.7162 33.7709 13.3865 35.4412C16.0248 38.0795 19.5191 39.7341 23.2257 40.1003C23.7547 40.1525 24.2841 40.1784 24.8128 40.1784C27.9376 40.1784 31.0227 39.274 33.6405 37.5693C34.0112 37.328 34.116 36.8319 33.8746 36.4613C33.6333 36.0906 33.1372 35.9858 32.7666 36.2272C27.0363 39.9586 19.3621 39.1518 14.519 34.3087C8.83636 28.6261 8.83636 19.3799 14.519 13.6972C20.2015 8.01474 29.4477 8.01474 35.1303 13.6972C39.9671 18.534 40.7783 26.2017 37.0591 31.9292C36.8183 32.3001 36.9237 32.7961 37.2946 33.0369C37.6657 33.2778 38.1615 33.1723 38.4023 32.8014C40.3894 29.7412 41.2839 26.0451 40.921 22.3939ZM20.8085 3.54454C20.8085 2.92633 21.3114 2.42343 21.9297 2.42343H27.6954C28.3136 2.42343 28.8165 2.92633 28.8165 3.54454C28.8165 4.16276 28.3136 4.66566 27.6954 4.66566H27.5517H22.0732H21.9297C21.3114 4.66566 20.8085 4.16268 20.8085 3.54454ZM22.874 7.95155V6.26724H26.7509V7.94867C25.4636 7.79556 24.1611 7.79652 22.874 7.95155Z" fill="#224344"/>
<path d="M35.697 34.0738C35.4856 34.0738 35.2798 34.1595 35.1309 34.3084C34.9811 34.4574 34.8962 34.664 34.8962 34.8746C34.8962 35.0852 34.9811 35.2918 35.1309 35.4407C35.2798 35.5905 35.4856 35.6753 35.697 35.6753C35.9076 35.6753 36.1134 35.5905 36.2631 35.4407C36.4121 35.2918 36.4977 35.0852 36.4977 34.8746C36.4977 34.664 36.4121 34.4574 36.2631 34.3084C36.1134 34.1595 35.9075 34.0738 35.697 34.0738Z" fill="#224344"/>
<path d="M24.8247 11.5802C17.9748 11.5802 12.402 17.1529 12.402 24.0028C12.402 30.8528 17.9748 36.4255 24.8247 36.4255C31.6745 36.4255 37.2473 30.8528 37.2473 24.0028C37.2473 17.1529 31.6745 11.5802 24.8247 11.5802ZM24.8247 34.8239C18.8579 34.8239 14.0036 29.9696 14.0036 24.0028C14.0036 18.0361 18.8579 13.1818 24.8247 13.1818C30.7915 13.1818 35.6457 18.0361 35.6457 24.0028C35.6457 29.9696 30.7915 34.8239 24.8247 34.8239Z" fill="#224344"/>
<path d="M29.8902 17.8049L25.9239 21.7711C25.5922 21.6071 25.2191 21.5145 24.8247 21.5145C24.4302 21.5145 24.0572 21.6071 23.7255 21.7711L21.9504 19.996C21.6376 19.6833 21.1307 19.6833 20.8178 19.996C20.5051 20.3087 20.5051 20.8158 20.8178 21.1285L22.593 22.9036C22.4289 23.2353 22.3363 23.6084 22.3363 24.0028C22.3363 25.3748 23.4525 26.4911 24.8247 26.4911C26.1969 26.4911 27.3131 25.3748 27.3131 24.0028C27.3131 23.6084 27.2204 23.2353 27.0564 22.9036L30.9063 19.0537L31.0227 18.9373C31.3354 18.6246 31.3354 18.1176 31.0227 17.8049C30.71 17.4921 30.2031 17.4921 29.8902 17.8049ZM24.8247 24.8896C24.3357 24.8896 23.9379 24.4918 23.9379 24.0028C23.9379 23.5139 24.3357 23.116 24.8247 23.116C25.3137 23.116 25.7115 23.5139 25.7115 24.0028C25.7115 24.4918 25.3137 24.8896 24.8247 24.8896Z" fill="#224344"/>
<path d="M33.3867 23.2118H32.6447C32.2026 23.2118 31.844 23.5703 31.844 24.0126C31.844 24.4549 32.2026 24.8134 32.6447 24.8134H33.3867C33.8289 24.8134 34.1875 24.4549 34.1875 24.0126C34.1875 23.5703 33.8289 23.2118 33.3867 23.2118Z" fill="#224344"/>
<path d="M17.0045 23.1923H16.2627C15.8205 23.1923 15.4619 23.5508 15.4619 23.9931C15.4619 24.4353 15.8205 24.7938 16.2627 24.7938H17.0045C17.4467 24.7938 17.8053 24.4353 17.8053 23.9931C17.8053 23.5508 17.4467 23.1923 17.0045 23.1923Z" fill="#224344"/>
<path d="M24.8344 16.9834C25.2766 16.9834 25.6352 16.6249 25.6352 16.1827V15.4408C25.6352 14.9985 25.2766 14.64 24.8344 14.64C24.3923 14.64 24.0337 14.9985 24.0337 15.4408V16.1827C24.0337 16.6249 24.3923 16.9834 24.8344 16.9834Z" fill="#224344"/>
<path d="M24.8149 31.0222C24.3727 31.0222 24.0141 31.3807 24.0141 31.823V32.5648C24.0141 33.0071 24.3727 33.3656 24.8149 33.3656C25.2571 33.3656 25.6157 33.0071 25.6157 32.5648V31.823C25.6157 31.3807 25.2571 31.0222 24.8149 31.0222Z" fill="#224344"/>
<path d="M0.800781 28.1431C0.590176 28.1431 0.383574 28.2288 0.234629 28.3777C0.0856836 28.5267 0 28.7333 0 28.9439C0 29.1553 0.0856035 29.3611 0.234629 29.51C0.383654 29.659 0.590176 29.7447 0.800781 29.7447C1.01139 29.7447 1.21799 29.659 1.36685 29.51C1.5158 29.3611 1.60156 29.1545 1.60156 28.9439C1.60156 28.7333 1.51588 28.5267 1.36685 28.3777C1.21799 28.2288 1.01139 28.1431 0.800781 28.1431Z" fill="#224344"/>
</g>
<defs>
<clipPath id="clip0_17:95">
<rect width="41" height="41" fill="white"/>
</clipPath>
</defs>
</svg>
