<svg width="45" height="45" viewBox="0 0 36 36" fill="none" xmlns="http://www.w3.org/2000/svg">
<g clip-path="url(#clip0_17:107)">
<path d="M32.7933 6.21638C27.8402 4.85921 22.8579 2.74598 18.3851 0.105184C18.1475 -0.0350893 17.8527 -0.0350893 17.6152 0.105184C13.0134 2.82184 8.30035 4.82075 3.20657 6.21638C2.87751 6.30645 2.64941 6.60556 2.64941 6.94679V14.6844C2.64941 22.6524 6.32527 27.9267 9.40903 30.9481C12.7289 34.2011 16.5961 36 18.0001 36C19.4041 36 23.2713 34.2011 26.5911 30.9481C29.6748 27.9267 33.3505 22.6525 33.3505 14.6844V6.94672C33.3505 6.60556 33.1224 6.30645 32.7933 6.21638ZM31.8359 14.6843C31.8359 22.1264 28.4074 27.0479 25.5311 29.8662C22.2664 33.065 18.7759 34.4853 18.0001 34.4853C17.2244 34.4853 13.7337 33.065 10.4689 29.8662C7.59265 27.0478 4.16401 22.1264 4.16401 14.6843V7.52159C9.03511 6.13855 13.5715 4.2084 18.0003 1.63476C22.3185 4.14013 27.0812 6.16625 31.8359 7.52131V14.6843Z" fill="#224344"/>
<path d="M11.2878 7.43687C11.1345 7.04769 10.6948 6.85651 10.3056 7.00986C8.95277 7.5429 7.56424 8.03354 6.1786 8.46821C5.86282 8.56735 5.64795 8.85985 5.64795 9.19074V12.1151C5.64795 12.5333 5.98707 12.8724 6.40521 12.8724C6.82336 12.8724 7.16248 12.5333 7.16248 12.1151V9.74417C8.40553 9.34198 9.64725 8.89711 10.8608 8.41892C11.2499 8.26571 11.4411 7.82604 11.2878 7.43687Z" fill="#224344"/>
<path d="M12.7263 7.58051C12.8279 7.58051 12.931 7.56005 13.03 7.51688L13.0439 7.51084C13.427 7.34293 13.5996 6.89694 13.4317 6.51395C13.2636 6.13082 12.8151 5.9575 12.4324 6.12526L12.4201 6.13053C12.0368 6.29795 11.8637 6.74359 12.0311 7.12679C12.1553 7.41127 12.4341 7.58051 12.7263 7.58051Z" fill="#224344"/>
<path d="M27.0226 24.4183C26.6726 24.1896 26.2034 24.2879 25.9744 24.638C25.3503 25.5931 24.6182 26.5078 23.7981 27.3562C23.1237 28.0539 22.3929 28.7041 21.626 29.2887C21.2934 29.5423 21.2295 30.0175 21.4829 30.3501C21.6321 30.5455 21.8576 30.6483 22.0857 30.6483C22.2458 30.6483 22.4072 30.5978 22.5443 30.4931C23.3715 29.8624 24.1597 29.1611 24.8869 28.4089C25.7736 27.4918 26.566 26.5018 27.2423 25.4664C27.4712 25.1163 27.3727 24.647 27.0226 24.4183Z" fill="#224344"/>
<path d="M19.8673 30.4764L19.8238 30.502C19.4619 30.7116 19.3383 31.1748 19.5478 31.5367C19.6882 31.7793 19.9424 31.9147 20.2039 31.9147C20.3325 31.9147 20.4632 31.8819 20.5825 31.8126L20.6326 31.7832C20.9935 31.5718 21.1148 31.1079 20.9034 30.747C20.6919 30.3863 20.228 30.2652 19.8673 30.4764Z" fill="#224344"/>
<path d="M12.8382 16.4544C12.3732 15.9894 11.7548 15.7334 11.0971 15.7334C10.4394 15.7334 9.82097 15.9895 9.35578 16.4544C8.39581 17.4146 8.39581 18.977 9.35578 19.9371L13.8274 24.4085C14.2924 24.8734 14.9108 25.1294 15.5686 25.1294C16.2264 25.1294 16.8448 24.8734 17.3099 24.4084L26.6446 15.0736C27.6045 14.1132 27.6045 12.551 26.6445 11.5912C26.1794 11.1262 25.561 10.8702 24.9032 10.8702C24.2454 10.8702 23.627 11.1262 23.1619 11.5912L15.5685 19.1846L12.8382 16.4544ZM24.2329 12.6622C24.4118 12.4833 24.65 12.3847 24.9033 12.3847C25.1567 12.3847 25.3946 12.4833 25.5737 12.6622C25.9432 13.0317 25.9432 13.6331 25.5735 14.0028L16.2389 23.3374C16.06 23.5164 15.8218 23.6149 15.5686 23.6149C15.3153 23.6149 15.0772 23.5164 14.8982 23.3374L10.4267 18.8661C10.0571 18.4965 10.0571 17.8951 10.4266 17.5256C10.6056 17.3466 10.8437 17.248 11.0971 17.248C11.3504 17.248 11.5884 17.3465 11.7674 17.5254L15.033 20.7912C15.1751 20.9331 15.3676 21.0129 15.5685 21.0129C15.7694 21.0129 15.9619 20.9332 16.1039 20.7912L24.2329 12.6622Z" fill="#224344"/>
</g>
<defs>
<clipPath id="clip0_17:107">
<rect width="36" height="36" fill="white"/>
</clipPath>
</defs>
</svg>
