<svg width="105" height="68" viewBox="0 0 85 48" fill="none" xmlns="http://www.w3.org/2000/svg">
<path d="M21.25 7.96875C21.25 6.5025 20.06 5.3125 18.5938 5.3125H2.65625C1.19 5.3125 0 6.5025 0 7.96875C0 9.435 1.19 10.625 2.65625 10.625H18.5938C20.06 10.625 21.25 9.435 21.25 7.96875Z" fill="#C4C4C4"/>
<path d="M18.5938 15.9375H7.96875C6.5025 15.9375 5.3125 17.1275 5.3125 18.5938C5.3125 20.06 6.5025 21.25 7.96875 21.25H18.5938C20.06 21.25 21.25 20.06 21.25 18.5938C21.25 17.1275 20.06 15.9375 18.5938 15.9375Z" fill="#C4C4C4"/>
<path d="M18.5938 26.5625H13.2813C11.815 26.5625 10.625 27.7525 10.625 29.2188C10.625 30.685 11.815 31.875 13.2813 31.875H18.5938C20.06 31.875 21.25 30.685 21.25 29.2188C21.25 27.7525 20.06 26.5625 18.5938 26.5625Z" fill="#C4C4C4"/>
<path d="M84.6228 25.1972L76.6541 11.9159C76.1759 11.1138 75.31 10.625 74.375 10.625H55.7813C54.315 10.625 53.125 11.815 53.125 13.2813V39.8438C53.125 41.31 54.315 42.5 55.7813 42.5H82.3438C83.81 42.5 85 41.31 85 39.8438V26.5625C85 26.0791 84.8725 25.6063 84.6228 25.1972Z" fill="#00C7CE"/>
<path d="M63.75 15.9375H72.8716L79.2466 26.5625H63.75V15.9375Z" fill="white"/>
<path d="M55.7813 0H18.5938C17.1275 0 15.9375 1.19 15.9375 2.65625V39.8438C15.9375 41.31 17.1275 42.5 18.5938 42.5H58.4375V2.65625C58.4375 1.19 57.2475 0 55.7813 0Z" fill="#224344"/>
<path d="M71.7188 45.1563C74.6528 45.1563 77.0313 42.7778 77.0313 39.8438C77.0313 36.9097 74.6528 34.5312 71.7188 34.5312C68.7847 34.5312 66.4062 36.9097 66.4062 39.8438C66.4062 42.7778 68.7847 45.1563 71.7188 45.1563Z" fill="#FAFAFA"/>
<path d="M71.7188 47.8125C67.3253 47.8125 63.75 44.2372 63.75 39.8438C63.75 35.4503 67.3253 31.875 71.7188 31.875C76.1122 31.875 79.6875 35.4503 79.6875 39.8438C79.6875 44.2372 76.1122 47.8125 71.7188 47.8125ZM71.7188 37.1875C70.2578 37.1875 69.0625 38.3828 69.0625 39.8438C69.0625 41.3047 70.2578 42.5 71.7188 42.5C73.1797 42.5 74.375 41.3047 74.375 39.8438C74.375 38.3828 73.1797 37.1875 71.7188 37.1875Z" fill="#224344"/>
<path d="M58.4375 42.5H18.5938C17.1275 42.5 15.9375 41.31 15.9375 39.8438V31.875H58.4375V42.5Z" fill="#00C7CE"/>
<path d="M34.5313 45.1563C37.4653 45.1563 39.8438 42.7778 39.8438 39.8438C39.8438 36.9097 37.4653 34.5312 34.5313 34.5312C31.5972 34.5312 29.2188 36.9097 29.2188 39.8438C29.2188 42.7778 31.5972 45.1563 34.5313 45.1563Z" fill="#FAFAFA"/>
<path d="M34.5313 47.8125C30.1378 47.8125 26.5625 44.2372 26.5625 39.8438C26.5625 35.4503 30.1378 31.875 34.5313 31.875C38.9247 31.875 42.5 35.4503 42.5 39.8438C42.5 44.2372 38.9247 47.8125 34.5313 47.8125ZM34.5313 37.1875C33.065 37.1875 31.875 38.3828 31.875 39.8438C31.875 41.3047 33.065 42.5 34.5313 42.5C35.9975 42.5 37.1875 41.3047 37.1875 39.8438C37.1875 38.3828 35.9975 37.1875 34.5313 37.1875Z" fill="#224344"/>
</svg>
