<svg width="51" height="27" viewBox="0 0 51 27" fill="none" xmlns="http://www.w3.org/2000/svg">
<rect x="0.00195312" width="50" height="27" fill="#492F66"/>
<path d="M40.502 15.25H38.252V17.5C38.252 17.7761 38.028 18 37.752 18H37.252C36.9759 18 36.752 17.7761 36.752 17.5V15.25H34.502C34.2259 15.25 34.002 15.0261 34.002 14.75V14.25C34.002 13.9739 34.2259 13.75 34.502 13.75H36.752V11.5C36.752 11.2239 36.9759 11 37.252 11H37.752C38.028 11 38.252 11.2239 38.252 11.5V13.75H40.502C40.778 13.75 41.002 13.9739 41.002 14.25V14.75C41.002 15.0261 40.778 15.25 40.502 15.25Z" fill="white"/>
<path d="M23.7266 8.27118V8.26649L27.237 9.83877L30.7614 8.5174L21.3817 5L12.002 8.5174L21.3817 12.0348L24.8921 10.7181L21.3817 9.2713V9.26778L23.7266 8.27118Z" fill="white"/>
<path d="M12.002 9.68995V20.2422L20.7955 23.5403V12.9881L12.002 9.68995ZM16.6918 20.2808L14.3469 19.4015V18.1505L16.6918 19.0298V20.2808Z" fill="white"/>
<path d="M27.2444 11.009V13.946L24.8994 14.8254V11.8883L21.9683 12.9881V23.5403L30.7618 20.2422V9.68995L27.2444 11.009Z" fill="white"/>
</svg>
