<svg width="27" height="27" viewBox="0 0 27 27" fill="none" xmlns="http://www.w3.org/2000/svg">
<path d="M13.5 0C9.91957 0 6.4858 1.42232 3.95406 3.95406C1.42232 6.4858 0 9.91957 0 13.5C0 17.0804 1.42232 20.5142 3.95406 23.0459C6.4858 25.5777 9.91957 27 13.5 27C17.0804 27 20.5142 25.5777 23.0459 23.0459C25.5777 20.5142 27 17.0804 27 13.5C27 9.91957 25.5777 6.4858 23.0459 3.95406C20.5142 1.42232 17.0804 0 13.5 0Z" fill="white"/>
<path d="M15.3275 17.0782H18.8211L19.3696 13.5292H15.3268V11.5894C15.3268 10.1151 15.8085 8.80771 17.1876 8.80771H19.4037V5.71053C19.0144 5.65795 18.1909 5.54285 16.6348 5.54285C13.3856 5.54285 11.4807 7.25877 11.4807 11.1681V13.5292H8.1405V17.0782H11.4807V26.833C12.1422 26.9325 12.8122 27 13.5 27C14.1217 27 14.7285 26.9432 15.3275 26.8622V17.0782Z" fill="#224344"/>
</svg>
