<svg width="27" height="27" viewBox="0 0 27 27" fill="none" xmlns="http://www.w3.org/2000/svg">
<path d="M13.5 1.07996C6.65118 1.07996 1.08 6.65114 1.08 13.5C1.08 20.3488 6.65118 25.92 13.5 25.92C20.3488 25.92 25.92 20.3488 25.92 13.5C25.92 6.65114 20.3488 1.07996 13.5 1.07996ZM19.568 11.0829C19.5734 11.2104 19.5766 11.34 19.5766 11.4701C19.5766 15.4218 16.5672 19.98 11.0651 19.98C9.37602 19.98 7.803 19.4848 6.48 18.6359C6.71382 18.664 6.95088 18.6775 7.19334 18.6775C8.59518 18.6775 9.88524 18.2001 10.908 17.3977C9.59904 17.3739 8.49528 16.5072 8.1135 15.3203C8.29656 15.3554 8.48394 15.3743 8.67726 15.3743C8.94996 15.3743 9.21456 15.3381 9.46458 15.269C8.0973 14.9931 7.06644 13.7856 7.06644 12.3357C7.06644 12.3228 7.06644 12.3103 7.06644 12.2979C7.46982 12.522 7.93044 12.657 8.4213 12.6727C7.61778 12.1354 7.09074 11.2206 7.09074 10.1827C7.09074 9.63464 7.23762 9.1211 7.4952 8.6783C8.97102 10.4878 11.1753 11.6785 13.6609 11.8038C13.6096 11.5846 13.5826 11.3567 13.5826 11.1223C13.5826 9.47048 14.9218 8.13128 16.5742 8.13128C17.4344 8.13128 18.2115 8.49416 18.7569 9.07574C19.4378 8.94182 20.0788 8.69288 20.6566 8.35052C20.4336 9.0482 19.9589 9.63464 19.3406 10.0051C19.9465 9.93164 20.5222 9.7718 21.0595 9.53366C20.6588 10.1336 20.1517 10.6612 19.568 11.0829Z" fill="white"/>
</svg>
