<svg width="52" height="52" viewBox="0 0 52 52" fill="none" xmlns="http://www.w3.org/2000/svg">
<path d="M42.8594 21.4297V18.3828H3.04688V26C3.04688 33.0587 6.77107 39.3515 12.3457 42.8594H33.459C34.828 41.9978 36.1838 40.9709 37.3018 39.8125H41.3359C47.2155 39.8125 52 35.028 52 29.1484V21.4297H42.8594ZM48.9531 29.1484C48.9531 33.3484 45.5359 36.7656 41.3359 36.7656H39.6778C41.6698 33.6834 42.8594 29.9369 42.8594 26V24.4766H48.9531V29.1484Z" fill="#224344"/>
<path d="M16.2569 0L14.5668 2.5351C15.1723 2.9383 15.519 3.58688 15.519 4.31448C15.519 5.04207 15.1723 5.69065 14.5668 6.09385C13.1208 7.05788 12.2579 8.67059 12.2579 10.4082C12.2579 12.1459 13.1208 13.7586 14.5668 14.7226L16.2568 12.1875C15.6513 11.7843 15.3047 11.1357 15.3047 10.4081C15.3047 9.68053 15.6513 9.03195 16.2568 8.62875C17.703 7.66482 18.5658 6.05211 18.5658 4.31437C18.5658 2.57674 17.703 0.964031 16.2569 0Z" fill="#224344"/>
<path d="M23.8741 0L22.184 2.5351C22.7895 2.9383 23.1361 3.58688 23.1361 4.31448C23.1361 5.04207 22.7895 5.69065 22.184 6.09385C20.7379 7.05788 19.8751 8.67059 19.8751 10.4082C19.8751 12.1459 20.7379 13.7586 22.184 14.7226L23.874 12.1875C23.2685 11.7843 22.9218 11.1357 22.9218 10.4081C22.9218 9.68053 23.2685 9.03195 23.874 8.62875C25.3201 7.66482 26.183 6.05211 26.183 4.31437C26.183 2.57674 25.3201 0.964031 23.8741 0Z" fill="#224344"/>
<path d="M31.4913 0L29.8012 2.5351C30.4067 2.9383 30.7533 3.58688 30.7533 4.31448C30.7533 5.04207 30.4067 5.69065 29.8012 6.09385C28.3551 7.05788 27.4922 8.67059 27.4922 10.4082C27.4922 12.1459 28.3551 13.7586 29.8012 14.7226L31.4912 12.1875C30.8856 11.7843 30.539 11.1357 30.539 10.4081C30.539 9.68053 30.8856 9.03195 31.4912 8.62875C32.9373 7.66482 33.8002 6.05211 33.8002 4.31437C33.8002 2.57674 32.9373 0.964031 31.4913 0Z" fill="#224344"/>
<path d="M0 45.9062C0 49.2717 2.72827 52 6.09375 52H39.8125C43.178 52 45.9062 49.2717 45.9062 45.9062H0Z" fill="#224344"/>
</svg>
