<?xml version="1.0" standalone="no"?>
<!DOCTYPE svg PUBLIC "-//W3C//DTD SVG 20010904//EN"
 "http://www.w3.org/TR/2001/REC-SVG-20010904/DTD/svg10.dtd">
<svg version="1.0" xmlns="http://www.w3.org/2000/svg"
 width="60.000000pt" height="60.000000pt" viewBox="0 0 512.000000 512.000000"
 preserveAspectRatio="xMidYMid meet">

<g transform="translate(0.000000,512.000000) scale(0.100000,-0.100000)"
fill="#6628AD" stroke="none">
<path d="M480 4600 l-260 -520 0 -85 0 -85 259 0 259 0 16 73 c9 39 69 312
134 605 l119 532 -134 0 -133 0 -260 -520z"/>
<path d="M1396 5108 c-3 -7 -32 -267 -66 -578 -33 -311 -63 -577 -66 -592 l-6
-28 261 0 261 0 0 605 0 605 -190 0 c-144 0 -192 -3 -194 -12z"/>
<path d="M2300 4515 l0 -605 260 0 260 0 0 605 0 605 -260 0 -260 0 0 -605z"/>
<path d="M3340 4515 l0 -605 261 0 262 0 -6 38 c-3 20 -34 292 -68 605 l-63
567 -193 0 -193 0 0 -605z"/>
<path d="M4232 4588 c65 -293 125 -566 134 -605 l16 -73 259 0 259 0 0 85 0
85 -260 520 -260 520 -133 0 -134 0 119 -532z"/>
<path d="M220 3758 c0 -163 7 -197 55 -267 l35 -51 0 -850 0 -850 85 0 85 0 0
825 0 825 28 0 c38 0 122 42 154 76 57 61 68 104 68 277 l0 157 -255 0 -255 0
0 -142z"/>
<path d="M1260 3762 c0 -165 14 -224 68 -284 117 -130 314 -113 407 33 32 49
45 130 45 271 l0 118 -260 0 -260 0 0 -138z"/>
<path d="M2302 3743 c5 -175 15 -213 71 -272 101 -106 273 -106 374 0 56 59
66 97 71 272 l4 157 -262 0 -262 0 4 -157z"/>
<path d="M3340 3782 c0 -141 13 -222 45 -271 93 -146 290 -163 407 -33 54 60
68 119 68 284 l0 138 -260 0 -260 0 0 -118z"/>
<path d="M4390 3743 c0 -173 11 -216 68 -277 32 -34 116 -76 155 -76 l27 0 0
-825 0 -825 85 0 85 0 0 850 0 850 35 51 c48 70 55 104 55 267 l0 142 -255 0
-255 0 0 -157z"/>
<path d="M3227 3047 l-34 -102 56 0 c31 0 70 -4 86 -8 l31 -8 27 83 c14 45 25
83 24 84 -1 0 -37 13 -79 27 l-77 25 -34 -101z"/>
<path d="M3604 3137 c-7 -21 -64 -191 -64 -193 0 -1 26 -2 58 -2 31 0 69 -5
84 -11 27 -10 27 -10 56 78 l29 88 -79 26 c-56 18 -80 22 -84 14z"/>
<path d="M3920 3044 c-26 -79 -39 -105 -54 -110 -12 -4 -44 -22 -72 -40 -40
-25 -58 -45 -80 -91 -29 -58 -29 -58 -29 -258 l0 -200 260 0 260 0 0 200 c-1
181 -3 204 -22 245 -22 48 -50 82 -97 116 l-29 21 28 82 c15 45 25 84 24 85
-2 2 -38 15 -80 28 l-76 26 -33 -104z"/>
<path d="M840 2251 c-86 -7 -134 -31 -164 -81 -41 -71 -29 -257 25 -367 l30
-63 525 0 524 0 -23 38 c-51 80 -79 241 -59 331 9 38 8 47 -6 58 -40 33 -142
73 -207 83 -144 20 -211 8 -265 -49 l-36 -37 -44 28 c-85 53 -169 69 -300 59z"/>
</g>
</svg>
