<svg width="55" height="55" viewBox="0 0 55 55" fill="none" xmlns="http://www.w3.org/2000/svg">
<path d="M22.5 13.125C26.1187 13.125 29.0625 10.1803 29.0625 6.5625C29.0625 2.94469 26.1187 0 22.5 0C18.8813 0 15.9375 2.94469 15.9375 6.5625C15.9375 10.1803 18.8813 13.125 22.5 13.125ZM18.75 4.6875H20.625V2.8125H24.375V4.6875H26.25V8.4375H24.375V10.3125H20.625V8.4375H18.75V4.6875Z" fill="#224344"/>
<path d="M14.0625 6.5625C14.0625 6.24563 14.0831 5.93344 14.1178 5.625H0.9375C0.420938 5.625 0 6.045 0 6.5625V7.5H14.1178C14.0831 7.19156 14.0625 6.87937 14.0625 6.5625Z" fill="#224344"/>
<path d="M14.5547 9.375H0V12.1875C0 12.705 0.420938 13.125 0.9375 13.125H17.2088C16.0059 12.1537 15.0816 10.8591 14.5547 9.375V9.375Z" fill="#224344"/>
<path d="M45 7.5V6.5625C45 6.045 44.5791 5.625 44.0625 5.625H30.8822C30.9169 5.93344 30.9375 6.24563 30.9375 6.5625C30.9375 6.87937 30.9169 7.19156 30.8822 7.5H45Z" fill="#224344"/>
<path d="M27.7913 13.125H44.0625C44.5791 13.125 45 12.705 45 12.1875V9.375H30.4453C29.9184 10.8591 28.9941 12.1537 27.7913 13.125Z" fill="#224344"/>
<path d="M8.4375 48.75H21.5625V28.125H8.4375V48.75ZM17.8125 35.625H19.6875V39.375H17.8125V35.625Z" fill="#224344"/>
<path d="M47.8106 37.5C47.174 37.5 46.5506 37.7184 46.0547 38.115L42.0994 41.28L45.6131 45.6731L49.5694 42.5081C50.7787 41.5397 50.9756 39.7669 50.009 38.5575C49.4719 37.8853 48.6703 37.5 47.8106 37.5Z" fill="#224344"/>
<path d="M36.6778 45.6169C35.4684 46.5853 35.2716 48.3581 36.2381 49.5675C36.7753 50.2397 37.5759 50.625 38.4366 50.625C39.0731 50.625 39.6966 50.4066 40.1925 50.01L44.1488 46.845L40.635 42.4519L36.6778 45.6169Z" fill="#224344"/>
<path d="M54.3637 51.4838L52.8131 34.4325C52.6809 32.9747 51.4772 31.875 50.0128 31.875H49.6875V27.1875C49.6875 23.5697 46.7437 20.625 43.125 20.625C39.5063 20.625 36.5625 23.5697 36.5625 27.1875V31.875H36.2372C34.7728 31.875 33.5691 32.9747 33.4369 34.4334L31.8863 51.4856C31.8788 51.5644 31.875 51.6441 31.875 51.7256C31.875 53.1862 33.0637 54.375 34.5253 54.375H51.7256C53.1862 54.375 54.375 53.1862 54.375 51.7256C54.375 51.6441 54.3712 51.5644 54.3637 51.4838V51.4838ZM38.4375 27.1875C38.4375 24.6028 40.5403 22.5 43.125 22.5C45.7097 22.5 47.8125 24.6028 47.8125 27.1875V31.875H38.4375V27.1875ZM50.7403 43.9716L41.3634 51.4734C40.5375 52.1353 39.4978 52.5 38.4366 52.5C37.0031 52.5 35.6681 51.8578 34.7737 50.7384C33.1612 48.7228 33.4894 45.7678 35.5059 44.1534L44.8828 36.6516C45.7087 35.9897 46.7484 35.625 47.8106 35.625C49.2441 35.625 50.5791 36.2672 51.4734 37.3866C53.0859 39.4022 52.7569 42.3572 50.7403 43.9716V43.9716Z" fill="#224344"/>
<path d="M4.6875 22.5H36.1144C37.4653 20.4862 39.66 19.0866 42.1875 18.8053V15H2.8125V48.75H6.5625V28.125H4.6875V22.5Z" fill="#224344"/>
<path d="M34.6875 30.2728V28.125H23.4375V48.75H30.2513L31.5684 34.2628C31.74 32.3756 32.9944 30.8606 34.6875 30.2728ZM27.1875 39.375H25.3125V35.625H27.1875V39.375Z" fill="#224344"/>
<path d="M35.1797 24.375H6.5625V26.25H34.7428C34.815 25.5984 34.9669 24.9731 35.1797 24.375Z" fill="#224344"/>
</svg>
