<svg width="52" height="52" viewBox="0 0 52 52" fill="none" xmlns="http://www.w3.org/2000/svg">
<path d="M15.7104 36.1618C14.3354 35.3731 13.4062 33.8913 13.4062 32.1953C13.4062 25.195 19.1013 19.5 26.1016 19.5H31.3332L31.5796 15.4375H1.93604L4.06528 50.5686C4.11407 51.3728 4.78018 52 5.58594 52H14.9337C13.9752 50.7261 13.4062 49.1432 13.4062 47.4297C13.4062 45.4544 14.6663 43.7679 16.4246 43.1311C15.8013 42.1754 15.4375 41.036 15.4375 39.8125C15.4375 38.5878 15.8021 37.4472 16.4265 36.4907C15.9298 36.3788 15.6541 36.2689 15.7104 36.1618V36.1618Z" fill="#224344"/>
<path d="M16.7562 12.391C16.7574 12.391 16.7586 12.3906 16.7598 12.3906H31.9922C32.8336 12.3906 33.5156 11.7086 33.5156 10.8672C33.5156 10.0257 32.8336 9.34375 31.9922 9.34375H19.5702L23.6768 3.04688H28.9453C29.7868 3.04688 30.4688 2.3649 30.4688 1.52344C30.4688 0.681976 29.7868 0 28.9453 0H22.8516C22.3366 0 21.8566 0.259857 21.5757 0.691101L15.9326 9.34375H1.52344C0.681976 9.34375 0 10.0257 0 10.8672C0 11.7086 0.681976 12.3906 1.52344 12.3906H16.7507C16.7527 12.3906 16.7546 12.391 16.7562 12.391Z" fill="#224344"/>
<path d="M16.4531 32.1953C16.4531 33.0368 17.1351 33.7188 17.9766 33.7188H50.4766C51.318 33.7188 52 33.0368 52 32.1953C52 26.8752 47.6717 22.5469 42.3516 22.5469H26.1016C20.7814 22.5469 16.4531 26.8752 16.4531 32.1953Z" fill="#224344"/>
<path d="M21.5312 36.7656C19.8483 36.7656 18.4844 38.1296 18.4844 39.8125C18.4844 41.4954 19.8483 42.8594 21.5312 42.8594H46.9219C48.6048 42.8594 49.9688 41.4954 49.9688 39.8125C49.9688 38.1296 48.6048 36.7656 46.9219 36.7656H21.5312Z" fill="#224344"/>
<path d="M50.4766 45.9062H17.9766C17.1351 45.9062 16.4531 46.5882 16.4531 47.4297C16.4531 49.9497 18.5034 52 21.0234 52H47.4297C49.9497 52 52 49.9497 52 47.4297C52 46.5882 51.318 45.9062 50.4766 45.9062Z" fill="#224344"/>
</svg>
