<svg width="46" height="46" viewBox="0 0 46 46" fill="none" xmlns="http://www.w3.org/2000/svg">
<path d="M25.3918 22.0502C25.9217 21.7792 26.5121 21.6359 27.1245 21.6359C28.1395 21.6359 29.0938 22.0299 29.8132 22.7455L31.3617 21.1971C35.1939 22.5404 39.6261 21.6805 42.6896 18.6171C45.2673 16.0394 46.2839 12.4929 45.7412 9.14985C45.6814 8.7817 45.4208 8.47805 45.066 8.3635C44.7112 8.24878 44.3217 8.342 44.058 8.60579L41.7587 10.9051C39.8863 12.7775 36.8502 12.7775 34.9778 10.9051C33.1052 9.03263 33.1052 5.99657 34.9778 4.12412L37.2771 1.82483C37.5409 1.56104 37.6349 1.17154 37.52 0.816575C37.4053 0.46145 37.1012 0.201423 36.7329 0.141634C33.39 -0.401019 29.8433 0.615552 27.2658 3.19323C24.1567 6.30226 23.32 10.8205 24.7499 14.6911L21.3914 18.0496L25.3918 22.0502Z" fill="#224344"/>
<path d="M19.2716 28.1362L15.288 24.1526L1.35844 38.082C-0.452812 39.8933 -0.452812 42.8299 1.35844 44.6411C3.16968 46.4524 6.10626 46.4524 7.9175 44.6411L19.9257 32.6331C18.7145 31.4155 18.4963 29.5772 19.2716 28.1362Z" fill="#224344"/>
<path d="M28.1562 24.4172C27.8714 24.1324 27.4979 23.9899 27.1246 23.9899C26.7512 23.9899 26.3777 24.1324 26.0929 24.4172L25.2614 25.2487L10.4487 10.4361L11.1411 9.74375C11.7719 9.11306 11.6936 8.06683 10.9746 7.53736L4.93103 3.08645C4.35025 2.65882 3.54427 2.71956 3.03426 3.22957L0.468192 5.79579C-0.0418201 6.3058 -0.102551 7.11193 0.325075 7.69256L4.77583 13.7361C5.3053 14.455 6.35091 14.5341 6.98222 13.9026L7.67458 13.2101L22.4872 28.0227L21.5971 28.9128C21.0273 29.4826 21.0273 30.4063 21.5971 30.9761L35.2621 44.6411C37.0734 46.4524 40.01 46.4524 41.8212 44.6411C43.6325 42.8299 43.6325 39.8933 41.8212 38.0821L28.1562 24.4172Z" fill="#224344"/>
</svg>
