<svg width="62" height="56" viewBox="0 0 62 56" fill="none" xmlns="http://www.w3.org/2000/svg">
<path d="M28 54.6672C42.7276 54.6672 54.6667 42.7281 54.6667 28.0005C54.6667 13.2729 42.7276 1.33386 28 1.33386C13.2724 1.33386 1.33334 13.2729 1.33334 28.0005C1.33334 42.7281 13.2724 54.6672 28 54.6672Z" fill="#224344"/>
<path d="M28 48.0005C39.0457 48.0005 48 39.0462 48 28.0005C48 16.9548 39.0457 8.00049 28 8.00049C16.9543 8.00049 8.00003 16.9548 8.00003 28.0005C8.00003 39.0462 16.9543 48.0005 28 48.0005Z" fill="white"/>
<path d="M30.6667 25.3339V17.3339H25.3333V25.3339V30.6672H30.6667H36V25.3339H30.6667Z" fill="#224344"/>
<path d="M28 54.6672C22.7259 54.6672 17.5701 53.1032 13.1848 50.1731C8.79951 47.2429 5.38157 43.0781 3.36323 38.2054C1.3449 33.3327 0.816809 27.971 1.84575 22.7981C2.87469 17.6253 5.41444 12.8738 9.14384 9.14436C12.8732 5.41496 17.6248 2.87521 22.7976 1.84627C27.9704 0.817328 33.3322 1.34542 38.2049 3.36375C43.0776 5.38209 47.2424 8.80002 50.1725 13.1853C53.1027 17.5706 54.6667 22.7264 54.6667 28.0005H60L52 40.0005L42.6667 28.0005H48C48 24.0449 46.827 20.1781 44.6294 16.8891C42.4318 13.6002 39.3082 11.0367 35.6537 9.52295C31.9992 8.0092 27.9778 7.61313 24.0982 8.38484C20.2186 9.15654 16.6549 11.0614 13.8579 13.8584C11.0608 16.6555 9.15602 20.2191 8.38432 24.0987C7.61261 27.9784 8.00868 31.9997 9.52243 35.6542C11.0362 39.3087 13.5996 42.4323 16.8886 44.6299C20.1776 46.8276 24.0444 48.0005 28 48.0005V54.6672Z" fill="#1DE8F1"/>
<path d="M12.5393 40.6853C9.60426 37.1096 8.00003 32.6266 8.00001 28.0006C8 23.3745 9.6042 18.8916 12.5392 15.3158C14.5066 11.6906 17.2879 8.57117 20.6647 6.20268C24.0415 3.83419 27.9216 2.28122 32 1.66585C28.3716 1.11312 24.6682 1.31574 21.1217 2.26102C17.5753 3.2063 14.2623 4.87386 11.3904 7.15921C8.5185 9.44456 6.14954 12.2984 4.43199 15.542C2.71444 18.7856 1.68532 22.3489 1.40911 26.0088C1.1329 29.6686 1.61556 33.3461 2.82685 36.8107C4.03813 40.2753 5.95194 43.4524 8.44833 46.1429C10.9447 48.8334 13.9699 50.9792 17.3343 52.4461C20.6987 53.9129 24.3298 54.6691 28 54.6672V53.4426C21.3872 51.3559 15.8437 46.7817 12.5393 40.6853Z" fill="#00C7CE"/>
<path d="M61.1758 27.3716C61.0619 27.1588 60.8923 26.981 60.6853 26.8569C60.4782 26.7329 60.2414 26.6673 60 26.6672H55.9688C55.7078 21.1923 53.8457 15.9143 50.6133 11.4877C47.381 7.06115 42.9205 3.68062 37.7849 1.76525C32.6493 -0.150119 27.0645 -0.516076 21.7228 0.71275C16.3812 1.94158 11.5177 4.71114 7.73535 8.67806C3.95297 12.645 1.41805 17.6348 0.444881 23.0289C-0.528287 28.4229 0.103096 33.984 2.26075 39.0226C4.4184 44.0612 8.00743 48.3557 12.5829 51.3737C17.1583 54.3917 22.5189 56.0005 28 56.0005C28.3536 56.0005 28.6928 55.86 28.9428 55.61C29.1929 55.3599 29.3334 55.0208 29.3334 54.6672C29.3334 54.3136 29.1929 53.9744 28.9428 53.7244C28.6928 53.4743 28.3536 53.3338 28 53.3338C22.9896 53.3338 18.0916 51.8481 13.9256 49.0644C9.75953 46.2808 6.5125 42.3242 4.59508 37.6952C2.67765 33.0661 2.17597 27.9724 3.15346 23.0582C4.13095 18.144 6.54372 13.6301 10.0867 10.0871C13.6296 6.54421 18.1435 4.13144 23.0577 3.15395C27.9719 2.17646 33.0656 2.67814 37.6947 4.59556C42.3237 6.51298 46.2803 9.76002 49.0639 13.9261C51.8476 18.0921 53.3334 22.9901 53.3334 28.0005C53.3334 28.3541 53.4738 28.6933 53.7239 28.9433C53.9739 29.1934 54.3131 29.3338 54.6667 29.3338H57.5085L51.9167 37.7218L45.3926 29.3338H48C48.3536 29.3338 48.6928 29.1934 48.9428 28.9433C49.1929 28.6933 49.3334 28.3541 49.3334 28.0005C49.3334 23.7812 48.0822 19.6566 45.738 16.1483C43.3939 12.6401 40.0621 9.90575 36.1639 8.29108C32.2658 6.67641 27.9764 6.25394 23.8381 7.07709C19.6998 7.90025 15.8986 9.93205 12.9151 12.9156C9.93156 15.8991 7.89976 19.7003 7.0766 23.8386C6.25345 27.9769 6.67592 32.2663 8.29059 36.1644C9.90526 40.0626 12.6396 43.3944 16.1479 45.7385C19.6561 48.0827 23.7807 49.3338 28 49.3338C28.3536 49.3338 28.6928 49.1934 28.9428 48.9433C29.1929 48.6933 29.3334 48.3541 29.3334 48.0005V44.0005C29.3334 43.6469 29.1929 43.3078 28.9428 43.0577C28.6928 42.8077 28.3536 42.6672 28 42.6672C27.6464 42.6672 27.3073 42.8077 27.0572 43.0577C26.8072 43.3078 26.6667 43.6469 26.6667 44.0005V46.6203C22.1925 46.2918 17.9859 44.3646 14.8153 41.1908C11.6447 38.0169 9.72186 33.8083 9.39797 29.3338H13.3334C13.687 29.3338 14.0261 29.1934 14.2762 28.9433C14.5262 28.6933 14.6667 28.3541 14.6667 28.0005C14.6667 27.6469 14.5262 27.3078 14.2762 27.0577C14.0261 26.8077 13.687 26.6672 13.3334 26.6672H9.4009C9.72585 22.1956 11.6492 17.9902 14.8195 14.82C17.9898 11.6497 22.1951 9.72634 26.6667 9.40139V13.3338C26.6667 13.6875 26.8072 14.0266 27.0572 14.2767C27.3073 14.5267 27.6464 14.6672 28 14.6672C28.3536 14.6672 28.6928 14.5267 28.9428 14.2767C29.1929 14.0266 29.3334 13.6875 29.3334 13.3338V9.39846C33.8078 9.72235 38.0164 11.6452 41.1903 14.8158C44.3641 17.9864 46.2913 22.193 46.6198 26.6672H42.6667C42.4171 26.6671 42.1725 26.7371 41.9607 26.8693C41.7489 27.0014 41.5785 27.1903 41.4688 27.4145C41.3591 27.6387 41.3146 27.8892 41.3402 28.1375C41.3659 28.3858 41.4607 28.6218 41.614 28.8189L50.9473 40.8189C51.0769 40.9858 51.2444 41.1194 51.4359 41.2088C51.6273 41.2983 51.8373 41.3409 52.0485 41.3332C52.2597 41.3255 52.466 41.2677 52.6505 41.1646C52.8349 41.0615 52.9922 40.916 53.1094 40.7401L61.1094 28.7401C61.2433 28.5393 61.3201 28.306 61.3318 28.065C61.3435 27.824 61.2896 27.5844 61.1758 27.3716Z" fill="black"/>
<path d="M48.2676 43.2023C45.0937 47.4506 40.6611 50.5901 35.6003 52.1743C35.4332 52.2268 35.2781 52.3117 35.1439 52.4241C35.0096 52.5366 34.8988 52.6743 34.8178 52.8296C34.7368 52.9848 34.6872 53.1545 34.6718 53.3289C34.6563 53.5034 34.6754 53.6791 34.7279 53.8462C34.7804 54.0132 34.8653 54.1683 34.9777 54.3026C35.0901 54.4368 35.2279 54.5476 35.3831 54.6286C35.5384 54.7096 35.7081 54.7593 35.8825 54.7747C36.0569 54.7902 36.2327 54.7711 36.3998 54.7186C41.9928 52.9682 46.8914 49.4988 50.3991 44.8039C50.6105 44.5212 50.7012 44.1662 50.6512 43.8167C50.6011 43.4672 50.4145 43.1519 50.1323 42.9398C49.8501 42.7277 49.4952 42.6363 49.1457 42.6855C48.7961 42.7347 48.4803 42.9206 48.2676 43.2024V43.2023Z" fill="black"/>
<path d="M30.6667 16.0005H25.3334C24.9797 16.0005 24.6406 16.141 24.3906 16.391C24.1405 16.6411 24 16.9802 24 17.3338V30.6672C24 31.0208 24.1405 31.3599 24.3906 31.61C24.6406 31.86 24.9797 32.0005 25.3334 32.0005H36C36.3537 32.0005 36.6928 31.86 36.9428 31.61C37.1929 31.3599 37.3334 31.0208 37.3334 30.6672V25.3338C37.3334 24.9802 37.1929 24.6411 36.9428 24.391C36.6928 24.141 36.3537 24.0005 36 24.0005H32V17.3338C32 16.9802 31.8596 16.6411 31.6095 16.391C31.3595 16.141 31.0203 16.0005 30.6667 16.0005ZM34.6667 26.6672V29.3338H26.6667V18.6672H29.3334V25.3338C29.3334 25.6874 29.4738 26.0266 29.7239 26.2766C29.9739 26.5267 30.3131 26.6672 30.6667 26.6672H34.6667Z" fill="black"/>
</svg>
