<svg width="56" height="55" viewBox="0 0 56 55" fill="none" xmlns="http://www.w3.org/2000/svg">
<path d="M51.8619 54H3.13392C1.32592 54 -0.0810816 52.5 0.119918 50.7L3.53592 14.7C3.63592 13.2 4.94292 12 6.54992 12H49.2499C50.8579 12 52.1639 13.2 52.2639 14.8L54.8759 50.8C54.9759 52.5 53.5699 54 51.8619 54Z" fill="#305657"/>
<path d="M3.83691 12H52.0629V16H3.83691V12Z" fill="#224344"/>
<path d="M51.3589 43H4.53992C2.93192 43 1.72692 44.2 1.52592 45.7L1.02392 50.7C0.822922 52.5 2.22892 54 4.03792 54H51.6609C53.4689 54 54.7759 52.5 54.6749 50.7L54.1729 45.7C54.1719 44.2 52.8659 43 51.3589 43Z" fill="#224344"/>
<path d="M16.9999 20C15.8949 20 14.9999 20.895 14.9999 22C14.9999 23.105 15.8949 24 16.9999 24C18.1049 24 18.9999 23.105 18.9999 22C18.9999 20.895 18.1049 20 16.9999 20ZM39.0009 20C37.8909 20 36.9919 20.895 36.9919 22C36.9919 23.105 37.8919 24 39.0009 24C40.1109 24 41.0099 23.105 41.0099 22C41.0099 20.895 40.1109 20 39.0009 20Z" fill="#1DE8F1"/>
<path d="M4.99991 47C4.39991 47 3.99991 47.4 3.99991 48V50C3.99991 50.6 4.39991 51 4.99991 51C5.59991 51 5.99991 50.6 5.99991 50V48C5.99991 47.4 5.59991 47 4.99991 47ZM9.99991 47C9.39991 47 8.99991 47.4 8.99991 48V50C8.99991 50.6 9.39991 51 9.99991 51C10.5999 51 10.9999 50.6 10.9999 50V48C10.9999 47.4 10.5999 47 9.99991 47ZM14.9999 47C14.3999 47 13.9999 47.4 13.9999 48V50C13.9999 50.6 14.3999 51 14.9999 51C15.5999 51 15.9999 50.6 15.9999 50V48C15.9999 47.4 15.5999 47 14.9999 47ZM19.9999 47C19.3999 47 18.9999 47.4 18.9999 48V50C18.9999 50.6 19.3999 51 19.9999 51C20.5999 51 20.9999 50.6 20.9999 50V48C20.9999 47.4 20.5999 47 19.9999 47ZM24.9999 47C24.3999 47 23.9999 47.4 23.9999 48V50C23.9999 50.6 24.3999 51 24.9999 51C25.5999 51 25.9999 50.6 25.9999 50V48C25.9999 47.4 25.5999 47 24.9999 47ZM30.9999 47C30.3999 47 29.9999 47.4 29.9999 48V50C29.9999 50.6 30.3999 51 30.9999 51C31.5999 51 31.9999 50.6 31.9999 50V48C31.9999 47.4 31.5999 47 30.9999 47ZM35.9999 47C35.3999 47 34.9999 47.4 34.9999 48V50C34.9999 50.6 35.3999 51 35.9999 51C36.5999 51 36.9999 50.6 36.9999 50V48C36.9999 47.4 36.5999 47 35.9999 47ZM40.9999 47C40.3999 47 39.9999 47.4 39.9999 48V50C39.9999 50.6 40.3999 51 40.9999 51C41.5999 51 41.9999 50.6 41.9999 50V48C41.9999 47.4 41.5999 47 40.9999 47ZM45.9999 47C45.3999 47 44.9999 47.4 44.9999 48V50C44.9999 50.6 45.3999 51 45.9999 51C46.5999 51 46.9999 50.6 46.9999 50V48C46.9999 47.4 46.5999 47 45.9999 47ZM49.9999 48V50C49.9999 50.6 50.3999 51 50.9999 51C51.5999 51 51.9999 50.6 51.9999 50V48C51.9999 47.4 51.5999 47 50.9999 47C50.3999 47 49.9999 47.4 49.9999 48Z" fill="black"/>
<path d="M55.9809 51.7L53.1679 13.8C53.0679 12.2 51.7609 11 50.1539 11H5.7459C4.1379 11 2.8319 12.2 2.7319 13.8L0.0188997 51.8C-0.0811003 52.6 0.2199 53.4 0.8229 54C1.4259 54.6 2.2299 55 3.0329 55H52.9669C53.7709 55 54.5749 54.7 55.1769 54C55.7799 53.3 56.0809 52.6 55.9809 51.7ZM53.6699 52.7C53.4689 52.9 53.1679 53 52.9669 53H2.9329C2.6319 53 2.4309 52.9 2.2299 52.7C2.0289 52.5 1.9289 52.2 1.9289 51.9L4.4399 17H39.0019C39.6049 17 40.0069 16.6 40.0069 16C40.0069 15.4 39.6049 15 39.0019 15H4.6409L4.7409 13.9C4.7409 13.4 5.2429 13 5.7459 13H50.2539C50.7559 13 51.2589 13.4 51.2589 13.9L53.9719 51.9C53.9719 52.2 53.8709 52.5 53.6699 52.7Z" fill="black"/>
<path d="M47.0389 15H43.0199C42.4169 15 42.0149 15.4 42.0149 16C42.0149 16.6 42.4169 17 43.0199 17H47.0389C47.6419 17 48.0439 16.6 48.0439 16C48.0439 15.4 47.6419 15 47.0389 15Z" fill="black"/>
<path d="M16.9999 25C15.3459 25 13.9999 23.654 13.9999 22C13.9999 20.346 15.3459 19 16.9999 19C18.6539 19 19.9999 20.346 19.9999 22C19.9999 23.654 18.6539 25 16.9999 25ZM16.9999 21C16.4489 21 15.9999 21.448 15.9999 22C15.9999 22.552 16.4489 23 16.9999 23C17.5509 23 17.9999 22.552 17.9999 22C17.9999 21.448 17.5509 21 16.9999 21Z" fill="black"/>
<path d="M38.9999 25C37.3459 25 35.9999 23.654 35.9999 22C35.9999 20.346 37.3459 19 38.9999 19C40.6539 19 41.9999 20.346 41.9999 22C41.9999 23.654 40.6539 25 38.9999 25ZM38.9999 21C38.4489 21 37.9999 21.448 37.9999 22C37.9999 22.552 38.4489 23 38.9999 23C39.5509 23 39.9999 22.552 39.9999 22C39.9999 21.448 39.5509 21 38.9999 21Z" fill="black"/>
<path d="M38.9999 21C38.4479 21 37.9999 20.553 37.9999 20V12C37.9999 6.486 33.5139 2 27.9999 2C22.4859 2 17.9999 6.486 17.9999 12V20C17.9999 20.553 17.5519 21 16.9999 21C16.4479 21 15.9999 20.553 15.9999 20V12C15.9999 5.383 21.3829 0 27.9999 0C34.6169 0 39.9999 5.383 39.9999 12V20C39.9999 20.553 39.5519 21 38.9999 21Z" fill="black"/>
<path d="M21.9999 30.921C21.9999 27.651 24.6859 25 27.9999 25C31.3139 25 33.9999 27.651 33.9999 30.921C33.9999 35.179 28.6649 38.779 27.9999 44C27.3349 38.752 21.9999 35.151 21.9999 30.921Z" fill="#00C7CE"/>
<path d="M27.9999 45C27.4959 45 27.0709 44.625 27.0079 44.126C26.7049 41.733 25.2859 39.646 23.9139 37.627C22.4159 35.422 20.9999 33.339 20.9999 30.921C20.9999 27.104 24.1399 24 27.9999 24C31.8599 24 34.9999 27.104 34.9999 30.921C34.9999 33.359 33.5779 35.451 32.0729 37.667C30.7069 39.677 29.2939 41.756 28.9919 44.126C28.9279 44.626 28.5029 45 27.9999 45ZM27.9999 26C25.2429 26 22.9999 28.207 22.9999 30.921C22.9999 32.724 24.2479 34.56 25.5679 36.503C26.4119 37.745 27.3229 39.085 28.0029 40.562C28.6799 39.102 29.5819 37.775 30.4189 36.543C31.7459 34.589 32.9999 32.744 32.9999 30.921C32.9999 28.207 30.7569 26 27.9999 26Z" fill="black"/>
<path d="M27.9999 29C26.8949 29 25.9999 29.895 25.9999 31C25.9999 32.105 26.8949 33 27.9999 33C29.1049 33 29.9999 32.105 29.9999 31C29.9999 29.895 29.1049 29 27.9999 29Z" fill="black"/>
<path d="M16.9999 25C15.3459 25 13.9999 23.654 13.9999 22C13.9999 20.346 15.3459 19 16.9999 19C18.6539 19 19.9999 20.346 19.9999 22C19.9999 23.654 18.6539 25 16.9999 25ZM16.9999 21C16.4489 21 15.9999 21.448 15.9999 22C15.9999 22.552 16.4489 23 16.9999 23C17.5509 23 17.9999 22.552 17.9999 22C17.9999 21.448 17.5509 21 16.9999 21Z" fill="black"/>
<path d="M51.8619 54H3.13392C1.32592 54 -0.0810816 52.5 0.119918 50.7L3.53592 14.7C3.63592 13.2 4.94292 12 6.54992 12H49.2499C50.8579 12 52.1639 13.2 52.2639 14.8L54.8759 50.8C54.9759 52.5 53.5699 54 51.8619 54Z" fill="#305657"/>
<path d="M3.83691 12H52.0629V16H3.83691V12Z" fill="#224344"/>
<path d="M51.3589 43H4.53992C2.93192 43 1.72692 44.2 1.52592 45.7L1.02392 50.7C0.822922 52.5 2.22892 54 4.03792 54H51.6609C53.4689 54 54.7759 52.5 54.6749 50.7L54.1729 45.7C54.1719 44.2 52.8659 43 51.3589 43Z" fill="#224344"/>
<path d="M16.9999 20C15.8949 20 14.9999 20.895 14.9999 22C14.9999 23.105 15.8949 24 16.9999 24C18.1049 24 18.9999 23.105 18.9999 22C18.9999 20.895 18.1049 20 16.9999 20ZM39.0009 20C37.8909 20 36.9919 20.895 36.9919 22C36.9919 23.105 37.8919 24 39.0009 24C40.1109 24 41.0099 23.105 41.0099 22C41.0099 20.895 40.1109 20 39.0009 20Z" fill="#1DE8F1"/>
<path d="M4.99991 47C4.39991 47 3.99991 47.4 3.99991 48V50C3.99991 50.6 4.39991 51 4.99991 51C5.59991 51 5.99991 50.6 5.99991 50V48C5.99991 47.4 5.59991 47 4.99991 47ZM9.99991 47C9.39991 47 8.99991 47.4 8.99991 48V50C8.99991 50.6 9.39991 51 9.99991 51C10.5999 51 10.9999 50.6 10.9999 50V48C10.9999 47.4 10.5999 47 9.99991 47ZM14.9999 47C14.3999 47 13.9999 47.4 13.9999 48V50C13.9999 50.6 14.3999 51 14.9999 51C15.5999 51 15.9999 50.6 15.9999 50V48C15.9999 47.4 15.5999 47 14.9999 47ZM19.9999 47C19.3999 47 18.9999 47.4 18.9999 48V50C18.9999 50.6 19.3999 51 19.9999 51C20.5999 51 20.9999 50.6 20.9999 50V48C20.9999 47.4 20.5999 47 19.9999 47ZM24.9999 47C24.3999 47 23.9999 47.4 23.9999 48V50C23.9999 50.6 24.3999 51 24.9999 51C25.5999 51 25.9999 50.6 25.9999 50V48C25.9999 47.4 25.5999 47 24.9999 47ZM30.9999 47C30.3999 47 29.9999 47.4 29.9999 48V50C29.9999 50.6 30.3999 51 30.9999 51C31.5999 51 31.9999 50.6 31.9999 50V48C31.9999 47.4 31.5999 47 30.9999 47ZM35.9999 47C35.3999 47 34.9999 47.4 34.9999 48V50C34.9999 50.6 35.3999 51 35.9999 51C36.5999 51 36.9999 50.6 36.9999 50V48C36.9999 47.4 36.5999 47 35.9999 47ZM40.9999 47C40.3999 47 39.9999 47.4 39.9999 48V50C39.9999 50.6 40.3999 51 40.9999 51C41.5999 51 41.9999 50.6 41.9999 50V48C41.9999 47.4 41.5999 47 40.9999 47ZM45.9999 47C45.3999 47 44.9999 47.4 44.9999 48V50C44.9999 50.6 45.3999 51 45.9999 51C46.5999 51 46.9999 50.6 46.9999 50V48C46.9999 47.4 46.5999 47 45.9999 47ZM49.9999 48V50C49.9999 50.6 50.3999 51 50.9999 51C51.5999 51 51.9999 50.6 51.9999 50V48C51.9999 47.4 51.5999 47 50.9999 47C50.3999 47 49.9999 47.4 49.9999 48Z" fill="black"/>
<path d="M55.9809 51.7L53.1679 13.8C53.0679 12.2 51.7609 11 50.1539 11H5.7459C4.1379 11 2.8319 12.2 2.7319 13.8L0.0188997 51.8C-0.0811003 52.6 0.2199 53.4 0.8229 54C1.4259 54.6 2.2299 55 3.0329 55H52.9669C53.7709 55 54.5749 54.7 55.1769 54C55.7799 53.3 56.0809 52.6 55.9809 51.7ZM53.6699 52.7C53.4689 52.9 53.1679 53 52.9669 53H2.9329C2.6319 53 2.4309 52.9 2.2299 52.7C2.0289 52.5 1.9289 52.2 1.9289 51.9L4.4399 17H39.0019C39.6049 17 40.0069 16.6 40.0069 16C40.0069 15.4 39.6049 15 39.0019 15H4.6409L4.7409 13.9C4.7409 13.4 5.2429 13 5.7459 13H50.2539C50.7559 13 51.2589 13.4 51.2589 13.9L53.9719 51.9C53.9719 52.2 53.8709 52.5 53.6699 52.7Z" fill="black"/>
<path d="M47.0389 15H43.0199C42.4169 15 42.0149 15.4 42.0149 16C42.0149 16.6 42.4169 17 43.0199 17H47.0389C47.6419 17 48.0439 16.6 48.0439 16C48.0439 15.4 47.6419 15 47.0389 15Z" fill="black"/>
<path d="M16.9999 25C15.3459 25 13.9999 23.654 13.9999 22C13.9999 20.346 15.3459 19 16.9999 19C18.6539 19 19.9999 20.346 19.9999 22C19.9999 23.654 18.6539 25 16.9999 25ZM16.9999 21C16.4489 21 15.9999 21.448 15.9999 22C15.9999 22.552 16.4489 23 16.9999 23C17.5509 23 17.9999 22.552 17.9999 22C17.9999 21.448 17.5509 21 16.9999 21Z" fill="black"/>
<path d="M38.9999 25C37.3459 25 35.9999 23.654 35.9999 22C35.9999 20.346 37.3459 19 38.9999 19C40.6539 19 41.9999 20.346 41.9999 22C41.9999 23.654 40.6539 25 38.9999 25ZM38.9999 21C38.4489 21 37.9999 21.448 37.9999 22C37.9999 22.552 38.4489 23 38.9999 23C39.5509 23 39.9999 22.552 39.9999 22C39.9999 21.448 39.5509 21 38.9999 21Z" fill="black"/>
<path d="M38.9999 21C38.4479 21 37.9999 20.553 37.9999 20V12C37.9999 6.486 33.5139 2 27.9999 2C22.4859 2 17.9999 6.486 17.9999 12V20C17.9999 20.553 17.5519 21 16.9999 21C16.4479 21 15.9999 20.553 15.9999 20V12C15.9999 5.383 21.3829 0 27.9999 0C34.6169 0 39.9999 5.383 39.9999 12V20C39.9999 20.553 39.5519 21 38.9999 21Z" fill="black"/>
<path d="M21.9999 30.921C21.9999 27.651 24.6859 25 27.9999 25C31.3139 25 33.9999 27.651 33.9999 30.921C33.9999 35.179 28.6649 38.779 27.9999 44C27.3349 38.752 21.9999 35.151 21.9999 30.921Z" fill="#00C7CE"/>
<path d="M27.9999 45C27.4959 45 27.0709 44.625 27.0079 44.126C26.7049 41.733 25.2859 39.646 23.9139 37.627C22.4159 35.422 20.9999 33.339 20.9999 30.921C20.9999 27.104 24.1399 24 27.9999 24C31.8599 24 34.9999 27.104 34.9999 30.921C34.9999 33.359 33.5779 35.451 32.0729 37.667C30.7069 39.677 29.2939 41.756 28.9919 44.126C28.9279 44.626 28.5029 45 27.9999 45ZM27.9999 26C25.2429 26 22.9999 28.207 22.9999 30.921C22.9999 32.724 24.2479 34.56 25.5679 36.503C26.4119 37.745 27.3229 39.085 28.0029 40.562C28.6799 39.102 29.5819 37.775 30.4189 36.543C31.7459 34.589 32.9999 32.744 32.9999 30.921C32.9999 28.207 30.7569 26 27.9999 26Z" fill="black"/>
<path d="M27.9999 29C26.8949 29 25.9999 29.895 25.9999 31C25.9999 32.105 26.8949 33 27.9999 33C29.1049 33 29.9999 32.105 29.9999 31C29.9999 29.895 29.1049 29 27.9999 29Z" fill="black"/>
<path d="M16.9999 25C15.3459 25 13.9999 23.654 13.9999 22C13.9999 20.346 15.3459 19 16.9999 19C18.6539 19 19.9999 20.346 19.9999 22C19.9999 23.654 18.6539 25 16.9999 25ZM16.9999 21C16.4489 21 15.9999 21.448 15.9999 22C15.9999 22.552 16.4489 23 16.9999 23C17.5509 23 17.9999 22.552 17.9999 22C17.9999 21.448 17.5509 21 16.9999 21Z" fill="black"/>
</svg>
