<svg width="66" height="66" viewBox="0 0 66 66" fill="none" xmlns="http://www.w3.org/2000/svg">
<path d="M30.871 7.45167H18.0968C16.9258 7.45167 15.9677 8.40974 15.9677 9.5807V11.7097H9.58064H5.32257V7.45167C5.32257 3.92812 8.18612 1.06458 11.7097 1.06458H24.4839C28.0074 1.06458 30.871 3.92812 30.871 7.45167Z" fill="#00C7CE"/>
<path d="M35.129 9.58057V10.6451C35.129 11.2306 34.65 11.7096 34.0645 11.7096H30.871H26.6129H15.9677V9.58057C15.9677 8.4096 16.9258 7.45154 18.0968 7.45154H30.871H33C34.171 7.45154 35.129 8.4096 35.129 9.58057Z" fill="#009EA4"/>
<path d="M9.58064 11.7096V15.9677H8.51612C7.65386 15.9677 6.87676 16.3083 6.30193 16.8619C5.65257 15.5099 5.32257 14.0196 5.32257 12.5186V11.7096H9.58064Z" fill="#656D78"/>
<path d="M30.871 11.7096V12.5186C30.871 14.0196 30.541 15.5099 29.8916 16.8619C29.3168 16.3083 28.5397 15.9677 27.6774 15.9677H26.6129V11.7096H30.871Z" fill="#656D78"/>
<path d="M35.129 41.7291V48.9678C35.129 47.2007 33.7026 45.7743 31.9355 45.7743H30.871V38.3226C30.871 37.7372 30.3919 37.2581 29.8064 37.2581H23.4193L24.4413 31.052L25.3674 31.1265C30.8816 31.5843 35.129 36.1936 35.129 41.7291Z" fill="#00C7CE"/>
<path d="M4.25806 45.7743C2.49097 45.7743 1.06451 47.2007 1.06451 48.9678V41.7291C1.06451 36.1936 5.31193 31.5843 10.8261 31.1265L11.7523 31.052L12.7742 37.2581H6.3871C5.80161 37.2581 5.32258 37.7372 5.32258 38.3226V45.7743H4.25806Z" fill="#00C7CE"/>
<path d="M23.4194 37.2581H22.3548H18.0968H13.8387H12.7742L18.0968 33L23.4194 37.2581Z" fill="#00C7CE"/>
<path d="M22.3548 30.8712L24.4413 31.0522L23.4194 37.2583L18.0968 33.0002L22.3548 30.8712Z" fill="#1DE8F1"/>
<path d="M18.0968 33.0002L12.7742 37.2583L11.7523 31.0522L13.8387 30.8712L18.0968 33.0002Z" fill="#1DE8F1"/>
<path d="M30.871 45.7743V38.3227C30.871 37.7372 30.3919 37.2582 29.8064 37.2582H6.38709C5.8016 37.2582 5.32257 37.7372 5.32257 38.3227V45.7743C6.49354 45.7743 7.4516 46.7324 7.4516 47.9033V52.1614C7.4516 53.3324 6.49354 54.2904 5.32257 54.2904V59.613C5.32257 60.1985 5.8016 60.6775 6.38709 60.6775H24.6648H24.6755C24.8245 60.2198 25.0906 59.8153 25.4206 59.4853C25.9955 58.9104 26.7939 58.5485 27.6774 58.5485H28.7419L28.9548 58.1333C29.3487 57.3456 30.0513 56.7708 30.871 56.5366V54.2904C29.7 54.2904 28.7419 53.3324 28.7419 52.1614V47.9033C28.7419 46.7324 29.7 45.7743 30.871 45.7743V45.7743Z" fill="#224344"/>
<path d="M13.8387 37.2582H22.3548V43.6453H13.8387V37.2582Z" fill="#315859"/>
<path d="M48.9358 55.323C47.6903 57.2604 45.5187 58.5485 43.049 58.5485H39.3871V57.2391C39.3871 50.3198 43.6026 44.0924 50.0322 41.5162H56.4193C59.1019 43.5282 60.6774 46.6791 60.6774 50.0324C60.6774 50.9585 60.5922 51.8633 60.4326 52.7362C59.879 55.7595 58.3993 58.474 56.3129 60.5711C55.951 60.9224 55.5784 61.263 55.1845 61.5717L48.9358 55.323Z" fill="white"/>
<path d="M52.0655 18.7354C51.959 19.0654 51.7781 19.3635 51.5332 19.5977C51.15 19.9915 50.6177 20.2257 50.0322 20.2257H41.5161H40.4516C39.2806 20.2257 38.3226 19.2677 38.3226 18.0967C38.3226 16.3296 39.0358 14.7328 40.1961 13.5831C41.3458 12.4228 42.9426 11.7096 44.7097 11.7096H53.2258C58.5164 11.7096 62.8064 15.9996 62.8064 21.2902V26.3893C62.8064 27.2302 63.0513 28.0499 63.5197 28.7525L63.8071 29.1677C64.5416 30.2748 64.9355 31.5841 64.9355 32.9148V33.0851C64.9355 34.4157 64.5416 35.7251 63.8071 36.8322C63.1577 37.8009 62.8064 38.9506 62.8064 40.1215C62.8064 41.037 63.0193 41.9419 63.4345 42.7722L64.3713 44.6564C64.7439 45.3909 64.9355 46.1999 64.9355 47.0302C64.9355 47.967 64.6906 48.8612 64.2435 49.6383C63.8071 50.426 63.1577 51.0967 62.3593 51.5757L60.4326 52.736C60.5922 51.8631 60.6774 50.9583 60.6774 50.0322C60.6774 46.679 59.1019 43.528 56.4193 41.516L55.1739 39.6531C54.599 38.7802 54.2903 37.769 54.2903 36.7257C54.2903 35.6825 54.599 34.6712 55.1739 33.7983L55.5358 33.266C56.1106 32.3931 56.4193 31.3819 56.4193 30.3386C56.4193 29.2954 56.1106 28.2841 55.5358 27.4112L55.0035 26.6235C54.5351 25.9209 54.2903 25.1012 54.2903 24.2602V22.5038C54.2903 21.0773 53.5771 19.7467 52.3955 18.9589L52.0655 18.7354Z" fill="#684411"/>
<path d="M41.5161 20.2259H50.0322C50.6177 20.2259 51.15 19.9917 51.5332 19.5979C51.7781 19.3637 51.959 19.0656 52.0655 18.7356L52.3955 18.9591C53.5771 19.7469 54.2903 21.0775 54.2903 22.504V24.2604C54.2903 25.1014 54.5351 25.9211 55.0035 26.6237L55.5358 27.4114C56.1106 28.2843 56.4193 29.2956 56.4193 30.3388C56.4193 31.382 56.1106 32.3933 55.5358 33.2662L55.1739 33.7985C54.599 34.6714 54.2903 35.6827 54.2903 36.7259C54.2903 37.7691 54.599 38.7804 55.1739 39.6533L56.4193 41.5162H50.0322V37.2582H45.7742C43.4216 37.2582 41.5161 35.3527 41.5161 33.0001V30.4666C41.5161 30.062 41.2926 29.6895 40.9306 29.5085L40.6645 29.3808C39.8768 28.9869 39.3871 28.1885 39.3871 27.3156C39.3871 26.8579 39.5255 26.4108 39.7703 26.0275L41.1542 23.9517C41.3884 23.6111 41.5161 23.1959 41.5161 22.7701V20.2259Z" fill="#F0D0B4"/>
<path d="M48.9358 55.3228L55.1845 61.5715C52.619 63.6792 49.3403 64.9353 45.7742 64.9353H27.6774C25.9103 64.9353 24.4839 63.5089 24.4839 61.7418C24.4839 61.3692 24.5478 61.0073 24.6755 60.6773C24.8245 60.2195 25.0907 59.815 25.4207 59.485C25.9955 58.9102 26.7939 58.5482 27.6774 58.5482H28.742L28.9549 58.1331C29.3487 57.3453 30.0513 56.7705 30.871 56.5363C31.1478 56.4618 31.4245 56.4192 31.7226 56.4192C32.5423 56.4192 33.33 56.7492 33.9049 57.324L35.129 58.5482H39.3871H43.049C45.5187 58.5482 47.6903 57.2602 48.9358 55.3228Z" fill="#F0D0B4"/>
<path d="M35.129 48.9677V51.0968C35.129 52.8638 33.7026 54.2903 31.9355 54.2903H30.871C29.7 54.2903 28.7419 53.3322 28.7419 52.1613V47.9032C28.7419 46.7322 29.7 45.7742 30.871 45.7742H31.9355C33.7026 45.7742 35.129 47.2006 35.129 48.9677Z" fill="#F0D0B4"/>
<path d="M7.45161 52.1613C7.45161 53.3322 6.49355 54.2903 5.32258 54.2903H4.25806C2.49097 54.2903 1.06451 52.8638 1.06451 51.0968V48.9677C1.06451 47.2006 2.49097 45.7742 4.25806 45.7742H5.32258C6.49355 45.7742 7.45161 46.7322 7.45161 47.9032V52.1613Z" fill="#F0D0B4"/>
<path d="M29.8916 16.8621C30.4984 17.4369 30.871 18.2566 30.871 19.1614C30.871 20.045 30.509 20.8434 29.9342 21.4182C29.3594 21.9931 28.561 22.355 27.6774 22.355H26.6129V15.9679H27.6774C28.5397 15.9679 29.3168 16.3085 29.8916 16.8621Z" fill="#F0D0B4"/>
<path d="M20.2258 28.742C20.6942 28.742 21.1626 28.6888 21.599 28.593L22.3548 30.8711L18.0968 33.0001L13.8387 30.8711L14.5945 28.593C15.031 28.6888 15.4994 28.742 15.9677 28.742H20.2258Z" fill="#F0D0B4"/>
<path d="M9.58066 11.7096H15.9678H26.6129V15.9677V22.3548C26.6129 25.4099 24.4626 27.9648 21.599 28.5928C21.1626 28.6886 20.6942 28.7419 20.2258 28.7419H15.9678C15.4994 28.7419 15.031 28.6886 14.5945 28.5928C11.731 27.9648 9.58066 25.4099 9.58066 22.3548V15.9677V11.7096Z" fill="#F0D0B4"/>
<path d="M9.58064 15.9679V22.355H8.51612C7.63257 22.355 6.83418 21.9931 6.25935 21.4182C5.68451 20.8434 5.32257 20.045 5.32257 19.1614C5.32257 18.2566 5.69515 17.4369 6.30193 16.8621C6.87676 16.3085 7.65386 15.9679 8.51612 15.9679H9.58064Z" fill="#F0D0B4"/>
<path d="M22.3548 17.0324C22.9427 17.0324 23.4193 16.5558 23.4193 15.9678C23.4193 15.3799 22.9427 14.9033 22.3548 14.9033C21.7669 14.9033 21.2903 15.3799 21.2903 15.9678C21.2903 16.5558 21.7669 17.0324 22.3548 17.0324Z" fill="black"/>
<path d="M13.8387 17.0324C14.4266 17.0324 14.9032 16.5558 14.9032 15.9678C14.9032 15.3799 14.4266 14.9033 13.8387 14.9033C13.2508 14.9033 12.7742 15.3799 12.7742 15.9678C12.7742 16.5558 13.2508 17.0324 13.8387 17.0324Z" fill="black"/>
<path d="M23.4194 21.2904H21.2903C21.2903 22.4646 20.3355 23.4194 19.1613 23.4194H14.9032V25.5485H19.1613C21.5096 25.5485 23.4194 23.6387 23.4194 21.2904Z" fill="black"/>
<path d="M21.2903 55.3547H23.4193V57.4838H21.2903V55.3547Z" fill="black"/>
<path d="M17.0323 55.3547H19.1613V57.4838H17.0323V55.3547Z" fill="black"/>
<path d="M45.7742 25.5483C46.3621 25.5483 46.8387 25.0717 46.8387 24.4838C46.8387 23.8959 46.3621 23.4193 45.7742 23.4193C45.1863 23.4193 44.7097 23.8959 44.7097 24.4838C44.7097 25.0717 45.1863 25.5483 45.7742 25.5483Z" fill="black"/>
<path d="M66 33.0852V32.9148C66 31.367 65.5465 29.8693 64.6875 28.5801L64.4075 28.1596C64.0562 27.6327 63.871 27.0206 63.871 26.3883V21.2903C63.871 15.4206 59.0956 10.6452 53.2258 10.6452H44.7097C40.6006 10.6452 37.2581 13.9888 37.2581 18.0968C37.2581 19.8575 38.6909 21.2903 40.4516 21.2903V22.7753C40.4516 22.9861 40.3899 23.1905 40.2728 23.3661L38.89 25.4409C38.5185 25.9965 38.3226 26.6438 38.3226 27.3123C38.3226 28.5993 39.0379 29.7575 40.1897 30.3334L40.4516 30.4643V33C40.4516 35.9349 42.8393 38.3226 45.7742 38.3226H48.9677V40.8242C42.4806 43.7239 38.3226 50.0823 38.3226 57.239V57.4839H35.5697L34.6585 56.5737C33.9251 55.8392 32.9627 55.4294 31.9355 55.3761V55.3548C34.2838 55.3548 36.1936 53.4451 36.1936 51.0968V48.9677V41.7301C36.1936 35.6879 31.4767 30.5633 25.4568 30.0619L23.1436 29.8693L22.9488 29.2848C25.3951 28.3204 27.2069 26.0998 27.5933 23.4204H27.6774C30.0257 23.4204 31.9355 21.5107 31.9355 19.1624C31.9355 18.2298 31.6257 17.374 31.1158 16.6725C31.6119 15.4334 31.8908 14.107 31.9216 12.7753H34.0645C35.2387 12.7753 36.1936 11.8204 36.1936 10.6462V9.58171C36.1936 7.821 34.7607 6.38816 33 6.38816H31.8599C31.3415 2.78052 28.232 0 24.4839 0H11.7097C7.60065 0 4.25806 3.34365 4.25806 7.45161V11.7097V12.523V12.7742H4.2719C4.30277 14.1059 4.58168 15.4323 5.07774 16.6714C4.56784 17.3729 4.25806 18.2288 4.25806 19.1613C4.25806 21.5096 6.16781 23.4194 8.51613 23.4194H8.60129C8.98771 26.0987 10.7995 28.3193 13.2458 29.2838L13.051 29.8682L10.7378 30.0609C4.71687 30.5633 0 35.6879 0 41.7301V48.9677V51.0968C0 53.4451 1.90974 55.3548 4.25806 55.3548V59.6129C4.25806 60.7871 5.21294 61.7419 6.3871 61.7419H23.4194C23.4194 64.0903 25.3291 66 27.6774 66H45.7742C53.4196 66 59.8194 60.5976 61.3747 53.41L62.9055 52.4902C64.8141 51.3469 66 49.2541 66 47.0271C66 46.0435 65.7669 45.0578 65.3272 44.1774L64.3841 42.2922C64.0487 41.6205 63.871 40.8678 63.871 40.1174C63.871 39.154 64.1531 38.2215 64.6875 37.4209C65.5465 36.1307 66 34.633 66 33.0852V33.0852ZM45.7742 36.1936C44.3882 36.1936 43.2172 35.3004 42.7765 34.0645H44.4585C46.332 34.0645 48.0171 33.0224 48.8549 31.3468L46.9505 30.3941C46.4757 31.3447 45.5208 31.9355 44.4585 31.9355H42.5806V30.4643C42.5806 29.651 42.1293 28.9218 41.4033 28.5599L41.1414 28.429C40.7167 28.2161 40.4516 27.7881 40.4516 27.3123C40.4516 27.0664 40.524 26.8269 40.6613 26.6214L42.0441 24.5477C42.3954 24.0208 42.5806 23.4087 42.5806 22.7753V21.2903H50.0323C50.9371 21.2903 51.7504 20.9082 52.3316 20.3025C52.8958 20.8901 53.2258 21.6714 53.2258 22.5049V24.2593C53.2258 25.3131 53.5356 26.334 54.12 27.2112L54.648 28.0032C55.1111 28.6972 55.3548 29.5052 55.3548 30.3387C55.3548 31.1722 55.1111 31.9802 54.648 32.6732L54.2903 33.2097C53.5941 34.2529 53.2258 35.4697 53.2258 36.7258C53.2258 37.9819 53.5941 39.1976 54.2903 40.2419L54.4308 40.4516H51.0968V36.1936H45.7742ZM34.0645 51.0968C34.0645 52.2709 33.1096 53.2258 31.9355 53.2258H30.871C30.2844 53.2258 29.8065 52.7489 29.8065 52.1613V47.9032C29.8065 47.3156 30.2844 46.8387 30.871 46.8387H31.9355C33.1096 46.8387 34.0645 47.7936 34.0645 48.9677V51.0968ZM25.3344 32.1899C30.2333 32.6274 34.0645 36.8056 34.0645 41.7301V45.3016C33.4354 44.9354 32.7147 44.7097 31.9355 44.7097V38.3226C31.9355 37.1484 30.9806 36.1936 29.8065 36.1936H24.6744L25.3344 32.1899ZM23.2054 32.01L22.6646 35.2908L20.0608 33.2086L22.5646 31.9568L23.2054 32.01ZM15.8091 36.1936L18.0968 34.3636L20.3844 36.1936H15.8091ZM17.0323 38.3226V42.5806H14.9032V38.3226H17.0323ZM15.1406 30.3313L15.3269 29.7735C15.5387 29.7926 15.7516 29.8065 15.9677 29.8065H20.2258C20.4419 29.8065 20.6548 29.7926 20.8666 29.7735L21.0529 30.3313L18.0968 31.8099L15.1406 30.3313ZM19.1613 38.3226H21.2903V42.5806H19.1613V38.3226ZM27.6774 21.2903V17.0323C28.8516 17.0323 29.8065 17.9871 29.8065 19.1613C29.8065 20.3355 28.8516 21.2903 27.6774 21.2903ZM27.6774 14.9032V12.7742H29.7926C29.7681 13.6162 29.6265 14.454 29.3711 15.2588C28.8505 15.032 28.2799 14.9032 27.6774 14.9032ZM33 8.51613C33.5866 8.51613 34.0645 8.99303 34.0645 9.58065V10.6452H17.0323V9.58065C17.0323 8.99303 17.5102 8.51613 18.0968 8.51613H33ZM8.51613 21.2903C7.34197 21.2903 6.3871 20.3355 6.3871 19.1613C6.3871 17.9871 7.34197 17.0323 8.51613 17.0323V21.2903ZM8.51613 14.9032C7.91361 14.9032 7.34303 15.032 6.82355 15.2588C6.56806 14.454 6.42542 13.6162 6.40094 12.7742H8.51613V14.9032ZM6.3871 10.6452V7.45161C6.3871 4.51674 8.77481 2.12903 11.7097 2.12903H24.4839C27.0547 2.12903 29.205 3.96106 29.6989 6.3871H18.0968C16.3361 6.3871 14.9032 7.81994 14.9032 9.58065V10.6452H6.3871ZM10.6452 22.3548V12.7742H25.5484V22.3548C25.5484 25.2897 23.1607 27.6774 20.2258 27.6774H15.9677C13.0329 27.6774 10.6452 25.2897 10.6452 22.3548ZM13.6279 31.9568L16.1317 33.2086L13.5279 35.2908L12.9871 32.01L13.6279 31.9568ZM2.12903 41.7301C2.12903 36.8056 5.96023 32.6274 10.8591 32.1899L11.5191 36.1936H6.3871C5.21294 36.1936 4.25806 37.1484 4.25806 38.3226V44.7097C3.47884 44.7097 2.75816 44.9354 2.12903 45.3016V41.7301ZM5.32258 53.2258H4.25806C3.0839 53.2258 2.12903 52.2709 2.12903 51.0968V48.9677C2.12903 47.7936 3.0839 46.8387 4.25806 46.8387H5.32258C5.90913 46.8387 6.3871 47.3156 6.3871 47.9032V52.1613C6.3871 52.7489 5.90913 53.2258 5.32258 53.2258ZM24.0112 59.6129H6.3871V55.159C7.623 54.7183 8.51613 53.5473 8.51613 52.1613V47.9032C8.51613 46.5172 7.623 45.3463 6.3871 44.9055V38.3226H12.7742V44.7097H23.4194V38.3226H29.8065V44.9055C28.5705 45.3463 27.6774 46.5172 27.6774 47.9032V52.1613C27.6774 53.5473 28.5705 54.7183 29.8065 55.159V55.8264C29.0964 56.1937 28.4939 56.7579 28.0894 57.4839H27.6774C26.1083 57.4839 24.75 58.3461 24.0112 59.6129V59.6129ZM45.7742 63.871H27.6774C26.5033 63.871 25.5484 62.9161 25.5484 61.7419C25.5484 60.5678 26.5033 59.6129 27.6774 59.6129H29.3998L29.9033 58.6059C30.2493 57.9129 30.9444 57.4839 31.7183 57.4839C32.2516 57.4839 32.7754 57.701 33.1533 58.0789L34.6883 59.6129H43.0448C45.4229 59.6129 47.5573 58.5697 49.0327 56.925L53.5665 61.4588C51.3448 62.9789 48.6622 63.871 45.7742 63.871ZM55.2282 60.11L50.2505 55.1324C50.787 54.054 51.0968 52.8436 51.0968 51.5609C51.0968 49.6288 52.057 47.834 53.6676 46.7599L53.8187 46.6588L52.635 44.8896L52.486 44.9896C50.2824 46.4576 48.9677 48.9135 48.9677 51.5609C48.9677 54.8268 46.3107 57.4839 43.0448 57.4839H40.4516V57.2401C40.4516 50.7806 44.2871 45.0493 50.2409 42.5806H56.0542C58.2886 44.3882 59.6129 47.1485 59.6129 50.0323C59.6129 54.0061 57.9193 57.5839 55.2282 60.11V60.11ZM63.871 33.0852C63.871 34.2114 63.541 35.3015 62.9161 36.2393C62.1475 37.3901 61.7419 38.7314 61.7419 40.1174C61.7419 41.1978 61.9974 42.2783 62.4796 43.2449L63.4228 45.1302C63.7156 45.7156 63.871 46.3725 63.871 47.0271C63.871 48.51 63.0811 49.9035 61.8101 50.6656L61.7057 50.7285C61.7164 50.4953 61.7419 50.2675 61.7419 50.0323C61.7419 46.4406 60.0526 43.0128 57.2263 40.8072L56.0627 39.0614C55.5986 38.3673 55.3548 37.5593 55.3548 36.7258C55.3548 35.8923 55.5986 35.0843 56.0617 34.3913L56.4194 33.8548C57.1156 32.8116 57.4839 31.5948 57.4839 30.3387C57.4839 29.0826 57.1156 27.8669 56.4194 26.8226L55.8914 26.0306C55.5401 25.5037 55.3548 24.8916 55.3548 24.2593V22.5049C55.3548 20.8177 54.5543 19.2507 53.2109 18.2479C53.213 18.1968 53.2258 18.1489 53.2258 18.0968C53.2258 16.3361 51.793 14.9032 50.0323 14.9032H48.9677V17.0323H50.0323C50.6188 17.0323 51.0968 17.5092 51.0968 18.0968C51.0968 18.6844 50.6188 19.1613 50.0323 19.1613H40.4516C39.8651 19.1613 39.3871 18.6844 39.3871 18.0968C39.3871 15.1619 41.7748 12.7742 44.7097 12.7742H53.2258C57.9214 12.7742 61.7419 16.5947 61.7419 21.2903V26.3883C61.7419 27.4422 62.0517 28.463 62.6361 29.3402L62.9161 29.7607C63.541 30.6985 63.871 31.7886 63.871 32.9148V33.0852Z" fill="black"/>
</svg>
