<svg width="60" height="54" viewBox="0 0 60 54" fill="none" xmlns="http://www.w3.org/2000/svg">
<path d="M59 24H1V53H59V24Z" fill="#FAFAFA"/>
<path d="M19 47C15.8174 47 12.7652 45.7357 10.5147 43.4853C8.26428 41.2348 7 38.1826 7 35H52V24H1V53H59V47H19Z" fill="#E5E5E5"/>
<path d="M30 35C32.1217 35 34.1566 35.8429 35.6569 37.3431C37.1571 38.8434 38 40.8783 38 43V53H22V43C22 40.8783 22.8429 38.8434 24.3431 37.3431C25.8434 35.8429 27.8783 35 30 35V35Z" fill="#00C7CE"/>
<path d="M49 37C50.0609 37 51.0783 37.4214 51.8284 38.1716C52.5786 38.9217 53 39.9391 53 41V47H45V41C45 39.9391 45.4214 38.9217 46.1716 38.1716C46.9217 37.4214 47.9391 37 49 37V37Z" fill="#00C7CE"/>
<path d="M11 37C12.0609 37 13.0783 37.4214 13.8284 38.1716C14.5786 38.9217 15 39.9391 15 41V47H7V41C7 39.9391 7.42143 38.9217 8.17157 38.1716C8.92172 37.4214 9.93913 37 11 37V37Z" fill="#00C7CE"/>
<path d="M53 1H7V31H53V1Z" fill="#305657"/>
<path d="M13 9V1H7V31H53V25H29C24.7565 25 20.6869 23.3143 17.6863 20.3137C14.6857 17.3131 13 13.2435 13 9V9Z" fill="#224344"/>
<path d="M20 9H28V11C28 12.0609 27.5786 13.0783 26.8284 13.8284C26.0783 14.5786 25.0609 15 24 15C22.9391 15 21.9217 14.5786 21.1716 13.8284C20.4214 13.0783 20 12.0609 20 11V9Z" fill="#1DE8F1"/>
<path d="M24 27C23.7443 26.9994 23.4916 26.946 23.2574 26.8433C23.0233 26.7406 22.8129 26.5907 22.6393 26.403C22.4657 26.2153 22.3326 25.9939 22.2485 25.7525C22.1643 25.5111 22.1307 25.2549 22.15 25L23 14H25L25.85 25C25.8692 25.2549 25.8357 25.5111 25.7515 25.7525C25.6673 25.9939 25.5343 26.2153 25.3607 26.403C25.1871 26.5907 24.9767 26.7406 24.7425 26.8433C24.5084 26.946 24.2556 26.9994 24 27Z" fill="#1DE8F1"/>
<path d="M23.15 25L23.85 16C23.5112 15.9893 23.1752 15.9355 22.85 15.84L22.15 25C22.1307 25.255 22.1643 25.5111 22.2485 25.7525C22.3326 25.9939 22.4657 26.2154 22.6393 26.403C22.8129 26.5907 23.0233 26.7406 23.2574 26.8433C23.4916 26.946 23.7443 26.9994 24 27C24.1697 26.9986 24.3383 26.9717 24.5 26.92C24.0866 26.8072 23.7256 26.5537 23.4791 26.2032C23.2327 25.8527 23.1163 25.4272 23.15 25V25Z" fill="#00C7CE"/>
<path d="M26 14C24.9391 14 23.9217 13.5786 23.1716 12.8284C22.4214 12.0783 22 11.0609 22 10V9H20V11C20.0023 11.7761 20.2304 12.5348 20.6564 13.1835C21.0825 13.8323 21.688 14.3431 22.3993 14.6537C23.1106 14.9643 23.8968 15.0612 24.6622 14.9327C25.4276 14.8042 26.1391 14.4558 26.71 13.93C26.4758 13.9736 26.2382 13.997 26 14V14Z" fill="#00C7CE"/>
<path d="M37 27C36.7443 26.9994 36.4916 26.946 36.2574 26.8433C36.0233 26.7406 35.8129 26.5907 35.6393 26.403C35.4657 26.2153 35.3326 25.9939 35.2485 25.7525C35.1643 25.5111 35.1307 25.2549 35.15 25L36 14H38L38.85 25C38.8692 25.2549 38.8357 25.5111 38.7515 25.7525C38.6673 25.9939 38.5343 26.2153 38.3607 26.403C38.1871 26.5907 37.9767 26.7406 37.7425 26.8433C37.5084 26.946 37.2556 26.9994 37 27Z" fill="#1DE8F1"/>
<path d="M41 9C41 6.79086 39.2091 5 37 5C34.7909 5 33 6.79086 33 9V11C33 13.2091 34.7909 15 37 15C39.2091 15 41 13.2091 41 11V9Z" fill="#1DE8F1"/>
<path d="M39 12C37.9391 12 36.9217 11.5786 36.1716 10.8285C35.4214 10.0783 35 9.0609 35 8.00003V6.00003C34.9902 5.84352 34.9902 5.68654 35 5.53003C34.3911 5.8816 33.8856 6.38748 33.5344 6.99669C33.1833 7.60589 32.999 8.29688 33 9.00003V11C32.9377 12.0609 33.2993 13.1031 34.0054 13.8973C34.7115 14.6915 35.7041 15.1727 36.765 15.235C37.8259 15.2974 38.868 14.9357 39.6623 14.2296C40.4565 13.5236 40.9377 12.5309 41 11.47C40.3926 11.8222 39.702 12.0052 39 12V12Z" fill="#00C7CE"/>
<path d="M36.15 25L36.85 16C36.5112 15.9893 36.1752 15.9355 35.85 15.84L35.15 25C35.1307 25.255 35.1643 25.5111 35.2485 25.7525C35.3326 25.9939 35.4657 26.2154 35.6393 26.403C35.8129 26.5907 36.0233 26.7406 36.2574 26.8433C36.4916 26.946 36.7443 26.9994 37 27C37.1697 26.9986 37.3383 26.9717 37.5 26.92C37.0866 26.8072 36.7256 26.5537 36.4791 26.2032C36.2327 25.8527 36.1163 25.4272 36.15 25Z" fill="#00C7CE"/>
<path d="M59 24H53V18L59 20V24Z" fill="#00C7CE"/>
<path d="M1 24H7V18L1 20V24Z" fill="#00C7CE"/>
<path d="M49 37C50.0609 37 51.0783 37.4214 51.8284 38.1716C52.5786 38.9217 53 39.9391 53 41V45C51.9391 45 50.9217 44.5786 50.1716 43.8284C49.4214 43.0783 49 42.0609 49 41V37Z" fill="#1DE8F1"/>
<path d="M11 37C12.0609 37 13.0783 37.4214 13.8284 38.1716C14.5786 38.9217 15 39.9391 15 41V45C13.9391 45 12.9217 44.5786 12.1716 43.8284C11.4214 43.0783 11 42.0609 11 41V37Z" fill="#1DE8F1"/>
<path d="M30 35C32.1217 35 34.1566 35.8429 35.6569 37.3431C37.1571 38.8434 38 40.8783 38 43V50C35.8783 50 33.8434 49.1571 32.3431 47.6569C30.8429 46.1566 30 44.1217 30 42V35Z" fill="#1DE8F1"/>
<path d="M29 11V5C29 4.73478 28.8946 4.48043 28.7071 4.29289C28.5196 4.10536 28.2652 4 28 4C27.7348 4 27.4804 4.10536 27.2929 4.29289C27.1054 4.48043 27 4.73478 27 5V8H25V5C25 4.73478 24.8946 4.48043 24.7071 4.29289C24.5196 4.10536 24.2652 4 24 4C23.7348 4 23.4804 4.10536 23.2929 4.29289C23.1054 4.48043 23 4.73478 23 5V8H21V5C21 4.73478 20.8946 4.48043 20.7071 4.29289C20.5196 4.10536 20.2652 4 20 4C19.7348 4 19.4804 4.10536 19.2929 4.29289C19.1054 4.48043 19 4.73478 19 5V11C19.0035 11.9474 19.276 12.8742 19.7859 13.6727C20.2958 14.4712 21.022 15.1083 21.88 15.51L21.16 24.93C21.127 25.323 21.1759 25.7186 21.3036 26.0917C21.4314 26.4648 21.6352 26.8073 21.9021 27.0976C22.169 27.3879 22.4933 27.6197 22.8544 27.7782C23.2155 27.9367 23.6056 28.0185 24 28.0185C24.3944 28.0185 24.7845 27.9367 25.1456 27.7782C25.5067 27.6197 25.831 27.3879 26.0979 27.0976C26.3648 26.8073 26.5686 26.4648 26.6964 26.0917C26.8241 25.7186 26.873 25.323 26.84 24.93L26.12 15.51C26.978 15.1083 27.7042 14.4712 28.2141 13.6727C28.724 12.8742 28.9965 11.9474 29 11V11ZM27 11C26.9975 11.6543 26.7812 12.2898 26.384 12.8097C25.9869 13.3297 25.4306 13.7055 24.8 13.88C24.5837 13.9405 24.3941 14.072 24.2616 14.2534C24.1292 14.4348 24.0617 14.6556 24.07 14.88L24.85 25.04C24.8599 25.1576 24.8455 25.2761 24.8076 25.3879C24.7698 25.4997 24.7093 25.6026 24.63 25.69C24.5473 25.7728 24.4491 25.8386 24.341 25.8834C24.2329 25.9283 24.117 25.9514 24 25.9514C23.883 25.9514 23.7671 25.9283 23.659 25.8834C23.5509 25.8386 23.4527 25.7728 23.37 25.69C23.2907 25.6026 23.2302 25.4997 23.1924 25.3879C23.1545 25.2761 23.1401 25.1576 23.15 25.04L23.93 14.88C23.9383 14.6556 23.8708 14.4348 23.7384 14.2534C23.6059 14.072 23.4163 13.9405 23.2 13.88C22.5694 13.7055 22.0131 13.3297 21.616 12.8097C21.2188 12.2898 21.0025 11.6543 21 11V10H27V11Z" fill="black"/>
<path d="M42 11V9C42 7.67392 41.4732 6.40215 40.5355 5.46447C39.5979 4.52678 38.3261 4 37 4C35.6739 4 34.4021 4.52678 33.4645 5.46447C32.5268 6.40215 32 7.67392 32 9V11C32.0035 11.9474 32.276 12.8742 32.7859 13.6727C33.2958 14.4712 34.022 15.1083 34.88 15.51L34.16 24.93C34.127 25.323 34.1759 25.7186 34.3036 26.0917C34.4314 26.4648 34.6352 26.8073 34.9021 27.0976C35.169 27.3879 35.4933 27.6197 35.8544 27.7782C36.2155 27.9367 36.6056 28.0185 37 28.0185C37.3944 28.0185 37.7845 27.9367 38.1456 27.7782C38.5067 27.6197 38.831 27.3879 39.0979 27.0976C39.3648 26.8073 39.5686 26.4648 39.6964 26.0917C39.8241 25.7186 39.873 25.323 39.84 24.93L39.12 15.51C39.978 15.1083 40.7042 14.4712 41.2141 13.6727C41.724 12.8742 41.9965 11.9474 42 11ZM40 11C39.9975 11.6543 39.7812 12.2898 39.384 12.8097C38.9869 13.3297 38.4306 13.7055 37.8 13.88C37.5837 13.9405 37.3941 14.072 37.2616 14.2534C37.1292 14.4348 37.0617 14.6556 37.07 14.88L37.85 25.04C37.8599 25.1576 37.8455 25.2761 37.8076 25.3879C37.7698 25.4997 37.7093 25.6026 37.63 25.69C37.5473 25.7728 37.4491 25.8386 37.341 25.8834C37.2329 25.9283 37.117 25.9514 37 25.9514C36.883 25.9514 36.7671 25.9283 36.659 25.8834C36.5509 25.8386 36.4527 25.7728 36.37 25.69C36.2907 25.6026 36.2302 25.4997 36.1924 25.3879C36.1545 25.2761 36.1401 25.1576 36.15 25.04L36.93 14.88C36.9383 14.6556 36.8708 14.4348 36.7384 14.2534C36.6059 14.072 36.4163 13.9405 36.2 13.88C35.5694 13.7055 35.0131 13.3297 34.616 12.8097C34.2188 12.2898 34.0025 11.6543 34 11V9C34 8.20435 34.3161 7.44129 34.8787 6.87868C35.4413 6.31607 36.2044 6 37 6C37.7956 6 38.5587 6.31607 39.1213 6.87868C39.6839 7.44129 40 8.20435 40 9V11Z" fill="black"/>
<path d="M7 12C7.26522 12 7.51957 11.8946 7.70711 11.7071C7.89464 11.5196 8 11.2652 8 11V2H52V8C52 8.26522 52.1054 8.51957 52.2929 8.70711C52.4804 8.89464 52.7348 9 53 9C53.2652 9 53.5196 8.89464 53.7071 8.70711C53.8946 8.51957 54 8.26522 54 8V1C54 0.734784 53.8946 0.48043 53.7071 0.292893C53.5196 0.105357 53.2652 0 53 0H7C6.73478 0 6.48043 0.105357 6.29289 0.292893C6.10536 0.48043 6 0.734784 6 1V11C6 11.2652 6.10536 11.5196 6.29289 11.7071C6.48043 11.8946 6.73478 12 7 12Z" fill="black"/>
<path d="M48 7C48.5523 7 49 6.55228 49 6C49 5.44772 48.5523 5 48 5C47.4477 5 47 5.44772 47 6C47 6.55228 47.4477 7 48 7Z" fill="black"/>
<path d="M48 11C48.5523 11 49 10.5523 49 10C49 9.44772 48.5523 9 48 9C47.4477 9 47 9.44772 47 10C47 10.5523 47.4477 11 48 11Z" fill="black"/>
<path d="M48 15C48.5523 15 49 14.5523 49 14C49 13.4477 48.5523 13 48 13C47.4477 13 47 13.4477 47 14C47 14.5523 47.4477 15 48 15Z" fill="black"/>
<path d="M48 19C48.5523 19 49 18.5523 49 18C49 17.4477 48.5523 17 48 17C47.4477 17 47 17.4477 47 18C47 18.5523 47.4477 19 48 19Z" fill="black"/>
<path d="M48 23C48.5523 23 49 22.5523 49 22C49 21.4477 48.5523 21 48 21C47.4477 21 47 21.4477 47 22C47 22.5523 47.4477 23 48 23Z" fill="black"/>
<path d="M48 27C48.5523 27 49 26.5523 49 26C49 25.4477 48.5523 25 48 25C47.4477 25 47 25.4477 47 26C47 26.5523 47.4477 27 48 27Z" fill="black"/>
<path d="M12 7C12.5523 7 13 6.55228 13 6C13 5.44772 12.5523 5 12 5C11.4477 5 11 5.44772 11 6C11 6.55228 11.4477 7 12 7Z" fill="black"/>
<path d="M12 11C12.5523 11 13 10.5523 13 10C13 9.44772 12.5523 9 12 9C11.4477 9 11 9.44772 11 10C11 10.5523 11.4477 11 12 11Z" fill="black"/>
<path d="M12 15C12.5523 15 13 14.5523 13 14C13 13.4477 12.5523 13 12 13C11.4477 13 11 13.4477 11 14C11 14.5523 11.4477 15 12 15Z" fill="black"/>
<path d="M12 19C12.5523 19 13 18.5523 13 18C13 17.4477 12.5523 17 12 17C11.4477 17 11 17.4477 11 18C11 18.5523 11.4477 19 12 19Z" fill="black"/>
<path d="M12 23C12.5523 23 13 22.5523 13 22C13 21.4477 12.5523 21 12 21C11.4477 21 11 21.4477 11 22C11 22.5523 11.4477 23 12 23Z" fill="black"/>
<path d="M12 27C12.5523 27 13 26.5523 13 26C13 25.4477 12.5523 25 12 25C11.4477 25 11 25.4477 11 26C11 26.5523 11.4477 27 12 27Z" fill="black"/>
<path d="M59.32 19.05L54 17.28V12C54 11.7348 53.8946 11.4804 53.7071 11.2929C53.5196 11.1054 53.2652 11 53 11C52.7348 11 52.4804 11.1054 52.2929 11.2929C52.1054 11.4804 52 11.7348 52 12V30H8V15C8 14.7348 7.89465 14.4804 7.70711 14.2929C7.51957 14.1054 7.26522 14 7 14C6.73479 14 6.48043 14.1054 6.2929 14.2929C6.10536 14.4804 6 14.7348 6 15V17.28L0.680003 19.05C0.481382 19.1171 0.308868 19.2449 0.186845 19.4154C0.0648223 19.5858 -0.000537828 19.7904 3.33354e-06 20V53C3.33354e-06 53.2652 0.10536 53.5196 0.292897 53.7071C0.480433 53.8946 0.734787 54 1 54H59C59.2652 54 59.5196 53.8946 59.7071 53.7071C59.8946 53.5196 60 53.2652 60 53V20C60.0005 19.7904 59.9352 19.5858 59.8132 19.4154C59.6911 19.2449 59.5186 19.1171 59.32 19.05ZM58 20.72V23H54V19.39L58 20.72ZM2 20.72L6 19.39V23H2V20.72ZM31 52V39C31 38.7348 30.8946 38.4804 30.7071 38.2929C30.5196 38.1054 30.2652 38 30 38C29.7348 38 29.4804 38.1054 29.2929 38.2929C29.1054 38.4804 29 38.7348 29 39V52H23V43C23 41.1435 23.7375 39.363 25.0503 38.0503C26.363 36.7375 28.1435 36 30 36C31.8565 36 33.637 36.7375 34.9498 38.0503C36.2625 39.363 37 41.1435 37 43V52H31ZM58 52H39V43C39 40.6131 38.0518 38.3239 36.364 36.636C34.6761 34.9482 32.387 34 30 34C27.6131 34 25.3239 34.9482 23.636 36.636C21.9482 38.3239 21 40.6131 21 43V52H2V25H6V31C6 31.2652 6.10536 31.5196 6.2929 31.7071C6.48043 31.8946 6.73479 32 7 32H53C53.2652 32 53.5196 31.8946 53.7071 31.7071C53.8946 31.5196 54 31.2652 54 31V25H58V52Z" fill="black"/>
<path d="M46 46V41C46 40.2044 46.3161 39.4413 46.8787 38.8787C47.4413 38.3161 48.2044 38 49 38C49.7956 38 50.5587 38.3161 51.1213 38.8787C51.6839 39.4413 52 40.2044 52 41V43C52 43.2652 52.1054 43.5196 52.2929 43.7071C52.4804 43.8946 52.7348 44 53 44C53.2652 44 53.5196 43.8946 53.7071 43.7071C53.8946 43.5196 54 43.2652 54 43V41C54 39.6739 53.4732 38.4021 52.5355 37.4645C51.5979 36.5268 50.3261 36 49 36C47.6739 36 46.4021 36.5268 45.4645 37.4645C44.5268 38.4021 44 39.6739 44 41V46H43C42.7348 46 42.4804 46.1054 42.2929 46.2929C42.1054 46.4804 42 46.7348 42 47C42 47.2652 42.1054 47.5196 42.2929 47.7071C42.4804 47.8946 42.7348 48 43 48H55C55.2652 48 55.5196 47.8946 55.7071 47.7071C55.8946 47.5196 56 47.2652 56 47C56 46.7348 55.8946 46.4804 55.7071 46.2929C55.5196 46.1054 55.2652 46 55 46H46Z" fill="black"/>
<path d="M17 46H8V41C8 40.2044 8.31607 39.4413 8.87868 38.8787C9.44129 38.3161 10.2044 38 11 38C11.7956 38 12.5587 38.3161 13.1213 38.8787C13.6839 39.4413 14 40.2044 14 41V43C14 43.2652 14.1054 43.5196 14.2929 43.7071C14.4804 43.8946 14.7348 44 15 44C15.2652 44 15.5196 43.8946 15.7071 43.7071C15.8946 43.5196 16 43.2652 16 43V41C16 39.6739 15.4732 38.4021 14.5355 37.4645C13.5979 36.5268 12.3261 36 11 36C9.67392 36 8.40215 36.5268 7.46447 37.4645C6.52678 38.4021 6 39.6739 6 41V46H5C4.73478 46 4.48043 46.1054 4.29289 46.2929C4.10536 46.4804 4 46.7348 4 47C4 47.2652 4.10536 47.5196 4.29289 47.7071C4.48043 47.8946 4.73478 48 5 48H17C17.2652 48 17.5196 47.8946 17.7071 47.7071C17.8946 47.5196 18 47.2652 18 47C18 46.7348 17.8946 46.4804 17.7071 46.2929C17.5196 46.1054 17.2652 46 17 46Z" fill="black"/>
</svg>
