<?xml version="1.0" standalone="no"?>
<!DOCTYPE svg PUBLIC "-//W3C//DTD SVG 20010904//EN"
 "http://www.w3.org/TR/2001/REC-SVG-20010904/DTD/svg10.dtd">
<svg version="1.0" xmlns="http://www.w3.org/2000/svg"
 width="52.000000pt" height="52.000000pt" viewBox="0 0 512.000000 512.000000"
 preserveAspectRatio="xMidYMid meet">

<g transform="translate(0.000000,512.000000) scale(0.100000,-0.100000)"
fill="#6628AD" stroke="none">
<path d="M2444 4916 c-40 -18 -75 -67 -81 -116 -5 -32 1 -54 30 -112 51 -106
67 -170 67 -268 0 -97 -15 -157 -65 -262 -19 -40 -35 -86 -35 -103 0 -99 122
-176 208 -131 42 22 68 55 106 136 58 123 79 216 79 360 0 96 -5 143 -22 205
-24 91 -82 219 -114 253 -47 51 -111 65 -173 38z"/>
<path d="M1873 4684 c-79 -40 -94 -128 -40 -240 28 -61 32 -79 32 -154 0 -75
-4 -93 -32 -154 -54 -113 -38 -202 41 -240 85 -40 161 -8 213 89 98 183 97
433 -1 610 -18 32 -44 68 -58 78 -36 27 -114 32 -155 11z"/>
<path d="M3034 4681 c-83 -51 -96 -123 -41 -237 28 -61 32 -79 32 -154 0 -75
-4 -93 -32 -154 -39 -81 -43 -142 -13 -191 40 -64 137 -85 201 -42 40 26 100
139 124 232 20 77 20 233 0 310 -24 93 -84 206 -124 233 -42 27 -104 29 -147
3z"/>
<path d="M783 3480 c-18 -10 -40 -34 -50 -52 -17 -31 -18 -86 -21 -858 -2
-545 1 -861 8 -932 17 -168 61 -289 156 -425 l43 -62 -409 -3 c-395 -3 -410
-4 -436 -24 -100 -74 -95 -203 9 -253 38 -18 61 -21 182 -21 l139 0 165 -163
c276 -272 441 -386 671 -463 l85 -29 1235 0 1235 0 85 29 c230 77 395 191 671
463 l165 163 139 0 c121 0 144 3 182 21 104 50 109 179 9 253 -26 20 -41 21
-437 24 l-409 3 44 62 c65 92 109 187 136 294 l11 42 249 3 c274 3 273 3 324
72 20 27 21 40 24 517 4 667 30 619 -340 619 l-237 0 -3 318 c-3 352 -5 362
-71 402 -31 20 -64 20 -1777 20 -1713 0 -1746 0 -1777 -20z m3327 -495 l0
-215 -1012 0 c-991 0 -1013 0 -1053 -20 -110 -53 -112 -201 -4 -265 33 -20 55
-20 1052 -23 l1018 -2 -3 -428 -3 -427 -26 -71 c-65 -178 -198 -303 -385 -361
-56 -17 -119 -18 -1134 -18 -1015 0 -1078 1 -1134 18 -187 58 -320 183 -385
361 l-26 71 -3 798 -3 797 1551 0 1550 0 0 -215z m580 -825 l0 -310 -140 0
-140 0 0 310 0 310 140 0 140 0 0 -310z m-472 -1385 c-154 -140 -325 -243
-458 -276 -81 -21 -2319 -21 -2400 0 -133 33 -304 136 -458 276 l-83 75 1741
0 1741 0 -83 -75z"/>
<path d="M1600 2747 c-138 -73 -86 -277 71 -277 81 0 149 68 149 149 0 51 -37
108 -85 131 -53 26 -82 25 -135 -3z"/>
</g>
</svg>
