<?xml version="1.0" standalone="no"?>
<!DOCTYPE svg PUBLIC "-//W3C//DTD SVG 20010904//EN"
 "http://www.w3.org/TR/2001/REC-SVG-20010904/DTD/svg10.dtd">
<svg version="1.0" xmlns="http://www.w3.org/2000/svg"
 width="52pt" height="52.000000pt" viewBox="0 0 512.000000 512.000000"
 preserveAspectRatio="xMidYMid meet">

<g transform="translate(0.000000,512.000000) scale(0.100000,-0.100000)"
fill="#6628AD" stroke="none">
<path d="M2390 5105 c-385 -67 -696 -339 -813 -710 -14 -44 -28 -102 -32 -130
-13 -105 20 -93 -273 -97 -254 -3 -258 -3 -314 -30 -69 -32 -136 -97 -167
-161 -24 -49 -40 -143 -41 -234 l0 -53 -98 0 c-203 0 -343 -78 -416 -230 l-31
-65 -3 -303 c-2 -195 1 -321 8 -356 31 -151 150 -303 289 -368 l71 -33 0 -258
c0 -149 4 -266 10 -277 16 -29 67 -42 100 -25 15 8 30 22 34 30 3 9 6 126 6
260 l0 244 47 6 c85 10 168 36 223 67 53 30 154 123 181 167 l15 24 37 -50
c145 -197 437 -264 662 -151 64 32 142 97 181 149 l36 49 39 -50 c171 -217
478 -268 709 -120 51 33 160 143 160 162 0 6 28 -20 63 -57 76 -84 159 -139
252 -167 205 -63 442 13 571 181 l39 52 15 -23 c30 -47 93 -108 147 -144 72
-48 136 -72 228 -85 l75 -11 0 -130 c0 -124 1 -130 25 -153 30 -30 64 -32 99
-4 26 20 26 21 26 167 l0 147 73 34 c133 62 244 197 282 342 22 82 21 625 -1
699 -39 131 -143 227 -289 266 -27 8 -94 14 -147 14 l-98 0 0 53 c-1 91 -17
185 -41 234 -31 64 -98 129 -167 161 -56 27 -60 27 -314 30 -293 4 -260 -8
-273 97 -17 130 -101 322 -195 446 -227 302 -620 458 -990 394z m385 -163
c169 -46 299 -122 415 -242 414 -428 291 -1125 -247 -1394 -130 -65 -207 -81
-383 -81 -131 0 -167 4 -233 23 -157 45 -299 133 -413 255 -321 345 -307 883
32 1214 125 121 286 207 450 238 103 19 284 13 379 -13z m-1240 -959 c17 -110
29 -163 50 -220 l23 -63 -349 0 -349 0 0 85 c0 96 13 136 58 178 53 51 86 56
334 57 l227 0 6 -37z m2538 26 c47 -13 106 -63 123 -106 8 -19 14 -69 14 -118
l0 -85 -349 0 -349 0 18 48 c17 44 41 148 55 235 l6 37 222 0 c124 0 239 -5
260 -11z"/>
<path d="M2344 4642 c-37 -30 -44 -57 -44 -176 l0 -116 -115 0 c-192 0 -195
-4 -195 -265 l0 -187 29 -29 c29 -29 30 -29 155 -29 l126 0 0 -115 c0 -195 13
-205 255 -205 251 0 265 11 265 210 l0 110 126 0 c125 0 126 0 155 29 l29 29
0 186 c0 122 -4 194 -12 211 -20 45 -55 55 -183 55 l-115 0 0 109 c0 119 -7
148 -41 180 -22 20 -33 21 -218 21 -171 0 -199 -3 -217 -18z"/>
<path d="M1154 2069 c-53 -15 -127 -72 -156 -119 -16 -26 -33 -72 -38 -105 -5
-33 -10 -223 -10 -422 l0 -361 -37 10 c-21 6 -73 11 -115 11 l-78 1 0 223 0
224 -25 24 c-13 14 -36 25 -50 25 -14 0 -37 -11 -50 -25 l-25 -24 0 -248 0
-248 -37 -20 c-64 -34 -157 -135 -195 -213 -52 -103 -59 -166 -56 -485 l3
-279 24 -19 c23 -19 73 -19 2281 -19 2208 0 2258 0 2281 19 l24 19 3 685 c2
681 2 684 -19 710 l-20 27 -155 0 -154 0 0 153 c-1 162 -5 178 -51 196 -30 11
-83 -8 -93 -34 -3 -9 -6 -84 -6 -166 l0 -149 -145 0 -145 0 0 188 c0 214 -8
253 -67 321 -19 23 -58 54 -87 69 l-51 27 -425 0 c-386 0 -428 -2 -463 -18
-52 -24 -114 -83 -140 -131 l-22 -41 -3 -863 -2 -862 -770 0 -770 0 0 140 0
139 518 3 c472 3 520 5 549 21 55 30 103 78 131 131 l27 51 0 615 0 615 -28
57 c-16 32 -47 73 -70 93 -75 65 -78 65 -696 64 -306 0 -570 -5 -587 -10z
m1192 -181 l34 -38 0 -590 c0 -648 1 -633 -60 -665 -25 -13 -101 -15 -519 -15
l-490 0 -6 48 c-16 119 -83 253 -160 321 l-35 30 0 433 c0 478 -3 458 64 499
30 18 53 19 584 17 l554 -3 34 -37z m1553 7 c63 -32 61 1 61 -914 l0 -831
-480 0 -480 0 0 836 c0 585 3 842 11 857 6 12 23 32 37 44 27 23 27 23 425 23
329 0 403 -3 426 -15z m851 -1165 l0 -580 -320 0 -320 0 0 580 0 580 320 0
320 0 0 -580z m-3823 178 c42 -15 75 -38 119 -82 94 -94 100 -118 108 -423 l7
-253 -366 0 -367 0 4 253 c3 250 3 252 30 310 46 98 104 155 196 193 77 32
188 33 269 2z"/>
<path d="M1479 1776 c-83 -29 -148 -87 -191 -169 -33 -61 -33 -212 0 -277 25
-50 330 -452 392 -517 95 -99 248 -124 377 -62 60 29 137 117 159 181 24 71
22 172 -5 232 -11 25 -106 158 -210 295 -194 253 -228 287 -313 317 -50 17
-161 18 -209 0z m572 -635 c54 -84 35 -186 -44 -245 -41 -30 -153 -30 -194 0
-31 23 -152 173 -152 189 -1 6 61 56 136 112 l136 103 45 -58 c25 -31 58 -77
73 -101z"/>
<path d="M3175 1105 c-32 -31 -33 -74 -2 -103 48 -45 127 -14 127 50 0 36 -40
78 -75 78 -14 0 -37 -11 -50 -25z"/>
<path d="M4305 1105 c-32 -31 -33 -74 -2 -103 21 -20 34 -22 128 -22 97 0 107
2 127 23 29 31 28 72 -3 102 -22 23 -31 25 -125 25 -94 0 -103 -2 -125 -25z"/>
<path d="M4305 775 c-32 -31 -33 -74 -2 -103 21 -20 34 -22 128 -22 97 0 107
2 127 23 29 31 28 72 -3 102 -22 23 -31 25 -125 25 -94 0 -103 -2 -125 -25z"/>
<path d="M4305 445 c-32 -31 -33 -74 -2 -103 21 -20 34 -22 128 -22 97 0 107
2 127 23 29 31 28 72 -3 102 -22 23 -31 25 -125 25 -94 0 -103 -2 -125 -25z"/>
</g>
</svg>
