<?xml version="1.0" standalone="no"?>
<!DOCTYPE svg PUBLIC "-//W3C//DTD SVG 20010904//EN"
 "http://www.w3.org/TR/2001/REC-SVG-20010904/DTD/svg10.dtd">
<svg version="1.0" xmlns="http://www.w3.org/2000/svg"
 width="52.000000pt" height="52.000000pt" viewBox="0 0 512.000000 512.000000"
 preserveAspectRatio="xMidYMid meet">

<g transform="translate(0.000000,512.000000) scale(0.100000,-0.100000)"
fill="#6628AD" stroke="none">
<path d="M581 5109 c-177 -35 -321 -187 -350 -369 -15 -90 -15 -4270 0 -4360
29 -186 173 -335 358 -370 74 -14 3868 -14 3942 0 185 35 329 184 358 370 15
90 15 4270 0 4360 -29 186 -173 335 -358 370 -67 12 -3885 12 -3950 -1z m3966
-257 c24 -12 55 -41 70 -64 l28 -42 3 -693 2 -693 -2090 0 -2090 0 0 683 0
684 23 43 c12 24 34 52 48 62 66 50 -30 47 2034 45 l1930 -2 42 -23z m-2990
-2188 c73 -35 144 -117 198 -228 69 -143 85 -222 95 -496 11 -302 28 -383 118
-568 51 -104 66 -173 60 -277 -7 -132 -53 -210 -153 -263 -43 -23 -63 -27
-135 -27 -75 0 -91 3 -132 28 -78 46 -138 151 -233 407 -70 191 -125 308 -208
448 -110 182 -154 313 -163 487 -10 169 28 296 116 389 81 86 226 141 340 129
25 -3 68 -16 97 -29z m2248 14 c112 -28 225 -120 266 -215 37 -85 52 -179 45
-288 -9 -174 -53 -305 -163 -487 -83 -140 -138 -257 -208 -448 -95 -256 -155
-361 -233 -407 -41 -25 -57 -28 -132 -28 -72 0 -92 4 -135 27 -100 53 -146
131 -153 263 -6 104 9 173 60 277 90 185 107 266 118 568 10 276 26 355 97
499 49 99 128 193 191 225 67 35 148 39 247 14z"/>
<path d="M2460 4804 c-395 -31 -736 -178 -1003 -434 -106 -100 -120 -146 -68
-216 16 -21 165 -175 332 -341 319 -317 323 -319 392 -301 15 4 52 29 83 57
214 190 514 190 728 0 31 -28 68 -53 83 -57 69 -18 73 -16 392 301 167 166
316 320 332 341 52 70 38 116 -68 216 -227 218 -525 365 -836 414 -97 15 -292
26 -367 20z m396 -272 c213 -50 434 -156 567 -273 l38 -34 -215 -214 -214
-214 -49 31 c-69 44 -175 91 -241 106 l-57 13 -6 62 c-5 53 -11 68 -37 94 -27
26 -39 31 -82 31 -43 0 -55 -5 -82 -31 -26 -26 -32 -41 -37 -94 l-6 -62 -57
-13 c-66 -15 -172 -62 -241 -106 l-49 -31 -214 214 -215 214 38 34 c133 117
358 226 562 271 125 27 138 28 331 25 135 -2 196 -7 266 -23z"/>
</g>
</svg>
