<svg width="54" height="53" viewBox="0 0 54 53" fill="none" xmlns="http://www.w3.org/2000/svg">
<path d="M52.2957 10.9092H50.8596C50.8596 8.223 50.8596 8.8034 50.8596 6.10034C50.8596 5.60305 50.4565 5.19995 49.9592 5.19995H47.4993C47.002 5.19995 46.5989 5.60305 46.5989 6.10034C46.5989 8.8035 46.5989 8.22269 46.5989 10.9092H43.4548C43.5859 9.53198 42.5717 8.32605 41.2281 8.18398C39.8459 8.03822 38.6202 9.04851 38.4764 10.4093L38.4235 10.9091H34.09C32.8116 13.6693 30.0525 15.4514 26.9961 15.4514C23.8976 15.4514 21.1619 13.6288 19.9022 10.9091H15.5845L15.5316 10.4093C15.3866 9.03838 14.1498 8.03896 12.78 8.18387C11.4381 8.32594 10.4219 9.5305 10.5532 10.9093H7.40085C7.40085 8.22311 7.40085 8.8035 7.40085 6.10044C7.40085 5.60316 6.99775 5.20006 6.50046 5.20006H4.04061C3.54333 5.20006 3.14023 5.60316 3.14023 6.10044C3.14023 8.80361 3.14023 8.22279 3.14023 10.9093H1.70427C0.762961 10.9092 0 11.6721 0 12.6135C0 13.5547 0.762961 14.3177 1.70427 14.3177H3.14033C3.14033 17.0039 3.14033 16.4235 3.14033 19.1266C3.14033 19.6239 3.54354 20.027 4.04072 20.027H6.50057C6.99785 20.027 7.40095 19.6238 7.40095 19.1266C7.40095 16.4234 7.40095 17.0042 7.40095 14.3177H10.9121C11.02 15.3375 11.7825 22.5481 11.8952 23.6145C12.1214 25.7543 14.8172 26.659 16.2681 24.9979L19.7851 20.9731V30.548L10.685 34.2452C9.62276 34.6768 8.86613 35.6356 8.69316 36.7691L6.87762 48.6714C6.60656 50.4481 7.82705 52.1078 9.60356 52.3788C11.3801 52.6497 13.0399 51.4293 13.3109 49.6528L14.8478 39.5781L23.2661 36.1579H30.739L39.1573 39.5781L40.6942 49.6528C40.9652 51.4295 42.625 52.6497 44.4015 52.3788C46.178 52.1077 47.3984 50.4479 47.1274 48.6714L45.3118 36.769C45.1388 35.6355 44.3822 34.6768 43.3199 34.2451L34.1477 30.5185V20.8873L37.7395 24.9978C39.1517 26.6142 41.8796 25.8133 42.1124 23.6144C42.2249 22.5498 42.988 15.3356 43.0957 14.3176H46.599C46.599 17.0038 46.599 16.4234 46.599 19.1265C46.599 19.6238 47.0023 20.0269 47.4994 20.0269H49.9593C50.4566 20.0269 50.8597 19.6236 50.8597 19.1265C50.8597 16.4233 50.8597 17.0041 50.8597 14.3176H52.2958C53.237 14.3176 54.0001 13.5547 54.0001 12.6134C54 11.6721 53.237 10.9092 52.2957 10.9092ZM16.2697 17.3899C16.1348 16.114 16.0783 15.5806 15.9448 14.3176H18.9542C17.8639 15.5656 17.3752 16.1248 16.2697 17.3899ZM37.738 17.3899C36.4941 15.9664 38.0919 17.7949 35.0534 14.3176H38.0628C37.8105 16.7033 37.8727 16.1157 37.738 17.3899Z" fill="#224344"/>
<path d="M26.9961 11.2396C30.0999 11.2396 32.6159 8.72353 32.6159 5.6198C32.6159 2.51607 30.0999 0 26.9961 0C23.8924 0 21.3763 2.51607 21.3763 5.6198C21.3763 8.72353 23.8924 11.2396 26.9961 11.2396Z" fill="#224344"/>
</svg>
