<?xml version="1.0" standalone="no"?>
<!DOCTYPE svg PUBLIC "-//W3C//DTD SVG 20010904//EN"
 "http://www.w3.org/TR/2001/REC-SVG-20010904/DTD/svg10.dtd">
<svg version="1.0" xmlns="http://www.w3.org/2000/svg"
 width="52.000000pt" height="52.000000pt" viewBox="0 0 512.000000 512.000000"
 preserveAspectRatio="xMidYMid meet">

<g transform="translate(0.000000,512.000000) scale(0.100000,-0.100000)"
fill="#6628AD" stroke="none">
<path d="M1072 4783 c-11 -10 -257 -310 -546 -666 -419 -517 -526 -654 -526
-677 0 -23 243 -327 1255 -1567 802 -983 1263 -1541 1280 -1547 16 -6 34 -6
50 0 17 6 478 564 1280 1547 1012 1240 1255 1544 1255 1567 0 23 -107 160
-526 677 -289 356 -535 656 -546 666 -19 16 -104 17 -1488 17 -1384 0 -1469
-1 -1488 -17z m1306 -160 c-9 -10 -190 -238 -403 -508 -213 -269 -390 -491
-394 -493 -5 -2 -341 991 -341 1011 0 4 259 7 577 7 548 0 575 -1 561 -17z
m1489 -3 c-3 -10 -60 -203 -128 -429 -112 -375 -121 -412 -110 -439 23 -56
104 -67 136 -19 8 12 68 202 135 421 66 220 121 401 123 402 2 2 143 -169 314
-379 170 -210 360 -444 422 -519 l112 -138 -615 0 -614 0 -451 555 c-248 305
-451 557 -451 560 0 3 255 5 566 5 557 0 566 0 561 -20z m-868 -570 l431 -530
-776 0 -775 0 -24 -25 c-32 -31 -33 -80 -3 -112 l21 -23 793 0 792 0 -446
-1340 c-246 -737 -449 -1340 -452 -1340 -6 0 -912 2715 -914 2737 -1 14 903
1163 915 1163 4 0 201 -238 438 -530z m-1739 -15 c90 -269 165 -496 168 -502
3 -10 -117 -13 -582 -13 -322 0 -586 2 -586 5 0 14 824 1015 830 1008 4 -4 81
-228 170 -498z m647 -1942 c233 -697 421 -1268 420 -1270 -3 -3 -2060 2515
-2065 2529 -2 4 272 8 610 8 l613 0 422 -1267z m2953 1261 c0 -8 -2063 -2535
-2066 -2531 -2 2 186 573 419 1270 l422 1267 612 0 c337 0 613 -2 613 -6z"/>
</g>
</svg>
