<svg width="56" height="54" viewBox="0 0 56 54" fill="none" xmlns="http://www.w3.org/2000/svg">
<path d="M35 13.5858L36.5858 12H35V13.5858Z" fill="#224344"/>
<path d="M8 7H12V10H8V7Z" fill="#224344"/>
<path d="M31 4H20.5L19 6H29.5L31 4Z" fill="#224344"/>
<path d="M29 19.5858V8H18V14.1084V22H26.5859L29 19.5858Z" fill="#224344"/>
<path d="M31 17.5858L33.117 15.4689C33.04 15.3246 32.9999 15.1635 33 15V11C33 10.7348 33.1054 10.4804 33.2929 10.2929C33.4804 10.1054 33.7348 10 34 10H35V7.33337L33 4.66675L31 7.33337V17.5858Z" fill="#224344"/>
<path d="M21 0H32V2H21V0Z" fill="#224344"/>
<path d="M16 14.1084C15.9994 13.5494 15.7771 13.0135 15.3818 12.6182C14.9865 12.2229 14.4506 12.0006 13.8916 12H6.10837C5.54938 12.0006 5.01346 12.2229 4.61819 12.6182C4.22292 13.0135 4.0006 13.5494 4 14.1084V18H14V20H4V22H16V14.1084Z" fill="#224344"/>
<path d="M54 24H35.4142L31.4142 28H54C54.5304 28 55.0391 27.7893 55.4142 27.4142C55.7893 27.0391 56 26.5304 56 26C56 25.4696 55.7893 24.9609 55.4142 24.5858C55.0391 24.2107 54.5304 24 54 24Z" fill="#224344"/>
<path d="M23.9383 27.5H2C1.60217 27.5 1.22064 27.342 0.93934 27.0607C0.658036 26.7794 0.5 26.3978 0.5 26C0.5 25.6022 0.658035 25.2206 0.93934 24.9393C1.22064 24.658 1.60218 24.5 2 24.5H23.9383C23.7616 24.9781 23.6705 25.4859 23.6715 26C23.6715 25.9996 23.6715 25.9993 23.6715 25.9989L23.9383 27.5Z" fill="#224344" stroke="black"/>
<path d="M7.37124 50.8366C7.50283 51.7192 7.94802 52.5247 8.62524 53.1057C9.30246 53.6867 10.1663 54.0042 11.0586 54H44.9414C45.8337 54.0042 46.6976 53.6867 47.3749 53.1057C48.0521 52.5247 48.4973 51.7191 48.6289 50.8365L51.8344 30H4.16562L7.37124 50.8366ZM42 37C42 36.7348 42.1054 36.4804 42.2929 36.2929C42.4804 36.1054 42.7348 36 43 36C43.2652 36 43.5196 36.1054 43.7071 36.2929C43.8946 36.4804 44 36.7348 44 37V49C44 49.2652 43.8946 49.5196 43.7071 49.7071C43.5196 49.8947 43.2652 50 43 50C42.7348 50 42.4804 49.8947 42.2929 49.7071C42.1054 49.5196 42 49.2652 42 49V37ZM32 37C32 36.7348 32.1054 36.4804 32.2929 36.2929C32.4804 36.1054 32.7348 36 33 36C33.2652 36 33.5196 36.1054 33.7071 36.2929C33.8946 36.4804 34 36.7348 34 37V49C34 49.2652 33.8946 49.5196 33.7071 49.7071C33.5196 49.8947 33.2652 50 33 50C32.7348 50 32.4804 49.8947 32.2929 49.7071C32.1054 49.5196 32 49.2652 32 49V37ZM22 37C22 36.7348 22.1054 36.4804 22.2929 36.2929C22.4804 36.1054 22.7348 36 23 36C23.2652 36 23.5196 36.1054 23.7071 36.2929C23.8946 36.4804 24 36.7348 24 37V49C24 49.2652 23.8946 49.5196 23.7071 49.7071C23.5196 49.8947 23.2652 50 23 50C22.7348 50 22.4804 49.8947 22.2929 49.7071C22.1054 49.5196 22 49.2652 22 49V37ZM12 37C12 36.7348 12.1054 36.4804 12.2929 36.2929C12.4804 36.1054 12.7348 36 13 36C13.2652 36 13.5196 36.1054 13.7071 36.2929C13.8946 36.4804 14 36.7348 14 37V49C14 49.2652 13.8946 49.5196 13.7071 49.7071C13.5196 49.8947 13.2652 50 13 50C12.7348 50 12.4804 49.8947 12.2929 49.7071C12.1054 49.5196 12 49.2652 12 49V37Z" fill="#224344"/>
<path d="M26.1715 26C26.1715 26.3617 26.2788 26.7152 26.4797 27.0159C26.6806 27.3166 26.9662 27.5509 27.3003 27.6893C27.6344 27.8277 28.0021 27.8639 28.3568 27.7933C28.7115 27.7228 29.0373 27.5486 29.293 27.2929L49.293 7.29288C49.6316 6.94907 49.8205 6.48538 49.8186 6.00288C49.8167 5.52038 49.6242 5.05818 49.283 4.717C48.9418 4.37583 48.4796 4.18334 47.9971 4.18149C47.5146 4.17964 47.0509 4.36858 46.7071 4.70713L26.7071 24.7071C26.5368 24.8765 26.4018 25.078 26.3098 25.2999C26.2179 25.5218 26.1709 25.7598 26.1715 26V26Z" fill="#224344"/>
<path d="M37.4142 22H46.0032C46.0329 19.8527 46.7036 17.7633 47.9294 16H43.4142L37.4142 22Z" fill="#224344"/>
<path d="M52 22C51.9999 20.0031 51.3085 18.0678 50.0433 16.5229C48.7566 18.0614 48.0365 19.9947 48.0033 22H52Z" fill="#224344"/>
<path d="M49 12H47.4141L45.4141 14H49V12Z" fill="#224344"/>
</svg>
