<svg width="43" height="57" viewBox="0 0 43 57" fill="none" xmlns="http://www.w3.org/2000/svg">
<path d="M42.6907 33.866V21.3453C42.6907 20.423 41.943 19.6754 41.0207 19.6754H26.7114C25.7892 19.6754 25.0415 20.423 25.0415 21.3453V33.866C25.0415 38.1609 28.1263 41.747 32.1962 42.53V53.6602H28.5001C27.5779 53.6602 26.8302 54.4078 26.8302 55.3301C26.8302 56.2523 27.5779 57 28.5001 57H39.2321C40.1544 57 40.9021 56.2523 40.9021 55.3301C40.9021 54.4078 40.1544 53.6602 39.2321 53.6602H35.536V42.5301C39.6059 41.7472 42.6907 38.1609 42.6907 33.866V33.866Z" fill="#224344"/>
<path d="M15.8606 1.66992C15.8606 0.74768 15.1129 0 14.1906 0H7.03592C6.11368 0 5.366 0.74768 5.366 1.66992V10.732H15.8606V1.66992Z" fill="#224344"/>
<path d="M15.8606 19.8755V14.0718H5.36602V19.8751C2.28991 20.6261 0 23.4054 0 26.7095V55.33C0 56.2523 0.74768 57 1.66992 57H19.5567C20.4789 57 21.2266 56.2523 21.2266 55.33V49.8452H8.82465C7.9024 49.8452 7.15473 49.0976 7.15473 48.1753V28.5C7.15473 27.5777 7.9024 26.83 8.82465 26.83H21.2266V26.7095C21.2266 23.4059 18.9371 20.6268 15.8606 19.8755Z" fill="#224344"/>
<path d="M10.4946 30.1699H21.2266V39.3508H10.4946V30.1699Z" fill="#224344"/>
<path d="M10.4946 42.6907H21.2266V46.5056H10.4946V42.6907Z" fill="#224344"/>
</svg>
