<?xml version="1.0" standalone="no"?>
<!DOCTYPE svg PUBLIC "-//W3C//DTD SVG 20010904//EN"
 "http://www.w3.org/TR/2001/REC-SVG-20010904/DTD/svg10.dtd">
<svg version="1.0" xmlns="http://www.w3.org/2000/svg"
 width="52.000000pt" height="52.000000pt" viewBox="0 0 512.000000 512.000000"
 preserveAspectRatio="xMidYMid meet">

<g transform="translate(0.000000,512.000000) scale(0.100000,-0.100000)"
fill="#6628AD" stroke="none">
<path d="M3445 5102 c-50 -32 -68 -59 -72 -109 -12 -145 178 -208 251 -84 35
61 16 151 -39 187 -39 26 -105 28 -140 6z"/>
<path d="M4686 4740 c-63 -20 -105 -93 -92 -162 4 -20 21 -48 40 -67 61 -59
152 -52 205 15 80 101 -28 252 -153 214z"/>
<path d="M3307 4702 c-15 -11 -34 -28 -41 -38 -11 -15 -124 -354 -208 -622
l-10 -34 -32 29 c-264 246 -662 307 -994 152 -113 -52 -195 -112 -288 -212
l-79 -84 -85 -6 c-163 -11 -339 -75 -467 -168 -83 -61 -185 -169 -234 -248
-35 -56 -55 -75 -112 -110 -231 -144 -393 -419 -414 -703 -5 -78 -8 -87 -30
-97 -14 -6 -33 -31 -44 -56 -20 -44 -20 -48 -4 -153 81 -528 351 -1008 750
-1336 161 -132 304 -225 458 -296 l67 -32 -30 -52 c-81 -134 -125 -258 -147
-407 -15 -102 -15 -109 3 -145 11 -21 32 -47 47 -58 28 -21 36 -21 978 -24
1047 -3 999 -5 1039 60 54 88 0 341 -117 545 -24 42 -43 78 -43 80 0 3 37 22
83 43 210 99 378 221 577 420 206 206 316 361 435 615 95 200 170 471 182 652
l6 83 -41 40 c-38 39 -41 45 -47 118 -20 220 -93 389 -238 551 -55 62 -146
137 -201 166 -25 14 -55 46 -93 104 l-56 83 336 337 c184 185 340 346 346 358
17 34 13 92 -9 128 -34 55 -119 81 -173 54 -12 -6 -176 -164 -363 -351 l-342
-341 -94 47 c-51 25 -134 56 -183 68 -50 12 -91 22 -92 23 -2 1 44 147 102
326 57 178 107 336 110 351 9 37 -10 89 -45 123 -39 37 -121 46 -163 17z
m-743 -728 c72 -18 176 -71 240 -124 47 -39 77 -73 149 -170 46 -63 65 -70
188 -70 110 0 226 -22 290 -55 l32 -17 -474 -474 -474 -474 -947 0 -948 0 0
38 c0 58 36 189 73 262 41 83 168 213 252 257 71 37 102 69 141 143 16 30 63
89 104 131 134 135 267 188 473 189 132 0 152 9 209 93 161 237 418 338 692
271z m1166 -700 c42 -70 51 -79 125 -122 193 -110 302 -280 330 -509 l7 -53
-639 0 -638 0 380 380 c209 209 382 380 385 380 3 0 26 -34 50 -76z m516
-1000 c-12 -63 -63 -227 -95 -307 -212 -527 -659 -936 -1202 -1097 -201 -59
-311 -75 -544 -75 -224 0 -314 11 -500 62 -483 131 -907 464 -1148 901 l-46
82 1073 0 c591 0 1088 3 1106 6 45 9 97 62 105 107 10 53 -1 85 -44 129 l-39
38 -1155 0 -1156 0 -11 43 c-6 23 -15 58 -21 77 -5 19 -9 43 -9 53 0 16 95 17
1846 17 l1846 0 -6 -36z"/>
<path d="M3203 2100 c-105 -64 -71 -233 53 -256 82 -15 176 78 159 158 -21 99
-129 149 -212 98z"/>
</g>
</svg>
