<?xml version="1.0" standalone="no"?>
<!DOCTYPE svg PUBLIC "-//W3C//DTD SVG 20010904//EN"
 "http://www.w3.org/TR/2001/REC-SVG-20010904/DTD/svg10.dtd">
<svg version="1.0" xmlns="http://www.w3.org/2000/svg"
 width="52.000000pt" height="52.000000pt" viewBox="0 0 512.000000 512.000000"
 preserveAspectRatio="xMidYMid meet">

<g transform="translate(0.000000,512.000000) scale(0.100000,-0.100000)"
fill="#6628AD" stroke="none">
<path d="M1485 4894 c-135 -29 -163 -38 -182 -60 -25 -27 -29 -54 -12 -85 21
-40 50 -41 224 -4 177 37 233 42 317 24 103 -22 209 -88 272 -170 54 -70 196
-336 196 -368 0 -35 -61 -91 -99 -91 -5 0 -30 37 -54 83 -25 45 -56 92 -69
104 -28 27 -89 53 -121 53 -13 0 -268 -52 -567 -115 -299 -64 -548 -114 -554
-112 -13 5 -102 414 -93 423 3 4 68 19 144 35 76 17 148 36 160 45 45 29 39
103 -11 125 -19 9 -58 4 -198 -25 -95 -21 -184 -45 -198 -55 -32 -22 -60 -77
-60 -118 0 -30 -3 -32 -45 -38 -60 -10 -57 -11 -71 32 -17 47 -49 73 -94 72
-19 0 -93 -12 -165 -28 -147 -33 -175 -52 -175 -119 0 -20 27 -161 59 -312 76
-357 63 -343 293 -294 67 14 134 32 149 39 33 17 52 62 47 111 l-3 39 50 9
c43 8 50 7 60 -10 19 -35 72 -83 99 -90 17 -4 78 4 157 21 71 15 131 26 133
24 3 -4 56 -260 56 -271 0 -4 -233 -8 -518 -10 l-519 -3 -36 -28 c-23 -17 -40
-41 -47 -65 -8 -26 -10 -536 -8 -1709 l3 -1672 21 -28 c11 -15 36 -36 55 -45
32 -17 171 -18 2479 -18 2308 0 2447 1 2479 18 19 9 44 30 55 45 21 28 21 34
24 1140 1 612 0 1122 -3 1135 -3 13 -20 30 -40 39 l-35 17 0 93 c0 89 1 94 24
103 56 21 56 19 56 460 0 453 0 454 -70 495 -33 19 -55 20 -341 23 l-306 3
-73 202 c-40 111 -80 212 -88 225 -29 45 -60 52 -224 52 -134 0 -157 -2 -185
-20 -41 -24 -46 -35 -129 -267 l-69 -193 -132 0 -133 0 0 124 c0 68 -5 147
-10 176 -32 168 -154 290 -322 321 -164 30 -337 -60 -414 -216 -28 -58 -29
-65 -32 -232 l-4 -173 -443 0 c-414 0 -444 1 -449 18 -16 53 -78 373 -74 377
9 9 331 76 342 72 7 -3 34 -46 61 -96 84 -155 123 -175 247 -126 83 33 149 91
168 150 26 80 11 139 -79 306 -135 250 -201 326 -345 400 -149 77 -285 86
-531 33z m-1150 -434 c9 -41 40 -77 73 -85 23 -5 136 13 193 31 13 3 19 -8 28
-58 7 -35 14 -70 17 -79 4 -13 -12 -20 -87 -34 -121 -24 -144 -43 -144 -120 0
-51 -2 -56 -25 -61 -14 -4 -42 -10 -64 -16 -21 -5 -42 -6 -46 -1 -11 13 -92
414 -85 421 7 7 89 29 117 31 11 1 19 -9 23 -29z m2740 -249 c46 -20 101 -79
121 -127 11 -27 14 -139 14 -579 l0 -545 -235 0 -235 0 0 538 c0 324 4 551 10
573 13 48 75 118 124 140 54 24 148 24 201 0z m-1597 -143 c48 -230 404 -1897
408 -1910 5 -17 -5 -18 -125 -18 -72 0 -131 4 -131 9 0 4 -81 390 -180 857
-228 1072 -222 1043 -217 1057 3 10 170 53 218 56 12 1 19 -14 27 -51z m2724
-195 c63 -171 76 -217 69 -237 -6 -13 -39 -64 -75 -114 -36 -49 -73 -105 -81
-125 -13 -31 -15 -126 -15 -647 l0 -610 -80 0 -79 0 -3 618 c-3 708 9 621
-112 786 -36 50 -66 97 -66 105 0 9 34 112 77 229 l76 213 106 -3 106 -3 77
-212z m-3016 -375 l21 -98 -364 0 -363 0 0 100 0 100 342 -2 343 -3 21 -97z
m1394 2 l0 -100 -400 0 -400 0 -5 23 c-8 34 -35 168 -35 173 0 2 189 4 420 4
l420 0 0 -100z m1046 68 c9 -18 36 -61 60 -95 24 -34 44 -64 44 -67 0 -3 -81
-6 -180 -6 l-180 0 0 100 0 100 120 0 119 0 17 -32z m1014 -68 l0 -100 -171 0
-170 0 46 63 c26 34 54 79 63 99 l17 38 108 0 107 0 0 -100z m-3281 -798 c62
-295 116 -543 118 -549 4 -10 -99 -13 -496 -13 l-501 0 0 188 c0 203 -5 223
-56 242 -23 9 -24 13 -24 110 0 92 2 100 19 100 11 0 29 12 40 26 20 25 21 39
21 230 l0 204 383 0 382 0 114 -538z m1229 396 l-3 -142 -34 -9 c-138 -35
-208 -191 -147 -323 39 -84 127 -134 238 -134 l48 0 0 -175 0 -175 -323 0
-323 0 -113 533 c-62 292 -115 540 -117 550 -5 16 18 17 386 17 l391 0 -3
-142z m1202 -408 l0 -550 -265 0 -265 0 0 174 0 173 74 6 c150 11 236 96 236
234 0 102 -64 190 -157 216 l-43 11 0 143 0 143 210 0 210 0 0 -550z m850 0
l0 -550 -195 0 -195 0 0 550 0 550 195 0 195 0 0 -550z m-1241 84 c27 -34 27
-72 -1 -101 l-21 -23 -403 0 -403 0 -20 26 c-28 35 -26 69 4 99 l24 25 400 0
400 0 20 -26z m-289 -459 l0 -175 -135 0 -135 0 0 175 0 175 135 0 135 0 0
-175z m1860 -1155 l0 -820 -2410 0 -2410 0 0 820 0 820 2410 0 2410 0 0 -820z"/>
<path d="M2000 1652 c-62 -31 -70 -61 -70 -277 0 -171 2 -193 20 -222 43 -71
14 -68 610 -68 596 0 567 -3 610 68 18 29 20 51 20 222 0 216 -8 246 -70 277
-32 16 -80 18 -560 18 -480 0 -528 -2 -560 -18z"/>
</g>
</svg>
