<?xml version="1.0" standalone="no"?>
<!DOCTYPE svg PUBLIC "-//W3C//DTD SVG 20010904//EN"
 "http://www.w3.org/TR/2001/REC-SVG-20010904/DTD/svg10.dtd">
<svg version="1.0" xmlns="http://www.w3.org/2000/svg"
 width="163.000000pt" height="142.000000pt" viewBox="0 0 1440.000000 797.000000"
 preserveAspectRatio="xMidYMid meet">

<g transform="translate(0.000000,797.000000) scale(0.100000,-0.100000)"
fill="purple" stroke="none">
<path d="M0 7160 l0 -810 43 -1 c23 -1 74 -3 112 -4 43 -2 81 3 100 11 48 22
192 23 237 1 47 -22 48 -25 49 -86 1 -45 -2 -54 -27 -74 -15 -12 -44 -26 -64
-31 -50 -13 -359 -17 -393 -6 -60 20 -57 98 -57 -1267 l0 -1248 40 44 c29 32
45 42 60 38 11 -3 23 -1 26 4 3 5 12 2 20 -6 9 -8 24 -15 35 -15 10 0 19 -4
19 -10 0 -5 7 -10 15 -10 8 0 15 5 15 10 0 6 10 10 23 10 37 0 67 27 63 58 -2
15 -1 21 1 13 3 -8 14 -23 24 -34 10 -12 19 -31 19 -43 0 -13 12 -51 26 -86
56 -136 61 -152 69 -223 3 -33 13 -71 22 -85 9 -14 18 -34 20 -45 5 -35 4
-107 -2 -113 -3 -3 -5 9 -5 27 0 24 -5 34 -20 38 -11 3 -20 12 -20 20 0 9 6
13 14 10 12 -5 13 -1 4 24 -10 29 -10 29 -28 9 -9 -11 -28 -20 -41 -20 -27 -1
-59 -21 -59 -38 0 -11 -94 -42 -130 -42 -32 0 -46 19 -53 74 -4 27 -12 55 -18
62 -18 22 -56 16 -76 -12 -18 -24 -21 -25 -35 -10 -24 23 -28 20 -28 -23 0
-35 2 -38 25 -33 19 3 25 0 25 -12 0 -26 -19 -56 -35 -56 -13 0 -15 -200 -15
-1585 l0 -1585 38 0 c21 0 42 4 47 9 6 4 35 17 65 27 30 10 69 34 87 52 36 36
53 41 53 15 0 -12 3 -14 8 -6 4 6 21 13 37 16 27 4 27 4 -7 6 -48 1 -50 21 -3
21 19 0 35 5 35 10 0 6 17 10 37 10 35 0 36 -1 17 -15 -18 -13 -17 -14 18 -15
21 0 57 7 81 15 28 9 98 16 198 19 167 4 291 15 299 25 7 8 104 41 123 41 8 0
18 7 21 16 5 13 1 15 -24 12 -24 -4 -30 -1 -30 14 0 20 -31 31 -76 27 -16 -1
-46 -1 -66 -1 -31 2 -38 6 -38 22 0 16 7 20 34 20 19 0 36 5 38 11 2 6 26 16
53 21 101 18 105 20 105 38 0 10 -6 20 -12 23 -10 4 -10 7 0 18 10 11 12 10
12 -4 0 -10 8 -17 20 -17 11 0 20 -4 20 -10 0 -5 9 -10 19 -10 16 0 21 -9 27
-45 3 -25 10 -48 15 -51 5 -3 9 -12 9 -20 0 -20 47 -91 92 -139 21 -23 38 -50
38 -63 0 -13 7 -39 16 -58 l16 -34 3913 0 3913 0 6 62 c4 35 11 103 16 153 5
50 14 135 19 190 20 193 23 312 11 335 -9 16 -9 25 0 35 10 12 14 12 27 -1 16
-15 18 -27 29 -157 6 -66 9 -77 24 -72 11 3 21 -3 30 -20 9 -17 17 -22 25 -15
8 7 15 -4 25 -41 9 -33 18 -48 27 -45 10 4 13 -8 13 -47 0 -41 4 -55 20 -65
15 -9 20 -23 20 -60 0 -26 4 -52 9 -57 9 -10 16 -47 27 -147 l6 -48 619 0
c406 0 619 3 619 10 0 6 -4 10 -9 10 -5 0 -11 35 -14 77 -3 43 -10 101 -16
128 -6 28 -16 88 -22 135 -6 47 -15 94 -19 105 -9 19 -11 34 -29 180 -5 39
-14 94 -20 124 -6 29 -10 68 -10 85 1 30 2 30 9 6 23 -79 36 -88 64 -46 20 31
23 74 8 102 -15 28 -73 40 -88 19 -10 -13 -13 -10 -19 17 -3 18 -9 54 -12 80
-5 51 -11 47 70 48 26 0 61 -12 108 -37 66 -36 69 -39 69 -75 0 -20 5 -40 10
-43 6 -3 10 -17 10 -30 0 -13 6 -28 13 -32 24 -15 37 -53 36 -102 -2 -47 1
-53 45 -94 32 -31 46 -53 46 -71 0 -34 16 -61 62 -104 21 -19 35 -39 32 -44
-3 -5 9 -24 28 -41 19 -18 40 -42 47 -55 7 -13 20 -32 29 -42 8 -11 21 -34 26
-52 7 -20 22 -38 39 -46 15 -7 33 -22 40 -33 6 -10 15 -19 19 -19 5 0 25 -16
45 -35 20 -19 41 -35 46 -35 5 0 29 -20 54 -45 l45 -45 507 0 c532 0 531 0
531 44 0 11 30 80 66 153 69 140 106 183 157 183 34 0 181 32 187 41 13 17
400 35 400 18 0 -5 11 -9 25 -9 14 0 25 -4 25 -10 0 -6 28 -10 63 -10 35 0 67
-3 71 -7 6 -7 60 -21 147 -39 15 -3 32 -17 38 -30 12 -28 27 -29 97 -11 50 13
94 6 94 -15 0 -4 7 -8 15 -8 8 0 15 -7 15 -15 0 -11 -12 -15 -44 -15 -25 0
-48 -4 -51 -10 -3 -5 -24 -10 -45 -10 -21 0 -41 -4 -44 -9 -7 -11 -83 -26
-111 -22 -11 2 -27 9 -36 17 -18 16 -51 18 -79 4 -11 -5 -29 -14 -40 -20 -11
-5 -29 -10 -40 -10 -10 0 -36 -7 -57 -16 -66 -29 -77 -33 -113 -38 -68 -10
-105 -19 -110 -26 -5 -8 -92 -23 -275 -50 -38 -6 -95 -15 -126 -20 -30 -6 -78
-10 -106 -10 -52 0 -123 -23 -123 -40 0 -5 350 -9 890 -10 l890 -1 0 446 c0
435 0 446 -19 440 -26 -8 -38 15 -17 31 27 19 17 56 -19 66 -39 11 -70 3 -95
-25 -18 -19 -31 -22 -88 -21 -60 0 -122 8 -161 20 -10 3 -8 9 8 23 11 10 21
28 21 40 0 18 6 21 44 21 34 0 52 6 71 25 17 15 44 26 73 30 26 3 64 11 85 17
43 13 55 13 80 3 15 -6 17 1 17 84 l0 91 -29 -6 c-16 -3 -37 -2 -47 4 -12 7
-26 4 -52 -11 -28 -16 -38 -18 -53 -9 -10 7 -48 12 -84 12 -54 0 -69 4 -87 22
-13 13 -23 34 -23 48 0 25 -1 25 -105 30 -120 6 -123 9 -95 85 14 36 26 48 62
65 24 11 58 23 74 27 16 3 29 9 29 13 0 10 45 17 305 45 109 11 105 9 105 65
l0 50 -59 -2 c-50 -1 -61 -5 -71 -24 -16 -28 -48 -34 -185 -34 -181 0 -267
-10 -272 -30 -5 -19 -43 -40 -72 -40 -9 0 -35 -8 -57 -19 -21 -10 -60 -21 -85
-25 -64 -9 -198 -69 -237 -105 -18 -17 -39 -31 -47 -31 -18 0 -65 -21 -65 -29
2 -25 59 -61 97 -61 47 0 212 -64 213 -82 0 -5 24 -8 53 -8 28 0 104 -13 167
-29 63 -16 142 -31 174 -35 66 -7 86 -19 86 -48 0 -21 -22 -48 -39 -48 -6 0
-11 -4 -11 -10 0 -6 -78 -10 -212 -10 -171 -1 -217 -4 -232 -15 -22 -17 -15
-29 16 -30 12 0 23 -6 25 -12 3 -8 -4 -13 -16 -13 -11 0 -23 -5 -26 -10 -3 -5
-19 -10 -34 -10 -15 0 -31 -3 -35 -7 -3 -4 -23 -13 -44 -20 -29 -10 -53 -11
-112 -2 -41 6 -83 15 -92 20 -10 5 -23 9 -30 9 -6 0 -32 10 -57 22 -37 18 -63
23 -131 23 -47 0 -107 -4 -135 -8 -29 -4 -56 -4 -64 1 -9 6 -15 35 -17 78 -10
197 -32 352 -59 430 -16 44 -16 53 -4 79 12 25 24 31 89 46 131 31 150 37 178
55 39 25 48 36 55 64 3 14 9 36 13 49 6 21 5 23 -17 17 -13 -4 -34 -11 -46
-17 -13 -5 -33 -13 -45 -18 -45 -19 -64 -21 -82 -8 -22 16 -14 37 27 62 l32
19 -31 4 c-17 2 -42 14 -55 28 -33 35 -49 31 -49 -12 0 -40 -21 -63 -57 -64
-16 0 -21 4 -17 15 4 8 12 15 20 15 8 0 14 5 14 10 0 6 -7 10 -15 10 -15 0
-20 21 -8 33 22 23 6 147 -19 147 -13 0 -9 41 5 53 20 19 55 37 72 37 8 0 29
9 47 20 19 12 51 20 76 20 35 0 42 -3 42 -20 0 -11 5 -20 10 -20 6 0 10 -8 10
-18 0 -10 8 -27 18 -38 9 -10 26 -47 37 -81 11 -35 23 -63 27 -63 5 0 8 -9 8
-21 0 -41 18 -46 168 -47 79 -1 152 -4 163 -7 12 -4 19 -2 19 7 0 8 3 9 8 3 4
-6 34 -11 67 -12 63 -1 254 -36 284 -52 10 -6 23 -17 30 -25 11 -13 10 -17 -5
-23 -10 -4 -19 -2 -22 5 -5 16 -22 15 -22 -1 0 -20 68 -41 85 -27 10 8 29 9
67 2 65 -12 279 -6 288 8 3 5 50 10 103 11 l97 1 0 224 c0 209 -1 224 -18 224
-10 0 -23 -5 -30 -12 -6 -6 -40 -15 -74 -20 -155 -21 -186 -27 -228 -42 -101
-35 -180 -40 -378 -26 -103 8 -198 14 -212 15 -14 0 -29 3 -35 7 -5 3 -37 11
-70 19 -33 7 -66 17 -72 22 -9 6 -13 6 -13 -2 0 -20 -20 -12 -29 12 -11 30 4
60 42 82 18 11 43 30 56 43 22 22 30 24 113 20 73 -2 92 0 101 13 7 9 22 19
35 23 12 4 22 12 22 17 0 5 29 9 64 9 36 0 68 5 71 10 3 6 15 10 25 10 10 0
20 6 23 13 3 9 7 9 20 -1 12 -10 33 -11 94 -3 43 5 111 9 152 10 52 0 78 5 90
16 25 22 68 19 76 -4 4 -13 19 -22 48 -26 23 -4 48 -12 55 -18 10 -8 16 -7 23
4 8 12 10 12 19 -1 9 -13 11 -13 20 0 6 10 10 637 10 1776 l0 1761 -65 28
c-71 30 -95 54 -95 96 0 38 55 89 96 89 70 0 64 -84 64 916 l0 904 -605 0
-605 0 10 -25 c9 -23 8 -24 -15 -13 -14 6 -25 17 -25 25 0 21 -652 19 -670 -2
-7 -8 -23 -15 -36 -15 -14 0 -33 -4 -44 -10 -11 -6 -29 -14 -40 -20 -11 -6
-26 -10 -34 -10 -8 0 -27 -6 -43 -14 -64 -31 -124 -56 -138 -56 -9 0 -23 -4
-33 -9 -20 -10 -73 -25 -152 -42 -70 -15 -158 -38 -188 -50 -13 -5 -36 -9 -52
-9 -16 0 -31 -4 -34 -9 -3 -5 -20 -11 -38 -14 -18 -3 -60 -13 -93 -22 -33 -9
-78 -21 -100 -25 -22 -5 -53 -12 -70 -15 -16 -4 -50 -16 -73 -26 -24 -11 -65
-24 -90 -30 -55 -12 -115 -25 -174 -39 -24 -5 -70 -14 -102 -20 -32 -6 -71
-19 -85 -29 -14 -9 -42 -24 -61 -31 -19 -7 -39 -17 -44 -22 -6 -4 -19 -8 -31
-8 -12 0 -26 -5 -32 -11 -20 -20 -61 -1 -124 58 -33 32 -74 64 -90 71 -16 8
-29 18 -29 22 0 4 -19 15 -42 26 -24 10 -45 21 -48 24 -3 3 -19 10 -35 16 -33
11 -55 8 -55 -7 0 -6 5 -7 11 -4 5 4 18 0 28 -9 19 -18 97 -63 124 -72 9 -4
17 -10 17 -15 0 -5 6 -9 14 -9 7 0 19 -7 26 -15 7 -8 20 -15 29 -15 9 0 23 -9
31 -20 8 -11 18 -20 23 -20 10 0 48 -40 65 -68 7 -12 8 -22 3 -22 -7 0 -105
81 -121 101 -3 3 -23 17 -45 31 -50 31 -110 42 -129 23 -18 -18 -109 -12 -141
9 -33 22 -61 20 -87 -6 -14 -14 -23 -18 -26 -10 -2 7 -11 12 -20 12 -10 0 -23
9 -30 20 -7 12 -23 20 -40 20 -16 0 -37 7 -48 15 -10 8 -33 15 -51 15 -35 0
-83 18 -83 32 0 4 -13 8 -30 8 -34 0 -36 6 -14 35 12 17 31 21 122 27 64 4
112 2 119 -3 6 -6 35 -12 63 -14 45 -4 51 -3 40 10 -7 8 -28 15 -46 15 -19 0
-34 5 -34 10 0 6 -15 10 -32 10 -63 1 -162 28 -179 49 -9 11 -35 26 -58 33
-39 12 -52 30 -31 43 18 11 -19 37 -58 39 -20 2 -54 -6 -74 -16 -41 -20 -57
-38 -34 -38 28 0 17 -17 -15 -24 -61 -12 -79 -8 -79 17 0 25 -51 57 -90 57
-11 0 -20 4 -20 9 0 5 -14 11 -31 15 -30 6 -78 -17 -79 -38 0 -5 -7 -14 -16
-21 -15 -10 -14 -14 11 -38 l28 -25 -38 -17 c-22 -8 -49 -18 -62 -21 -13 -4
-26 -10 -29 -15 -3 -5 -16 -9 -30 -9 -13 0 -24 -3 -24 -8 0 -9 -74 -42 -94
-42 -8 0 -18 -4 -21 -10 -3 -5 -15 -10 -26 -10 -10 0 -19 -4 -19 -10 0 -5 -7
-10 -15 -10 -18 0 -125 -69 -125 -81 0 -4 7 -20 15 -36 33 -63 85 -183 85
-195 0 -7 -10 0 -22 16 -12 16 -32 39 -45 52 -13 13 -23 26 -23 29 0 4 -6 13
-14 21 -17 16 -56 19 -56 4 0 -5 -13 -10 -28 -10 -50 0 -120 -40 -188 -108
-74 -75 -79 -82 -67 -102 11 -16 6 -24 -30 -56 -26 -24 -44 -49 -47 -68 -3
-17 -14 -35 -26 -41 -11 -6 -19 -16 -16 -23 2 -7 -2 -10 -12 -6 -11 4 -16 1
-16 -10 0 -9 -4 -16 -10 -16 -15 0 -12 -30 6 -47 12 -13 13 -18 3 -24 -7 -4
-17 -5 -21 -3 -12 8 -36 -20 -44 -50 -3 -14 -10 -29 -15 -32 -5 -3 -9 -18 -9
-34 0 -16 -4 -32 -10 -35 -5 -3 -10 -22 -10 -41 0 -37 -10 -43 -30 -19 -7 8
-17 15 -23 15 -5 0 -18 9 -28 21 -10 11 -22 18 -28 15 -5 -4 -12 -2 -16 4 -10
16 -35 12 -29 -4 5 -12 2 -13 -19 -3 -21 10 -23 14 -13 39 12 32 4 44 -21 33
-10 -4 -38 -9 -62 -11 -27 -2 -48 -9 -53 -18 -17 -30 -94 -74 -148 -85 -30 -6
-152 -15 -270 -20 -154 -6 -228 -13 -260 -25 -25 -8 -62 -16 -82 -16 -21 0
-38 -4 -38 -10 0 -5 7 -10 15 -10 18 0 87 -34 106 -52 8 -7 28 -20 44 -28 17
-8 33 -19 37 -25 4 -6 80 -9 198 -7 176 3 193 2 205 -15 8 -10 11 -28 8 -40
-4 -18 2 -27 26 -40 37 -22 48 -43 22 -43 -10 0 -21 -6 -24 -14 -9 -23 -67
-44 -142 -51 -38 -3 -71 -10 -73 -15 -2 -6 -24 -10 -48 -10 -32 0 -44 4 -44
15 0 8 -7 15 -15 15 -8 0 -15 3 -15 6 0 15 37 33 68 34 17 0 32 2 32 5 0 10
-61 65 -72 65 -6 0 -18 8 -27 18 -18 19 -119 72 -139 72 -6 0 -12 5 -12 10 0
6 -9 10 -20 10 -11 0 -20 4 -20 9 0 5 -12 12 -27 15 -40 10 -83 30 -83 38 0 5
-13 8 -29 8 -17 0 -33 5 -36 10 -3 6 -16 10 -28 10 -12 0 -42 11 -66 25 -23
14 -47 25 -52 25 -6 0 -27 18 -49 40 -21 21 -50 42 -64 46 -14 3 -26 10 -26
15 0 5 -8 9 -18 9 -10 0 -22 4 -28 9 -5 5 -34 12 -64 15 -30 2 -72 8 -92 11
-25 5 -38 3 -38 -4 0 -6 -19 -11 -45 -11 -25 0 -59 -8 -77 -18 -18 -11 -49
-22 -68 -25 -34 -7 -37 -5 -48 26 -7 19 -21 42 -32 52 -20 18 -22 18 -73 -4
-29 -13 -64 -26 -79 -28 -16 -3 -28 -9 -28 -14 0 -5 -9 -9 -20 -9 -11 0 -28
-4 -38 -9 -33 -18 -121 -41 -156 -41 -19 0 -38 -4 -41 -10 -3 -5 -21 -10 -40
-10 -19 0 -36 -4 -39 -9 -3 -5 -20 -11 -38 -14 -30 -5 -101 -22 -203 -49 -22
-5 -64 -12 -92 -15 -29 -3 -53 -9 -53 -14 0 -5 -16 -9 -35 -9 -19 0 -35 -4
-35 -8 0 -4 -24 -14 -52 -20 -29 -7 -71 -17 -93 -23 -22 -6 -59 -13 -82 -16
-24 -3 -43 -9 -43 -13 0 -4 -15 -10 -32 -13 -18 -3 -58 -13 -88 -22 -30 -9
-66 -19 -80 -21 -32 -6 -99 -24 -125 -34 -47 -17 -93 -30 -109 -30 -26 0 -158
-30 -178 -41 -10 -5 -33 -9 -52 -9 -19 0 -38 -4 -41 -10 -3 -5 -17 -10 -30
-10 -13 0 -27 5 -30 10 -4 6 5 10 19 10 14 0 26 4 26 9 0 11 -29 23 -39 16 -5
-2 -6 6 -4 18 l5 23 -116 -4 c-100 -4 -119 -2 -136 13 -15 13 -30 16 -77 11
-191 -18 -326 -25 -383 -19 -36 3 -122 5 -192 4 -79 -1 -129 2 -133 9 -3 5
-21 10 -39 10 -17 0 -37 5 -43 11 -11 11 -89 8 -128 -5 -14 -5 -29 1 -53 22
-28 25 -32 35 -32 78 0 49 1 50 90 134 50 47 90 92 90 102 0 9 18 33 40 54 22
21 43 47 46 59 7 20 53 92 76 117 7 8 19 24 26 36 11 20 10 22 -16 22 -36 0
-74 34 -65 58 4 9 18 35 32 57 13 22 42 74 64 115 22 41 57 106 79 144 38 64
39 69 23 85 -16 15 -17 15 -11 -5 4 -14 1 -28 -9 -37 -8 -9 -15 -20 -15 -26 0
-14 -37 -14 -45 -1 -12 19 -45 11 -45 -10 0 -17 -7 -20 -45 -20 -25 0 -45 4
-45 8 0 14 -51 33 -71 27 -11 -4 -19 -13 -19 -21 0 -16 -65 -20 -75 -4 -3 6
-19 10 -34 10 -16 0 -34 7 -41 15 -16 19 -47 19 -58 0 -10 -18 -94 -23 -114
-8 -7 6 -38 13 -68 17 -64 9 -130 28 -130 38 0 5 -9 8 -19 8 -11 0 -22 4 -25
9 -3 4 -19 11 -36 14 -21 5 -30 12 -30 26 0 23 -49 61 -78 61 -14 0 -24 10
-32 34 -9 28 -17 35 -48 40 -20 3 -46 8 -57 10 -11 2 -35 5 -52 5 -26 1 -34 6
-39 26 -3 14 0 39 7 56 l12 32 151 -7 c83 -3 180 -11 216 -17 36 -5 90 -12
120 -15 30 -3 69 -12 87 -20 17 -8 37 -14 44 -14 23 0 154 -43 157 -52 5 -11
52 -10 52 1 0 5 -15 13 -32 16 -18 4 -35 11 -38 14 -7 11 -94 51 -109 51 -7 0
-11 6 -9 12 4 12 -32 48 -47 48 -4 0 -16 11 -27 25 -11 14 -25 25 -33 25 -7 0
-15 3 -17 8 -1 4 -18 15 -36 25 -30 15 -70 17 -383 17 -246 0 -349 -3 -349
-11 0 -6 6 -34 14 -62 20 -72 28 -147 16 -147 -18 0 -10 -29 15 -54 18 -18 21
-26 11 -29 -8 -3 -19 0 -25 6 -8 8 -11 4 -11 -16 0 -15 -4 -27 -9 -27 -5 0
-11 -10 -13 -21 -2 -13 -18 -30 -38 -41 -38 -20 -117 -18 -194 5 -36 10 -43 9
-97 -21 -35 -20 -72 -32 -94 -32 -34 0 -37 2 -33 24 3 15 -4 41 -16 62 -23 41
-66 62 -126 63 -20 1 -66 16 -103 36 -37 19 -75 35 -84 35 -22 0 -99 46 -136
81 -16 16 -36 29 -44 29 -8 0 -26 11 -41 25 -15 14 -52 37 -82 51 -30 14 -62
29 -71 34 -10 5 -177 9 -373 9 l-356 1 0 -810z m639 668 c6 -7 33 -13 59 -13
55 0 122 -29 129 -55 3 -10 15 -21 26 -25 l22 -8 -23 -4 c-18 -4 -21 -9 -16
-29 6 -22 4 -24 -33 -24 -51 0 -83 26 -83 69 0 19 -4 30 -10 26 -6 -3 -7 -17
-4 -31 4 -17 1 -26 -12 -31 -10 -4 -19 -2 -22 5 -2 8 -27 12 -68 12 l-64 0 0
31 c0 32 8 43 50 72 29 20 32 21 49 5z m-102 -14 c-3 -3 -12 -4 -19 -1 -8 3
-5 6 6 6 11 1 17 -2 13 -5z m9161 -31 c2 -13 1 -23 -1 -23 -12 0 -97 40 -97
45 0 3 21 5 48 3 40 -3 47 -6 50 -25z m-9180 -35 c-4 -27 -23 -34 -32 -13 -8
21 1 35 20 35 10 0 14 -8 12 -22z m1509 -70 c-12 -13 -24 -19 -25 -15 -5 11
18 37 34 37 9 0 5 -8 -9 -22z m-1524 -14 c-8 -21 -33 -17 -33 5 0 14 5 18 19
14 12 -3 17 -11 14 -19z m54 10 c-3 -3 -12 -4 -19 -1 -8 3 -5 6 6 6 11 1 17
-2 13 -5z m8543 -49 c0 -2 -19 -14 -42 -25 -60 -29 -122 -64 -128 -71 -3 -3
-19 -13 -36 -22 -25 -13 -35 -14 -48 -4 -16 12 -16 14 1 32 31 34 91 75 110
75 10 0 25 5 33 10 15 10 110 14 110 5z m-7256 -136 c10 -17 16 -40 12 -51 -3
-15 3 -29 22 -47 l27 -26 -25 -3 c-13 -2 -26 1 -28 7 -2 7 -9 5 -19 -5 -14
-13 -14 -16 3 -29 18 -13 18 -15 2 -45 -10 -18 -18 -44 -18 -60 0 -16 -4 -32
-10 -35 -5 -3 -10 -30 -10 -60 0 -30 -4 -56 -9 -59 -5 -3 -11 -23 -14 -43 -3
-21 -11 -71 -18 -112 -12 -68 -12 -74 5 -83 10 -6 27 -21 39 -34 11 -13 25
-24 30 -24 5 0 23 -6 40 -14 18 -7 52 -19 77 -27 25 -7 56 -20 70 -29 57 -37
124 -58 215 -67 28 -3 52 -8 55 -12 9 -10 43 -31 81 -47 49 -22 59 -48 59
-159 0 -78 3 -95 15 -95 19 0 19 -17 0 -36 -10 -10 -15 -11 -15 -4 0 9 -15 10
-52 5 -29 -3 -120 -10 -203 -15 -358 -23 -437 -28 -560 -39 -307 -26 -373 -31
-417 -31 -31 0 -48 -4 -48 -12 0 -18 -14 0 -46 62 -29 55 -86 116 -92 99 -5
-12 -32 -12 -32 1 0 6 -7 10 -15 10 -8 0 -15 -4 -15 -10 0 -17 -27 0 -40 26
-11 20 -11 28 0 49 7 14 20 25 29 25 35 1 51 26 51 78 0 28 4 54 10 57 5 3 10
15 10 26 0 10 3 19 8 19 4 0 16 16 26 35 11 19 23 35 28 35 4 0 8 7 8 16 0 8
20 44 45 78 25 35 45 73 45 85 0 11 4 21 8 21 4 0 21 25 37 55 17 30 33 55 38
55 4 0 7 9 7 20 0 11 5 20 10 20 6 0 10 7 10 15 0 8 5 15 10 15 6 0 10 6 10
13 0 7 16 36 35 64 19 29 35 55 35 58 0 3 16 31 35 61 19 30 35 59 35 64 0 6
4 10 8 10 5 0 14 11 21 24 24 45 55 50 151 25 97 -25 147 -22 131 10 -12 21
-4 59 17 84 23 27 55 21 76 -14z m9800 -8 c15 -15 16 -22 6 -40 -25 -48 -117
-56 -149 -15 -23 30 -28 69 -8 78 25 11 132 -5 151 -23z m-9662 -20 c-12 -10
-22 -25 -22 -32 1 -20 31 -56 36 -43 6 16 54 5 54 -12 0 -15 -9 -17 -54 -14
-36 2 -56 21 -56 51 0 23 35 69 53 69 6 0 0 -8 -11 -19z m628 2 c0 -10 -4 -14
-8 -8 -4 6 -11 13 -16 18 -5 4 -2 7 7 7 10 0 17 -8 17 -17z m-197 -33 c-3 -11
-9 -20 -14 -20 -4 0 -9 -15 -11 -32 l-3 -33 -14 25 c-10 18 -11 25 -2 28 7 2
16 15 21 28 11 29 30 32 23 4z m757 -30 c9 -16 8 -20 -5 -20 -8 0 -15 9 -15
20 0 11 2 20 5 20 2 0 9 -9 15 -20z m-2460 -5 c11 -13 8 -15 -14 -15 -25 0
-33 10 -19 23 10 11 19 8 33 -8z m1485 -16 c0 -20 -41 -23 -49 -4 -3 9 -4 21
-1 25 8 13 50 -5 50 -21z m122 -11 c-3 -8 -6 -5 -6 6 -1 11 2 17 5 13 3 -3 4
-12 1 -19z m-1772 6 c13 -5 8 -12 -20 -31 -43 -29 -55 -24 -31 12 17 26 24 29
51 19z m2180 -34 c-14 -15 -21 -17 -32 -9 -22 19 -15 29 19 29 30 0 31 0 13
-20z m65 4 c0 -9 -10 -24 -22 -35 -13 -10 -17 -18 -10 -19 6 0 12 -11 12 -24
0 -19 -4 -22 -25 -18 -29 5 -29 3 -10 49 24 58 55 84 55 47z m297 10 c-3 -3
-12 -4 -19 -1 -8 3 -5 6 6 6 11 1 17 -2 13 -5z m-1071 -38 c23 -21 24 -24 10
-39 -9 -8 -16 -25 -16 -36 0 -12 -6 -21 -15 -21 -17 0 -20 16 -5 25 15 9 12
34 -6 52 -14 14 -18 14 -45 -6 -32 -24 -38 -12 -11 24 22 31 56 31 88 1z
m1131 2 c-3 -8 -6 -5 -6 6 -1 11 2 17 5 13 3 -3 4 -12 1 -19z m-2128 -12 c-26
-13 -37 -36 -16 -36 16 0 40 -47 32 -61 -9 -13 -43 -11 -47 3 -6 17 -28 0 -28
-23 0 -10 -4 -19 -10 -19 -15 0 -12 54 5 76 8 10 15 25 15 33 0 20 39 51 56
44 12 -4 10 -8 -7 -17z m1161 5 c0 -5 -3 -16 -6 -25 -5 -12 -10 -13 -27 -3
-12 7 -24 13 -26 14 -1 1 0 6 4 12 8 13 55 15 55 2z m-904 -32 c3 -5 -6 -9
-19 -9 -14 0 -31 -7 -38 -16 -11 -14 -11 -18 4 -29 17 -12 23 -35 10 -35 -37
1 -49 13 -45 43 8 50 66 81 88 46z m1228 -21 c-9 -14 -23 2 -17 18 4 12 8 13
14 3 4 -7 5 -17 3 -21z m196 22 c0 -5 -5 -10 -11 -10 -5 0 -7 5 -4 10 3 6 8
10 11 10 2 0 4 -4 4 -10z m8100 -36 c0 -4 10 -18 22 -31 15 -16 19 -26 11 -34
-7 -7 -18 3 -37 37 -29 52 -34 73 -11 50 8 -8 15 -18 15 -22z m-8820 11 c0 -8
-4 -15 -10 -15 -5 0 -10 7 -10 15 0 8 5 15 10 15 6 0 10 -7 10 -15z m947 9
c-3 -3 -12 -4 -19 -1 -8 3 -5 6 6 6 11 1 17 -2 13 -5z m-984 -30 c-8 -21 -33
-17 -33 5 0 14 5 18 19 14 12 -3 17 -11 14 -19z m217 0 c0 -8 -10 -14 -25 -14
-15 0 -25 6 -25 14 0 8 10 14 25 14 15 0 25 -6 25 -14z m200 2 c0 -7 -6 -19
-14 -25 -11 -9 -12 -6 -8 14 5 26 22 35 22 11z m368 -12 c12 -10 17 -24 14
-40 -5 -25 -27 -33 -35 -11 -3 6 -6 2 -6 -10 -1 -28 -21 -31 -21 -3 0 11 -7
20 -15 20 -9 0 -15 -9 -15 -25 0 -14 -4 -25 -10 -25 -16 0 -12 48 6 76 12 17
22 23 35 19 11 -4 19 -2 19 4 0 15 7 14 28 -5z m-298 -25 c0 -23 7 -24 26 -4
9 8 22 15 29 15 9 0 12 -6 9 -15 -4 -8 -14 -15 -23 -15 -9 0 -22 -5 -29 -12
-9 -9 -12 -9 -12 0 0 7 -9 12 -21 12 -32 0 -17 -24 20 -31 40 -8 44 -13 36
-38 -4 -12 -12 -18 -21 -14 -17 6 -20 -27 -3 -44 16 -16 2 -33 -27 -33 -13 0
-24 -4 -24 -10 0 -5 5 -10 10 -10 18 0 10 -29 -12 -44 -17 -12 -24 -13 -30 -3
-6 9 -12 9 -27 0 -18 -12 -19 -10 -14 25 3 20 10 41 14 47 5 5 9 21 9 37 0 15
9 43 20 63 16 29 17 35 5 35 -9 0 -18 -7 -21 -15 -4 -8 -16 -15 -28 -15 -19 1
-19 2 7 18 15 9 30 25 33 34 3 10 11 18 19 18 7 0 15 7 19 15 7 20 36 8 36
-16z m466 -8 c-4 -6 -14 -11 -22 -11 -8 0 -14 -5 -14 -12 0 -6 -3 -8 -6 -5 -4
4 1 18 11 33 11 18 20 23 27 16 6 -6 7 -15 4 -21z m214 -1 c0 -5 -6 -10 -13
-10 -7 0 -19 -9 -27 -19 -19 -27 -32 -16 -18 14 11 25 58 37 58 15z m-2460
-20 c0 -5 -4 -10 -10 -10 -5 0 -10 5 -10 10 0 6 5 10 10 10 6 0 10 -4 10 -10z
m1280 0 c0 -5 -9 -14 -20 -20 -17 -9 -20 -8 -20 10 0 13 7 20 20 20 11 0 20
-4 20 -10z m55 -4 c12 -12 12 -16 -1 -26 -8 -7 -15 -11 -17 -9 -27 47 -27 49
-11 49 8 0 22 -6 29 -14z m-788 -31 c13 -29 13 -29 -22 -13 -24 11 -32 28 -19
41 10 10 29 -2 41 -28z m9587 29 c9 -3 16 -12 16 -20 0 -8 5 -14 10 -14 6 0
10 -9 10 -19 0 -11 4 -22 9 -26 5 -3 12 -18 16 -34 3 -17 14 -31 26 -34 11 -3
19 -14 19 -25 0 -12 9 -36 20 -55 12 -19 24 -59 27 -88 4 -31 14 -62 25 -73
22 -24 23 -40 3 -56 -10 -9 -15 -9 -15 -1 0 15 -41 14 -78 -2 -25 -10 -29 -16
-20 -30 5 -10 8 -19 6 -20 -1 -1 -13 -8 -25 -14 -13 -7 -28 -13 -34 -13 -35 0
-52 -70 -27 -110 7 -10 9 -22 6 -26 -12 -11 -40 5 -45 26 -3 11 -10 20 -15 20
-6 0 -8 16 -6 35 4 34 3 35 -33 35 -20 0 -57 3 -83 6 -44 6 -46 8 -46 40 0 19
5 34 10 34 6 0 10 7 10 15 0 8 -6 15 -12 15 -9 0 -8 4 2 10 24 15 54 12 69 -8
12 -17 15 -16 48 16 25 24 34 40 31 57 -6 28 18 24 27 -5 8 -27 34 -45 46 -33
6 6 2 18 -11 33 -21 24 -27 65 -11 74 5 3 7 15 4 26 -4 14 1 22 20 29 25 10
67 60 67 80 0 6 -10 11 -22 11 -18 0 -29 13 -51 61 -16 33 -26 67 -23 75 6 16
8 16 30 8z m83 -26 c-3 -8 -6 -5 -6 6 -1 11 2 17 5 13 3 -3 4 -12 1 -19z
m-9777 -22 c0 -11 -19 -15 -25 -6 -3 5 1 10 9 10 9 0 16 -2 16 -4z m863 -24
c18 -3 27 -10 27 -23 0 -25 -15 -24 -40 1 -16 16 -25 18 -40 10 -15 -8 -20 -8
-20 3 0 20 12 29 29 21 9 -4 28 -9 44 -12z m157 -6 c0 -3 -4 -8 -10 -11 -5 -3
-10 -1 -10 4 0 6 5 11 10 11 6 0 10 -2 10 -4z m210 -5 c0 -5 -7 -11 -15 -15
-15 -5 -20 5 -8 17 9 10 23 9 23 -2z m490 -6 l25 -15 -22 -6 c-26 -7 -31 -34
-8 -34 18 0 19 -9 5 -44 -5 -14 -16 -26 -25 -26 -17 0 -20 -16 -5 -25 16 -10
-5 -32 -38 -40 -19 -5 -30 -2 -39 11 -17 23 -31 9 -15 -16 17 -28 15 -40 -8
-40 -16 0 -20 7 -20 33 0 19 6 47 14 63 8 16 22 47 32 69 10 22 24 46 31 53 7
7 13 18 13 23 0 13 31 10 60 -6z m8103 -32 c11 -13 17 -23 12 -23 -13 0 -45
42 -44 59 0 14 1 14 6 1 3 -8 15 -25 26 -37z m-9019 -28 c-6 -16 -34 -21 -34
-7 0 13 11 22 26 22 8 0 11 -6 8 -15z m66 -21 c0 -9 -5 -14 -12 -12 -18 6 -21
28 -4 28 9 0 16 -7 16 -16z m330 2 c0 -3 -4 -8 -10 -11 -5 -3 -10 -1 -10 4 0
6 5 11 10 11 6 0 10 -2 10 -4z m6325 -6 c-3 -5 -12 -10 -20 -10 -8 0 -17 5
-20 10 -4 6 5 10 20 10 15 0 24 -4 20 -10z m-5685 -70 c0 -5 -8 -10 -17 -10
-15 0 -16 2 -3 10 19 12 20 12 20 0z m11277 -97 l-15 -28 -11 40 c-13 51 -13
61 4 57 7 -1 17 3 22 10 15 24 15 -50 0 -79z m-845 35 c7 -7 25 -19 40 -27 49
-25 38 -91 -17 -91 -35 0 -64 30 -65 70 -3 53 -1 60 14 60 8 0 21 -6 28 -12z
m-12572 -44 c0 -8 -5 -12 -10 -9 -6 4 -8 11 -5 16 9 14 15 11 15 -7z m5957
-60 c-3 -3 -12 -4 -19 -1 -8 3 -5 6 6 6 11 1 17 -2 13 -5z m32 -23 c7 -5 9
-11 5 -14 -5 -3 -15 1 -22 9 -14 16 -5 18 17 5z m3870 -150 c7 -5 10 -14 7
-20 -9 -14 -53 -15 -61 -1 -15 25 24 40 54 21z m-2513 -58 c-4 -16 -9 -46 -12
-68 l-5 -40 118 -1 c111 -2 331 -19 381 -29 20 -5 22 -11 22 -71 0 -99 3 -98
-208 -90 -97 4 -195 12 -217 17 -56 15 -115 73 -115 115 0 18 -4 36 -10 39
-18 11 -11 95 11 126 26 37 43 38 35 2z m-1015 -136 c19 -15 45 -36 58 -47
l24 -20 -26 0 c-20 0 -27 -5 -27 -20 0 -15 7 -20 25 -20 16 0 25 -6 25 -15 0
-8 5 -15 10 -15 6 0 10 7 10 15 0 8 -4 15 -10 15 -5 0 -10 5 -10 10 0 19 39
10 45 -10 3 -11 14 -20 23 -20 33 -1 -15 -21 -74 -30 -69 -11 -104 2 -105 39
-1 33 -5 55 -18 106 -15 58 -14 70 3 53 8 -7 29 -25 47 -41z m3747 26 c22 -5
23 -10 19 -62 -3 -31 -9 -71 -12 -90 -8 -33 -8 -33 -57 -29 -28 3 -54 11 -58
19 -8 12 -4 126 6 157 4 13 62 16 102 5z m-6683 -73 c-3 -5 -15 -10 -25 -10
-10 0 -22 5 -25 10 -4 6 7 10 25 10 18 0 29 -4 25 -10z m3895 -10 c0 -23 16
-54 43 -84 25 -28 37 -60 37 -99 0 -34 13 -50 68 -83 18 -10 32 -22 32 -26 0
-4 6 -8 13 -8 7 0 24 -10 36 -22 20 -18 23 -27 17 -71 -8 -70 8 -98 125 -217
54 -56 99 -104 99 -106 0 -4 12 -19 68 -79 12 -13 22 -27 22 -30 0 -12 -26
-32 -50 -40 -14 -4 -31 -12 -38 -18 -9 -7 -11 -6 -6 7 3 9 13 16 21 16 10 0
12 6 7 22 -6 20 -5 21 10 9 21 -17 23 4 2 25 -8 7 -17 19 -19 26 -4 10 -7 10
-15 -1 -7 -9 -12 -10 -16 -2 -4 6 -2 11 3 11 6 0 11 5 11 10 0 6 -7 10 -16 10
-9 0 -14 5 -12 12 5 14 -35 58 -52 58 -5 0 -10 6 -10 14 0 19 -33 31 -39 14
-3 -7 -10 5 -17 27 -8 27 -13 33 -13 18 -1 -13 -3 -23 -6 -23 -15 0 -85 83
-85 101 0 21 -13 36 -45 55 -10 5 -19 20 -20 33 -1 12 -11 28 -23 37 -11 8
-27 20 -34 27 -7 6 -26 12 -43 12 -23 0 -31 5 -33 23 -2 12 -8 22 -14 22 -5 0
-7 7 -4 16 4 11 -5 20 -34 31 -22 9 -40 22 -40 30 0 7 -8 13 -17 13 -10 0 -29
12 -43 26 -22 24 -25 25 -31 8 -5 -17 -7 -16 -14 6 -9 29 -33 49 -57 50 -10 0
-18 4 -18 9 0 5 -8 12 -18 15 -10 4 -29 16 -41 27 -39 36 -34 13 5 -25 20 -20
34 -39 31 -42 -3 -4 -13 0 -20 7 -28 26 -54 46 -67 51 -10 3 -9 8 4 20 9 9 16
21 16 26 0 6 9 8 20 5 11 -3 20 -9 20 -13 0 -4 19 -13 43 -20 23 -7 53 -23 67
-34 23 -19 65 -46 73 -46 2 0 3 32 4 72 1 79 14 99 57 91 13 -3 27 0 30 6 11
18 26 13 26 -9z m-3962 -7 c-10 -2 -26 -2 -35 0 -10 3 -2 5 17 5 19 0 27 -2
18 -5z m3201 -10 c-8 -10 -18 -21 -23 -25 -13 -9 -36 2 -36 17 0 14 19 22 54
24 16 1 17 -1 5 -16z m-3276 -10 c-7 -2 -19 -2 -25 0 -7 3 -2 5 12 5 14 0 19
-2 13 -5z m-60 -20 c-13 -2 -33 -2 -45 0 -13 2 -3 4 22 4 25 0 35 -2 23 -4z
m3351 -14 c-7 -12 -44 -12 -44 0 0 5 6 11 13 14 17 6 38 -3 31 -14z m-3557
-35 c-3 -3 -12 -4 -19 -1 -8 3 -5 6 6 6 11 1 17 -2 13 -5z m-717 -63 c0 -10 7
-22 16 -25 10 -4 13 -13 9 -26 -5 -17 -2 -20 22 -21 26 -1 26 -2 -7 -9 -19 -5
-36 -13 -38 -19 -5 -14 -52 -15 -52 -1 0 6 7 10 15 10 29 0 15 19 -16 22 -36
3 -51 30 -38 66 7 18 16 22 49 22 33 0 40 -3 40 -19z m7928 -1 c9 -15 10 -26
2 -40 -5 -10 -10 -32 -10 -48 0 -35 -19 -92 -30 -92 -5 0 -12 5 -15 10 -3 6
-44 10 -91 10 -49 0 -84 4 -84 10 0 6 -7 10 -15 10 -8 0 -15 -4 -15 -9 0 -10
-107 -21 -144 -14 l-28 6 7 66 c8 75 17 91 51 91 21 0 24 -5 24 -36 0 -31 2
-35 15 -24 8 7 15 23 15 36 0 19 5 24 24 24 14 0 28 5 31 10 4 6 58 10 128 10
112 0 123 -2 135 -20z m-4058 -35 c0 -8 -4 -15 -10 -15 -5 0 -10 7 -10 15 0 8
5 15 10 15 6 0 10 -7 10 -15z m578 -7 c18 -18 15 -23 -13 -24 -18 -2 -25 3
-25 17 0 21 20 25 38 7z m402 -32 c0 -3 -4 -8 -10 -11 -5 -3 -10 -1 -10 4 0 6
5 11 10 11 6 0 10 -2 10 -4z m-914 -92 c3 -19 10 -34 14 -34 4 0 10 -12 13
-27 8 -42 71 -218 80 -221 4 -2 7 -12 7 -22 0 -9 7 -35 17 -56 18 -42 20 -49
29 -106 3 -21 10 -38 14 -38 4 0 11 -15 14 -32 4 -18 11 -55 17 -83 5 -27 12
-64 15 -82 4 -18 13 -34 23 -36 14 -4 14 -5 0 -6 -20 -1 -59 32 -59 50 0 8 -7
23 -15 33 -8 11 -15 27 -15 35 0 9 -9 27 -20 41 -16 20 -20 22 -20 8 0 -10 5
-18 10 -18 6 0 10 -11 10 -25 0 -14 4 -25 9 -25 5 0 11 -11 13 -25 3 -15 1
-25 -7 -25 -11 0 -25 24 -43 73 -5 12 -21 48 -36 79 -15 31 -26 65 -24 75 3
10 -1 29 -7 43 -7 14 -15 40 -18 58 -6 29 -5 31 8 18 8 -8 15 -21 15 -29 0 -8
7 -20 15 -27 8 -7 15 -19 15 -26 0 -8 4 -14 8 -14 5 0 14 -16 22 -35 8 -19 17
-35 21 -35 3 0 12 -14 20 -32 11 -27 14 -29 20 -12 3 10 3 27 -2 36 -5 9 -9
26 -9 37 0 12 -4 21 -10 21 -5 0 -10 14 -10 30 0 17 -4 30 -10 30 -5 0 -10 8
-10 18 0 10 -8 36 -19 58 -10 21 -27 64 -37 94 -10 30 -22 57 -26 58 -5 2 -8
16 -8 31 0 15 -4 31 -8 37 -4 5 -16 36 -26 69 -10 33 -22 68 -27 77 -16 31 -9
44 11 20 11 -13 22 -39 26 -58z m528 30 c19 -7 22 -34 4 -34 -22 0 -41 17 -34
29 8 13 9 13 30 5z m416 -24 c4 0 10 -7 14 -15 8 -21 -7 -19 -35 7 -18 16 -19
19 -6 15 10 -4 22 -7 27 -7z m148 -107 c11 -11 11 -13 -2 -13 -9 0 -16 4 -16
9 0 5 -9 13 -20 16 -11 3 -20 11 -20 16 0 10 35 -7 58 -28z m-1291 -45 c-3 -8
-6 -5 -6 6 -1 11 2 17 5 13 3 -3 4 -12 1 -19z m2761 -28 c12 -12 22 -24 22
-28 0 -4 5 -37 10 -74 12 -80 3 -109 -46 -155 -42 -40 -48 -41 -63 -5 -12 29
-79 82 -104 82 -8 0 -20 14 -27 30 -20 47 -64 41 -88 -13 -11 -26 -37 -45 -48
-35 -17 18 83 139 126 153 11 3 20 11 20 16 0 5 9 9 20 9 11 0 20 5 20 10 0 6
11 10 24 10 14 0 28 5 31 10 11 18 80 11 103 -10z m-1838 -21 c0 -23 -22 -49
-42 -49 -9 0 -9 3 -2 8 6 4 14 19 18 35 8 32 26 36 26 6z m3170 -76 c0 -19
-10 -16 -31 9 -25 28 -24 30 6 16 14 -6 25 -17 25 -25z m-9270 13 c0 -19 -81
-48 -215 -76 -22 -4 -50 -11 -62 -15 -20 -6 -23 -4 -23 18 0 60 59 84 218 86
63 1 82 -2 82 -13z m5650 -55 c0 -26 5 -52 11 -58 14 -14 8 -65 -7 -55 -7 4
-16 44 -21 88 -7 66 -6 81 4 77 8 -3 13 -23 13 -52z m-6912 -65 c0 -19 3 -42
6 -52 7 -23 1 -32 -43 -63 -28 -19 -38 -22 -52 -12 -10 6 -27 11 -38 11 -10 0
-42 8 -71 17 -50 16 -52 18 -48 50 3 25 0 33 -12 33 -25 0 -31 11 -16 26 10 9
48 14 122 17 60 1 119 4 131 5 18 2 21 -3 21 -32z m13122 -6 c0 -5 7 -10 16
-10 14 0 15 -7 10 -37 -3 -21 -6 -52 -6 -69 0 -21 -6 -34 -17 -38 -23 -7 -83
-42 -97 -56 -5 -5 -18 -10 -28 -10 -10 0 -18 -4 -18 -10 0 -5 -15 -10 -34 -10
-19 0 -38 -4 -41 -10 -3 -5 -16 -10 -27 -10 -12 0 -36 -16 -54 -36 -32 -34
-33 -37 -18 -59 9 -13 13 -29 9 -34 -4 -7 31 -10 100 -9 82 1 109 -2 117 -13
7 -11 11 -11 15 -2 3 10 10 10 25 2 19 -10 19 -11 2 -30 -10 -11 -26 -18 -36
-16 -10 3 -34 1 -55 -3 -21 -5 -72 -11 -113 -14 -41 -3 -95 -11 -120 -17 -73
-18 -191 -23 -201 -8 -4 7 -3 19 3 26 8 10 7 13 -4 13 -8 0 -21 -11 -28 -25
-11 -21 -20 -25 -63 -25 -32 0 -58 7 -76 19 -36 26 -122 35 -163 17 -92 -38
-192 -48 -269 -25 -32 10 -40 9 -54 -5 -14 -14 -15 -19 -4 -34 26 -32 52 -52
70 -52 10 0 21 -4 24 -10 3 -5 -1 -10 -11 -10 -17 0 -74 -32 -106 -59 -25 -22
-88 -41 -136 -41 -23 0 -50 -4 -60 -10 -16 -9 -57 -25 -74 -29 -4 -1 -39 -17
-78 -36 -38 -19 -74 -35 -79 -35 -5 0 -16 -6 -23 -12 -24 -22 -57 -38 -80 -38
-12 0 -35 -4 -52 -9 -99 -30 -144 -46 -168 -63 -14 -10 -31 -18 -36 -18 -6 0
-12 -3 -14 -7 -1 -5 -22 -20 -45 -36 -24 -15 -43 -34 -43 -41 0 -22 -36 -29
-67 -12 l-28 14 28 7 c31 8 32 12 12 39 -8 11 -15 32 -15 48 0 18 -5 28 -15
28 -20 0 -32 -30 -16 -39 8 -5 5 -14 -10 -30 -32 -34 -49 -12 -49 65 0 34 -4
66 -10 69 -16 10 -12 91 5 105 12 10 16 8 24 -11 l10 -24 0 23 c1 21 5 23 29
17 19 -4 36 0 53 13 38 28 77 42 119 42 21 0 40 3 42 8 6 14 190 67 220 63 9
-1 19 3 23 9 3 5 26 10 51 10 28 0 44 4 44 13 0 7 15 12 38 13 20 1 65 10 100
21 49 15 60 21 50 31 -9 9 -3 12 29 12 23 0 44 4 48 10 3 5 11 7 18 4 7 -2 38
2 68 10 29 7 74 13 98 12 38 -2 49 2 73 26 21 22 37 28 68 28 22 0 40 4 40 10
0 5 3 9 8 9 30 -5 63 3 59 14 -2 6 10 18 26 25 39 16 52 16 38 -2 -9 -10 -8
-15 4 -20 25 -9 45 4 45 30 0 26 49 64 83 64 10 0 55 16 98 35 44 19 87 35 97
35 22 0 101 30 132 50 14 9 41 23 60 30 19 7 42 19 51 27 8 7 24 13 35 13 10
0 34 9 52 20 18 11 39 20 46 20 8 0 16 4 18 8 2 5 14 5 28 1 23 -6 23 -7 3 -8
-12 -1 -25 -5 -28 -11 -3 -5 -15 -10 -26 -10 -13 0 -19 -7 -19 -22 0 -17 3
-19 12 -10 7 7 22 12 35 12 13 0 23 5 23 10 0 6 8 10 18 10 22 0 79 27 87 41
8 13 25 1 25 -17 0 -8 -11 -19 -24 -24 -13 -5 -27 -14 -31 -19 -3 -6 -17 -11
-31 -11 -13 0 -24 -4 -24 -10 0 -5 -9 -10 -19 -10 -11 0 -36 -16 -55 -35 -20
-19 -43 -35 -51 -35 -8 0 -15 -4 -15 -10 0 -5 7 -10 15 -10 8 0 15 5 15 10 0
6 11 8 25 4 24 -6 85 14 85 28 0 5 20 8 45 8 33 0 45 4 45 15 0 11 7 13 28 9
25 -5 29 -2 38 28 12 45 6 98 -12 98 -8 0 -14 7 -14 15 0 8 7 15 15 15 8 0 15
-4 15 -10z m-12471 -9 c21 -13 4 -31 -30 -31 -16 0 -29 -4 -29 -10 0 -5 -11
-10 -25 -10 -30 0 -32 13 -5 40 21 21 65 26 89 11z m7228 -7 c-3 -3 -12 -4
-19 -1 -8 3 -5 6 6 6 11 1 17 -2 13 -5z m-1383 -29 c3 -8 1 -15 -4 -15 -6 0
-10 7 -10 15 0 8 2 15 4 15 2 0 6 -7 10 -15z m6509 8 c-7 -2 -19 -2 -25 0 -7
3 -2 5 12 5 14 0 19 -2 13 -5z m-6076 -85 c-3 -7 -5 -2 -5 12 0 14 2 19 5 13
2 -7 2 -19 0 -25z m3387 0 c-10 -13 -23 -26 -29 -30 -6 -5 -5 -11 3 -17 11 -6
10 -10 -3 -15 -9 -3 -21 -4 -25 -1 -14 9 -23 -16 -11 -28 6 -6 11 -35 11 -65
l0 -55 -25 37 c-14 20 -25 41 -25 46 0 6 -4 10 -10 10 -5 0 -10 8 -10 18 0 10
-5 23 -12 30 -13 13 1 27 52 54 14 7 31 19 38 26 7 6 25 12 39 12 26 0 26 0 7
-22z m-3808 -15 c3 -10 10 -28 16 -39 5 -12 8 -30 5 -40 -3 -13 -5 -11 -6 9 0
15 -5 27 -11 27 -5 0 -10 11 -10 24 0 13 -6 27 -12 29 -10 4 -10 6 0 6 7 1 15
-7 18 -16z m6524 -135 c0 -4 11 -8 25 -8 16 0 25 -6 25 -15 0 -8 3 -14 8 -14
4 1 17 1 30 0 30 -1 28 -21 -2 -21 -16 0 -26 -7 -29 -21 -3 -12 -10 -18 -16
-14 -8 4 -8 12 0 26 12 23 -3 49 -27 49 -16 0 -19 -16 -4 -25 6 -4 4 -12 -6
-22 -11 -12 -18 -13 -27 -4 -6 6 -21 11 -34 11 -13 0 -23 4 -23 9 0 5 -3 16
-6 25 -3 9 -1 16 5 16 6 0 11 -9 11 -21 0 -11 5 -17 10 -14 6 3 10 17 10 30 0
20 5 24 25 23 14 -1 25 -6 25 -10z m-6480 -50 c0 -25 -3 -29 -10 -18 -13 20
-13 50 0 50 6 0 10 -15 10 -32z m520 9 c0 -25 -24 -47 -40 -37 -12 7 -10 12 9
29 28 25 31 25 31 8z m3355 -49 c6 -20 8 -20 12 -5 2 9 11 17 19 17 12 0 13
-10 8 -49 -5 -39 -3 -49 10 -54 11 -5 16 -1 16 13 0 11 5 20 10 20 6 0 10 -16
10 -35 0 -19 5 -35 10 -35 6 0 10 -14 10 -31 0 -16 -4 -28 -9 -25 -5 3 -15 -2
-22 -12 -7 -9 -9 -14 -5 -10 5 4 18 -2 28 -14 16 -19 21 -20 29 -8 6 10 7 4 3
-20 -4 -25 -3 -31 4 -21 9 12 13 12 28 -3 14 -15 15 -22 6 -37 -10 -16 -9 -19
8 -19 16 0 20 -7 20 -31 0 -30 15 -69 32 -80 4 -3 11 -36 15 -73 4 -50 11 -71
25 -79 25 -16 24 -57 -1 -57 -33 0 -51 11 -51 31 0 10 -4 19 -9 19 -10 0 -24
38 -22 58 1 6 -2 12 -7 12 -12 0 -32 46 -32 76 0 14 -9 34 -20 46 -11 12 -20
32 -20 44 0 13 -4 25 -9 28 -8 5 -25 71 -26 103 0 6 -8 20 -18 30 -9 11 -17
25 -17 32 0 6 -9 31 -20 53 -11 23 -20 50 -20 59 0 10 -4 21 -10 24 -12 8 -13
55 -1 55 5 0 12 -10 16 -22z m-3445 -94 c0 -19 5 -34 10 -34 6 0 10 -9 10 -20
0 -11 4 -28 9 -38 17 -33 33 -100 27 -111 -4 -6 -2 -11 3 -11 6 0 11 -6 11
-14 0 -9 -8 -12 -26 -8 -18 3 -22 8 -15 15 14 14 14 47 1 47 -5 0 -10 9 -10
19 0 11 -4 23 -10 26 -5 3 -10 17 -10 31 0 15 -6 24 -15 24 -14 0 -20 22 -15
63 1 11 -7 21 -19 24 -12 3 -21 9 -21 13 0 5 -8 11 -17 14 -10 2 -1 2 20 -1
25 -4 37 -1 37 7 0 10 3 10 15 0 8 -7 15 -28 15 -46z m-429 16 c15 0 19 -7 18
-37 0 -37 -1 -37 -12 -13 -6 14 -17 29 -24 33 -7 4 -12 18 -12 30 1 17 2 18 6
5 2 -10 13 -18 24 -18z m563 -4 c10 -15 12 -27 6 -31 -6 -3 -10 1 -10 9 0 9
-4 16 -9 16 -5 0 -11 7 -15 15 -9 24 10 17 28 -9z m-515 -151 c12 -35 21 -71
21 -80 0 -8 5 -15 10 -15 6 0 10 -20 10 -45 0 -25 5 -45 10 -45 6 0 10 -12 10
-26 0 -14 -4 -23 -10 -19 -5 3 -10 15 -10 26 0 10 -3 19 -8 19 -4 0 -8 19 -8
41 -1 23 -7 44 -13 48 -18 12 -53 161 -37 161 2 0 14 -29 25 -65z m3265 40
c-17 -26 -34 -33 -34 -15 0 15 23 39 38 40 9 0 8 -7 -4 -25z m-1154 -43 c-8
-3 -17 -8 -20 -13 -3 -4 -18 -11 -33 -14 -22 -6 -26 -4 -21 9 3 9 17 16 29 16
13 0 27 5 30 10 4 6 11 7 18 3 8 -5 7 -8 -3 -11z m1300 -11 c0 -9 -23 -21 -41
-21 -4 0 -6 7 -3 15 7 16 44 21 44 6z m-97 -38 c-7 -2 -19 -2 -25 0 -7 3 -2 5
12 5 14 0 19 -2 13 -5z m-2865 -86 c2 -10 -3 -17 -12 -17 -10 0 -16 9 -16 21
0 24 23 21 28 -4z m242 -54 c0 -22 -14 -14 -32 18 -26 44 -22 57 7 23 14 -16
25 -35 25 -41z m-330 -3 c0 -6 29 -10 66 -10 48 0 64 -3 61 -12 -5 -16 -54
-14 -114 2 -42 12 -59 30 -28 30 8 0 15 -4 15 -10z m2731 -76 c5 -6 5 -14 1
-18 -4 -4 -8 -12 -8 -17 -1 -5 -2 -15 -3 -21 -1 -8 -6 -6 -12 5 -5 9 -7 22 -4
27 3 5 1 19 -5 30 -8 16 -8 28 2 51 l13 30 3 -38 c2 -21 8 -43 13 -49z m-2741
-7 c0 -8 7 -20 15 -27 8 -7 15 -17 15 -22 0 -5 11 -20 25 -33 17 -18 35 -25
63 -25 43 0 103 -24 80 -33 -7 -2 -22 0 -33 6 -13 7 -20 6 -23 -2 -3 -9 -7 -9
-18 0 -26 21 -35 4 -10 -19 14 -12 26 -17 26 -12 0 16 17 12 24 -6 3 -8 2 -12
-4 -9 -21 13 -9 -24 19 -55 16 -19 37 -62 47 -97 10 -35 23 -63 30 -63 6 0 17
-6 24 -14 9 -12 7 -17 -9 -28 -27 -16 -28 -48 -2 -48 11 0 22 6 24 13 4 8 6 7
6 -3 0 -8 -6 -24 -14 -34 -13 -17 -12 -21 3 -32 9 -7 29 -14 45 -14 20 0 27 5
27 19 0 11 -4 23 -10 26 -5 3 -10 14 -10 23 0 10 -8 24 -18 31 -13 9 -19 27
-20 57 -2 52 8 56 27 12 8 -18 20 -38 25 -45 31 -35 36 -43 36 -57 0 -8 5 -18
10 -21 6 -3 10 3 10 15 0 11 8 24 18 27 21 9 42 28 42 41 0 6 7 12 15 16 25 9
18 -32 -10 -59 -13 -14 -29 -25 -35 -25 -5 0 -10 -9 -10 -20 0 -11 -4 -20 -10
-20 -5 0 -10 -14 -10 -30 0 -29 -1 -30 -22 -18 -13 7 -52 13 -88 14 -36 1 -70
2 -76 3 -6 0 -18 28 -27 61 -10 33 -22 60 -27 60 -6 0 1 12 15 27 14 15 25 34
25 42 0 20 -51 122 -72 145 -10 11 -18 23 -18 27 0 3 -16 24 -35 45 -19 21
-37 46 -41 56 -3 10 -10 18 -15 18 -5 0 -9 6 -9 13 0 7 -8 22 -18 33 -10 11
-22 34 -25 52 -6 29 -5 31 8 18 8 -8 15 -21 15 -29z m2500 10 c0 -20 -9 -27
-57 -42 -32 -11 -62 -23 -67 -27 -6 -4 -23 -8 -39 -8 l-30 0 27 25 c14 13 26
29 26 35 0 5 13 10 29 10 16 0 34 7 41 15 7 8 25 15 41 15 24 0 29 -4 29 -23z
m-2763 -84 c-3 -10 -5 -4 -5 12 0 17 2 24 5 18 2 -7 2 -21 0 -30z m1123 -98
c0 -9 -6 -12 -16 -8 -13 5 -13 7 -2 14 17 11 18 11 18 -6z m1417 -47 c-3 -8
-6 -5 -6 6 -1 11 2 17 5 13 3 -3 4 -12 1 -19z m-2497 -24 c0 -14 -4 -23 -10
-19 -5 3 -10 15 -10 26 0 10 5 19 10 19 6 0 10 -12 10 -26z m5330 15 c0 -6 24
-35 53 -63 28 -28 58 -63 66 -79 13 -25 13 -29 -9 -52 -29 -31 -60 -32 -89 -1
-14 15 -29 22 -45 19 -45 -9 -79 58 -68 133 4 30 92 70 92 43z m-2819 -32
c-16 -16 -26 0 -10 19 9 11 15 12 17 4 2 -6 -1 -17 -7 -23z m-2163 -39 c7 -7
12 -22 12 -35 0 -13 5 -23 10 -23 6 0 10 -16 10 -35 0 -53 -17 -42 -36 23 -9
31 -19 63 -21 70 -6 15 9 16 25 0z m-328 -43 c0 -8 -4 -15 -10 -15 -5 0 -7 7
-4 15 4 8 8 15 10 15 2 0 4 -7 4 -15z m2520 -70 c0 -30 -4 -55 -10 -55 -5 0
-10 -11 -10 -25 0 -27 -14 -57 -42 -89 -10 -11 -18 -23 -18 -28 0 -4 -7 -5
-15 -2 -17 7 -21 34 -5 34 6 0 10 9 10 20 0 20 4 29 28 77 7 13 12 42 12 66 0
48 5 57 32 57 15 0 18 -8 18 -55z m-2513 -7 c-3 -8 -6 -5 -6 6 -1 11 2 17 5
13 3 -3 4 -12 1 -19z m-62 -18 c3 -5 1 -10 -4 -10 -6 0 -11 5 -11 10 0 6 2 10
4 10 3 0 8 -4 11 -10z m84 -34 c0 -11 -3 -15 -6 -8 -2 6 -10 12 -18 12 -7 0
-17 6 -24 13 -8 11 -5 13 19 9 23 -3 30 -9 29 -26z m1138 2 c-3 -8 -6 -5 -6 6
-1 11 2 17 5 13 3 -3 4 -12 1 -19z m-59 -85 c8 -38 17 -102 19 -143 2 -41 9
-79 14 -85 12 -12 12 -105 0 -105 -12 0 -24 52 -39 167 -9 72 -22 94 -22 38 0
-36 -1 -37 -14 -19 -18 24 -24 18 -35 -39 -7 -37 -5 -49 7 -59 8 -7 18 -12 21
-10 6 2 6 -2 3 -30 -3 -18 -52 33 -52 54 0 10 -4 18 -10 18 -17 0 -11 42 9 59
10 9 24 34 31 56 7 22 19 54 27 72 7 17 13 48 13 69 0 52 11 36 28 -43z m76
52 c3 -8 1 -15 -4 -15 -6 0 -10 7 -10 15 0 8 2 15 4 15 2 0 6 -7 10 -15z m47
-35 c5 0 9 -9 9 -19 0 -11 5 -23 10 -26 6 -3 10 -19 10 -36 0 -16 -4 -29 -10
-29 -5 0 -10 6 -10 14 0 8 -9 35 -20 61 -11 26 -17 52 -13 58 5 8 9 6 11 -5 2
-10 8 -18 13 -18z m801 -17 c-3 -16 -9 -31 -15 -34 -5 -4 -7 -19 -3 -33 4 -18
13 -26 29 -26 15 0 29 -11 42 -32 10 -18 32 -45 48 -61 26 -24 28 -29 16 -44
-8 -10 -18 -24 -24 -31 -23 -31 -72 -70 -96 -77 -11 -4 -19 -11 -19 -17 0 -7
-16 6 -35 28 -36 40 -44 77 -26 112 17 31 24 56 28 97 1 22 8 42 13 43 6 2 10
17 10 32 0 33 19 82 30 75 4 -3 5 -17 2 -32z m-1971 -93 c5 0 9 -15 9 -32 l-1
-33 -14 40 c-8 22 -14 56 -13 75 1 32 2 31 5 -7 2 -24 8 -43 14 -43z m-3058
43 c-7 -2 -19 -2 -25 0 -7 3 -2 5 12 5 14 0 19 -2 13 -5z m94 1 c-3 -3 -12 -4
-19 -1 -8 3 -5 6 6 6 11 1 17 -2 13 -5z m3333 -24 c0 -11 5 -20 10 -20 6 0 10
-18 10 -41 0 -22 5 -49 10 -59 6 -10 6 -21 2 -24 -4 -2 -14 16 -20 42 -7 26
-17 61 -22 78 -12 38 -12 44 0 44 6 0 10 -9 10 -20z m207 -22 c-3 -8 -6 -5 -6
6 -1 11 2 17 5 13 3 -3 4 -12 1 -19z m-107 -22 c0 -9 -40 -13 -46 -5 -3 5 6 9
20 9 14 0 26 -2 26 -4z m5475 -17 c52 -22 74 -49 86 -105 15 -65 3 -112 -42
-161 -29 -34 -57 -41 -76 -22 -8 8 -15 5 -24 -9 -8 -10 -26 -22 -41 -25 -14
-4 -33 -10 -41 -13 -18 -7 -46 32 -57 79 -7 28 -8 29 -9 7 -1 -26 -17 -50 -33
-50 -4 0 -8 18 -8 39 0 22 -4 43 -10 46 -5 3 -10 14 -10 24 0 10 -7 24 -15 31
-13 11 -15 8 -15 -13 0 -14 5 -37 11 -51 8 -18 9 -37 2 -65 -9 -33 -8 -42 9
-58 18 -19 18 -20 -7 -49 -25 -29 -26 -29 -41 -9 -12 16 -14 38 -10 103 2 45
0 82 -4 82 -5 0 -7 7 -3 15 3 9 -2 24 -10 33 -9 10 -19 35 -22 57 -7 43 8 64
65 92 82 42 234 52 305 22z m-4725 -14 c0 -7 4 -15 10 -17 5 -1 12 -23 16 -48
6 -42 5 -44 -10 -25 -8 11 -16 32 -16 48 0 15 -4 27 -10 27 -5 0 -10 9 -10 21
0 11 5 17 10 14 6 -3 10 -12 10 -20z m-657 8 c-7 -2 -19 -2 -25 0 -7 3 -2 5
12 5 14 0 19 -2 13 -5z m-533 -53 c0 -16 -4 -30 -10 -30 -5 0 -10 14 -10 30 0
17 5 30 10 30 6 0 10 -13 10 -30z m596 -5 c10 -19 22 -35 26 -35 5 0 8 -9 8
-20 0 -11 5 -20 10 -20 6 0 10 -6 10 -14 0 -8 4 -16 8 -18 11 -4 62 -98 62
-114 0 -8 5 -14 10 -14 6 0 10 -11 10 -25 0 -14 4 -25 8 -25 10 0 32 -82 32
-120 0 -31 -7 -34 -58 -30 l-22 1 20 -36 c11 -19 20 -42 20 -50 0 -8 4 -15 9
-15 5 0 14 -13 20 -30 10 -29 9 -30 -20 -30 -22 0 -29 5 -29 20 0 11 -4 20
-10 20 -5 0 -10 7 -10 14 0 8 -16 41 -35 73 -19 32 -35 66 -35 75 0 9 -3 18
-7 20 -10 4 -63 115 -63 131 0 8 15 11 50 9 54 -4 59 1 33 38 -28 40 -38 48
-79 59 -57 16 -74 14 -74 -8 0 -11 -4 -23 -10 -26 -5 -3 -10 1 -10 9 0 9 -4
16 -10 16 -5 0 -10 5 -10 10 0 6 9 10 20 10 10 0 23 6 27 13 4 6 21 19 36 27
27 13 28 18 25 67 -4 63 10 69 38 18z m-181 -55 c-3 -5 -12 -7 -20 -3 -21 7
-19 13 6 13 11 0 18 -4 14 -10z m471 -26 c-5 -13 -10 -14 -18 -6 -6 6 -8 18
-4 28 5 13 10 14 18 6 6 -6 8 -18 4 -28z m-879 -10 c1 -18 0 -22 -4 -9 -3 11
-10 26 -17 34 -9 11 -8 13 4 9 8 -2 16 -18 17 -34z m503 26 c-20 -13 -57 -13
-65 0 -4 6 11 10 37 10 31 0 39 -3 28 -10z m4980 -65 c0 -42 -20 -51 -172 -82
-16 -3 -28 -10 -28 -15 0 -6 -7 -8 -15 -4 -12 4 -15 -3 -15 -33 0 -40 -33 -81
-68 -81 -9 -1 -28 -7 -42 -15 -16 -9 -56 -14 -113 -15 -85 0 -87 0 -75 20 11
17 10 22 -1 29 -11 7 -7 13 15 27 40 25 64 50 64 68 0 8 4 16 8 18 4 2 18 18
31 37 22 30 27 33 64 28 23 -3 56 0 76 8 20 7 52 16 71 19 19 4 62 12 95 19
83 19 105 13 105 -28z m-4500 15 c0 -5 -4 -10 -10 -10 -5 0 -10 5 -10 10 0 6
5 10 10 10 6 0 10 -4 10 -10z m1170 -73 c0 -46 -6 -85 -15 -104 -18 -36 -74
-81 -115 -93 -27 -8 -30 -6 -30 16 0 13 5 24 10 24 18 0 11 35 -10 50 -27 19
-26 24 18 78 47 59 51 63 87 84 51 29 55 25 55 -55z m-1357 24 c15 -22 27 -46
27 -55 0 -9 7 -16 15 -16 8 0 15 5 15 10 0 6 7 10 16 10 10 0 14 6 10 15 -3 8
-1 15 5 15 7 0 9 -10 6 -23 -4 -12 -1 -29 4 -37 9 -13 10 -12 5 3 -3 11 0 17
9 17 19 0 19 11 0 36 -20 27 -18 44 5 44 11 0 20 4 20 10 0 5 11 0 25 -12 14
-12 25 -27 25 -34 0 -7 6 -14 13 -17 8 -3 6 -9 -7 -19 -26 -20 -5 -31 22 -12
22 15 30 44 13 44 -5 0 -11 9 -14 20 -4 16 0 20 19 20 17 0 24 -6 24 -19 0
-11 5 -23 10 -26 6 -3 10 -19 10 -36 0 -19 5 -29 15 -29 8 0 15 -9 15 -19 0
-11 5 -23 10 -26 6 -3 10 -19 10 -36 0 -16 5 -29 10 -29 6 0 10 -16 10 -35 0
-19 4 -35 8 -35 10 0 32 -130 35 -200 1 -25 8 -51 15 -58 6 -7 12 -22 12 -33
0 -10 5 -19 10 -19 6 0 10 -13 10 -29 0 -17 5 -33 10 -36 6 -3 10 -17 10 -31
0 -13 -4 -24 -10 -24 -5 0 -10 9 -10 20 0 23 -16 26 -36 6 -19 -20 -18 -27 10
-54 30 -27 35 -64 42 -257 5 -136 4 -148 -10 -130 -8 11 -16 37 -16 57 0 20
-4 40 -10 43 -5 3 -10 24 -10 45 0 21 -4 41 -9 44 -4 3 -11 27 -14 53 -4 27
-13 89 -22 138 -9 50 -18 110 -21 135 -3 25 -8 52 -11 60 -8 20 -22 110 -29
188 -6 62 -9 66 -51 62 -13 -1 -27 7 -35 19 -16 27 -28 27 -28 1 0 -11 -4 -20
-9 -20 -26 0 -101 101 -101 138 0 11 -5 8 -15 -11 -13 -25 -12 -31 6 -62 15
-25 18 -39 11 -51 -8 -15 -14 -10 -41 32 -17 27 -31 55 -31 61 0 7 -7 21 -16
32 -9 11 -27 50 -39 88 -12 37 -26 76 -30 86 -6 14 -2 17 21 17 22 0 36 -10
57 -39z m22 29 c3 -5 1 -10 -4 -10 -6 0 -11 5 -11 10 0 6 2 10 4 10 3 0 8 -4
11 -10z m-797 -29 c-5 -24 -38 -27 -38 -3 0 10 3 21 6 25 11 11 35 -5 32 -22z
m-5201 13 c-3 -3 -12 -4 -19 -1 -8 3 -5 6 6 6 11 1 17 -2 13 -5z m306 -1 c-7
-2 -21 -2 -30 0 -10 3 -4 5 12 5 17 0 24 -2 18 -5z m2485 0 c-10 -2 -26 -2
-35 0 -10 3 -2 5 17 5 19 0 27 -2 18 -5z m1329 1 c-3 -3 -12 -4 -19 -1 -8 3
-5 6 6 6 11 1 17 -2 13 -5z m1593 -29 c0 -8 -4 -15 -10 -15 -5 0 -10 7 -10 15
0 8 5 15 10 15 6 0 10 -7 10 -15z m65 -7 c6 -4 0 -8 -12 -8 -16 0 -21 4 -16
15 3 9 8 12 12 8 3 -4 11 -11 16 -15z m-558 -60 c-3 -7 -5 -2 -5 12 0 14 2 19
5 13 2 -7 2 -19 0 -25z m453 22 c0 -5 -7 -10 -15 -10 -8 0 -15 5 -15 10 0 6 7
10 15 10 8 0 15 -4 15 -10z m-143 -32 c-3 -8 -6 -5 -6 6 -1 11 2 17 5 13 3 -3
4 -12 1 -19z m180 2 c3 -11 10 -20 15 -20 5 0 6 -5 3 -10 -7 -11 -45 25 -45
42 0 17 22 7 27 -12z m-7467 -10 c0 -5 -2 -10 -4 -10 -3 0 -8 5 -11 10 -3 6
-1 10 4 10 6 0 11 -4 11 -10z m7000 -60 c0 -27 5 -50 10 -50 6 0 10 -18 10
-41 0 -51 -15 -43 -24 13 -4 23 -11 47 -16 54 -12 13 -2 74 11 74 5 0 9 -22 9
-50z m520 -52 c0 -10 5 -18 10 -18 6 0 10 -4 10 -10 0 -20 -28 -9 -33 13 -3
12 -9 33 -12 47 -7 24 -7 24 8 5 9 -11 17 -28 17 -37z m-273 -40 c-3 -8 -6 -5
-6 6 -1 11 2 17 5 13 3 -3 4 -12 1 -19z m49 -43 c23 -19 25 -25 12 -25 -10 0
-18 5 -18 10 0 6 -7 10 -15 10 -8 0 -15 7 -15 15 0 20 2 19 36 -10z m222 13
c-6 -18 -28 -21 -28 -4 0 9 7 16 16 16 9 0 14 -5 12 -12z m42 0 c0 -7 3 -23 6
-35 5 -17 2 -23 -9 -23 -18 0 -27 21 -20 49 6 23 23 29 23 9z m4889 -4 l31 -7
-42 -42 c-60 -58 -99 -75 -179 -76 -37 -1 -72 2 -78 6 -15 9 -14 90 2 103 7 6
60 13 118 15 57 1 107 4 110 5 4 1 21 -1 38 -4z m-5427 -56 c-6 -6 -7 0 -4 19
5 21 7 23 10 9 2 -10 0 -22 -6 -28z m574 -12 c17 -17 18 -36 3 -36 -16 0 -41
29 -34 40 8 13 14 13 31 -4z m-556 -56 c9 -16 8 -20 -5 -20 -8 0 -15 9 -15 20
0 11 2 20 5 20 2 0 9 -9 15 -20z m5540 -44 c0 -27 -27 -66 -44 -66 -8 0 -25 6
-39 13 -28 14 -24 30 17 72 17 18 25 20 44 12 13 -6 22 -19 22 -31z m-5513
-48 c-3 -7 -5 -2 -5 12 0 14 2 19 5 13 2 -7 2 -19 0 -25z m5461 -91 c2 -10 1
-29 -2 -43 -6 -21 -12 -24 -54 -24 -48 0 -72 12 -72 37 0 17 40 17 40 1 1 -7
7 2 15 20 12 28 19 33 42 30 17 -2 29 -10 31 -21z m-215 -21 c26 -8 23 -73 -5
-97 -25 -23 -21 -23 -45 -1 -20 17 -26 45 -24 104 1 26 2 27 29 13 15 -8 35
-16 45 -19z m-9340 -3 c-40 -2 -107 -2 -150 0 -43 1 -10 3 72 3 83 0 118 -2
78 -3z m4117 -17 c0 -14 5 -28 10 -31 6 -3 10 -25 10 -49 0 -23 4 -46 9 -51
10 -12 41 -147 41 -181 0 -13 5 -24 10 -24 15 0 11 -83 -5 -104 -17 -23 -20
-4 -4 25 9 17 7 21 -10 26 -16 4 -21 13 -21 39 0 19 -5 34 -11 34 -8 0 -7 5 1
15 10 12 10 21 1 41 -6 14 -11 45 -11 69 0 24 -5 45 -10 47 -6 2 -12 19 -14
38 -2 19 -6 43 -10 53 -14 39 -15 48 -10 62 9 23 24 18 24 -9z m5528 -83 c28
-40 72 -122 72 -134 0 -5 11 -26 23 -47 13 -20 27 -49 30 -64 4 -15 14 -33 22
-42 8 -8 15 -18 15 -23 0 -12 74 -158 83 -161 4 -2 7 -9 7 -15 0 -7 20 -52 45
-102 24 -49 45 -94 45 -99 0 -18 -51 -55 -84 -61 -49 -10 -71 -3 -74 23 -3 23
-35 31 -47 12 -11 -18 -56 -10 -80 14 -30 30 -40 68 -26 95 10 17 7 22 -16 33
-23 11 -29 21 -31 55 -3 42 -27 64 -52 48 -18 -11 -11 -45 13 -54 20 -8 22
-14 18 -61 -2 -38 -6 -49 -14 -41 -6 6 -24 11 -39 11 -33 0 -74 40 -83 81 -3
14 -15 31 -25 39 -15 10 -20 26 -20 57 0 41 -18 78 -70 143 -11 14 -20 31 -20
38 0 7 -7 20 -15 28 -20 20 -19 39 2 59 25 26 -3 38 -38 18 -37 -22 -59 -4
-59 48 0 33 5 41 30 54 16 8 51 15 77 15 42 0 107 16 168 41 18 7 40 11 107
17 9 1 25 -10 36 -25z m-4421 -65 c-3 -7 -5 -2 -5 12 0 14 2 19 5 13 2 -7 2
-19 0 -25z m3876 20 c30 -17 37 -28 37 -60 0 -47 -9 -58 -49 -58 -47 1 -71 20
-71 58 0 21 8 37 26 51 31 25 28 24 57 9z m-297 -35 c7 -10 14 -33 14 -51 l0
-33 52 2 c33 2 53 -2 56 -9 2 -7 23 -12 48 -12 39 0 44 -3 50 -27 3 -16 9 -41
13 -58 4 -16 6 -36 4 -42 -5 -15 -43 -18 -43 -3 0 6 -4 10 -10 10 -5 0 -10
-13 -10 -30 0 -16 5 -30 11 -30 6 0 4 -7 -5 -15 -8 -8 -19 -15 -25 -15 -11 0
-12 13 -13 93 0 20 -4 37 -9 37 -4 0 -15 7 -23 16 -14 14 -18 14 -31 0 -17
-17 -20 -42 -5 -51 6 -3 10 -15 10 -26 0 -10 5 -19 10 -19 6 0 10 -12 10 -27
0 -27 2 -35 39 -151 20 -66 19 -92 -5 -92 -8 0 -14 -4 -14 -9 0 -5 -9 -13 -20
-16 -14 -4 -20 -15 -20 -36 0 -29 1 -29 55 -29 l55 0 0 -110 c0 -67 4 -110 10
-110 28 0 -8 -53 -52 -76 -41 -22 -67 -17 -102 19 -26 26 -76 113 -76 132 0 6
-39 92 -96 211 -24 50 -44 96 -44 102 0 6 -3 12 -7 14 -8 3 -76 138 -88 173
-8 25 25 95 46 95 8 0 19 4 25 8 5 5 29 14 54 21 59 17 111 42 117 58 3 7 -2
20 -11 29 -9 8 -13 21 -9 27 4 7 6 20 5 30 -2 9 2 17 9 17 6 0 18 -8 25 -17z
m-231 -83 c8 -26 -1 -40 -26 -40 -14 0 -19 7 -19 30 0 23 5 30 19 30 11 0 22
-9 26 -20z m-3308 -140 c2 -59 1 -80 -6 -70 -6 8 -8 32 -4 54 3 22 2 41 -5 45
-12 7 -15 31 -12 86 l2 40 10 -35 c6 -19 13 -73 15 -120z m605 129 c9 -5 33
-9 52 -9 20 0 36 -4 36 -9 0 -6 15 -12 33 -14 17 -2 -49 -4 -148 -5 -180 -2
-180 -2 -240 28 l-59 29 154 -6 c85 -3 163 -10 172 -14z m2242 -109 c31 -17
56 -26 56 -20 0 26 38 1 43 -28 2 -12 6 -25 10 -28 15 -15 6 -61 -19 -89 -22
-25 -31 -29 -71 -27 -26 1 -51 6 -57 12 -5 5 -16 10 -24 10 -18 0 -51 36 -64
70 -13 35 -1 92 25 112 29 23 35 23 101 -12z m-166 -37 c-4 -39 -28 -42 -28
-4 0 21 5 31 16 31 11 0 14 -8 12 -27z m-3268 -50 c0 -7 5 -13 10 -13 6 0 10
-7 10 -15 0 -8 3 -15 8 -15 4 0 16 -16 26 -35 11 -19 25 -35 33 -35 7 0 18
-11 23 -25 5 -14 19 -35 30 -47 23 -25 26 -48 7 -48 -7 0 -19 15 -27 34 -7 19
-23 39 -35 44 -20 9 -21 8 -17 -14 2 -13 0 -24 -4 -24 -15 1 -44 27 -44 40 0
7 -8 20 -18 29 -15 13 -53 150 -52 186 1 14 50 -48 50 -62z m210 23 c0 -7 9
-31 20 -54 22 -46 26 -72 9 -72 -6 0 -3 -8 7 -17 13 -14 31 -17 71 -15 29 2
61 -2 70 -7 13 -8 -3 -10 -64 -11 -49 0 -83 4 -83 10 0 6 -17 11 -37 11 -31 2
-33 3 -10 6 36 6 34 23 -5 63 -29 28 -30 31 -10 25 19 -5 22 -3 22 19 0 14 -4
28 -10 31 -5 3 -10 15 -10 27 0 17 2 18 15 8 8 -7 15 -18 15 -24z m-3907 -3
c-7 -2 -21 -2 -30 0 -10 3 -4 5 12 5 17 0 24 -2 18 -5z m4425 -53 c0 -9 -3 -7
-8 5 -5 11 -8 29 -8 40 0 16 2 15 8 -5 4 -14 8 -32 8 -40z m-377 -10 c5 0 9
-7 9 -15 0 -8 -4 -15 -10 -15 -12 0 -25 30 -24 55 3 37 7 40 11 8 2 -18 8 -33
14 -33z m3308 19 c13 -24 12 -28 -14 -57 -16 -18 -33 -32 -38 -32 -21 0 -47
34 -47 62 0 33 10 36 30 8 17 -24 30 -26 30 -5 0 8 -4 15 -10 15 -5 0 -10 9
-10 21 0 29 40 21 59 -12z m-2732 -31 c-3 -8 -6 -5 -6 6 -1 11 2 17 5 13 3 -3
4 -12 1 -19z m-367 -17 c0 -17 -18 -21 -24 -6 -3 9 0 15 9 15 8 0 15 -4 15 -9z
m195 -1 c-3 -5 -2 -10 2 -10 7 0 29 -41 52 -95 2 -5 -8 3 -23 18 -14 15 -26
37 -26 48 0 10 -4 19 -10 19 -5 0 -10 7 -10 15 0 8 5 15 11 15 5 0 7 -4 4 -10z
m-305 -69 c0 -13 89 -26 202 -30 11 -1 15 -6 12 -15 -3 -9 3 -20 15 -28 26
-16 27 -28 1 -28 -13 0 -18 -5 -14 -15 5 -13 -6 -15 -72 -14 -44 0 -72 3 -64
6 8 3 18 11 22 17 5 8 13 7 28 -1 24 -15 70 -17 70 -3 0 6 -13 10 -30 10 -19
0 -30 5 -30 14 0 15 -49 36 -86 36 -33 0 -54 10 -54 27 0 10 -6 12 -21 8 -19
-6 -20 -5 -8 8 16 18 29 22 29 8z m4105 -1 c3 -5 1 -10 -4 -10 -6 0 -11 5 -11
10 0 6 2 10 4 10 3 0 8 -4 11 -10z m-145 -59 c0 -22 -14 -28 -25 -11 -3 6 -15
10 -26 10 -10 0 -19 -4 -19 -10 0 -5 -4 -10 -10 -10 -5 0 -10 7 -10 15 0 8 8
15 18 15 9 0 23 9 30 20 11 18 14 19 27 6 8 -8 15 -24 15 -35z m-608 12 c10
-9 18 -22 18 -30 0 -21 -49 -66 -65 -59 -18 7 -29 49 -21 81 8 30 40 34 68 8z
m-519 -13 c14 -11 28 -20 32 -20 4 0 24 -18 45 -40 34 -36 37 -43 26 -65 -6
-14 -19 -28 -29 -31 -21 -7 -77 4 -77 16 0 4 -9 10 -20 13 -15 4 -20 0 -20
-14 0 -21 -25 -26 -37 -6 -4 6 -13 35 -18 64 -12 57 -7 71 35 90 34 16 34 16
63 -7z m-3193 -19 c0 -20 25 -35 41 -25 5 3 9 -4 9 -15 0 -12 -5 -21 -11 -21
-15 0 -69 62 -63 72 9 15 24 8 24 -11z m4532 -6 c7 -9 19 -22 26 -30 6 -7 12
-17 12 -22 -1 -16 -38 -53 -54 -53 -23 0 -20 -37 4 -45 23 -7 26 -33 6 -60
-12 -17 -17 -18 -40 -7 -24 10 -26 16 -21 45 5 25 2 37 -14 51 -12 11 -21 28
-21 38 0 30 29 78 53 88 31 12 35 12 49 -5z m-4583 -9 c17 -20 -5 -31 -24 -12
-8 8 -15 17 -15 20 0 12 28 6 39 -8z m474 -13 c-7 -2 -21 -2 -30 0 -10 3 -4 5
12 5 17 0 24 -2 18 -5z m187 -19 c0 -8 -5 -12 -10 -9 -6 4 -8 11 -5 16 9 14
15 11 15 -7z m-485 -17 c27 -4 27 -5 -4 -3 -21 0 -36 7 -38 16 -3 10 -2 11 4
3 4 -6 22 -13 38 -16z m-7583 -7 c13 -11 16 -20 9 -20 -13 0 -41 24 -41 34 0
11 11 6 32 -14z m7865 -36 c-3 -3 -12 -4 -19 -1 -8 3 -5 6 6 6 11 1 17 -2 13
-5z m-397 -14 c0 -13 -20 -13 -40 0 -12 8 -9 10 13 10 15 0 27 -4 27 -10z m66
-44 c-12 -63 -29 -57 -38 12 -6 40 -5 42 21 42 l27 0 -10 -54z m444 45 c0 -5
-7 -11 -15 -15 -9 -3 -15 0 -15 9 0 8 7 15 15 15 8 0 15 -4 15 -9z m74 -3
c-15 -7 -28 -7 -40 1 -16 9 -12 10 21 10 35 0 37 -2 19 -11z m146 0 c0 -7 -5
-20 -10 -28 -8 -12 -10 -9 -10 13 0 15 5 27 10 27 6 0 10 -6 10 -12z m2646 -2
c8 -8 14 -26 14 -40 0 -32 18 -43 33 -21 12 15 14 15 35 -3 29 -25 28 -43 -4
-76 -42 -42 -74 -31 -74 25 0 15 -7 19 -39 19 -24 0 -41 5 -44 14 -7 18 3 56
14 56 5 0 9 9 9 20 0 24 34 27 56 6z m1544 -31 c0 -14 -5 -25 -10 -25 -6 0
-10 -7 -8 -16 2 -10 -3 -19 -11 -22 -10 -3 -12 0 -8 12 4 10 7 31 7 47 0 19 5
29 15 29 9 0 15 -9 15 -25z m-1736 -89 c25 -19 41 -26 44 -18 4 13 35 0 61
-25 8 -9 23 -12 37 -9 17 5 27 -1 43 -23 12 -16 21 -36 21 -45 0 -10 8 -16 21
-16 14 0 19 -5 17 -17 -2 -10 -11 -16 -19 -14 -15 4 -17 4 -69 -5 -27 -4 -40
-1 -58 16 -18 17 -27 19 -35 11 -6 -6 -20 -11 -31 -11 -21 0 -126 76 -126 92
0 5 -11 21 -26 36 l-25 27 7 -30 c4 -16 11 -33 17 -36 6 -4 5 -18 -4 -38 -29
-65 -117 -24 -105 48 6 38 19 51 54 51 13 0 22 6 22 15 0 8 5 15 10 15 6 0 10
6 10 14 0 8 5 27 11 43 l10 28 37 -40 c20 -22 55 -53 76 -69z m1204 81 c6 -5
12 -16 12 -23 0 -8 5 -14 10 -14 6 0 10 -8 10 -17 0 -9 9 -26 20 -38 24 -26
18 -85 -9 -85 -9 0 -34 -7 -56 -15 -62 -22 -82 -19 -100 15 -19 36 -20 134 -2
152 7 7 16 21 20 31 6 15 14 17 44 11 21 -4 44 -11 51 -17z m-4388 -10 c0 -18
-6 -23 -30 -25 -25 -2 -30 1 -30 19 0 18 2 19 15 9 12 -10 16 -9 21 4 9 24 24
19 24 -7z m327 -9 c-3 -8 -6 -5 -6 6 -1 11 2 17 5 13 3 -3 4 -12 1 -19z m99
-3 c-8 -8 -19 -15 -25 -15 -6 0 -11 7 -11 15 0 9 10 15 26 15 23 0 24 -2 10
-15z m104 -61 c0 -31 -4 -53 -9 -50 -12 8 -25 82 -16 96 15 24 25 6 25 -46z
m4120 17 c0 -44 -10 -61 -34 -61 -19 1 -20 2 -4 14 20 15 14 26 -14 26 -10 0
-18 4 -18 10 0 5 6 7 14 4 9 -3 17 3 21 15 10 32 35 26 35 -8z m-1092 -23 c29
-29 -1 -98 -42 -98 -24 0 -46 17 -46 36 0 16 51 74 65 74 6 0 16 -5 23 -12z
m-710 -64 c1 -11 -12 -35 -29 -54 -28 -32 -30 -38 -23 -85 3 -27 11 -61 16
-75 6 -14 16 -47 23 -75 13 -47 13 -51 -7 -66 -20 -16 -23 -15 -42 5 -25 25
-96 164 -96 187 0 18 -22 38 -62 59 -37 18 -35 35 6 76 27 27 40 33 59 29 25
-7 107 23 107 39 0 16 45 -21 48 -40z m-10098 11 c0 -19 -24 -29 -47 -21 -14
6 -14 8 3 21 25 19 44 19 44 0z m7897 -17 c-3 -7 -5 -2 -5 12 0 14 2 19 5 13
2 -7 2 -19 0 -25z m3113 -37 c8 -12 19 -21 25 -21 11 0 75 -70 75 -82 0 -5 5
-8 10 -8 18 0 56 -43 70 -77 7 -20 11 -60 8 -103 -4 -72 -1 -79 20 -58 10 10
18 9 41 -5 15 -9 31 -14 34 -11 7 7 26 -11 50 -48 13 -21 15 -33 7 -53 -5 -14
-13 -25 -17 -25 -5 0 -17 -7 -27 -15 -17 -13 -17 -17 -5 -31 11 -13 11 -18 2
-21 -7 -3 -13 -16 -13 -29 0 -13 -4 -24 -10 -24 -5 0 -7 6 -4 14 3 7 -9 25
-25 39 -31 26 -40 47 -21 47 6 0 10 9 10 20 0 12 -7 20 -16 20 -24 0 -47 29
-48 61 -1 25 -5 29 -29 29 -29 0 -57 20 -57 39 0 6 5 11 10 11 6 0 10 9 10 20
0 21 -3 22 -45 22 -43 0 -45 -1 -45 -27 0 -22 -3 -25 -25 -19 -22 5 -25 3 -25
-20 0 -29 -5 -32 -25 -12 -8 8 -11 23 -8 37 6 22 5 23 -11 10 -13 -11 -24 -12
-55 -2 -36 10 -101 64 -101 83 0 4 -20 28 -44 54 l-45 46 16 34 c25 51 76 57
114 13 24 -28 29 -24 29 26 0 25 5 45 10 45 6 0 10 6 10 14 0 8 9 18 20 21 11
3 25 15 30 26 11 19 11 19 48 0 20 -11 44 -29 52 -40z m-3217 14 c-7 -21 -13
-19 -13 6 0 11 4 18 10 14 5 -3 7 -12 3 -20z m-498 -10 c39 -14 78 -25 88 -25
9 0 17 -4 17 -10 0 -5 10 -10 23 -10 29 0 83 -33 97 -61 18 -33 62 -69 93 -75
15 -4 27 -10 27 -15 0 -5 9 -9 19 -9 11 0 23 -4 26 -10 3 -5 15 -10 26 -10 10
0 19 -4 19 -9 0 -5 15 -9 33 -8 34 1 107 -29 107 -44 0 -5 11 -9 25 -9 24 0
24 1 24 86 -1 47 1 88 4 91 11 10 39 -27 33 -44 -4 -9 0 -71 9 -137 8 -67 22
-175 30 -241 7 -66 19 -158 24 -206 14 -109 14 -406 1 -414 -5 -3 -10 -17 -10
-30 0 -12 -7 -26 -16 -29 -13 -5 -15 -2 -11 14 3 11 1 22 -3 25 -4 3 -6 14 -3
25 4 15 -2 22 -22 30 -43 16 -54 12 -72 -30 -10 -22 -21 -40 -25 -40 -16 0 -7
37 14 60 15 16 18 25 10 28 -7 2 -12 11 -12 20 -1 15 -2 15 -14 0 -8 -11 -26
-18 -45 -18 -17 0 -31 -4 -31 -10 0 -5 -13 -10 -28 -10 -20 0 -33 -7 -42 -25
-13 -25 -40 -35 -40 -15 0 6 -4 10 -10 10 -5 0 -10 -9 -10 -20 0 -11 -7 -20
-15 -20 -20 0 -19 21 3 59 17 31 32 40 32 21 0 -5 5 -10 10 -10 6 0 10 9 10
19 0 11 -4 23 -10 26 -5 3 -10 16 -10 28 -1 22 -1 22 -15 3 -8 -11 -15 -28
-15 -37 0 -10 -4 -19 -8 -21 -10 -4 -52 -76 -52 -90 0 -5 -9 -23 -21 -39 -17
-25 -27 -29 -65 -29 -35 0 -44 4 -45 18 0 9 -3 12 -5 6 -5 -11 -81 -8 -94 3
-9 8 24 22 35 14 5 -4 21 -4 35 0 24 7 24 7 3 8 -16 1 -23 7 -23 21 0 22 -15
27 -23 8 -3 -7 -6 0 -6 16 -1 28 0 28 17 13 10 -10 31 -17 46 -17 23 0 26 -3
21 -21 -6 -17 -3 -20 12 -17 12 2 19 14 21 38 2 19 8 39 13 45 5 5 9 21 9 36
0 15 5 31 10 34 12 7 14 45 2 45 -15 0 -32 -24 -32 -46 0 -13 -4 -26 -10 -29
-5 -3 -10 -17 -10 -30 0 -12 -7 -25 -15 -29 -23 -8 -19 51 6 104 15 32 19 48
11 60 -5 9 -13 30 -17 48 -3 18 -11 32 -17 32 -5 0 -8 -6 -5 -12 6 -18 -12
-50 -24 -43 -5 4 -9 22 -9 42 0 27 3 34 15 29 12 -4 14 0 9 22 -7 28 -22 52
-33 52 -4 0 -7 -30 -8 -67 -2 -87 -13 -162 -24 -169 -5 -3 -9 1 -10 8 0 7 -2
54 -4 103 -6 151 -22 305 -42 420 -11 61 -26 151 -32 200 -7 50 -17 99 -22
110 -4 11 -11 49 -14 85 -2 36 -7 84 -9 108 -3 23 -4 42 -3 42 1 0 34 -12 72
-25z m-7365 6 c0 -5 10 -12 23 -16 13 -4 17 -8 9 -12 -15 -6 -72 19 -66 29 7
11 34 10 34 -1z m6602 -51 c-12 -11 -27 -20 -35 -20 -7 0 -22 -7 -33 -15 -10
-8 -27 -15 -36 -15 -10 0 -18 -4 -18 -10 0 -5 -7 -10 -16 -10 -9 0 -28 -8 -42
-19 -15 -10 -43 -22 -62 -26 -19 -4 -47 -16 -62 -26 -14 -11 -36 -19 -47 -19
-12 0 -21 -4 -21 -10 0 -5 -7 -10 -16 -10 -8 0 -22 -7 -30 -15 -9 -8 -24 -15
-34 -15 -10 0 -22 -4 -25 -10 -3 -5 -17 -10 -30 -10 -13 0 -25 -4 -27 -8 -4
-11 -94 -52 -113 -52 -8 0 -15 -4 -15 -9 0 -5 -13 -12 -30 -16 -16 -4 -32 -11
-35 -16 -4 -5 -15 -9 -26 -9 -10 0 -19 -4 -19 -10 0 -5 -11 -10 -25 -10 -14 0
-25 -4 -25 -10 0 -5 -5 -10 -11 -10 -11 0 -67 -23 -101 -41 -10 -5 -25 -9 -33
-9 -8 0 -15 -4 -15 -9 0 -5 -21 -17 -47 -26 -27 -9 -56 -21 -65 -26 -10 -5
-25 -9 -33 -9 -8 0 -15 -4 -15 -10 0 -5 -9 -10 -20 -10 -11 0 -20 -4 -20 -10
0 -5 -8 -10 -18 -10 -10 0 -37 -9 -60 -20 -23 -11 -56 -23 -72 -27 -17 -3 -30
-9 -30 -14 0 -5 -11 -9 -25 -9 -14 0 -25 -4 -25 -10 0 -5 -11 -10 -24 -10 -14
0 -28 -4 -31 -10 -3 -5 -17 -10 -30 -10 -13 0 -27 -5 -30 -10 -4 -6 -11 -7
-17 -4 -6 4 -13 3 -17 -2 -11 -15 -50 -34 -71 -34 -11 0 -20 -4 -20 -10 0 -5
-11 -10 -25 -10 -14 0 -25 -5 -25 -11 0 -7 -11 -9 -30 -5 -17 3 -30 1 -30 -4
0 -6 -12 -9 -27 -9 -24 2 -25 2 -5 6 12 2 22 9 22 14 0 5 11 9 25 9 14 0 25 5
25 10 0 6 11 10 25 10 14 0 52 11 85 25 33 14 66 25 75 25 8 0 15 5 15 10 0 6
11 10 24 10 14 0 28 5 31 10 3 6 16 10 28 10 12 0 31 7 41 15 11 8 32 15 48
15 15 0 28 5 28 10 0 6 9 10 19 10 11 0 23 5 26 10 3 6 15 10 26 10 10 0 19 5
19 10 0 6 11 10 25 10 14 0 25 4 25 9 0 5 15 14 33 21 31 13 74 31 190 84 32
14 64 26 72 26 8 0 15 5 15 10 0 6 9 10 20 10 11 0 20 5 20 10 0 6 9 10 19 10
10 0 39 11 62 25 24 14 54 25 67 25 12 0 22 3 22 8 0 4 15 13 33 21 17 7 56
24 85 37 29 13 59 24 67 24 8 0 15 5 15 10 0 6 9 10 20 10 11 0 20 5 20 10 0
6 11 10 25 10 14 0 25 5 25 10 0 6 8 10 18 10 9 0 26 7 36 15 11 8 28 15 38
15 10 0 18 5 18 10 0 6 11 10 25 10 14 0 25 5 25 10 0 6 6 10 14 10 7 0 34 11
60 25 26 14 56 25 67 25 10 0 19 5 19 10 0 6 9 10 20 10 11 0 20 5 20 10 0 6
8 10 17 10 14 0 14 -3 -5 -20z m3911 -35 c14 4 28 2 31 -4 5 -7 14 -7 31 1 30
14 79 -7 94 -40 15 -31 14 -35 -9 -60 -36 -38 -95 -27 -113 21 -4 11 -16 21
-27 24 -11 3 -22 14 -25 24 -4 10 -13 19 -21 19 -8 0 -14 7 -14 16 0 13 3 14
14 5 8 -7 25 -9 39 -6z m-3923 -27 c0 -4 -9 -8 -21 -8 -11 0 -18 4 -15 8 3 5
12 9 21 9 8 0 15 -4 15 -9z m340 -113 c-14 -60 -15 -73 -5 -196 5 -65 4 -102
-4 -116 -6 -12 -8 -29 -5 -37 5 -13 8 -13 20 -1 8 7 14 21 14 30 0 22 22 14
35 -12 6 -11 16 -18 23 -15 19 6 14 -26 -5 -38 -15 -9 -14 -9 7 -5 22 5 27 0
48 -48 20 -46 21 -58 11 -80 -12 -27 -29 -36 -29 -17 0 6 5 10 11 10 5 0 7 5
4 10 -8 12 -35 -13 -35 -32 0 -7 7 -22 15 -32 12 -16 18 -17 27 -8 18 18 28
15 28 -8 0 -11 5 -20 10 -20 6 0 10 -9 10 -19 0 -11 5 -23 10 -26 6 -3 10 -24
10 -45 0 -48 27 -154 40 -158 6 -2 10 -12 10 -23 0 -10 5 -19 10 -19 16 0 11
-47 -6 -54 -8 -3 -22 1 -31 9 -14 14 -17 13 -34 -6 -15 -18 -20 -19 -32 -7 -8
7 -17 20 -20 28 -4 8 -5 3 -2 -11 3 -17 -1 -31 -10 -39 -12 -10 -15 -10 -15 0
0 13 -59 10 -92 -4 -14 -6 -18 -3 -18 13 0 14 -6 21 -20 21 -11 0 -20 -4 -20
-10 0 -5 -8 -10 -19 -10 -18 0 -18 10 -13 221 4 173 2 223 -8 229 -17 10 -4
31 15 23 9 -3 15 1 15 10 0 8 -4 17 -9 19 -11 4 -14 20 -12 71 1 35 3 38 24
33 12 -3 16 -3 10 0 -7 3 -13 12 -13 20 0 8 -4 14 -10 14 -5 0 -10 7 -10 16 0
14 3 14 15 4 13 -11 15 -7 15 23 0 20 -7 42 -15 51 -17 16 -20 36 -6 36 5 0
12 30 14 68 3 37 10 90 16 117 6 28 14 73 18 100 l7 50 9 -40 c5 -26 4 -57 -3
-90z m-405 95 c-3 -5 -10 -10 -16 -10 -5 0 -9 5 -9 10 0 6 7 10 16 10 8 0 12
-4 9 -10z m-46 -34 c-2 -2 -14 -9 -26 -15 -19 -10 -23 -9 -23 4 0 10 9 15 27
15 14 0 24 -2 22 -4z m-85 -51 c-11 -8 -31 -15 -46 -15 -16 0 -28 -4 -28 -10
0 -5 12 -10 28 -11 15 0 21 -3 12 -6 -8 -3 -27 -14 -42 -24 -14 -11 -40 -19
-57 -19 -30 0 -31 -1 -31 -45 0 -25 -4 -45 -10 -45 -5 0 -10 -9 -10 -19 0 -11
-9 -23 -22 -27 -32 -10 -48 -29 -48 -59 0 -14 -11 -37 -25 -51 -28 -28 -33
-64 -10 -64 9 0 15 -9 15 -25 0 -26 -25 -36 -32 -13 -3 9 -9 8 -21 -4 -22 -22
-21 -34 3 -60 25 -28 25 -31 -5 -45 -14 -6 -25 -7 -25 -2 0 5 -18 9 -40 9 -22
0 -40 -4 -40 -10 0 -5 5 -10 11 -10 13 0 39 -25 39 -38 0 -5 -11 -13 -25 -16
-41 -10 -29 -39 28 -63 15 -7 27 -17 27 -23 0 -6 5 -8 10 -5 6 3 10 -4 10 -17
0 -17 -3 -19 -9 -9 -5 8 -32 16 -62 19 l-52 5 26 -29 c15 -16 27 -32 27 -36 0
-4 10 -9 23 -11 12 -2 -1 -5 -29 -6 -28 0 -53 -4 -57 -7 -6 -7 16 -34 28 -34
4 0 20 -13 37 -30 37 -38 47 -38 54 0 6 29 30 58 40 48 2 -3 7 -29 11 -57 4
-36 12 -55 24 -62 17 -9 19 -6 19 26 0 20 -7 47 -16 61 -9 13 -14 27 -10 31 3
3 6 2 6 -4 0 -6 7 -13 14 -16 10 -4 13 -1 10 7 -3 7 2 19 12 26 15 13 15 9 9
-45 -4 -33 -12 -70 -16 -83 -5 -13 -9 -37 -9 -53 0 -16 -4 -29 -10 -29 -5 0
-10 12 -10 26 0 29 -25 60 -35 44 -3 -5 -12 -10 -18 -9 -9 0 -9 2 1 6 17 7 15
43 -3 43 -10 0 -15 -10 -15 -33 0 -39 -15 -57 -47 -57 -13 0 -23 -4 -23 -10 0
-5 -13 -10 -30 -10 -16 0 -30 -4 -30 -10 0 -15 -49 -12 -66 4 -18 19 -18 36 1
36 12 0 15 15 15 75 0 54 -4 75 -13 75 -7 0 -19 9 -27 20 -20 27 -70 27 -70 0
0 -15 7 -20 25 -20 24 0 25 -2 25 -70 l0 -70 -31 0 c-28 0 -29 1 -15 16 9 8
16 28 16 42 0 22 -8 31 -42 46 -47 20 -58 31 -58 61 0 11 -19 37 -41 57 -23
21 -36 38 -30 38 6 0 11 7 11 15 0 15 -6 25 -37 60 -19 20 -18 22 25 70 18 20
15 25 -13 25 -25 0 -85 -50 -85 -71 0 -9 8 -21 38 -54 7 -8 9 -15 3 -15 -5 0
-13 -9 -16 -20 -8 -26 -32 -26 -40 0 -4 13 -15 20 -32 20 -25 0 -26 -1 -19
-47 3 -27 11 -49 16 -51 13 -5 13 -52 0 -52 -14 0 -13 -43 2 -58 7 -7 20 -12
30 -12 11 0 18 -7 18 -20 0 -16 -7 -20 -35 -20 -19 0 -35 5 -35 10 0 6 -13 10
-30 10 -16 0 -30 -4 -30 -9 0 -5 -7 -11 -15 -15 -11 -4 -15 1 -15 19 0 20 5
25 26 25 20 0 25 4 20 16 -3 9 -6 20 -6 25 0 16 -39 10 -50 -8 -8 -13 -13 -14
-16 -5 -6 14 -54 17 -54 3 0 -5 -13 -23 -30 -41 -16 -18 -30 -27 -30 -21 0 6
-9 11 -20 11 -11 0 -20 -4 -20 -10 0 -5 6 -10 14 -10 17 0 27 -23 16 -40 -6
-10 -15 -10 -40 -1 -41 14 -100 14 -100 1 0 -5 14 -10 31 -10 17 0 38 -7 46
-16 19 -18 12 -25 -44 -46 -18 -7 -33 -16 -33 -20 0 -4 -31 -8 -70 -8 l-70 0
0 38 c0 42 -14 62 -44 62 -18 0 -18 -1 2 -19 25 -21 29 -56 8 -64 -19 -7 -76
34 -76 56 0 9 -5 17 -11 17 -5 0 -7 5 -4 10 3 6 17 10 31 10 23 0 24 2 24 70
l0 70 -30 0 -30 0 0 -69 c0 -39 -4 -73 -10 -76 -5 -3 -10 -22 -10 -41 0 -19 5
-34 10 -34 6 0 10 -7 10 -15 0 -8 6 -15 14 -15 26 0 37 -25 25 -59 -13 -36
-38 -42 -40 -8 -1 12 -2 27 -4 32 -1 6 -3 16 -3 23 -1 6 -11 12 -22 12 -15 0
-20 7 -20 26 0 25 -2 26 -36 20 -33 -7 -36 -5 -47 24 -8 22 -20 33 -40 37 -16
3 -26 11 -23 18 2 6 -4 18 -15 26 -10 7 -19 21 -19 31 0 10 -11 25 -24 33 -13
9 -26 25 -29 35 -7 26 -27 26 -27 0 0 -16 -7 -20 -30 -20 -16 0 -30 5 -30 10
0 6 11 10 24 10 15 0 26 7 29 20 7 26 39 26 55 0 7 -11 19 -20 27 -20 8 0 15
-4 15 -10 0 -5 9 -10 20 -10 11 0 20 5 20 10 0 6 -7 10 -15 10 -8 0 -15 4 -15
9 0 5 -10 11 -22 14 -23 4 -23 4 2 15 25 11 25 11 -7 11 -17 1 -33 6 -35 13
-6 18 -56 1 -63 -22 -8 -26 -25 -26 -25 1 0 32 -34 19 -41 -16 -4 -17 -7 -24
-8 -17 -2 21 -41 14 -41 -8 0 -14 7 -20 21 -20 11 0 27 -7 35 -15 14 -13 11
-15 -20 -15 -29 0 -36 -4 -36 -20 0 -16 7 -20 35 -20 37 0 46 -15 23 -38 -10
-10 -10 -15 2 -22 18 -11 13 -16 -27 -25 -32 -6 -33 -5 -33 24 0 17 -4 31 -10
31 -5 0 -10 -9 -10 -20 0 -23 -3 -24 -46 -8 -27 10 -35 9 -50 -7 -13 -13 -19
-14 -22 -5 -3 7 2 17 9 22 11 7 11 11 2 15 -7 2 -13 9 -13 15 0 5 -6 16 -14
24 -8 7 -12 23 -9 34 3 11 0 20 -6 20 -6 0 -11 7 -11 15 0 18 17 20 23 3 2 -7
8 -10 12 -6 4 4 2 14 -5 23 -11 13 -7 15 26 16 22 1 54 1 73 0 28 -3 33 0 27
14 -6 15 -1 17 31 12 21 -3 32 -3 26 0 -30 11 -9 23 41 23 46 0 56 3 61 20 4
13 15 20 31 20 14 0 41 7 61 15 19 8 46 15 59 15 13 0 24 4 24 9 0 5 12 11 28
14 57 12 87 20 92 26 7 9 74 31 93 31 9 0 17 -4 17 -10 0 -5 5 -10 10 -10 6 0
10 8 8 17 -2 10 4 18 12 19 27 2 60 16 60 25 0 5 9 9 20 9 18 0 19 -3 10 -21
-7 -12 -18 -18 -26 -15 -8 3 -14 2 -14 -3 0 -5 10 -12 23 -16 19 -6 19 -8 5
-12 -10 -2 -18 -8 -18 -13 0 -4 -16 -11 -35 -14 -55 -11 -57 -30 -2 -23 l45 6
-9 -32 c-5 -17 -9 -33 -9 -34 0 -2 -7 -3 -15 -3 -8 0 -15 -4 -15 -10 0 -5 -7
-10 -15 -10 -17 0 -20 -16 -5 -25 6 -3 10 -15 10 -26 0 -19 16 -27 22 -10 2 5
15 13 31 16 21 6 27 4 27 -9 0 -9 -7 -16 -15 -16 -12 0 -15 -14 -15 -70 0 -63
2 -70 20 -70 18 0 20 7 20 70 0 67 1 70 24 70 13 0 26 -6 28 -12 3 -9 9 -8 21
4 13 12 17 34 17 82 0 59 -2 66 -20 66 -13 0 -20 7 -20 20 0 11 5 20 10 20 6
0 10 -4 10 -9 0 -10 101 -20 136 -13 15 3 24 11 24 23 0 15 -7 19 -35 19 -19
0 -35 -4 -35 -10 0 -5 -11 -10 -25 -10 -14 0 -25 5 -25 10 0 6 11 10 25 10 18
0 25 5 25 20 0 16 -7 20 -35 20 -19 0 -35 -4 -35 -9 0 -5 -9 -11 -20 -14 -15
-4 -20 0 -20 14 0 12 7 19 20 19 11 0 20 5 20 10 0 13 67 13 72 0 2 -5 18 -12
36 -16 25 -5 32 -3 32 10 0 12 -9 16 -35 16 -34 0 -48 14 -23 22 7 3 2 7 -10
10 -12 4 -22 2 -22 -3 0 -5 -17 -8 -37 -8 -33 1 -35 2 -13 9 56 16 70 23 70
34 0 6 11 -2 25 -17 29 -30 37 -32 65 -15 10 7 23 9 27 5 4 -5 1 -12 -7 -17
-12 -7 -7 -11 18 -16 41 -8 40 -37 -2 -44 -42 -7 -46 -30 -6 -30 25 0 31 -4
28 -17 -2 -11 -14 -19 -32 -21 -26 -3 -28 -6 -22 -33 7 -35 28 -59 50 -59 9 0
16 -4 16 -10 0 -5 5 -10 10 -10 6 0 10 14 10 30 0 17 5 30 10 30 6 0 10 7 10
15 0 8 9 15 20 15 11 0 20 5 20 10 0 6 -9 10 -20 10 -13 0 -20 7 -20 19 0 16
10 20 65 26 43 4 65 11 65 20 0 18 -23 25 -86 25 -50 0 -58 3 -91 37 -23 22
-32 38 -25 41 17 5 15 32 -3 32 -8 0 -15 -7 -15 -16 0 -11 -6 -14 -21 -9 -19
6 -21 4 -16 -14 5 -20 4 -20 -18 -3 -17 12 -19 18 -9 20 8 2 14 8 14 13 0 5 9
9 20 9 11 0 20 5 20 10 0 6 11 10 24 10 21 0 86 27 148 61 10 5 25 9 33 9 8 0
15 5 15 10 0 13 43 13 57 -1 8 -8 13 -8 17 0 4 6 0 11 -9 11 -9 0 -13 5 -10
10 3 6 15 10 26 10 11 0 27 7 35 15 9 8 24 15 34 15 10 0 22 5 25 10 3 6 15
10 26 10 10 0 19 3 19 8 0 9 74 42 95 42 8 0 15 5 15 10 0 6 8 10 18 10 10 0
28 9 40 20 12 11 30 20 42 20 11 0 20 4 20 9 0 9 56 25 78 22 6 -1 12 3 12 9
0 5 7 10 15 10 8 0 15 5 15 10 0 6 12 10 26 10 14 0 33 7 41 16 9 9 26 14 39
11 15 -2 21 0 17 9 -2 7 11 17 34 24 21 7 42 16 48 21 5 5 17 9 26 9 10 0 19
4 21 9 5 13 93 39 97 29 1 -5 -5 -16 -15 -23z m4286 -8 c0 -19 -10 -27 -26
-20 -10 4 -11 8 -1 19 15 17 27 18 27 1z m-4260 -11 c0 -3 -4 -8 -10 -11 -5
-3 -10 -1 -10 4 0 6 5 11 10 11 6 0 10 -2 10 -4z m542 -124 c-9 -35 -10 -33
-10 28 0 55 1 61 10 37 6 -18 7 -40 0 -65z m-627 48 c-3 -5 -10 -10 -16 -10
-5 0 -9 5 -9 10 0 6 7 10 16 10 8 0 12 -4 9 -10z m-55 -25 c0 -8 -7 -15 -15
-15 -8 0 -15 7 -15 15 0 8 7 15 15 15 8 0 15 -7 15 -15z m5696 1 c19 -19 18
-32 -3 -40 -19 -8 -28 0 -38 32 -8 26 17 31 41 8z m-4976 -176 c-1 -24 -1 -24
-15 -6 -8 11 -15 40 -15 65 l1 46 14 -40 c8 -22 15 -51 15 -65z m4050 74 c0
-22 -2 -25 -15 -14 -12 10 -13 16 -4 26 16 20 19 18 19 -12z m-4840 -54 c0
-37 -26 -41 -32 -5 -6 27 -1 35 19 35 8 0 13 -12 13 -30z m27 -2 c-3 -7 -5 -2
-5 12 0 14 2 19 5 13 2 -7 2 -19 0 -25z m643 8 c0 -3 -4 -8 -10 -11 -5 -3 -10
-1 -10 4 0 6 5 11 10 11 6 0 10 -2 10 -4z m-574 -52 c-9 -8 -16 -11 -16 -4 0
15 24 40 28 29 2 -5 -4 -16 -12 -25z m5154 19 c14 -13 20 -29 19 -58 l-1 -40
-9 32 c-11 38 -27 51 -35 28 -5 -11 -10 -13 -19 -5 -10 8 -10 16 -1 35 13 29
19 31 46 8z m-2950 -69 c0 -31 -2 -35 -15 -24 -8 7 -15 23 -15 36 0 15 6 24
15 24 11 0 15 -11 15 -36z m-2233 -26 c-3 -7 -5 -2 -5 12 0 14 2 19 5 13 2 -7
2 -19 0 -25z m5136 -120 c8 -61 -7 -84 -45 -75 -19 5 -23 13 -23 42 0 35 31
85 53 85 5 0 12 -24 15 -52z m-5176 -5 c-3 -10 -5 -2 -5 17 0 19 2 27 5 18 2
-10 2 -26 0 -35z m-1177 -27 c0 -14 -24 -29 -33 -19 -3 3 -3 11 0 19 7 18 33
18 33 0z m1170 -42 c0 -21 -4 -33 -10 -29 -5 3 -10 19 -10 36 0 16 5 29 10 29
6 0 10 -16 10 -36z m-93 -6 c-3 -8 -6 -5 -6 6 -1 11 2 17 5 13 3 -3 4 -12 1
-19z m-1362 2 c3 -6 -4 -10 -17 -10 -18 0 -20 2 -8 10 19 12 18 12 25 0z m265
-35 c0 -33 -4 -45 -15 -45 -16 0 -20 21 -7 34 4 4 8 16 8 27 2 25 3 29 9 29 3
0 5 -20 5 -45z m1797 -2 c-3 -10 -5 -4 -5 12 0 17 2 24 5 18 2 -7 2 -21 0 -30z
m-2117 17 c0 -5 -9 -10 -19 -10 -11 0 -23 -4 -26 -10 -3 -5 -15 -10 -26 -10
-10 0 -19 5 -19 10 0 6 11 10 24 10 14 0 28 5 31 10 3 6 13 10 21 10 8 0 14
-4 14 -10z m1360 -20 c0 -5 -9 -10 -20 -10 -11 0 -20 5 -20 10 0 6 9 10 20 10
11 0 20 -4 20 -10z m130 -26 c0 -21 -4 -33 -10 -29 -5 3 -10 19 -10 36 0 16 5
29 10 29 6 0 10 -16 10 -36z m-1600 6 c0 -5 -9 -10 -20 -10 -11 0 -20 5 -20
10 0 6 9 10 20 10 11 0 20 -4 20 -10z m-72 -17 c-10 -2 -18 -9 -18 -14 0 -5
-13 -9 -30 -9 -16 0 -30 -4 -30 -10 0 -5 -14 -10 -30 -10 -17 0 -47 -7 -67
-15 -44 -18 -48 -19 -31 -2 14 14 32 20 126 40 28 6 52 15 52 19 0 4 10 7 23
7 16 -1 18 -2 5 -6z m6842 -29 c0 -8 -2 -14 -4 -14 -2 0 -11 -3 -20 -6 -19 -7
-22 16 -4 34 13 13 28 7 28 -14z m-5263 -6 c-3 -8 -6 -5 -6 6 -1 11 2 17 5 13
3 -3 4 -12 1 -19z m-1057 -43 c0 -32 -3 -35 -27 -34 -16 0 -22 3 -15 6 6 2 12
11 12 19 0 12 19 42 28 44 1 0 2 -16 2 -35z m1130 3 c0 -30 -1 -31 -17 -16
-13 14 -14 20 -3 32 18 22 20 20 20 -16z m-660 -26 c0 -14 -28 -23 -35 -11 -4
5 -3 18 0 29 6 17 8 18 21 6 8 -8 14 -19 14 -24z m554 23 c3 -8 1 -15 -4 -15
-6 0 -10 7 -10 15 0 8 2 15 4 15 2 0 6 -7 10 -15z m38 -38 c-9 -18 -24 12 -16
34 l8 24 6 -25 c4 -14 5 -29 2 -33z m-1837 33 c4 -6 -7 -10 -27 -9 -31 1 -32
1 -8 9 14 4 26 8 27 9 1 1 5 -3 8 -9z m-75 -20 c0 -5 -12 -10 -27 -9 l-28 1
25 8 c14 4 26 8 28 9 1 1 2 -3 2 -9z m-60 -20 c11 -7 4 -10 -25 -10 -29 0 -36
3 -25 10 8 5 20 10 25 10 6 0 17 -5 25 -10z m3340 0 c0 -5 -7 -10 -16 -10 -8
0 -12 5 -9 10 3 6 10 10 16 10 5 0 9 -4 9 -10z m-3415 -20 c-3 -5 -15 -10 -26
-10 -10 0 -19 5 -19 10 0 6 12 10 26 10 14 0 23 -4 19 -10z m1560 0 c-3 -5
-12 -7 -20 -3 -21 7 -19 13 6 13 11 0 18 -4 14 -10z m5566 -2 c17 -10 23 -10
26 0 7 18 43 15 43 -4 0 -8 7 -22 15 -31 14 -13 17 -12 26 16 6 17 13 31 16
31 7 0 63 -61 63 -69 0 -3 14 -22 30 -41 17 -19 30 -44 29 -55 -3 -44 1 -55
21 -55 24 0 44 -35 36 -65 -7 -28 -61 -49 -99 -40 -14 4 -28 2 -31 -4 -5 -7
13 -11 56 -11 55 -1 65 -4 80 -25 20 -26 15 -85 -7 -85 -8 0 -15 -4 -17 -9 -1
-5 -31 -10 -65 -13 -48 -3 -63 -1 -63 9 0 7 -9 13 -19 13 -11 0 -21 6 -24 13
-3 9 -9 9 -23 1 -27 -16 -48 8 -41 45 4 20 1 30 -14 39 -39 25 -52 -8 -18 -44
33 -35 19 -54 -41 -54 -42 0 -50 -3 -50 -18 0 -11 -8 -26 -19 -36 -17 -15 -20
-15 -40 2 -25 20 -49 114 -31 120 15 5 12 43 -2 41 -52 -6 -80 17 -54 44 8 7
17 27 20 44 4 18 14 37 22 44 8 6 14 20 14 30 0 11 11 24 25 31 17 7 25 19 25
36 0 21 -2 23 -15 12 -21 -17 -36 -2 -29 28 6 22 44 32 44 12 0 -18 16 -10 29
14 11 19 37 40 59 45 1 1 12 -5 23 -11z m226 -24 c-9 -9 -27 6 -27 22 0 13 2
13 16 -1 9 -9 14 -18 11 -21z m-3937 7 c0 -11 -4 -23 -10 -26 -5 -3 -10 -18
-10 -31 0 -14 -5 -24 -11 -22 -14 5 -14 5 1 56 14 44 30 56 30 23z m-3478 -3
c-8 -8 -17 -8 -34 0 -22 10 -21 11 12 11 26 1 31 -2 22 -11z m1518 3 c0 -11
-26 -22 -34 -14 -12 12 -5 23 14 23 11 0 20 -4 20 -9z m-1584 -20 c-3 -4 -17
-6 -31 -3 -15 2 -25 0 -25 -7 0 -6 -16 -11 -35 -11 -19 0 -35 -4 -35 -10 0 -5
-19 -9 -42 -9 l-43 1 35 8 c19 4 55 15 80 23 50 17 104 22 96 8z m174 -2 c0
-5 -8 -9 -19 -7 -18 3 -70 -30 -100 -64 -9 -10 -22 -18 -31 -18 -13 0 -13 2 0
10 12 7 11 12 -5 30 l-19 21 40 -6 c33 -5 43 -2 64 19 25 25 70 35 70 15z
m3300 -44 c0 -25 -4 -45 -10 -45 -5 0 -10 -17 -10 -37 -1 -33 -18 -73 -32 -73
-3 0 2 24 10 53 8 28 17 73 19 100 6 60 23 62 23 2z m-1823 13 c-3 -8 -6 -5
-6 6 -1 11 2 17 5 13 3 -3 4 -12 1 -19z m5420 -35 c-7 -65 -18 -105 -33 -120
-18 -18 -24 -16 -24 10 0 14 -9 26 -25 34 -22 10 -25 9 -25 -7 0 -11 5 -22 10
-25 6 -3 10 -21 10 -40 0 -19 -4 -37 -10 -40 -5 -3 -10 -17 -10 -29 0 -17 -9
-27 -30 -36 -28 -12 -32 -10 -65 26 -45 50 -50 69 -30 100 9 14 13 33 10 44
-5 14 -2 20 10 20 11 0 15 6 11 18 -10 30 54 72 112 74 18 1 35 5 38 10 3 4
17 8 31 8 24 0 25 -2 20 -47z m-6537 27 c0 -13 -20 -13 -40 0 -12 8 -9 10 13
10 15 0 27 -4 27 -10z m-759 -9 c-8 -5 -20 -7 -28 -4 -21 8 -15 13 15 13 20 0
23 -3 13 -9z m209 -1 c0 -5 -9 -10 -19 -10 -11 0 -21 -6 -23 -12 -3 -7 -18
-11 -36 -10 -35 3 -45 -15 -11 -20 21 -3 21 -3 1 -25 -11 -13 -23 -23 -28 -23
-5 0 -16 -15 -24 -33 -18 -38 -60 -51 -60 -19 0 13 -9 22 -25 26 -14 4 -25 11
-25 16 0 6 11 10 25 10 14 0 25 -4 25 -10 0 -5 7 -10 15 -10 8 0 15 5 15 10 0
6 8 10 19 10 12 0 20 9 23 25 3 13 2 24 -1 23 -3 -1 -15 3 -25 7 -13 6 -23 3
-31 -9 -12 -15 -13 -15 -18 3 -4 16 2 20 37 25 81 10 116 18 122 27 7 12 44
11 44 -1z m175 0 c-3 -5 -13 -10 -21 -10 -8 0 -14 5 -14 10 0 6 9 10 21 10 11
0 17 -4 14 -10z m7435 -36 c0 -21 -4 -33 -10 -29 -17 10 -11 65 7 65 2 0 3
-16 3 -36z m-7907 19 c-7 -2 -21 -2 -30 0 -10 3 -4 5 12 5 17 0 24 -2 18 -5z
m417 -13 c0 -13 -5 -18 -14 -14 -8 3 -12 12 -9 20 8 21 23 17 23 -6z m110 -1
c0 -5 -7 -9 -15 -9 -8 0 -15 7 -15 15 0 9 6 12 15 9 8 -4 15 -10 15 -15z
m4442 4 c21 -19 23 -38 6 -57 -19 -20 -58 3 -58 35 0 42 20 51 52 22z m-4493
-31 c-12 -5 -39 17 -39 30 0 5 11 1 24 -9 13 -10 20 -20 15 -21z m-566 21 c-7
-2 -19 -2 -25 0 -7 3 -2 5 12 5 14 0 19 -2 13 -5z m390 -7 c4 -10 1 -13 -9 -9
-8 3 -14 -1 -14 -11 0 -9 -4 -16 -10 -16 -5 0 -10 11 -10 25 0 18 5 25 19 25
10 0 21 -7 24 -14z m1702 -16 c-3 -5 -13 -6 -21 -3 -12 4 -13 8 -3 14 15 9 32
2 24 -11z m-2182 3 c-7 -2 -21 -2 -30 0 -10 3 -4 5 12 5 17 0 24 -2 18 -5z
m230 0 c-7 -2 -21 -2 -30 0 -10 3 -4 5 12 5 17 0 24 -2 18 -5z m-103 -23 c-14
-4 -32 -8 -40 -9 -13 -1 -13 0 0 9 8 5 26 9 40 9 l25 -1 -25 -8z m-107 -15 c4
-8 2 -17 -3 -20 -6 -4 -10 3 -10 14 0 25 6 27 13 6z m33 -32 c-11 -11 -19 6
-11 24 8 17 8 17 12 0 3 -10 2 -21 -1 -24z m-131 17 c-3 -5 -10 -10 -16 -10
-5 0 -9 5 -9 10 0 6 7 10 16 10 8 0 12 -4 9 -10z m225 -5 c0 -8 -4 -15 -10
-15 -5 0 -7 7 -4 15 4 8 8 15 10 15 2 0 4 -7 4 -15z m2027 -7 c-3 -8 -6 -5 -6
6 -1 11 2 17 5 13 3 -3 4 -12 1 -19z m-2654 -5 c-7 -2 -19 -2 -25 0 -7 3 -2 5
12 5 14 0 19 -2 13 -5z m44 1 c-3 -3 -12 -4 -19 -1 -8 3 -5 6 6 6 11 1 17 -2
13 -5z m276 -1 c-13 -2 -35 -2 -50 0 -16 2 -5 4 22 4 28 0 40 -2 28 -4z m1007
-2 c0 -5 41 -6 90 -3 88 5 90 4 90 -18 0 -22 -2 -22 -70 -16 -63 7 -70 5 -71
-11 0 -10 -3 -13 -6 -5 -2 6 -22 12 -43 12 -21 0 -41 -6 -43 -12 -4 -9 -6 -8
-6 2 -1 20 30 60 47 60 6 0 12 -4 12 -9z m1817 -58 c-2 -16 -4 -5 -4 22 0 28
2 40 4 28 2 -13 2 -35 0 -50z m990 61 c-3 -3 -12 -4 -19 -1 -8 3 -5 6 6 6 11
1 17 -2 13 -5z m-3777 -14 c0 -5 -5 -10 -11 -10 -5 0 -7 5 -4 10 3 6 8 10 11
10 2 0 4 -4 4 -10z m3855 0 c3 -5 1 -10 -4 -10 -6 0 -11 5 -11 10 0 6 2 10 4
10 3 0 8 -4 11 -10z m5905 -10 c0 -16 -7 -20 -35 -20 -40 0 -45 10 -12 26 34
18 47 16 47 -6z m-10207 3 c-13 -2 -35 -2 -50 0 -16 2 -5 4 22 4 28 0 40 -2
28 -4z m314 1 c-3 -3 -12 -4 -19 -1 -8 3 -5 6 6 6 11 1 17 -2 13 -5z m339 -29
c1 -41 -3 -40 -16 4 -6 22 -5 31 3 31 7 0 12 -15 13 -35z m1767 28 c-20 -8
-16 -61 5 -66 16 -4 16 -4 -1 -12 -12 -5 -24 -2 -37 10 -14 13 -23 14 -39 5
-17 -9 -21 -8 -21 5 0 8 7 15 15 15 8 0 15 5 15 10 0 6 9 10 20 10 11 0 20 7
20 15 0 8 8 15 18 14 10 0 12 -3 5 -6z m-1863 -19 c0 -2 -7 -4 -15 -4 -8 0
-15 4 -15 10 0 5 7 7 15 4 8 -4 15 -8 15 -10z m137 -16 c-3 -8 -6 -5 -6 6 -1
11 2 17 5 13 3 -3 4 -12 1 -19z m-1120 6 c-3 -3 -12 -4 -19 -1 -8 3 -5 6 6 6
11 1 17 -2 13 -5z m493 2 c0 -2 -7 -6 -15 -10 -8 -3 -15 -1 -15 4 0 6 7 10 15
10 8 0 15 -2 15 -4z m440 0 c0 -3 -4 -8 -10 -11 -5 -3 -10 -1 -10 4 0 6 5 11
10 11 6 0 10 -2 10 -4z m-1127 -23 c-7 -2 -19 -2 -25 0 -7 3 -2 5 12 5 14 0
19 -2 13 -5z m544 1 c-3 -3 -12 -4 -19 -1 -8 3 -5 6 6 6 11 1 17 -2 13 -5z
m1698 -4 c-3 -5 -17 -10 -31 -10 -21 0 -24 -5 -24 -35 0 -32 -2 -35 -31 -35
-55 0 -81 54 -36 76 28 15 130 18 122 4z m221 -5 c14 -13 14 -15 -1 -15 -9 0
-19 -9 -22 -20 -5 -20 -43 -29 -43 -10 0 6 -7 10 -15 10 -8 0 -15 7 -15 15 0
8 7 15 15 15 8 0 15 -4 15 -10 0 -5 9 -10 20 -10 11 0 20 5 20 10 0 6 -4 10
-10 10 -5 0 -10 5 -10 10 0 15 29 12 46 -5z m439 5 c-3 -5 -17 -10 -29 -10
-29 0 -44 -17 -52 -58 -7 -35 -20 -42 -28 -14 -3 9 -25 30 -48 45 l-42 27 47
0 c26 0 47 5 47 10 0 6 25 10 56 10 34 0 53 -4 49 -10z m-3258 -16 c-3 -3 -12
-4 -19 -1 -8 3 -5 6 6 6 11 1 17 -2 13 -5z m2640 0 c-3 -3 -12 -4 -19 -1 -8 3
-5 6 6 6 11 1 17 -2 13 -5z m353 -9 c0 -8 -6 -15 -14 -15 -8 0 -16 7 -20 15
-4 10 1 15 14 15 11 0 20 -7 20 -15z m-280 -25 c0 -5 -5 -10 -11 -10 -5 0 -7
5 -4 10 3 6 8 10 11 10 2 0 4 -4 4 -10z m170 -39 l0 -26 -19 30 c-20 33 -17
53 5 34 8 -6 14 -23 14 -38z m160 23 c0 -8 -7 -14 -15 -14 -8 0 -15 9 -15 20
0 13 5 18 15 14 8 -4 15 -12 15 -20z m2973 12 c9 -7 17 -24 17 -37 0 -24 0
-24 -25 6 -35 43 -31 60 8 31z m4311 -29 c16 -11 26 -27 26 -42 0 -26 -10 -29
-74 -25 -16 1 -32 -4 -36 -10 -4 -7 -16 -9 -29 -5 -16 5 -21 14 -21 41 0 19 6
41 13 49 16 18 87 14 121 -8z m-7724 -7 c-19 -13 -30 -13 -30 0 0 6 10 10 23
10 18 0 19 -2 7 -10z m750 6 c0 -3 -4 -8 -10 -11 -5 -3 -10 -1 -10 4 0 6 5 11
10 11 6 0 10 -2 10 -4z m5427 -18 c-3 -8 -6 -5 -6 6 -1 11 2 17 5 13 3 -3 4
-12 1 -19z m299 -36 c-3 -2 7 -16 23 -31 33 -31 51 -79 51 -136 0 -41 29 -102
30 -62 0 22 12 22 27 -2 8 -13 19 -17 37 -14 15 3 26 1 26 -6 0 -6 7 -11 17
-11 16 0 85 -47 91 -62 6 -14 30 -9 36 7 3 9 14 15 23 13 12 -2 18 3 17 15 -1
11 5 17 20 17 16 0 22 -7 23 -28 4 -43 -6 -70 -27 -77 -11 -3 -20 -12 -20 -18
0 -7 -16 -23 -35 -36 -19 -13 -35 -30 -35 -37 0 -21 -39 -41 -95 -49 -63 -9
-107 -7 -119 5 -6 6 -22 10 -38 10 -28 0 -78 19 -78 30 0 3 -15 11 -34 18 -21
8 -38 23 -46 41 -10 26 -9 31 15 55 33 33 45 33 84 -5 20 -19 45 -32 66 -34
19 -2 42 -10 50 -19 16 -15 55 -23 55 -10 0 15 -35 37 -59 36 -17 0 -33 7 -42
20 -24 35 -40 48 -58 48 -10 0 -26 9 -36 20 -10 11 -23 20 -29 20 -14 0 -38
54 -38 85 0 16 -8 25 -22 29 -11 3 -27 14 -34 26 -15 25 -3 47 44 78 19 12 34
28 34 35 0 8 11 19 24 27 13 7 27 22 31 34 6 21 6 21 16 -3 5 -13 7 -26 5 -29z
m-2432 22 c9 -3 16 -12 16 -20 0 -17 -1 -17 -34 -1 -35 19 -20 36 18 21z
m2116 -4 c0 -5 -8 -10 -17 -10 -15 0 -16 2 -3 10 19 12 20 12 20 0z m-5610
-16 c0 -3 -6 -12 -14 -20 -17 -16 -46 -19 -46 -4 0 6 9 10 20 10 11 0 20 5 20
10 0 6 5 10 10 10 6 0 10 -3 10 -6z m-560 -60 c0 -23 -15 -7 -25 26 -7 22 -6
23 9 8 9 -9 16 -25 16 -34z m47 4 c-3 -8 -6 -5 -6 6 -1 11 2 17 5 13 3 -3 4
-12 1 -19z m131 10 c-7 -20 -48 -23 -48 -4 0 11 9 16 26 16 16 0 24 -5 22 -12z
m6585 -12 c23 -20 27 -32 28 -74 1 -42 -3 -55 -25 -77 -22 -22 -33 -26 -74
-23 l-47 3 -3 98 -3 97 48 0 c36 0 55 -6 76 -24z m347 9 c0 -8 -9 -15 -20 -15
-11 0 -20 7 -20 15 0 8 9 15 20 15 11 0 20 -7 20 -15z m360 0 c0 -10 -11 -15
-35 -15 -47 0 -48 -29 -2 -49 61 -28 73 -60 37 -99 -20 -21 -87 -32 -103 -16
-12 13 6 34 24 29 28 -9 59 4 59 25 0 11 -10 22 -22 25 -27 9 -68 44 -68 60 0
6 7 21 16 33 19 27 94 33 94 7z m230 -59 c0 -85 6 -106 29 -106 14 -1 14 -2
-2 -11 -9 -6 -26 -7 -37 -4 -18 6 -20 15 -20 101 0 77 3 94 15 94 12 0 15 -15
15 -74z m168 -23 l-3 -98 -29 -3 c-41 -5 -76 6 -76 23 0 8 -4 15 -10 15 -5 0
-10 14 -10 31 0 36 41 79 76 79 17 0 20 5 16 25 -3 20 0 25 17 25 21 0 22 -3
19 -97z m382 82 c0 -8 -9 -15 -20 -15 -11 0 -20 7 -20 15 0 8 9 15 20 15 11 0
20 -7 20 -15z m-5425 -25 c3 -5 1 -10 -4 -10 -6 0 -11 5 -11 10 0 6 2 10 4 10
3 0 8 -4 11 -10z m395 0 c0 -5 -15 -10 -32 -9 -28 0 -30 2 -13 9 28 12 45 12
45 0z m3694 -29 c13 -14 16 -33 14 -72 -3 -51 -5 -54 -33 -59 -44 -9 -64 -1
-72 28 -8 32 7 56 38 60 42 6 46 22 6 22 -30 0 -37 4 -37 20 0 16 7 20 33 20
21 0 41 -8 51 -19z m104 8 c15 1 22 -3 22 -13 0 -9 -8 -16 -19 -16 -17 0 -20
-8 -23 -52 -2 -30 -8 -53 -15 -56 -10 -3 -13 16 -13 73 0 58 3 74 13 68 6 -4
22 -6 35 -4z m230 -9 c26 -25 29 -75 6 -108 -18 -26 -68 -30 -90 -7 -19 19
-36 75 -23 75 5 0 9 7 9 16 0 21 29 43 56 44 11 0 30 -9 42 -20z m364 7 c26
-20 33 -82 14 -112 -22 -33 -78 -35 -100 -3 -47 66 25 161 86 115z m384 -1 c9
-10 14 -36 14 -75 l0 -61 -37 0 c-42 1 -73 19 -73 42 0 18 28 45 53 49 26 5
21 23 -5 24 -13 0 -24 7 -26 18 -3 13 3 17 28 17 17 0 38 -6 46 -14z m160 0
c20 -21 20 -136 -1 -136 -12 0 -15 13 -15 55 0 51 -2 55 -24 55 -28 0 -36 -16
-36 -72 0 -27 -4 -38 -12 -36 -8 3 -14 29 -16 73 l-3 67 26 -6 c14 -4 25 -2
25 4 0 15 39 12 56 -4z m92 -69 c-2 -48 -7 -62 -20 -65 -14 -3 -17 8 -20 65
-5 81 -3 86 23 72 17 -9 20 -19 17 -72z m-8248 48 c0 -14 -4 -25 -10 -25 -11
0 -14 33 -3 43 11 11 13 8 13 -18z m7105 -44 c0 -43 -4 -66 -12 -68 -9 -3 -13
11 -13 51 0 30 -4 58 -10 61 -18 11 -10 26 13 23 20 -3 22 -8 22 -67z m-4325
49 c0 -5 5 -10 11 -10 6 0 17 -7 25 -15 20 -19 4 -20 -22 0 -10 8 -31 15 -46
15 -16 0 -28 5 -28 10 0 6 14 10 30 10 17 0 30 -4 30 -10z m3840 -37 c0 -22
-2 -23 -15 -9 -8 8 -15 24 -15 37 0 18 2 19 15 9 8 -7 15 -23 15 -37z m-7125
5 c6 -4 -8 -7 -30 -6 -23 0 -30 3 -17 5 12 2 22 9 22 15 0 7 3 7 8 2 4 -5 12
-12 17 -16z m3362 0 c-3 -8 -6 -5 -6 6 -1 11 2 17 5 13 3 -3 4 -12 1 -19z
m-6837 -27 c0 -12 -20 -25 -27 -18 -7 7 6 27 18 27 5 0 9 -4 9 -9z m-93 -48
c-3 -10 -5 -2 -5 17 0 19 2 27 5 18 2 -10 2 -26 0 -35z m3843 33 c0 -8 -4 -18
-10 -21 -5 -3 -10 3 -10 14 0 12 5 21 10 21 6 0 10 -6 10 -14z m3647 -18 c-3
-8 -6 -5 -6 6 -1 11 2 17 5 13 3 -3 4 -12 1 -19z m-7399 -47 c3 -8 -1 -12 -9
-9 -7 2 -15 10 -17 17 -3 8 1 12 9 9 7 -2 15 -10 17 -17z m10932 -1 c0 -5 -8
-10 -17 -10 -15 0 -16 2 -3 10 19 12 20 12 20 0z m-4230 -120 c0 -5 -2 -10 -4
-10 -3 0 -8 5 -11 10 -3 6 -1 10 4 10 6 0 11 -4 11 -10z m-6973 -66 c-3 -3
-12 -4 -19 -1 -8 3 -5 6 6 6 11 1 17 -2 13 -5z m7020 -16 c-3 -8 -6 -5 -6 6
-1 11 2 17 5 13 3 -3 4 -12 1 -19z m-7247 -18 c0 -13 -11 -13 -30 0 -12 8 -11
10 8 10 12 0 22 -4 22 -10z m7302 -48 c-3 -9 -10 -6 -23 9 -28 33 -24 55 5 27
12 -13 21 -29 18 -36z m-188 -49 c10 -25 3 -23 -17 3 -13 18 -14 22 -3 18 8
-3 17 -13 20 -21z m66 -73 c0 -5 -2 -10 -4 -10 -3 0 -8 5 -11 10 -3 6 -1 10 4
10 6 0 11 -4 11 -10z m547 -35 c8 -9 13 -19 10 -22 -8 -8 -67 17 -67 28 0 15
40 10 57 -6z"/>
<path d="M623 7803 c-7 -2 -13 -11 -13 -20 0 -20 34 -12 38 10 3 17 -3 20 -25
10z"/>
<path d="M2394 7105 c-18 -15 -18 -15 5 -13 14 2 26 9 29 16 5 17 -10 15 -34
-3z"/>
<path d="M2360 7015 c0 -8 5 -15 10 -15 6 0 10 7 10 15 0 8 -4 15 -10 15 -5 0
-10 -7 -10 -15z"/>
<path d="M10836 6804 c-8 -20 20 -54 43 -54 20 0 51 34 51 55 0 22 -86 21 -94
-1z"/>
<path d="M2763 7063 c-14 -5 -18 -33 -5 -33 10 0 32 22 32 32 0 9 -8 9 -27 1z"/>
<path d="M10710 6136 c0 -8 -14 -20 -30 -28 -40 -17 -38 -52 3 -56 19 -2 27 1
27 12 0 19 17 21 23 4 2 -7 3 -4 1 7 -2 11 1 26 6 34 5 9 3 19 -5 28 -17 17
-25 17 -25 -1z"/>
<path d="M10902 6130 c-16 -26 -15 -30 7 -30 12 0 20 9 23 25 6 30 -12 33 -30
5z"/>
<path d="M10606 6103 c-8 -8 -8 -73 0 -73 13 0 34 30 34 48 0 20 -23 36 -34
25z"/>
<path d="M7095 5460 c3 -5 8 -10 11 -10 2 0 4 5 4 10 0 6 -5 10 -11 10 -5 0
-7 -4 -4 -10z"/>
<path d="M13045 5304 c-44 -22 -63 -64 -30 -64 8 0 15 -4 15 -10 0 -17 34 -10
61 13 32 27 41 51 26 66 -15 15 -36 14 -72 -5z"/>
<path d="M11757 4881 c-21 -3 -38 -9 -37 -13 0 -5 0 -12 0 -18 0 -13 37 -13
45 1 4 5 19 9 33 7 19 -2 28 2 30 15 4 18 -3 19 -71 8z"/>
<path d="M7526 4315 c-3 -8 -1 -15 3 -15 5 0 11 7 15 15 3 8 1 15 -3 15 -5 0
-11 -7 -15 -15z"/>
<path d="M7998 3765 c-3 -6 0 -18 7 -28 8 -12 15 -14 20 -8 3 6 2 11 -4 11 -5
0 -11 8 -13 18 -2 9 -6 12 -10 7z"/>
<path d="M8170 3680 c0 -5 5 -10 10 -10 6 0 10 -7 10 -15 0 -8 5 -15 10 -15
15 0 12 19 -4 36 -17 16 -26 18 -26 4z"/>
<path d="M8140 3634 c0 -9 32 -33 44 -34 5 0 -1 9 -14 20 -25 21 -30 24 -30
14z"/>
<path d="M12722 2820 c10 -16 10 -24 0 -40 -19 -32 -15 -52 11 -48 23 3 24 10
11 76 -3 18 -12 32 -20 32 -12 0 -12 -4 -2 -20z"/>
<path d="M8537 2543 c-14 -14 -6 -23 21 -22 16 0 21 3 12 6 -8 3 -18 10 -21
15 -3 4 -8 5 -12 1z"/>
<path d="M11688 2072 c8 -6 13 -33 13 -77 1 -50 3 -65 10 -52 13 22 35 22 48
0 16 -28 13 1 -4 33 -17 33 -10 47 11 20 7 -11 17 -16 21 -11 5 4 2 10 -4 12
-7 3 -13 11 -13 19 0 8 -4 14 -10 14 -5 0 -10 11 -10 25 0 22 -4 25 -37 25
-24 0 -33 -3 -25 -8z"/>
<path d="M11660 2040 c0 -5 5 -10 10 -10 6 0 10 5 10 10 0 6 -4 10 -10 10 -5
0 -10 -4 -10 -10z"/>
<path d="M8010 2150 c0 -5 9 -10 21 -10 11 0 18 -4 15 -8 -3 -5 6 -15 20 -22
19 -11 27 -11 36 -2 9 9 6 12 -13 12 -13 0 -30 9 -37 20 -13 21 -42 28 -42 10z"/>
<path d="M8135 2110 c-8 -13 -1 -24 14 -19 6 3 7 10 2 18 -6 10 -10 10 -16 1z"/>
<path d="M8183 2093 c-22 -8 -14 -23 12 -23 18 0 23 4 19 15 -6 16 -11 17 -31
8z"/>
<path d="M8468 1893 c7 -3 16 -2 19 1 4 3 -2 6 -13 5 -11 0 -14 -3 -6 -6z"/>
<path d="M8535 1880 c-3 -5 1 -10 10 -10 9 0 13 5 10 10 -3 6 -8 10 -10 10 -2
0 -7 -4 -10 -10z"/>
<path d="M8121 1444 c0 -12 6 -37 14 -55 l14 -34 1 33 c0 17 -4 32 -9 32 -5 0
-12 10 -14 23 -4 21 -4 21 -6 1z"/>
<path d="M8320 1176 c0 -8 -3 -21 -6 -30 -4 -12 0 -16 15 -16 17 0 21 6 21 30
0 20 -5 30 -15 30 -8 0 -15 -6 -15 -14z"/>
<path d="M8268 923 c6 -2 18 -2 25 0 6 3 1 5 -13 5 -14 0 -19 -2 -12 -5z"/>
<path d="M7600 1549 c0 -5 5 -7 10 -4 6 3 10 8 10 11 0 2 -4 4 -10 4 -5 0 -10
-5 -10 -11z"/>
<path d="M7580 1520 c0 -5 5 -10 10 -10 6 0 10 5 10 10 0 6 -4 10 -10 10 -5 0
-10 -4 -10 -10z"/>
<path d="M7692 1340 c0 -19 2 -27 5 -17 2 9 2 25 0 35 -3 9 -5 1 -5 -18z"/>
<path d="M7810 1090 c0 -5 5 -10 10 -10 6 0 10 5 10 10 0 6 -4 10 -10 10 -5 0
-10 -4 -10 -10z"/>
<path d="M7650 1005 c0 -32 2 -34 19 -23 16 9 17 16 8 35 -15 33 -27 28 -27
-12z"/>
<path d="M7797 1020 c4 -16 7 -17 19 -5 19 18 18 25 -5 25 -14 0 -18 -5 -14
-20z"/>
<path d="M6985 1910 c3 -5 10 -10 16 -10 5 0 9 5 9 10 0 6 -7 10 -16 10 -8 0
-12 -4 -9 -10z"/>
<path d="M6930 1900 c0 -5 7 -10 16 -10 8 0 12 5 9 10 -3 6 -10 10 -16 10 -5
0 -9 -4 -9 -10z"/>
<path d="M6890 1826 c0 -14 5 -28 10 -31 6 -3 10 -3 10 2 0 4 3 18 6 31 5 16
2 22 -10 22 -10 0 -16 -9 -16 -24z"/>
<path d="M6660 1759 c0 -18 2 -19 15 -5 8 8 15 17 15 20 0 3 -7 6 -15 6 -9 0
-15 -9 -15 -21z"/>
<path d="M6612 1740 c0 -14 2 -19 5 -12 2 6 2 18 0 25 -3 6 -5 1 -5 -13z"/>
<path d="M6706 1753 c-3 -3 -6 -11 -6 -17 0 -6 5 -4 10 4 8 12 10 11 10 -7 0
-23 17 -40 28 -28 4 4 1 10 -5 12 -7 3 -13 11 -13 18 0 16 -14 27 -24 18z"/>
<path d="M6750 1750 c0 -5 5 -10 10 -10 6 0 10 5 10 10 0 6 -4 10 -10 10 -5 0
-10 -4 -10 -10z"/>
<path d="M6451 1654 c0 -11 3 -14 6 -6 3 7 2 16 -1 19 -3 4 -6 -2 -5 -13z"/>
<path d="M6390 1640 c0 -13 11 -13 30 0 12 8 11 10 -7 10 -13 0 -23 -4 -23
-10z"/>
<path d="M6717 1633 c-4 -3 -7 -21 -7 -40 0 -23 5 -33 15 -33 11 0 15 11 15
40 0 38 -8 49 -23 33z"/>
<path d="M6360 1596 c0 -2 7 -6 15 -10 8 -3 15 -1 15 4 0 6 -7 10 -15 10 -8 0
-15 -2 -15 -4z"/>
<path d="M6460 1590 c0 -5 5 -10 10 -10 6 0 10 5 10 10 0 6 -4 10 -10 10 -5 0
-10 -4 -10 -10z"/>
<path d="M6053 1510 c-33 -13 -29 -32 5 -24 15 4 29 10 32 14 3 4 12 10 20 13
9 3 5 5 -10 6 -14 0 -35 -4 -47 -9z"/>
<path d="M6140 1497 c0 -13 -5 -28 -12 -35 -9 -9 -8 -15 8 -27 22 -17 34 -19
34 -6 0 5 -8 11 -17 14 -15 3 -14 6 7 15 14 6 19 11 11 11 -9 1 -12 9 -9 26 4
17 1 25 -8 25 -8 0 -14 -10 -14 -23z"/>
<path d="M6330 1473 c0 -10 4 -24 9 -32 8 -12 12 -12 25 2 24 24 20 47 -9 47
-17 0 -25 -5 -25 -17z"/>
<path d="M6088 1463 c7 -3 16 -2 19 1 4 3 -2 6 -13 5 -11 0 -14 -3 -6 -6z"/>
<path d="M6025 1440 c3 -5 12 -7 20 -3 21 7 19 13 -6 13 -11 0 -18 -4 -14 -10z"/>
<path d="M6070 1430 c0 -5 7 -10 15 -10 8 0 15 5 15 10 0 6 -7 10 -15 10 -8 0
-15 -4 -15 -10z"/>
<path d="M6330 1400 c0 -11 5 -20 10 -20 6 0 10 9 10 20 0 11 -4 20 -10 20 -5
0 -10 -9 -10 -20z"/>
<path d="M6420 1410 c0 -5 5 -10 10 -10 6 0 10 5 10 10 0 6 -4 10 -10 10 -5 0
-10 -4 -10 -10z"/>
<path d="M5521 1316 c-9 -10 -9 -16 -1 -21 16 -10 31 7 21 23 -6 10 -10 10
-20 -2z"/>
<path d="M5385 1270 c-3 -5 3 -10 15 -10 12 0 18 5 15 10 -3 6 -10 10 -15 10
-5 0 -12 -4 -15 -10z"/>
<path d="M5240 1223 l-25 -13 28 0 c16 0 37 -5 48 -10 13 -8 19 -7 19 0 0 6
-8 14 -17 17 -10 4 -20 9 -23 13 -3 3 -16 0 -30 -7z"/>
<path d="M5346 1211 c-16 -18 -16 -20 1 -32 29 -21 37 -40 22 -50 -12 -8 -12
-11 1 -19 32 -21 50 -12 50 25 0 28 -4 35 -20 35 -22 0 -28 25 -7 33 9 4 8 8
-3 16 -20 15 -24 14 -44 -8z"/>
<path d="M5422 1208 c3 -7 15 -14 29 -16 24 -4 24 -3 4 12 -24 19 -38 20 -33
4z"/>
<path d="M5300 1160 c-12 -8 -11 -10 7 -10 12 0 24 -6 26 -12 4 -8 6 -9 6 -2
2 19 -23 34 -39 24z"/>
<path d="M5450 1140 c0 -5 7 -10 15 -10 8 0 15 5 15 10 0 6 -7 10 -15 10 -8 0
-15 -4 -15 -10z"/>
<path d="M5880 1120 c0 -5 5 -10 10 -10 6 0 10 5 10 10 0 6 -4 10 -10 10 -5 0
-10 -4 -10 -10z"/>
<path d="M6770 1090 c0 -5 5 -10 11 -10 5 0 7 5 4 10 -3 6 -8 10 -11 10 -2 0
-4 -4 -4 -10z"/>
<path d="M5760 1030 c0 -5 9 -10 20 -10 11 0 20 5 20 10 0 6 -9 10 -20 10 -11
0 -20 -4 -20 -10z"/>
<path d="M5370 1005 c-10 -12 -10 -15 3 -15 8 0 22 -3 31 -6 12 -4 16 0 16 15
0 25 -31 29 -50 6z"/>
<path d="M6660 995 c0 -8 5 -15 10 -15 6 0 10 7 10 15 0 8 -4 15 -10 15 -5 0
-10 -7 -10 -15z"/>
<path d="M11991 914 c0 -11 3 -14 6 -6 3 7 2 16 -1 19 -3 4 -6 -2 -5 -13z"/>
<path d="M11981 837 c-14 -14 -14 -67 -1 -67 6 0 10 -10 10 -21 0 -18 2 -19
15 -9 8 7 15 21 15 31 0 10 9 24 20 32 18 13 18 14 -15 29 -24 10 -37 12 -44
5z"/>
<path d="M11943 287 c-17 -9 -19 -16 -12 -29 13 -23 36 -13 42 18 5 27 1 28
-30 11z"/>
<path d="M11880 579 c0 -69 1 -71 23 -65 12 3 28 6 35 6 16 0 16 102 0 118 -7
7 -22 12 -35 12 -22 0 -23 -4 -23 -71z m40 -16 c0 -13 -4 -23 -10 -23 -5 0
-10 17 -10 38 0 27 3 33 10 22 5 -8 10 -25 10 -37z"/>
<path d="M12980 559 c0 -29 21 -58 43 -59 4 0 7 20 7 45 0 41 -2 45 -25 45
-21 0 -25 -5 -25 -31z"/>
<path d="M12056 532 c-9 -14 12 -35 28 -29 23 9 20 37 -3 37 -11 0 -22 -4 -25
-8z"/>
<path d="M12380 581 c0 -5 -2 -16 -5 -24 -3 -7 3 -24 13 -37 18 -22 21 -23 36
-8 9 9 16 30 16 47 0 28 -3 31 -30 31 -16 0 -30 -4 -30 -9z"/>
<path d="M12747 583 c-21 -20 4 -83 33 -83 15 0 30 44 23 69 -5 20 -41 30 -56
14z"/>
<path d="M13151 540 c-17 -10 -7 -40 14 -40 8 0 15 9 15 19 0 24 -12 32 -29
21z"/>
<path d="M2788 7963 c50 -2 134 -2 185 0 50 1 9 3 -93 3 -102 0 -143 -2 -92
-3z"/>
<path d="M3553 7963 c9 -2 25 -2 35 0 9 3 1 5 -18 5 -19 0 -27 -2 -17 -5z"/>
<path d="M3770 7959 c92 -5 148 -5 154 1 7 7 -44 9 -144 9 l-155 -2 145 -8z"/>
<path d="M6530 7950 c0 -28 -48 -79 -84 -89 l-31 -9 33 -1 c17 -1 32 -5 32
-11 0 -5 7 -10 16 -10 49 0 74 -75 74 -224 1 -71 7 -142 15 -171 7 -27 15 -48
16 -45 1 3 4 91 8 197 l6 192 36 34 c20 19 43 37 50 40 12 5 12 6 0 6 -17 1
-91 81 -91 98 0 8 -15 13 -40 13 -33 0 -40 -3 -40 -20z"/>
<path d="M9882 7891 l1 -80 36 -5 c61 -9 120 -11 127 -3 4 4 -23 7 -59 7 -37
0 -67 4 -67 9 0 14 28 21 60 14 23 -4 30 -2 30 11 0 27 39 19 46 -9 5 -22 12
-25 51 -25 41 0 173 37 215 60 10 6 29 10 43 10 14 0 25 5 25 10 0 6 11 10 25
10 14 0 25 4 25 8 0 5 16 14 35 22 74 29 34 35 -251 38 -253 2 -280 1 -291
-15 -12 -16 -13 -16 -13 0 0 10 -8 17 -19 17 -18 0 -20 -7 -19 -79z"/>
<path d="M10785 7960 c-3 -5 -17 -10 -30 -10 -13 0 -31 -8 -41 -17 -12 -13
-19 -14 -22 -5 -3 9 -8 9 -24 -2 -11 -8 -27 -12 -34 -9 -8 3 -14 0 -14 -6 0
-6 13 -11 29 -11 42 0 133 -21 156 -37 23 -15 85 -18 85 -3 0 16 22 12 35 -6
10 -15 46 -18 246 -25 129 -4 235 -8 237 -8 1 -1 2 -9 2 -19 0 -10 2 -21 6
-24 10 -11 85 33 96 57 6 14 16 25 22 25 6 0 5 -5 -2 -12 -20 -20 -14 -38 12
-38 13 0 26 -7 30 -15 6 -18 -1 -19 -42 -4 -26 9 -35 8 -47 -4 -17 -18 -19
-35 -5 -57 7 -12 12 -11 28 8 11 12 29 22 41 22 24 0 27 -10 9 -28 -9 -9 -9
-12 0 -12 7 0 12 5 12 10 0 6 9 10 19 10 11 0 21 5 23 11 2 7 27 12 58 12 30
0 45 2 33 4 -15 3 -23 12 -23 24 0 16 7 19 55 19 30 0 55 4 55 9 0 5 10 13 23
17 12 4 33 15 46 25 13 11 34 19 46 19 14 0 25 7 28 20 4 15 14 20 40 20 20 0
37 4 39 10 2 5 18 12 36 16 25 5 32 3 32 -10 0 -9 -4 -16 -10 -16 -5 0 -10 -4
-10 -10 0 -5 7 -10 16 -10 11 0 14 -6 9 -21 -6 -19 -5 -19 17 -7 12 7 30 21
39 31 9 9 23 17 30 17 8 0 27 11 43 25 l29 25 -167 0 c-169 0 -196 -5 -196
-39 0 -6 -9 -11 -20 -11 -11 0 -20 -4 -20 -10 0 -5 -7 -10 -15 -10 -8 0 -15 5
-15 10 0 18 -18 10 -23 -10 -4 -16 -14 -20 -45 -20 -46 0 -58 17 -35 50 13 19
22 22 59 17 28 -3 50 0 61 9 15 11 -66 13 -509 14 -341 0 -529 -4 -533 -10z
m-5 -30 c0 -5 -4 -10 -10 -10 -5 0 -10 5 -10 10 0 6 5 10 10 10 6 0 10 -4 10
-10z m850 -34 c0 -3 -4 -8 -10 -11 -5 -3 -10 -1 -10 4 0 6 5 11 10 11 6 0 10
-2 10 -4z m48 -8 c-3 -7 -11 -13 -18 -13 -7 0 -15 6 -17 13 -3 7 4 12 17 12
13 0 20 -5 18 -12z m-205 -75 c-7 -2 -21 -2 -30 0 -10 3 -4 5 12 5 17 0 24 -2
18 -5z"/>
<path d="M4028 7943 c28 -2 76 -2 105 0 28 2 5 3 -53 3 -58 0 -81 -1 -52 -3z"/>
<path d="M8695 7940 c-9 -15 4 -30 20 -23 8 3 15 9 15 13 0 12 -29 20 -35 10z"/>
<path d="M4280 7931 c0 -7 29 -11 89 -11 49 0 101 -4 116 -10 14 -5 121 -10
238 -10 203 -1 290 -5 671 -31 206 -13 419 -14 466 -1 34 10 33 10 -22 11 -31
1 -79 5 -105 11 -26 5 -205 11 -398 14 -192 3 -404 10 -470 15 -218 17 -585
25 -585 12z"/>
<path d="M8640 7870 c-14 -17 -35 -30 -48 -30 -21 0 -22 -2 -9 -15 9 -8 17
-19 19 -25 4 -13 68 12 92 35 12 13 13 21 4 40 -15 32 -27 31 -58 -5z"/>
<path d="M10530 7851 c0 -9 24 -21 41 -21 5 0 9 7 9 15 0 9 -9 15 -25 15 -14
0 -25 -4 -25 -9z"/>
<path d="M12007 7840 c-19 -23 -21 -30 -8 -30 5 0 12 9 16 19 3 11 16 22 28
24 20 4 20 4 2 6 -11 0 -28 -8 -38 -19z"/>
<path d="M7205 7840 c-3 -5 3 -10 15 -10 12 0 18 5 15 10 -3 6 -10 10 -15 10
-5 0 -12 -4 -15 -10z"/>
<path d="M7960 7841 c-39 -6 -33 -7 50 -14 105 -9 170 2 90 15 -52 8 -77 7
-140 -1z"/>
<path d="M10460 7839 c0 -5 11 -9 25 -9 14 0 25 2 25 4 0 2 -11 6 -25 8 -14 3
-25 1 -25 -3z"/>
<path d="M7318 7833 c7 -3 16 -2 19 1 4 3 -2 6 -13 5 -11 0 -14 -3 -6 -6z"/>
<path d="M7558 7833 c12 -2 32 -2 45 0 12 2 2 4 -23 4 -25 0 -35 -2 -22 -4z"/>
<path d="M2154 7805 c-3 -8 -4 -20 -2 -27 3 -7 7 -1 10 15 6 29 1 36 -8 12z"/>
<path d="M11790 7800 c0 -5 -11 -10 -25 -10 -14 0 -25 -4 -25 -10 0 -5 11 -10
25 -10 14 0 25 5 25 10 0 6 24 10 54 10 30 0 58 5 61 10 4 6 -17 10 -54 10
-34 0 -61 -4 -61 -10z"/>
<path d="M10710 7753 c-1 -38 -159 -70 -210 -43 -13 7 -20 7 -20 0 0 -14 -36
-13 -61 3 -17 10 -23 10 -26 0 -5 -14 -83 -18 -83 -5 0 8 -43 29 -89 42 -19 5
-31 5 -31 -1 0 -5 10 -9 23 -9 12 0 29 -9 37 -20 8 -11 22 -20 31 -20 9 0 19
-7 23 -15 3 -8 15 -15 26 -15 11 0 20 -4 20 -10 0 -5 9 -10 20 -10 11 0 20 -4
20 -10 0 -5 7 -10 15 -10 8 0 15 -4 15 -10 0 -5 7 -10 16 -10 9 0 40 -25 69
-55 30 -30 56 -51 59 -46 4 5 0 11 -6 14 -7 2 -10 8 -5 12 4 5 13 0 21 -10 12
-17 15 -17 46 -1 18 9 46 16 62 16 15 0 28 5 28 10 0 6 25 10 55 10 55 0 55 0
55 -31 0 -17 4 -28 10 -24 6 3 10 17 10 31 0 19 5 24 25 24 14 0 25 4 25 9 0
5 26 13 58 17 31 3 74 15 94 25 21 11 52 19 70 19 23 0 29 3 19 9 -8 5 -27 5
-45 0 -17 -5 -43 -9 -58 -9 -16 0 -28 -4 -28 -10 0 -5 -24 -10 -52 -10 -29 -1
-64 -7 -78 -15 -26 -15 -160 -21 -160 -7 1 24 30 42 68 42 22 0 43 4 46 8 3 5
33 17 68 27 71 21 97 44 91 78 -5 23 -8 24 -104 25 -62 1 -99 -2 -99 -8 0 -7
-6 -7 -19 0 -29 15 -51 12 -51 -7z m-224 -100 c-10 -10 -19 5 -10 18 6 11 8
11 12 0 2 -7 1 -15 -2 -18z m34 -27 c0 -11 -19 -15 -25 -6 -3 5 1 10 9 10 9 0
16 -2 16 -4z m106 -10 c9 -9 10 -17 4 -21 -5 -3 -10 -1 -10 5 0 7 -6 10 -14 7
-8 -3 -22 1 -33 8 -17 13 -16 14 10 15 16 0 35 -6 43 -14z"/>
<path d="M10475 7751 c-3 -5 -1 -12 5 -16 5 -3 10 1 10 9 0 18 -6 21 -15 7z"/>
<path d="M11070 7750 c0 -5 18 -10 41 -10 24 0 38 4 34 10 -3 6 -22 10 -41 10
-19 0 -34 -4 -34 -10z"/>
<path d="M8828 7743 c6 -2 18 -2 25 0 6 3 1 5 -13 5 -14 0 -19 -2 -12 -5z"/>
<path d="M3010 7705 c0 -8 4 -15 10 -15 5 0 7 7 4 15 -4 8 -8 15 -10 15 -2 0
-4 -7 -4 -15z"/>
<path d="M3717 7464 c-5 -5 -45 -14 -89 -20 -89 -13 -124 -37 -60 -42 34 -2
60 -11 104 -33 38 -19 66 -11 78 25 14 42 50 60 94 47 17 -5 74 -17 126 -26
91 -16 146 -28 200 -45 14 -5 49 -11 78 -14 40 -4 52 -2 52 8 0 8 -15 16 -37
19 -21 3 -72 13 -113 22 -218 47 -418 74 -433 59z"/>
<path d="M6591 7215 c0 -35 2 -37 11 -19 7 15 7 28 -1 40 -9 16 -10 12 -10
-21z"/>
<path d="M6590 7018 c0 -10 -4 -18 -10 -18 -5 0 -10 -8 -10 -19 0 -15 5 -17
32 -12 30 6 52 31 27 31 -6 0 -18 8 -25 18 -13 16 -13 16 -14 0z"/>
<path d="M4438 6433 c7 -3 16 -2 19 1 4 3 -2 6 -13 5 -11 0 -14 -3 -6 -6z"/>
<path d="M7548 6433 c6 -2 18 -2 25 0 6 3 1 5 -13 5 -14 0 -19 -2 -12 -5z"/>
<path d="M7485 6340 c3 -5 8 -10 11 -10 2 0 4 5 4 10 0 6 -5 10 -11 10 -5 0
-7 -4 -4 -10z"/>
<path d="M416 3362 c-3 -5 3 -17 14 -27 23 -21 26 -9 6 18 -8 10 -17 14 -20 9z"/>
<path d="M305 3340 c-4 -6 7 -10 27 -9 27 0 30 2 13 9 -27 12 -33 12 -40 0z"/>
<path d="M1211 284 c0 -11 3 -14 6 -6 3 7 2 16 -1 19 -3 4 -6 -2 -5 -13z"/>
<path d="M1170 265 c0 -8 7 -15 15 -15 9 0 12 6 9 15 -4 8 -10 15 -15 15 -5 0
-9 -7 -9 -15z"/>
<path d="M1226 262 c-2 -4 -1 -14 5 -22 7 -12 9 -10 9 8 0 23 -5 28 -14 14z"/>
<path d="M1237 215 c-9 -7 -28 -10 -41 -8 -28 6 -83 -15 -91 -34 -3 -9 6 -13
29 -13 19 0 36 5 38 11 3 9 9 9 25 1 18 -10 22 -8 26 9 5 18 9 19 27 9 31 -17
44 -8 23 17 -16 18 -21 19 -36 8z"/>
<path d="M10836 54 c-3 -9 -6 -24 -6 -35 0 -17 8 -19 88 -18 82 1 85 1 57 14
-16 8 -35 14 -42 15 -7 0 -28 9 -48 20 -43 24 -41 24 -49 4z"/>
</g>
</svg>
