<svg width="66" height="66" viewBox="0 0 66 66" fill="none" xmlns="http://www.w3.org/2000/svg">
<path d="M44.3235 35.9106C44.3235 36.845 44.0931 37.7263 43.6868 38.4988C42.7551 40.2692 40.8981 41.4753 38.7589 41.4753H30.4765V53.2518H26.3354L26.1232 50.6636L25.2562 40.11C25.0711 37.8491 26.8571 35.9106 29.1256 35.9106H44.3235Z" fill="#224344"/>
<path d="M44.3235 35.9106C44.3235 36.845 44.0932 37.7263 43.6868 38.4988H35.0059C33.5765 38.4988 32.4177 37.3401 32.4177 35.9106H44.3235Z" fill="#424242"/>
<path d="M44.3235 21.6753V35.9105H35.0059V15.2046H37.8529C38.8275 15.2046 39.7515 15.4208 40.5797 15.8063C42.7913 16.8353 44.3235 19.0767 44.3235 21.6753Z" fill="#00C7CE"/>
<path d="M0.970535 57.134C0.970535 52.2025 4.96831 48.2046 9.9 48.2046C14.8317 48.2046 18.8295 52.2024 18.8295 57.134H0.970535Z" fill="#B0BEC5"/>
<path d="M3.58913 57.134C3.48574 57.5924 3.42941 58.0683 3.42941 58.5575C3.42941 62.1254 6.33212 65.0281 9.89999 65.0281C13.4679 65.0281 16.3706 62.1254 16.3706 58.5575C16.3706 58.0683 16.3142 57.5924 16.2109 57.134H3.58913Z" fill="#224344"/>
<path d="M7.74068 57.134C7.47037 57.5428 7.31181 58.0319 7.31181 58.5575C7.31181 59.9847 8.47287 61.1457 9.89999 61.1457C11.3271 61.1457 12.4882 59.9847 12.4882 58.5575C12.4882 58.0317 12.3296 57.5428 12.0593 57.134H7.74068Z" fill="#D8D7DA"/>
<path d="M42.542 57.134C42.4387 57.5924 42.3823 58.0683 42.3823 58.5575C42.3823 62.1254 45.285 65.0281 48.8529 65.0281C52.4208 65.0281 55.3235 62.1254 55.3235 58.5575C55.3235 58.0683 55.2671 57.5924 55.1638 57.134H42.542Z" fill="#224344"/>
<path d="M46.6936 57.134C46.4233 57.5428 46.2647 58.0319 46.2647 58.5575C46.2647 59.9847 47.4258 61.1457 48.8529 61.1457C50.28 61.1457 51.4411 59.9847 51.4411 58.5575C51.4411 58.0317 51.2825 57.5428 51.0122 57.134H46.6936Z" fill="#D8D7DA"/>
<path d="M23.5995 25.1526L16.8274 47.9394L16.0251 50.6389C14.5705 49.2671 12.6565 48.3794 10.5368 48.2293L11.299 45.7018L16.8352 27.3319C17.3994 25.2638 19.5334 24.0435 21.6013 24.6077L23.5995 25.1526Z" fill="#00C7CE"/>
<path d="M11.4529 26.0752C13.74 26.0752 15.594 27.9293 15.594 30.2163C15.594 32.5034 13.74 34.3576 11.4529 34.3576V26.0752Z" fill="#FDD844"/>
<path d="M30.4765 50.6633V53.2515H26.3353L26.1231 50.6633H30.4765Z" fill="#424242"/>
<path d="M37.9824 53.2516V57.134H23.3588L18.0231 53.0006L17.6608 52.7197C17.2208 51.9472 16.6682 51.2457 16.025 50.6388L17.0331 47.2456L19.2409 48.9021L25.0412 53.2516H37.9824Z" fill="#B0BEC5"/>
<path d="M59.0764 49.24V57.1341H37.9824V41.4753H51.3118C53.4419 41.4753 55.3727 42.3333 56.7743 43.7219C57.5974 44.5372 58.2392 45.535 58.6339 46.6518C58.9212 47.4619 59.0764 48.3328 59.0764 49.24Z" fill="#00C7CE"/>
<path d="M56.7807 44.2098C56.6888 47.0776 54.4656 49.24 51.6094 49.24H43.1588C41.1724 49.24 39.3568 48.4894 37.9824 47.2561V41.4753H51.3118C53.4419 41.4753 55.3727 42.3333 56.7743 43.7219C56.7846 43.8824 56.7859 44.0455 56.7807 44.2098Z" fill="#009EA4"/>
<path d="M51.6092 46.6518H43.1588C40.3 46.6518 37.9824 44.3342 37.9824 41.4753H51.3118C51.4808 41.4753 51.6486 41.4808 51.815 41.4913C55.1193 41.7026 54.9201 46.6518 51.6092 46.6518Z" fill="#B0BEC5"/>
<path d="M65.0295 29.8284H48.2059V41.4754H65.0295V29.8284Z" fill="#224344"/>
<path d="M38.5629 17.1136C39.2957 16.785 39.9786 16.3446 40.5797 15.8063C39.7515 15.4206 38.8275 15.2046 37.8529 15.2046H35.0059V16.0108V17.7825V34.7445C37.9564 34.144 40.1824 31.5286 40.1824 28.4046V20.6399C40.1824 19.2317 39.5535 17.9685 38.5629 17.1136Z" fill="#009EA4"/>
<path d="M39.1057 13.6348C38.3291 14.4345 37.2965 14.9846 36.1395 15.1515C35.8963 15.1864 35.6477 15.2046 35.3941 15.2046C32.7541 15.2046 30.5761 13.2285 30.2577 10.6752C30.2318 10.463 30.2176 10.2469 30.2176 10.0281C30.2176 9.34091 30.3521 8.68607 30.5954 8.08691H35.9116V9.81452C35.9117 11.7234 37.29 13.3099 39.1057 13.6348Z" fill="#FDD8A8"/>
<path d="M39.1057 13.6347C38.3291 14.4344 37.2965 14.9844 36.1395 15.1514C34.6642 14.138 33.6277 12.5296 33.3804 10.675H30.2577C30.2318 10.4628 30.2176 10.2466 30.2176 10.0279C30.2176 9.34067 30.3521 8.68583 30.5954 8.08667H35.9116V9.81427C35.9117 11.7232 37.29 13.3098 39.1057 13.6347Z" fill="#FFD9B3"/>
<path d="M43.6765 13.6966C44.2236 12.4667 44.5042 11.0932 44.4452 9.64975C44.2547 4.99508 40.4963 1.20626 35.8433 0.980162C31.3183 0.760377 28.422 3.8821 27.5 8.08689H35.9117V9.81411C35.9117 11.9583 37.6499 13.6965 39.7941 13.6965H43.6765V13.6966Z" fill="#00C7CE"/>
<path d="M26.3353 32.287H33.7118C35.856 32.287 37.5942 30.5489 37.5942 28.4046V20.64C37.5942 19.4963 36.6672 18.5693 35.5236 18.5693C34.3799 18.5693 33.453 19.4963 33.453 20.64V28.1458H26.3353V32.287Z" fill="#00C7CE"/>
<path d="M26.3353 28.146H22.4529C21.3092 28.146 20.3823 29.073 20.3823 30.2166C20.3823 31.3603 21.3092 32.2872 22.4529 32.2872H26.3353V28.146Z" fill="#FDD8A8"/>
<path d="M65.0295 29.8284H48.2059V32.4165H65.0295V29.8284Z" fill="#2A595B"/>
<path d="M65.0295 26.5928C65.0295 25.5208 64.1604 24.6516 63.0883 24.6516H50.1471C49.0751 24.6516 48.2059 25.5207 48.2059 26.5928V29.8281H65.0295V26.5928Z" fill="#224344"/>
<path d="M16.8274 47.9392L16.0251 50.6388C14.5705 49.2669 12.6565 48.3793 10.5368 48.2291L11.299 45.7017C13.3579 45.9515 15.2499 46.7473 16.8274 47.9392Z" fill="#009EA4"/>
<path d="M19.2409 48.9022L18.0231 53.0006L17.6608 52.7197C17.2208 51.9472 16.6682 51.2457 16.025 50.6388L17.0331 47.2456L19.2409 48.9022Z" fill="#90A4AE"/>
<path d="M63.0883 23.6818H50.1471C48.5415 23.6818 47.2354 24.9882 47.2354 26.5936V40.5054H43.4014C44.3551 39.5418 45.0119 38.2841 45.2216 36.8818H45.294V21.6761C45.294 18.4497 43.2295 15.6975 40.3526 14.6682H44.3069L44.5631 14.0921C45.1921 12.678 45.4786 11.1703 45.4148 9.61108C45.2047 4.47739 41.0211 0.260994 35.8902 0.011689C31.2451 -0.212479 27.6655 2.80122 26.5517 7.88L26.2933 9.05846H29.3249C29.2738 9.37789 29.2469 9.70157 29.2469 10.029C29.2469 12.9516 31.2975 15.4025 34.0351 16.0229V17.9902C33.1092 18.5122 32.4822 19.5044 32.4822 20.6408V27.1761H24.0103L24.8121 24.478L21.8564 23.6722C20.6059 23.3312 19.2973 23.4975 18.1718 24.1407C17.0503 24.7817 16.2444 25.8199 15.9014 27.0647L15.773 27.4906C14.8662 26.0589 13.269 25.1055 11.4523 25.1055H10.4821V35.329H11.4527C12.1988 35.329 12.9073 35.167 13.5469 34.8784L9.82266 47.2367C4.39957 47.2784 0 51.7015 0 57.1348V58.1054H2.47397C2.46469 58.2564 2.45889 58.4075 2.45889 58.5583C2.45889 62.6614 5.79692 65.9994 9.9 65.9994C14.0031 65.9994 17.3411 62.6614 17.3411 58.5583C17.3411 58.4075 17.3353 58.2564 17.326 58.1054H19.8V57.1348C19.8 56.5774 19.7514 56.0316 19.6625 55.499L23.0269 58.1054H41.427C41.4177 58.2564 41.4119 58.4075 41.4119 58.5583C41.4119 62.6614 44.7499 65.9994 48.853 65.9994C52.9561 65.9994 56.2941 62.6614 56.2941 58.5583C56.2941 58.4075 56.2883 58.2564 56.2791 58.1054H60.0471V49.2406C60.0471 48.2405 59.8794 47.2606 59.5491 46.3293C58.9985 44.7697 58.0301 43.4403 56.7976 42.4465H66V26.5936C66 24.9882 64.6938 23.6818 63.0883 23.6818ZM12.4235 27.1985C13.6986 27.6094 14.6235 28.8074 14.6235 30.2171C14.6235 31.6268 13.6986 32.8249 12.4235 33.2357V27.1985ZM50.1471 25.623H63.0883C63.6235 25.623 64.0588 26.0584 64.0588 26.5936V28.8583H60.1764V27.2407H58.2352V28.8583H55.647V27.2407H53.7058V28.8583H49.1764V26.5936C49.1764 26.0584 49.6118 25.623 50.1471 25.623ZM51.6982 42.4588C51.7262 42.4605 51.7543 42.4618 51.7822 42.4639C52.8803 42.5489 53.246 43.3933 53.2237 44.097C53.2004 44.828 52.7635 45.6819 51.6093 45.6819H43.159C41.1738 45.6819 39.5054 44.2994 39.0662 42.4466L51.5698 42.4518C51.698 42.4516 51.5697 42.4516 51.6982 42.4588ZM37.0118 52.2819H31.4471V42.4466H37.0118V52.2819ZM38.7589 40.5054H29.506V52.2819H27.2296L26.224 40.0319C26.1566 39.2114 26.4267 38.4261 26.9845 37.8208C27.5422 37.2153 28.3028 36.882 29.126 36.882H43.2499C42.8031 38.9505 40.9591 40.5054 38.7589 40.5054ZM22.4529 33.2584H33.7117C33.8205 33.2584 33.9283 33.2535 34.0352 33.2464V34.9408H29.1257C27.7736 34.9408 26.4728 35.5111 25.5566 36.5054C24.6403 37.4999 24.1784 38.843 24.289 40.1907L25.2762 52.2156L18.1559 46.8754L22.206 33.2475C22.2876 33.254 22.3699 33.2584 22.4529 33.2584ZM43.353 21.6761V34.9408H35.9764V32.6957C37.5143 31.8807 38.5646 30.2638 38.5646 28.4055V20.6408C38.5646 19.1178 37.4393 17.853 35.9764 17.6336V16.1761H37.8529C40.8857 16.176 43.353 18.6433 43.353 21.6761ZM35.7962 1.95044C39.9328 2.1514 43.3061 5.55105 43.4754 9.69036C43.5184 10.7389 43.3653 11.7576 43.02 12.727H39.7941C39.6442 12.727 39.4969 12.7157 39.3531 12.6936L39.2771 12.6801C39.192 12.6649 39.1086 12.6458 39.0265 12.6236C39.0221 12.6225 39.0179 12.6212 39.0135 12.6199C38.936 12.5985 38.8598 12.574 38.7853 12.5467C38.7733 12.5423 38.7616 12.5373 38.7496 12.5326C38.6939 12.5113 38.6394 12.4879 38.5855 12.4634C38.5521 12.4482 38.5191 12.4323 38.4865 12.4158C38.45 12.3975 38.4142 12.3784 38.3787 12.3587C38.3106 12.3207 38.244 12.2802 38.1793 12.2369C38.1751 12.2341 38.1707 12.2315 38.1666 12.2286C37.9733 12.0978 37.7966 11.9444 37.64 11.7723C37.5785 11.7046 37.52 11.6339 37.4651 11.5607C37.4636 11.5587 37.4621 11.5569 37.4607 11.555C37.381 11.4484 37.3087 11.3358 37.244 11.2188C37.2263 11.1867 37.2094 11.1542 37.1929 11.1215C37.1724 11.0809 37.153 11.0397 37.1343 10.9981C37.1158 10.9566 37.0982 10.9146 37.0816 10.8722C37.0709 10.8447 37.0603 10.8173 37.0504 10.7895C37.0304 10.7333 37.0123 10.6764 36.9957 10.6186C36.9903 10.5995 36.9846 10.5807 36.9796 10.5615C36.9618 10.4945 36.9467 10.4265 36.9338 10.3578C36.9307 10.3416 36.9279 10.325 36.9251 10.3086C36.9128 10.2365 36.9026 10.1637 36.8958 10.09C36.8946 10.0782 36.8941 10.0664 36.8931 10.0546C36.8867 9.97563 36.8825 9.89583 36.8825 9.8154V7.11739H28.7712C29.9108 3.69957 32.4706 1.79021 35.7962 1.95044ZM31.1882 10.029C31.1882 9.69951 31.2261 9.37479 31.3013 9.05846H34.9411V9.81527C34.9411 9.91092 34.9445 10.0057 34.9501 10.1C34.9519 10.1307 34.9547 10.161 34.9571 10.1914C34.962 10.2552 34.9678 10.3189 34.9752 10.3821C34.9794 10.4173 34.9837 10.4525 34.9886 10.4874C34.9968 10.5459 35.0063 10.604 35.0165 10.6618C35.0227 10.6974 35.0285 10.7331 35.0357 10.7684C35.0482 10.8312 35.0628 10.8933 35.0776 10.9552C35.0934 11.0212 35.1111 11.0864 35.1297 11.1513C35.1411 11.1915 35.1522 11.2319 35.1647 11.2718C35.1819 11.3262 35.2006 11.3797 35.2195 11.4333C35.2288 11.4595 35.2381 11.4856 35.2477 11.5114C35.2702 11.5716 35.2936 11.6312 35.3182 11.6901C35.3229 11.7012 35.3278 11.7123 35.3326 11.7233C35.7057 12.5968 36.3269 13.3441 37.1196 13.8668C36.5846 14.108 35.9996 14.2348 35.394 14.2348C33.075 14.2348 31.1882 12.3481 31.1882 10.029ZM34.4235 29.1172V20.6407C34.4235 20.0342 34.917 19.5407 35.5235 19.5407C36.13 19.5407 36.6234 20.0342 36.6234 20.6407V28.4053C36.6234 30.0109 35.3172 31.3171 33.7117 31.3171H22.4529C21.8464 31.3171 21.3529 30.8236 21.3529 30.2171C21.3529 29.6106 21.8464 29.1172 22.4529 29.1172H34.4235ZM17.7641 27.613L17.7711 27.5882C17.9757 26.8377 18.4603 26.212 19.1355 25.8262C19.8107 25.4403 20.5959 25.3402 21.3462 25.5449L22.3861 25.8284L21.9744 27.214C20.5241 27.4442 19.4117 28.703 19.4117 30.2171C19.4117 31.1094 19.7981 31.913 20.412 32.4699L16.5 45.6333L16.3337 46.1929L15.5059 48.9783C15.4917 48.9685 15.4767 48.9597 15.4626 48.95C15.3714 48.8879 15.2782 48.8287 15.185 48.7698C15.1456 48.745 15.1072 48.7185 15.0673 48.6944C14.0777 48.0864 12.9736 47.6483 11.7956 47.419L17.7641 27.613ZM15.4 58.5583C15.4 61.5911 12.9328 64.0584 9.9 64.0584C6.86722 64.0584 4.39996 61.591 4.39996 58.5583C4.39996 58.4076 4.40627 58.2566 4.41903 58.1054H6.37184C6.35263 58.255 6.34116 58.406 6.34116 58.5583C6.34116 60.5205 7.93753 62.1172 9.9 62.1172C11.8625 62.1172 13.4588 60.5207 13.4588 58.5583C13.4588 58.406 13.4474 58.255 13.4282 58.1054H15.381C15.3936 58.2566 15.4 58.4078 15.4 58.5583ZM11.5176 58.5583C11.5176 59.4504 10.792 60.176 9.9 60.176C9.00797 60.176 8.28236 59.4504 8.28236 58.5583C8.28236 58.4039 8.30453 58.2517 8.34745 58.1054H11.4524C11.4955 58.2517 11.5176 58.4038 11.5176 58.5583ZM17.7999 56.1643H2.00011C2.48016 52.2317 5.83984 49.176 9.9 49.176C10.024 49.176 10.1471 49.179 10.2698 49.1847L10.469 49.1987C11.7165 49.2869 12.924 49.6726 13.9892 50.3104C13.9942 50.3135 13.9995 50.3163 14.0045 50.3194C14.0754 50.3619 14.1449 50.4069 14.2145 50.4518C14.2476 50.4733 14.281 50.4941 14.3139 50.516C14.3621 50.5482 14.4095 50.5819 14.4571 50.6151C14.5097 50.652 14.5623 50.6885 14.614 50.7265C14.6456 50.7498 14.6765 50.7738 14.7078 50.7975C14.7734 50.8474 14.8387 50.8976 14.9027 50.9495C14.9228 50.9656 14.9424 50.9824 14.9624 50.9989C15.035 51.0588 15.1068 51.1197 15.1773 51.1822C15.1913 51.1947 15.2053 51.2074 15.2193 51.2201C15.297 51.2901 15.374 51.3611 15.4489 51.4341C15.4507 51.4357 15.4525 51.4375 15.4542 51.4392C15.5375 51.5204 15.6189 51.6034 15.6986 51.6881L15.6992 51.6888C16.0169 52.0266 16.3047 52.3925 16.5599 52.7818C16.57 52.7972 16.5801 52.8128 16.5901 52.8283C16.6405 52.9063 16.6894 52.9853 16.7369 53.0651C16.7498 53.0868 16.763 53.1083 16.7756 53.1302C17.3089 54.0425 17.6662 55.0691 17.7999 56.1643ZM37.0118 56.1643H23.6908L18.4046 52.0692C18.3943 52.0518 18.3827 52.0354 18.3722 52.0181C18.3498 51.9811 18.3258 51.9453 18.3029 51.9087C18.0724 51.5387 17.8188 51.1842 17.5421 50.8482C17.5399 50.8455 17.5378 50.8428 17.5355 50.8401C17.4481 50.7342 17.3575 50.631 17.2657 50.5288C17.2468 50.5076 17.2284 50.4863 17.2094 50.4655C17.1788 50.4321 17.1502 50.3971 17.1193 50.3641L17.5664 48.8597L24.7178 54.2232H37.0119L37.0118 56.1643ZM54.3529 58.5583C54.3529 61.5911 51.8857 64.0584 48.8529 64.0584C45.8201 64.0584 43.3528 61.5911 43.3528 58.5583C43.3528 58.4076 43.3592 58.2566 43.3719 58.1054H45.3247C45.3055 58.255 45.294 58.406 45.294 58.5583C45.294 60.5205 46.8904 62.1172 48.8529 62.1172C50.8152 62.1172 52.4117 60.5207 52.4117 58.5583C52.4117 58.406 52.4003 58.255 52.3811 58.1054H54.334C54.3466 58.2566 54.3529 58.4078 54.3529 58.5583ZM50.4705 58.5583C50.4705 59.4504 49.7449 60.176 48.8529 60.176C47.9609 60.176 47.2352 59.4504 47.2352 58.5583C47.2352 58.4039 47.2574 58.2517 47.3003 58.1054H50.4053C50.4485 58.2517 50.4705 58.4038 50.4705 58.5583ZM58.1059 56.1643H38.9529V45.953C40.0534 46.9874 41.5328 47.6232 43.1587 47.6232H51.609C53.8702 47.6232 55.1087 45.8804 55.1636 44.159C55.1692 43.9839 55.1617 43.808 55.1426 43.6328C56.309 44.4292 57.2275 45.5852 57.7189 46.9769C57.9756 47.7006 58.1058 48.4623 58.1058 49.2407L58.1059 56.1643ZM49.1764 40.5054V30.7995H53.7058V32.4172H55.647V30.7995H58.2352V32.4172H60.1764V30.7995H64.0588V40.5054H49.1764Z" fill="black"/>
<path d="M65.9353 46.4578H62.1823V48.399H65.9353V46.4578Z" fill="black"/>
<path d="M65.9353 51.3105H62.1823V53.2517H65.9353V51.3105Z" fill="black"/>
<path d="M65.9353 56.1636H62.1823V58.1048H65.9353V56.1636Z" fill="black"/>
<path d="M7.29892 53.998L6.05794 52.5053C7.13547 51.6096 8.49994 51.1165 9.89986 51.1165V53.0577C8.95227 53.0577 8.02853 53.3917 7.29892 53.998Z" fill="white"/>
<path d="M49.3706 54.2223H47.4294V52.2811H49.3706V54.2223ZM45.4882 54.2223H40.8941V49.3694H42.8353V52.2811H45.4882V54.2223Z" fill="white"/>
<path d="M56.1647 49.24H54.2235V52.2164H56.1647V49.24Z" fill="white"/>
<path d="M41.9295 29.5696H39.9883V33.3226H41.9295V29.5696Z" fill="white"/>
<path d="M62.1176 38.5633H57.9118V36.6221H60.1765V34.3574H62.1176V38.5633Z" fill="white"/>
<path d="M39.5973 9.86898L39.5962 9.8481C39.5671 9.13731 39.3507 8.43838 38.97 7.82698L40.6181 6.80127C41.1737 7.69407 41.4907 8.7163 41.5353 9.75799L41.5362 9.7821L40.5435 9.81523L39.5973 9.86898Z" fill="white"/>
<path d="M37.2058 3.8811H32.8059V5.8223H37.2058V3.8811Z" fill="white"/>
</svg>
