<svg width="63" height="61" viewBox="0 0 63 61" fill="none" xmlns="http://www.w3.org/2000/svg">
<path d="M60.0128 36.5764C61.2347 38.0712 61.0137 40.1769 59.5969 41.3987L49.9132 49.4316C46.2867 52.4472 41.6853 53.994 36.98 53.799L23.0069 53.1491C21.2001 53.0711 20.0693 53.1621 18.2885 53.4221L12.4783 54.4879H12.0884V37.2523H12.3483L18.3925 34.3277C21.6811 32.7419 24.6187 31.975 28.2712 32.105L37.5259 32.4819C37.6039 32.4689 37.6689 32.4689 37.7469 32.4689C39.4756 32.4689 40.9444 33.7947 41.1394 35.4975C41.3344 37.2653 40.1515 38.968 38.3578 39.293L31.4817 40.5928C30.0909 40.8528 29.389 42.4126 30.1169 43.6214L30.8578 44.8822C31.2348 45.5322 31.9367 45.9091 32.6776 45.8831L39.3327 45.6621C41.8413 45.5711 44.246 44.6743 46.1827 43.1145C48.7824 41.0218 52.5129 38.0062 55.0215 35.9525C56.5163 34.7436 58.752 34.9776 59.9739 36.4724L60.0128 36.5764Z" fill="#FFD9B3"/>
<path d="M12.0753 54.4882V56.9839C12.0753 58.4787 10.8665 59.7005 9.35872 59.7005H4.04244C2.54764 59.7005 1.32581 58.4917 1.32581 56.9839V37.1876C1.32581 35.6928 2.54764 34.4709 4.04244 34.4709H9.35872C10.8535 34.4709 12.0753 35.6798 12.0753 37.1876V37.2526V54.4882Z" fill="#00C7CE"/>
<path d="M60.9747 35.6665C59.2849 33.5998 56.2434 33.2878 54.1896 34.9646C51.59 37.0833 47.8075 40.1379 45.3508 42.1266C43.6351 43.5044 41.4644 44.3103 39.2677 44.3883L32.6126 44.6093C32.3396 44.6093 32.0926 44.4793 31.9497 44.2583L31.2088 42.9845C31.0398 42.6985 31.1178 42.4386 31.1698 42.3086C31.2218 42.2046 31.3647 41.9576 31.7027 41.8926L38.5788 40.5928C40.9964 40.1379 42.6862 37.8502 42.4132 35.3675C42.1533 32.9889 40.1385 31.1821 37.7339 31.1821C37.6689 31.1821 37.5909 31.1821 37.4999 31.1821L28.3102 30.8052C24.6447 30.6752 21.4991 31.3771 17.8206 33.1578L13.0112 35.4975C12.3743 34.1327 10.9835 33.1838 9.37173 33.1838H4.04245C1.81975 33.1838 0 34.9646 0 37.1873V56.9836C0 59.1933 1.81975 61 4.04245 61H9.35873C11.5684 61 13.3882 59.1933 13.3882 56.9836V55.6448L18.4965 54.7089C20.1473 54.4619 21.1871 54.3709 22.9419 54.4489L36.915 55.0988C41.9453 55.3198 46.8586 53.656 50.7321 50.4325L60.4158 42.3996L60.4288 42.3866C62.3785 40.7098 62.6515 37.8502 61.0787 35.8355C61.0527 35.7705 61.0137 35.7185 60.9747 35.6665ZM10.7885 56.9836C10.7885 57.7635 10.1516 58.4004 9.37173 58.4004H4.01645C3.23656 58.4004 2.59965 57.7635 2.59965 56.9836V37.2003C2.59965 36.4204 3.23656 35.7835 4.01645 35.7835H9.37173C10.1516 35.7835 10.7885 36.4204 10.7885 37.2003V56.9836ZM58.752 40.3978L49.0813 48.4178C45.7018 51.2254 41.4254 52.6682 37.032 52.4862L23.0589 51.8363C21.0961 51.7453 19.9003 51.8623 18.0935 52.1223C18.0805 52.1223 18.0675 52.1223 18.0545 52.1353L13.3882 52.9931V38.1752L18.9514 35.4845C22.227 33.8987 24.9956 33.2748 28.2062 33.3918L37.4609 33.7688C37.5129 33.7688 37.5779 33.7688 37.6299 33.7688C37.6429 33.7688 37.6949 33.7688 37.7339 33.7688C38.7997 33.7688 39.7226 34.5876 39.8396 35.6405C39.9696 36.7713 39.2027 37.8112 38.1108 38.0192L31.2348 39.319C30.1689 39.527 29.259 40.2289 28.8171 41.2297C28.3751 42.2176 28.4401 43.3614 28.9861 44.2973L29.727 45.5581C30.3509 46.611 31.4947 47.2349 32.7166 47.1959L39.3717 46.975C42.1403 46.884 44.8439 45.8701 47.0016 44.1413C49.4583 42.1526 53.2538 39.098 55.8534 36.9793C56.7633 36.2384 58.1411 36.3684 58.921 37.2523C58.947 37.3043 58.986 37.3563 59.025 37.4083C59.7659 38.3181 59.6619 39.618 58.752 40.3978Z" fill="#224344"/>
<path d="M46.3733 5.45197V5.44415L52.2239 8.06462L58.0979 5.86233L42.4651 0L26.8322 5.86233L42.4651 11.7247L48.3157 9.5302L42.4651 7.11883V7.11296L46.3733 5.45197Z" fill="#224344"/>
<path d="M26.8322 7.81665V25.4037L41.488 30.9006V13.3136L26.8322 7.81665ZM34.6486 25.4681L30.7404 24.0026V21.9175L34.6486 23.3831V25.4681Z" fill="#224344"/>
<path d="M52.2356 10.015V14.9101L48.3274 16.3757V11.4806L43.4421 13.3136V30.9006L58.0979 25.4037V7.81665L52.2356 10.015Z" fill="#224344"/>
</svg>
