<svg width="65" height="57" viewBox="0 0 65 57" fill="none" xmlns="http://www.w3.org/2000/svg">
<path d="M52.9427 3.86084C51.1661 3.86104 49.4205 4.32571 47.8789 5.20877C46.3374 6.09182 45.0535 7.36256 44.1546 8.89493C44.8493 10.5301 45.2073 12.2885 45.2073 14.065C45.2073 15.8416 44.8493 17.6 44.1546 19.2352C45.061 20.7756 46.3562 22.0509 47.9104 22.9333C49.4647 23.8157 51.2236 24.2743 53.0108 24.263C54.7981 24.2518 56.5511 23.7712 58.0942 22.8694C59.6373 21.9676 60.9163 20.6761 61.8033 19.1244C62.6903 17.5727 63.154 15.8152 63.148 14.0279C63.142 12.2406 62.6666 10.4863 61.7693 8.94055C60.8719 7.39482 59.5843 6.11197 58.0352 5.22047C56.4861 4.32896 54.73 3.8601 52.9427 3.86084Z" fill="#224344"/>
<path d="M11.0932 3.86084C12.8699 3.861 14.6156 4.32566 16.1572 5.20871C17.6988 6.09176 18.9828 7.36252 19.8818 8.89493C19.1871 10.5301 18.8291 12.2885 18.8291 14.065C18.8291 15.8416 19.1871 17.6 19.8818 19.2351C18.9754 20.7756 17.6803 22.0508 16.126 22.9333C14.5717 23.8157 12.8129 24.2742 11.0257 24.263C9.2384 24.2518 7.48546 23.7713 5.94236 22.8695C4.39927 21.9677 3.12018 20.6763 2.2332 19.1246C1.34621 17.573 0.882457 15.8155 0.888377 14.0283C0.894296 12.241 1.36968 10.4866 2.26693 8.94088C3.16417 7.39513 4.45178 6.11224 6.00082 5.22068C7.54985 4.32913 9.30594 3.86019 11.0932 3.86084Z" fill="#224344"/>
<path d="M29.3679 26.9885V24.9728C29.3683 24.6031 29.446 24.2375 29.5961 23.8996C29.7462 23.5617 29.9653 23.2589 30.2394 23.0108C30.5135 22.7626 30.8365 22.5746 31.1877 22.4587C31.5388 22.3428 31.9103 22.3017 32.2782 22.338C32.9458 22.4206 33.5593 22.7472 34.0006 23.2549C34.4419 23.7627 34.6798 24.4157 34.6685 25.0883V26.9885C37.8694 26.3323 40.7128 24.5113 42.6477 21.8783C44.5825 19.2453 45.4712 15.9878 45.1414 12.737C44.8116 9.4862 43.2868 6.47355 40.8626 4.28279C38.4383 2.09204 35.2872 0.87915 32.0197 0.87915C28.7522 0.87915 25.601 2.09204 23.1768 4.28279C20.7525 6.47355 19.2278 9.4862 18.898 12.737C18.5682 15.9878 19.4568 19.2453 21.3917 21.8783C23.3266 24.5113 26.17 26.3323 29.3709 26.9885H29.3679Z" fill="white"/>
<path d="M32.0182 13.6115C31.1319 13.6115 30.2818 13.2594 29.6551 12.6327C29.0284 12.006 28.6763 11.1559 28.6763 10.2696V8.95346C28.6763 8.06714 29.0284 7.21712 29.6551 6.59039C30.2818 5.96366 31.1319 5.61157 32.0182 5.61157C32.9045 5.61157 33.7545 5.96366 34.3813 6.59039C35.008 7.21712 35.3601 8.06714 35.3601 8.95346V10.2696C35.3601 11.1559 35.008 12.006 34.3813 12.6327C33.7545 13.2594 32.9045 13.6115 32.0182 13.6115Z" fill="#FFD9B3"/>
<path d="M55.4499 16.9487H50.4359C49.8595 16.9487 49.2888 17.0622 48.7564 17.2827C48.224 17.5033 47.7402 17.8266 47.3327 18.2342C46.9253 18.6418 46.6021 19.1257 46.3817 19.6582C46.1614 20.1907 46.0481 20.7614 46.0483 21.3377V21.5878C47.9299 23.3132 50.39 24.2704 52.9429 24.2704C55.4958 24.2704 57.9559 23.3132 59.8375 21.5878V21.3377C59.8377 20.7614 59.7243 20.1907 59.5039 19.6583C59.2835 19.1258 58.9604 18.6419 58.5529 18.2343C58.1455 17.8268 57.6617 17.5034 57.1293 17.2829C56.5969 17.0623 56.0262 16.9487 55.4499 16.9487Z" fill="#00C7CE"/>
<path d="M52.9427 13.7139C52.257 13.7139 51.5994 13.4415 51.1146 12.9567C50.6297 12.4718 50.3574 11.8142 50.3574 11.1286V10.11C50.3574 9.4243 50.6297 8.76672 51.1146 8.28188C51.5994 7.79704 52.257 7.52466 52.9427 7.52466C53.6284 7.52466 54.286 7.79702 54.7709 8.28185C55.2558 8.76667 55.5283 9.42425 55.5285 10.11V11.1286C55.5283 11.8143 55.2558 12.4719 54.7709 12.9567C54.286 13.4415 53.6284 13.7139 52.9427 13.7139Z" fill="#FFD9B3"/>
<path d="M8.58643 16.9487H13.6005C14.1768 16.9487 14.7475 17.0622 15.28 17.2827C15.8124 17.5033 16.2962 17.8266 16.7036 18.2342C17.1111 18.6418 17.4342 19.1257 17.6546 19.6582C17.875 20.1907 17.9883 20.7614 17.988 21.3377V21.5878C16.1065 23.3132 13.6464 24.2704 11.0935 24.2704C8.54058 24.2704 6.08047 23.3132 4.19891 21.5878V21.3377C4.19871 20.7614 4.31205 20.1907 4.53246 19.6583C4.75286 19.1258 5.07601 18.6419 5.48345 18.2343C5.89089 17.8268 6.37463 17.5034 6.90705 17.2829C7.43947 17.0623 8.01012 16.9487 8.58643 16.9487Z" fill="#00C7CE"/>
<path d="M11.0932 13.7139C11.7789 13.7139 12.4366 13.4415 12.9215 12.9567C13.4064 12.4719 13.6789 11.8143 13.679 11.1286V10.11C13.6789 9.42425 13.4064 8.76667 12.9215 8.28185C12.4366 7.79702 11.7789 7.52466 11.0932 7.52466C10.7537 7.52466 10.4175 7.59153 10.1039 7.72145C9.79021 7.85138 9.50521 8.04181 9.26514 8.28188C9.02507 8.52194 8.83464 8.80695 8.70472 9.12061C8.57479 9.43427 8.50792 9.77046 8.50792 10.11V11.1286C8.50792 11.4681 8.57479 11.8043 8.70472 12.1179C8.83464 12.4316 9.02507 12.7166 9.26514 12.9567C9.50521 13.1967 9.79021 13.3872 10.1039 13.5171C10.4175 13.647 10.7537 13.7139 11.0932 13.7139Z" fill="#FFD9B3"/>
<path d="M48.1701 39.8977C47.8021 39.8616 47.4307 39.903 47.0796 40.019C46.7286 40.1351 46.4057 40.3233 46.1317 40.5716C45.8578 40.8199 45.6388 41.1227 45.4889 41.4607C45.339 41.7987 45.2614 42.1643 45.2612 42.534V39.3976C45.2724 38.7254 45.0348 38.0727 44.5939 37.565C44.1531 37.0573 43.5402 36.7305 42.873 36.6473C42.505 36.6112 42.1335 36.6526 41.7825 36.7686C41.4315 36.8847 41.1086 37.0729 40.8346 37.3212C40.5607 37.5695 40.3417 37.8724 40.1918 38.2103C40.0419 38.5483 39.9643 38.9139 39.9641 39.2836V35.7097C39.9752 35.0374 39.7374 34.3847 39.2965 33.877C38.8556 33.3694 38.2426 33.0425 37.5753 32.9594C37.2075 32.9236 36.8363 32.9652 36.4855 33.0814C36.1347 33.1975 35.8121 33.3858 35.5383 33.6341C35.2646 33.8823 35.0458 34.1851 34.896 34.5229C34.7462 34.8607 34.6687 35.2261 34.6685 35.5957V25.0885C34.6798 24.4161 34.4421 23.7633 34.0011 23.2555C33.5602 22.7478 32.9471 22.4211 32.2797 22.3381C31.9116 22.3016 31.54 22.3426 31.1887 22.4583C30.8374 22.5741 30.5142 22.7621 30.2399 23.0103C29.9657 23.2585 29.7464 23.5613 29.5962 23.8993C29.446 24.2373 29.3682 24.6031 29.3679 24.9729V47.7756L23.0906 41.4949C22.623 41.0117 21.9932 40.7184 21.3224 40.6714C20.6516 40.6245 19.9872 40.8271 19.4567 41.2404C19.171 41.4751 18.9376 41.7669 18.7715 42.0972C18.6054 42.4275 18.5102 42.7889 18.492 43.1582C18.4739 43.5275 18.5332 43.8965 18.6662 44.2414C18.7992 44.5864 19.0029 44.8998 19.2642 45.1613L27.9872 53.8843C28.8311 54.7282 29.9756 55.2024 31.1691 55.2025H46.0588C47.2524 55.2025 48.3972 54.7283 49.2412 53.8843C50.0852 53.0403 50.5594 51.8956 50.5594 50.702V42.651C50.5713 41.9781 50.3338 41.3245 49.8927 40.8162C49.4516 40.3079 48.838 39.9807 48.1701 39.8977Z" fill="#FFD9B3"/>
<path d="M29.3679 24.9728C29.3683 24.6031 29.446 24.2375 29.5961 23.8996C29.7462 23.5617 29.9653 23.259 30.2394 23.0108C30.5135 22.7627 30.8365 22.5746 31.1877 22.4587C31.5388 22.3429 31.9103 22.3017 32.2782 22.338C32.9458 22.4206 33.5593 22.7472 34.0006 23.255C34.4419 23.7627 34.6798 24.4157 34.6685 25.0883V26.9886C37.0072 26.5098 39.1715 25.4034 40.9292 23.7882V23.4632C40.9292 21.9592 40.3318 20.5168 39.2684 19.4532C38.2049 18.3897 36.7626 17.7921 35.2586 17.792H28.7778C27.2738 17.7921 25.8314 18.3897 24.768 19.4532C23.7046 20.5168 23.1071 21.9592 23.1071 23.4632V23.7882C24.8653 25.4037 27.0301 26.51 29.3694 26.9886L29.3679 24.9728Z" fill="#4D5680"/>
<path d="M32.0182 4.7356C30.9002 4.73692 29.8283 5.18163 29.0378 5.97219C28.2472 6.76274 27.8025 7.83458 27.8012 8.95259V10.2687C27.8012 11.3872 28.2455 12.4598 29.0363 13.2506C29.8272 14.0415 30.8998 14.4857 32.0182 14.4857C33.1366 14.4857 34.2092 14.0415 35 13.2506C35.7909 12.4598 36.2352 11.3872 36.2352 10.2687V8.95309C36.234 7.83499 35.7893 6.76303 34.9988 5.97236C34.2082 5.1817 33.1363 4.73692 32.0182 4.7356ZM34.485 10.2687C34.485 10.923 34.2251 11.5504 33.7625 12.013C33.2999 12.4756 32.6724 12.7355 32.0182 12.7355C31.364 12.7355 30.7365 12.4756 30.2739 12.013C29.8113 11.5504 29.5514 10.923 29.5514 10.2687V8.95309C29.5514 8.29886 29.8113 7.67142 30.2739 7.20881C30.7365 6.74619 31.364 6.4863 32.0182 6.4863C32.6724 6.4863 33.2999 6.74619 33.7625 7.20881C34.2251 7.67142 34.485 8.29886 34.485 8.95309V10.2687Z" fill="black"/>
<path d="M52.9426 6.64966C52.0252 6.65085 51.1456 7.01588 50.4969 7.66468C49.8482 8.31348 49.4833 9.19309 49.4822 10.1106V11.1287C49.4833 12.0463 49.8483 12.9259 50.4971 13.5747C51.1459 14.2236 52.0256 14.5885 52.9431 14.5896C53.1752 14.5896 53.3978 14.4974 53.5619 14.3333C53.726 14.1692 53.8182 13.9466 53.8182 13.7145C53.8182 13.4824 53.726 13.2598 53.5619 13.0957C53.3978 12.9316 53.1752 12.8394 52.9431 12.8394C52.4896 12.8389 52.0549 12.6584 51.7343 12.3377C51.4136 12.017 51.2333 11.5822 51.2329 11.1287V10.1106C51.2291 9.88349 51.2704 9.65791 51.3546 9.44698C51.4389 9.23606 51.5642 9.04402 51.7234 8.88206C51.8827 8.7201 52.0725 8.59146 52.282 8.50365C52.4914 8.41584 52.7163 8.37062 52.9434 8.37062C53.1705 8.37062 53.3953 8.41584 53.6048 8.50365C53.8142 8.59146 54.0041 8.7201 54.1633 8.88206C54.3225 9.04402 54.4479 9.23606 54.5321 9.44698C54.6163 9.65791 54.6577 9.88349 54.6538 10.1106C54.6538 10.3427 54.746 10.5652 54.9101 10.7294C55.0743 10.8935 55.2968 10.9857 55.5289 10.9857C55.761 10.9857 55.9836 10.8935 56.1477 10.7294C56.3118 10.5652 56.404 10.3427 56.404 10.1106C56.403 9.19292 56.0379 8.31316 55.389 7.66433C54.7401 7.0155 53.8603 6.65058 52.9426 6.64966Z" fill="black"/>
<path d="M52.9426 2.98553C51.276 2.99126 49.6319 3.37134 48.1319 4.09769C46.6319 4.82404 45.3141 5.8781 44.2761 7.18202C43.0553 5.00372 41.2762 3.19007 39.1217 1.92774C36.9672 0.665408 34.5152 0 32.0182 0C29.5211 0 27.0692 0.665408 24.9147 1.92774C22.7602 3.19007 20.981 5.00372 19.7602 7.18202C18.3313 5.37965 16.3768 4.06671 14.1679 3.42537C11.959 2.78403 9.60531 2.84609 7.4333 3.60295C5.26129 4.3598 3.3787 5.77391 2.04672 7.64908C0.714737 9.52426 -0.000584716 11.7675 3.58621e-07 14.0676C0.000585434 16.3677 0.717048 18.6106 2.04998 20.4851C3.38292 22.3596 5.26623 23.7727 7.43863 24.5285C9.61102 25.2842 11.9648 25.3451 14.1733 24.7026C16.3819 24.0602 18.3357 22.7462 19.7637 20.9431C20.6916 22.594 21.9431 24.0406 23.4433 25.1963C24.9434 26.3521 26.6614 27.1933 28.4943 27.6694V30.6953C28.4943 30.9274 28.5865 31.15 28.7506 31.3141C28.9147 31.4782 29.1373 31.5704 29.3694 31.5704C29.6015 31.5704 29.824 31.4782 29.9882 31.3141C30.1523 31.15 30.2445 30.9274 30.2445 30.6953V24.9726C30.2444 24.7248 30.2963 24.4797 30.3968 24.2531C30.4973 24.0266 30.6442 23.8236 30.8279 23.6573C31.0117 23.491 31.2282 23.365 31.4636 23.2875C31.699 23.21 31.9481 23.1827 32.1947 23.2074C32.6457 23.2695 33.0579 23.4957 33.3526 23.8427C33.6472 24.1896 33.8036 24.6331 33.7919 25.0881V35.5954C33.7919 35.8275 33.8841 36.05 34.0482 36.2142C34.2123 36.3783 34.4349 36.4705 34.667 36.4705C34.8991 36.4705 35.1217 36.3783 35.2858 36.2142C35.4499 36.05 35.5421 35.8275 35.5421 35.5954C35.5421 35.3476 35.5941 35.1025 35.6946 34.876C35.7951 34.6495 35.942 34.4466 36.1257 34.2804C36.3095 34.1141 36.526 33.9882 36.7614 33.9107C36.9968 33.8333 37.2458 33.806 37.4923 33.8307C37.9428 33.8928 38.3547 34.1188 38.6492 34.4653C38.9437 34.8119 39.1003 35.2547 39.089 35.7094V39.2833C39.0888 39.3216 39.0911 39.3598 39.096 39.3978C39.1259 39.6175 39.238 39.8176 39.4097 39.9579C39.5813 40.0981 39.7998 40.168 40.021 40.1535C40.2422 40.139 40.4497 40.0411 40.6015 39.8796C40.7534 39.7181 40.8383 39.505 40.8392 39.2833C40.8392 39.0355 40.8912 38.7905 40.9917 38.564C41.0922 38.3375 41.2391 38.1346 41.4228 37.9683C41.6066 37.802 41.8231 37.6761 42.0585 37.5987C42.2939 37.5212 42.5429 37.4939 42.7894 37.5186C43.2399 37.5809 43.6516 37.8069 43.946 38.1534C44.2404 38.4999 44.3969 38.9427 44.3856 39.3973V42.5337C44.3856 42.7658 44.4778 42.9884 44.6419 43.1525C44.8061 43.3166 45.0286 43.4088 45.2607 43.4088C45.4928 43.4088 45.7154 43.3166 45.8795 43.1525C46.0436 42.9884 46.1358 42.7658 46.1358 42.5337C46.1359 42.2859 46.1878 42.0408 46.2883 41.8144C46.3889 41.5879 46.5357 41.3849 46.7195 41.2187C46.9032 41.0524 47.1197 40.9265 47.3551 40.849C47.5905 40.7716 47.8395 40.7443 48.0861 40.769C48.5366 40.8312 48.9484 41.0571 49.2429 41.4036C49.5375 41.7502 49.694 42.193 49.6828 42.6477V50.6986C49.6817 51.6598 49.2994 52.5814 48.6197 53.261C47.9401 53.9407 47.0185 54.323 46.0573 54.3241H31.1681C30.6918 54.3255 30.2199 54.2324 29.7798 54.0502C29.3397 53.8679 28.9401 53.6002 28.6043 53.2624L19.8828 44.5404C19.7075 44.3651 19.5709 44.155 19.4818 43.9237C19.3927 43.6924 19.3531 43.4449 19.3655 43.1973C19.3779 42.9497 19.442 42.7075 19.5537 42.4862C19.6655 42.2649 19.8224 42.0695 20.0143 41.9126C20.3769 41.6381 20.8278 41.5068 21.2811 41.5437C21.7343 41.5806 22.1581 41.7831 22.4716 42.1126L28.7508 48.3909C28.8731 48.5134 29.029 48.5969 29.1988 48.6308C29.3685 48.6646 29.5446 48.6474 29.7045 48.5811C29.8645 48.5149 30.0011 48.4027 30.0973 48.2587C30.1934 48.1147 30.2446 47.9454 30.2445 47.7723V41.9466C30.2445 41.7145 30.1523 41.4919 29.9882 41.3278C29.824 41.1637 29.6015 41.0715 29.3694 41.0715C29.1373 41.0715 28.9147 41.1637 28.7506 41.3278C28.5865 41.4919 28.4943 41.7145 28.4943 41.9466V45.661L23.7092 40.876C23.0864 40.2412 22.2514 39.8584 21.364 39.8009C20.4765 39.7434 19.5991 40.0153 18.8996 40.5645C18.5197 40.8766 18.2093 41.2649 17.9884 41.7042C17.7675 42.1435 17.641 42.6242 17.6171 43.1154C17.5931 43.6065 17.6722 44.0972 17.8492 44.556C18.0263 45.0148 18.2974 45.4314 18.6451 45.7791L27.3676 54.5021C27.8657 55.0026 28.458 55.3994 29.1103 55.6696C29.7626 55.9398 30.462 56.078 31.1681 56.0763H46.0588C47.484 56.0747 48.8504 55.5078 49.8582 54.5C50.866 53.4923 51.4329 52.1259 51.4345 50.7006V42.6497C51.4427 41.7605 51.1228 40.8994 50.5359 40.2312C49.9491 39.5631 49.1365 39.1348 48.2536 39.0283C47.517 38.9581 46.7769 39.12 46.1368 39.4913V39.3993C46.1451 38.5101 45.8252 37.649 45.2383 36.9809C44.6515 36.3127 43.8388 35.8844 42.956 35.7779C42.2195 35.7075 41.4795 35.8695 40.8397 36.2409V35.7094C40.8477 34.8203 40.5277 33.9595 39.9409 33.2916C39.354 32.6236 38.5415 32.1955 37.6588 32.089C36.9222 32.0182 36.1819 32.1801 35.5421 32.552V27.6694C37.375 27.1933 39.0929 26.3521 40.5931 25.1963C42.0932 24.0406 43.3447 22.594 44.2726 20.9431C45.4381 22.4121 46.9575 23.561 48.6884 24.2822C50.4193 25.0035 52.305 25.2734 54.1687 25.0666C56.0324 24.8599 57.8131 24.1833 59.3439 23.1003C60.8747 22.0173 62.1054 20.5634 62.9207 18.8747C63.736 17.1861 64.1091 15.3181 64.0051 13.4459C63.9012 11.5736 63.3235 9.7584 62.3263 8.17041C61.3291 6.58242 59.945 5.27364 58.3037 4.36678C56.6624 3.45991 54.8178 2.98464 52.9426 2.98553ZM5.08201 21.1877C5.12052 20.2836 5.50639 19.4292 6.15922 18.8025C6.81205 18.1759 7.6815 17.8253 8.58643 17.8238H13.6005C14.5042 17.8253 15.3726 18.175 16.0253 18.8001C16.6779 19.4253 17.0645 20.2778 17.1049 21.1807C15.4276 22.6082 13.2973 23.3927 11.0948 23.394C8.89222 23.3952 6.761 22.6132 5.08201 21.1877ZM18.5701 19.6215C18.213 18.5871 17.5426 17.6897 16.6519 17.0538C15.7613 16.418 14.6948 16.0754 13.6005 16.0736H8.58643C7.49196 16.075 6.42513 16.4174 5.53416 17.053C4.6432 17.6887 3.97236 18.5861 3.61484 19.6205C2.57976 18.235 1.95095 16.5887 1.7989 14.866C1.64685 13.1433 1.97755 11.4123 2.75396 9.86695C3.53036 8.32162 4.72178 7.02304 6.1947 6.11674C7.66761 5.21045 9.36382 4.73225 11.0932 4.73574C12.646 4.74158 14.1729 5.13337 15.5366 5.87585C16.9003 6.61834 18.0581 7.68822 18.9056 8.98924C17.6342 12.2499 17.6369 15.8697 18.9131 19.1284C18.8041 19.2971 18.6898 19.4613 18.5701 19.621V19.6215ZM32.3612 21.4657C31.8718 21.4178 31.3779 21.4729 30.911 21.6274C30.4442 21.7819 30.0149 22.0324 29.6507 22.3627C29.2865 22.6931 28.9954 23.096 28.7963 23.5455C28.5971 23.9951 28.4942 24.4814 28.4943 24.9731V25.8677C26.8326 25.3702 25.2957 24.5249 23.9857 23.3879C24.0067 22.1301 24.5205 20.9308 25.4167 20.048C26.3129 19.1652 27.5198 18.6694 28.7778 18.6674H35.2586C36.5165 18.6694 37.7234 19.1652 38.6196 20.048C39.5158 20.9308 40.0297 22.1301 40.0506 23.3879C38.7407 24.5249 37.2038 25.3702 35.5421 25.8677V25.0881C35.5508 24.1986 35.2311 23.3371 34.6442 22.6686C34.0573 22.0001 33.2444 21.5716 32.3612 21.4652V21.4657ZM41.5833 21.8037C41.2161 20.4054 40.3967 19.1678 39.2527 18.2838C38.1086 17.3998 36.7043 16.9191 35.2586 16.9167H28.7778C27.3321 16.9191 25.9278 17.3997 24.7838 18.2836C23.6398 19.1675 22.8203 20.405 22.4531 21.8032C20.9879 19.9962 20.0647 17.8111 19.7902 15.5009C19.5158 13.1908 19.9013 10.8502 20.9022 8.75015C21.9031 6.6501 23.4784 4.87654 25.4457 3.63486C27.413 2.39318 29.6918 1.73419 32.0182 1.73419C34.3446 1.73419 36.6233 2.39318 38.5906 3.63486C40.5579 4.87654 42.1332 6.6501 43.1341 8.75015C44.135 10.8502 44.5206 13.1908 44.2461 15.5009C43.9717 17.8111 43.0484 19.9962 41.5833 21.8032V21.8037ZM46.9314 21.1807C46.9718 20.2778 47.3585 19.4253 48.0111 18.8001C48.6637 18.175 49.5321 17.8253 50.4358 17.8238H55.4499C56.3549 17.8253 57.2243 18.1759 57.8771 18.8025C58.53 19.4292 58.9158 20.2836 58.9543 21.1877C57.2754 22.6132 55.1441 23.3952 52.9416 23.394C50.7391 23.3927 48.6087 22.6082 46.9314 21.1807ZM60.4215 19.6205C60.0642 18.5863 59.3937 17.689 58.5031 17.0533C57.6125 16.4176 56.5461 16.075 55.4519 16.0731H50.4358C49.3416 16.0749 48.275 16.4175 47.3844 17.0533C46.4938 17.6892 45.8234 18.5866 45.4663 19.621C45.3466 19.461 45.2322 19.2968 45.1232 19.1284C46.3994 15.8697 46.4021 12.2499 45.1307 8.98924C46.2242 7.30088 47.8346 6.01164 49.7213 5.31416C51.608 4.61668 53.6698 4.5484 55.5985 5.11952C57.5273 5.69063 59.2195 6.87049 60.4222 8.4828C61.625 10.0951 62.2738 12.0533 62.2717 14.0648C62.2715 16.068 61.6224 18.0172 60.4215 19.6205Z" fill="black"/>
<path d="M11.0932 6.64966C10.1757 6.65085 9.29619 7.01588 8.64749 7.66468C7.99878 8.31348 7.63387 9.19309 7.63282 10.1106V11.1287C7.63387 12.0462 7.99878 12.9258 8.64749 13.5746C9.29619 14.2234 10.1757 14.5884 11.0932 14.5896C12.0107 14.5884 12.8903 14.2234 13.539 13.5746C14.1877 12.9258 14.5526 12.0462 14.5536 11.1287V10.1106C14.5526 9.19309 14.1877 8.31348 13.539 7.66468C12.8903 7.01588 12.0107 6.65085 11.0932 6.64966ZM12.8039 11.1287C12.8078 11.3558 12.7664 11.5813 12.6822 11.7923C12.598 12.0032 12.4726 12.1952 12.3134 12.3572C12.1542 12.5192 11.9643 12.6478 11.7549 12.7356C11.5454 12.8234 11.3206 12.8686 11.0935 12.8686C10.8664 12.8686 10.6415 12.8234 10.4321 12.7356C10.2226 12.6478 10.0327 12.5192 9.87353 12.3572C9.71431 12.1952 9.58894 12.0032 9.50473 11.7923C9.42051 11.5813 9.37914 11.3558 9.38302 11.1287V10.1106C9.37914 9.88349 9.42051 9.65791 9.50473 9.44698C9.58894 9.23606 9.71431 9.04402 9.87353 8.88206C10.0327 8.7201 10.2226 8.59146 10.4321 8.50365C10.6415 8.41584 10.8664 8.37062 11.0935 8.37062C11.3206 8.37062 11.5454 8.41584 11.7549 8.50365C11.9643 8.59146 12.1542 8.7201 12.3134 8.88206C12.4726 9.04402 12.598 9.23606 12.6822 9.44698C12.7664 9.65791 12.8078 9.88349 12.8039 10.1106V11.1287Z" fill="black"/>
<path d="M29.3679 38.2273C29.5999 38.2271 29.8224 38.1349 29.9865 37.9708C30.1506 37.8067 30.2428 37.5842 30.243 37.3522V35.2894C30.243 35.0573 30.1508 34.8347 29.9867 34.6706C29.8225 34.5065 29.6 34.4143 29.3679 34.4143C29.1358 34.4143 28.9132 34.5065 28.7491 34.6706C28.585 34.8347 28.4928 35.0573 28.4928 35.2894V37.3522C28.4929 37.5842 28.5851 37.8067 28.7492 37.9708C28.9133 38.1349 29.1358 38.2271 29.3679 38.2273Z" fill="black"/>
</svg>
