<?xml version="1.0" standalone="no"?>
<!DOCTYPE svg PUBLIC "-//W3C//DTD SVG 20010904//EN"
 "http://www.w3.org/TR/2001/REC-SVG-20010904/DTD/svg10.dtd">
<svg version="1.0" xmlns="http://www.w3.org/2000/svg"
 width="50.000000pt" height="50.000000pt" viewBox="0 0 206.000000 175.000000"
 preserveAspectRatio="xMidYMid meet">
<metadata>
Created by potrace 1.16, written by Peter Selinger 2001-2019
</metadata>
<g transform="translate(0.000000,175.000000) scale(0.100000,-0.100000)"
fill="#000000" stroke="none">
<path d="M1022 1743 l1028 -3 3 -873 2 -872 3 878 2 877 -1032 -2 -1033 -3
1027 -2z"/>
<path d="M920 1509 c-66 -13 -143 -55 -204 -110 l-54 -49 -331 0 c-226 0 -331
-3 -331 -11 0 -5 14 -28 32 -50 l31 -39 347 0 346 0 35 36 c18 20 54 48 79 62
40 24 55 27 140 27 85 0 100 -3 140 -27 25 -14 61 -42 79 -62 l35 -36 347 0
346 0 37 48 37 47 -337 3 -336 2 -54 49 c-109 100 -241 138 -384 110z"/>
<path d="M868 1213 c-48 -5 -51 -30 -5 -36 31 -4 31 -4 -5 -5 -26 -2 -38 -7
-38 -17 0 -8 4 -15 10 -15 5 0 7 -7 4 -15 -5 -11 2 -15 27 -16 19 0 28 -3 22
-6 -8 -3 -13 -24 -13 -55 0 -39 5 -54 23 -69 27 -22 60 -24 77 -4 8 10 30 15
65 15 35 0 57 -5 65 -15 7 -8 20 -15 30 -15 10 0 23 7 30 15 7 8 19 15 26 15
10 0 14 14 14 49 0 41 -5 54 -36 90 -33 38 -41 41 -85 41 -46 0 -49 2 -49 25
0 24 -2 25 -62 23 -35 -1 -80 -3 -100 -5z"/>
<path d="M130 1177 c0 -8 10 -23 23 -35 23 -22 28 -22 293 -20 l269 3 3 33 3
32 -295 0 c-239 0 -296 -3 -296 -13z"/>
<path d="M1298 1185 c-2 -3 -3 -18 0 -35 l4 -30 272 0 c272 0 273 0 294 23 44
46 41 47 -271 47 -162 0 -296 -2 -299 -5z"/>
<path d="M322 1052 l-93 -3 21 -29 21 -30 228 0 228 0 -5 30 -4 30 -132 1
c-72 0 -140 1 -151 2 -11 1 -62 1 -113 -1z"/>
<path d="M1439 1052 l-137 -3 -4 -29 -5 -30 228 0 228 0 21 30 21 30 -93 1
c-51 0 -100 1 -108 2 -8 1 -76 1 -151 -1z"/>
<path d="M364 901 c34 -37 133 -73 220 -78 76 -5 83 -8 122 -43 125 -114 297
-151 447 -97 69 25 160 86 178 118 8 16 21 19 72 19 96 0 221 41 256 84 12 14
-6 16 -193 16 l-205 0 -44 -44 c-113 -113 -302 -112 -416 0 l-44 44 -205 0
c-200 0 -205 0 -188 -19z"/>
</g>
</svg>
