<svg width="15" height="17" viewBox="0 0 15 17" fill="none" xmlns="http://www.w3.org/2000/svg">
<path d="M14.5982 15.9375H13.9286V0.796875C13.9286 0.356768 13.5688 0 13.125 0H1.875C1.43119 0 1.07143 0.356768 1.07143 0.796875V15.9375H0.401786C0.1799 15.9375 0 16.1159 0 16.3359V17H15V16.3359C15 16.1159 14.8201 15.9375 14.5982 15.9375ZM4.28571 2.52344C4.28571 2.3034 4.46561 2.125 4.6875 2.125H6.02679C6.24867 2.125 6.42857 2.3034 6.42857 2.52344V3.85156C6.42857 4.0716 6.24867 4.25 6.02679 4.25H4.6875C4.46561 4.25 4.28571 4.0716 4.28571 3.85156V2.52344ZM4.28571 5.71094C4.28571 5.4909 4.46561 5.3125 4.6875 5.3125H6.02679C6.24867 5.3125 6.42857 5.4909 6.42857 5.71094V7.03906C6.42857 7.2591 6.24867 7.4375 6.02679 7.4375H4.6875C4.46561 7.4375 4.28571 7.2591 4.28571 7.03906V5.71094ZM6.02679 10.625H4.6875C4.46561 10.625 4.28571 10.4466 4.28571 10.2266V8.89844C4.28571 8.6784 4.46561 8.5 4.6875 8.5H6.02679C6.24867 8.5 6.42857 8.6784 6.42857 8.89844V10.2266C6.42857 10.4466 6.24867 10.625 6.02679 10.625ZM8.57143 15.9375H6.42857V13.1484C6.42857 12.9284 6.60847 12.75 6.83036 12.75H8.16964C8.39153 12.75 8.57143 12.9284 8.57143 13.1484V15.9375ZM10.7143 10.2266C10.7143 10.4466 10.5344 10.625 10.3125 10.625H8.97321C8.75133 10.625 8.57143 10.4466 8.57143 10.2266V8.89844C8.57143 8.6784 8.75133 8.5 8.97321 8.5H10.3125C10.5344 8.5 10.7143 8.6784 10.7143 8.89844V10.2266ZM10.7143 7.03906C10.7143 7.2591 10.5344 7.4375 10.3125 7.4375H8.97321C8.75133 7.4375 8.57143 7.2591 8.57143 7.03906V5.71094C8.57143 5.4909 8.75133 5.3125 8.97321 5.3125H10.3125C10.5344 5.3125 10.7143 5.4909 10.7143 5.71094V7.03906ZM10.7143 3.85156C10.7143 4.0716 10.5344 4.25 10.3125 4.25H8.97321C8.75133 4.25 8.57143 4.0716 8.57143 3.85156V2.52344C8.57143 2.3034 8.75133 2.125 8.97321 2.125H10.3125C10.5344 2.125 10.7143 2.3034 10.7143 2.52344V3.85156Z" fill="white"/>
</svg>
