<?xml version="1.0" standalone="no"?>
<!DOCTYPE svg PUBLIC "-//W3C//DTD SVG 20010904//EN"
 "http://www.w3.org/TR/2001/REC-SVG-20010904/DTD/svg10.dtd">
<svg version="1.0" xmlns="http://www.w3.org/2000/svg"
 width="20.000000pt" height="20.000000pt" viewBox="0 0 512.000000 512.000000"
 preserveAspectRatio="xMidYMid meet">

<g transform="translate(0.000000,512.000000) scale(0.100000,-0.100000)"
fill="white" stroke="none">
<path d="M774 5108 c-41 -19 -44 -44 -44 -386 l0 -327 -297 -355 c-162 -195
-302 -364 -309 -375 -7 -11 -38 -159 -69 -330 -62 -338 -63 -371 -23 -490 45
-137 150 -255 279 -317 l69 -33 2 -1223 3 -1224 28 -24 28 -24 259 0 c280 0
301 3 321 51 14 34 -2 84 -32 99 -10 6 -112 10 -228 10 l-211 0 0 1155 0 1155
55 0 c81 0 151 18 240 60 81 40 131 80 196 159 l36 43 22 -35 c55 -89 183
-176 307 -207 243 -62 483 15 630 203 l29 39 34 -47 c64 -89 193 -172 313
-200 81 -19 215 -19 296 0 120 28 249 111 313 200 l34 47 29 -39 c81 -103 197
-179 317 -208 141 -33 331 -10 444 55 67 38 147 110 176 157 l22 36 19 -24
c121 -153 283 -239 453 -239 l55 0 0 -1155 0 -1155 -145 0 -145 0 0 941 c0
594 -4 947 -10 959 -20 38 -55 40 -642 40 -640 0 -628 1 -647 -67 -7 -25 -11
-338 -11 -955 l0 -918 -894 0 c-889 0 -893 0 -920 -21 -35 -28 -36 -80 -1
-114 l24 -25 1750 0 1750 0 28 24 28 24 3 1224 2 1223 69 33 c129 62 234 180
279 317 40 119 39 152 -23 490 -31 171 -62 319 -69 330 -7 11 -147 180 -309
375 l-297 355 0 327 c0 346 -3 367 -47 387 -33 15 -3538 14 -3569 -1z m3456
-398 l0 -250 -1670 0 -1670 0 0 250 0 250 1670 0 1670 0 0 -250z m-2842 -417
c-2 -5 -69 -140 -148 -300 l-144 -293 -363 0 c-200 0 -363 3 -363 6 0 3 111
138 246 300 l246 294 265 0 c145 0 263 -3 261 -7z m727 -15 c-6 -31 -85 -552
-85 -567 0 -8 -101 -11 -375 -11 -206 0 -375 2 -375 4 0 3 66 138 147 300
l147 296 273 0 273 0 -5 -22z m725 17 c0 -9 80 -539 86 -567 l6 -28 -372 0
-372 0 6 28 c6 28 86 558 86 567 0 3 126 5 280 5 154 0 280 -2 280 -5z m853
-291 c81 -162 147 -297 147 -300 0 -2 -169 -4 -375 -4 -274 0 -375 3 -375 11
0 15 -79 536 -85 567 l-5 22 273 0 273 0 147 -296z m811 2 c135 -161 246 -296
246 -300 0 -3 -163 -6 -363 -6 l-363 0 -144 293 c-79 160 -146 295 -148 300
-2 4 116 7 261 7 l265 0 246 -294z m-3471 -648 c-12 -101 -29 -241 -38 -312
-11 -100 -21 -144 -43 -190 -56 -120 -167 -199 -306 -219 -189 -27 -362 54
-440 208 -50 99 -50 130 0 415 25 140 47 261 49 268 3 9 93 12 403 12 l398 0
-23 -182z m977 162 c0 -11 -7 -143 -15 -293 -17 -297 -25 -337 -82 -423 -166
-253 -594 -222 -719 51 -43 93 -44 134 -13 389 16 127 31 246 34 264 l6 32
394 0 c389 0 395 0 395 -20z m946 -137 c5 -87 9 -228 9 -313 0 -147 -1 -158
-27 -212 -33 -70 -108 -147 -177 -182 -112 -57 -290 -57 -402 0 -69 35 -139
106 -175 179 -28 59 -29 64 -29 215 0 85 4 226 9 313 l8 157 388 0 388 0 8
-157z m948 120 c4 -21 19 -140 35 -264 31 -249 30 -291 -13 -384 -125 -273
-553 -304 -719 -51 -57 86 -65 126 -82 423 -8 150 -15 282 -15 293 0 20 6 20
394 20 l394 0 6 -37z m1008 -228 c41 -227 46 -268 38 -319 -25 -164 -159 -292
-330 -319 -196 -30 -376 57 -452 219 -22 46 -32 90 -43 190 -9 71 -26 211 -38
312 l-23 182 400 -2 401 -3 47 -260z m-792 -1480 l0 -135 -490 0 -490 0 0 135
0 135 490 0 490 0 0 -135z m0 -965 l0 -670 -490 0 -490 0 0 670 0 670 490 0
490 0 0 -670z"/>
<path d="M1105 4765 c-16 -15 -25 -36 -25 -55 0 -19 9 -40 25 -55 l24 -25
1441 0 1441 0 24 25 c35 34 34 86 -1 114 l-27 21 -1439 0 -1439 0 -24 -25z"/>
<path d="M921 2089 c-52 -21 -50 -6 -50 -584 0 -582 -2 -564 53 -585 18 -6
308 -10 861 -10 553 0 843 4 861 10 55 21 53 3 54 586 l0 541 -26 24 -26 24
-851 2 c-535 1 -861 -2 -876 -8z m1619 -589 l0 -430 -755 0 -755 0 0 430 0
430 755 0 755 0 0 -430z"/>
</g>
</svg>
