<?xml version="1.0" standalone="no"?>
<!DOCTYPE svg PUBLIC "-//W3C//DTD SVG 20010904//EN"
 "http://www.w3.org/TR/2001/REC-SVG-20010904/DTD/svg10.dtd">
<svg version="1.0" xmlns="http://www.w3.org/2000/svg"
 width="20.000000pt" height="20.000000pt" viewBox="0 0 512.000000 512.000000"
 preserveAspectRatio="xMidYMid meet">

<g transform="translate(0.000000,512.000000) scale(0.100000,-0.100000)"
fill="white" stroke="none">
<path d="M2330 4973 c-54 -9 -158 -46 -210 -76 -30 -16 -91 -67 -135 -111
-119 -120 -181 -259 -187 -417 -4 -84 14 -109 76 -109 l41 0 1 -92 c2 -150 50
-264 155 -369 54 -54 180 -129 218 -129 35 0 43 -15 32 -58 -7 -23 -15 -94
-20 -159 l-9 -118 -54 -48 c-29 -27 -71 -64 -93 -82 l-40 -33 -230 -18 -230
-17 -291 96 c-160 53 -301 97 -313 97 -38 0 -82 -30 -97 -65 -11 -26 -14 -87
-14 -259 0 -268 0 -267 99 -274 33 -2 61 -7 61 -11 0 -3 -29 -107 -65 -230
-36 -124 -65 -239 -65 -257 0 -51 55 -87 105 -68 26 10 39 45 115 312 l73 252
102 0 102 0 -33 -112 c-162 -568 -135 -1053 91 -1625 30 -76 55 -141 55 -145
0 -5 -28 -8 -62 -7 l-63 0 -240 270 c-132 148 -257 289 -277 313 l-38 43 60
207 c33 113 60 216 60 229 0 32 -40 67 -76 67 -51 0 -68 -31 -124 -230 -29
-102 -56 -193 -62 -202 -7 -14 -21 -18 -62 -18 -77 0 -199 -34 -296 -82 -69
-34 -103 -60 -181 -138 -80 -80 -103 -110 -141 -187 -26 -50 -52 -117 -59
-148 -11 -51 -11 -58 8 -83 15 -20 36 -31 82 -41 l61 -14 0 -51 c1 -260 185
-497 435 -561 253 -64 535 63 648 293 27 53 35 62 52 57 11 -3 45 -8 75 -12
49 -4 57 -2 77 18 11 13 25 44 30 69 l9 45 783 0 784 0 13 -55 c44 -176 176
-340 334 -419 190 -93 379 -94 566 -2 170 85 294 242 344 439 l11 42 58 0 c50
0 62 4 85 26 22 23 26 35 26 88 0 33 -7 90 -14 126 -9 43 -11 82 -6 115 37
230 10 479 -69 655 l-20 45 29 30 c49 51 60 91 60 224 l0 120 228 3 227 3 55
31 c60 34 113 101 130 165 7 25 10 210 8 531 -3 487 -3 494 -25 534 -28 53
-74 99 -127 127 -41 22 -44 22 -551 22 l-510 0 -54 -30 c-56 -31 -106 -88
-128 -148 -8 -23 -12 -182 -12 -559 l-1 -528 -164 0 -165 0 10 32 c5 18 9 105
9 193 0 556 -159 1018 -439 1278 -72 66 -73 67 -57 90 97 132 138 231 157 377
12 102 4 190 -27 290 -67 215 -257 390 -471 435 -64 14 -176 18 -233 8z m190
-158 c71 -10 178 -67 241 -129 160 -159 195 -404 89 -623 -33 -66 -114 -156
-173 -190 l-36 -22 -3 229 c-3 251 -4 254 -72 304 -26 20 -43 21 -321 24
l-293 3 13 51 c49 184 216 335 395 357 65 8 74 7 160 -4z m-35 -785 l0 -225
-70 1 c-189 1 -346 163 -348 359 -1 39 2 76 7 83 6 9 55 12 209 10 l202 -3 0
-225z m363 -359 c217 -181 362 -547 398 -1004 l6 -87 -343 2 -343 3 -32 120
c-18 66 -33 127 -33 135 -1 8 40 41 92 74 183 117 242 177 267 275 27 102 -25
222 -119 278 -85 51 -170 53 -275 8 -21 -9 -20 0 6 121 l11 51 83 21 c46 11
108 32 137 45 60 28 61 27 145 -42z m2059 -301 c49 -29 63 -66 63 -165 l0 -85
-556 0 -556 0 4 99 c3 90 5 102 28 126 14 15 34 31 45 35 11 5 227 9 480 9
439 1 461 0 492 -19z m-2219 -55 c28 -33 29 -87 1 -132 -20 -32 -76 -72 -332
-236 l-88 -57 -149 0 -150 0 0 59 0 59 93 7 c55 4 102 13 116 22 20 13 236
195 338 286 48 42 130 38 171 -8z m-1407 -216 l187 -62 -14 -33 c-8 -18 -14
-54 -14 -79 l0 -45 -180 0 -180 0 0 140 c0 77 3 140 7 140 4 0 91 -28 194 -61z
m534 -159 l0 -55 -99 -3 c-105 -3 -126 4 -126 43 0 39 33 57 117 65 113 11
108 13 108 -50z m3155 -55 l0 -75 -555 0 -555 0 0 75 0 75 555 0 555 0 0 -75z
m-2579 -224 l25 -100 -82 -40 c-142 -71 -239 -201 -285 -384 -18 -70 -22 -123
-26 -358 l-5 -276 -53 -22 c-105 -43 -170 -126 -196 -249 l-11 -53 -75 3 -75
3 -34 110 c-67 219 -94 401 -94 633 0 243 35 464 110 705 l31 97 342 0 c278 1
347 3 367 15 14 8 27 14 30 15 3 0 17 -45 31 -99z m2579 -146 c0 -163 -8 -192
-63 -225 -31 -19 -54 -20 -539 -20 l-508 0 0 195 0 195 555 0 555 0 0 -145z
m-1724 -147 c-14 -102 -60 -169 -141 -204 -32 -14 -84 -19 -275 -24 -214 -6
-239 -9 -277 -28 -45 -23 -73 -57 -93 -112 -8 -22 -14 -118 -17 -262 l-6 -228
-128 0 -129 0 0 253 c0 281 10 351 60 453 46 94 128 167 220 195 14 4 198 8
409 8 l384 1 -7 -52z m208 -604 c13 -50 42 -54 426 -54 l351 0 28 -62 c39 -87
59 -167 71 -278 5 -52 10 -98 10 -102 0 -4 -35 28 -77 71 -164 166 -363 251
-588 251 -390 0 -726 -280 -801 -668 -8 -41 -14 -76 -14 -78 0 -2 -251 -4
-558 -4 l-559 0 -36 90 c-20 49 -37 92 -37 95 0 3 188 5 418 5 401 0 418 1
450 20 58 36 62 57 62 374 l0 285 309 3 c287 3 310 4 330 22 12 11 21 27 21
38 0 16 9 18 94 18 92 0 94 0 100 -26z m371 -345 c28 -6 92 -31 144 -56 123
-59 226 -158 288 -278 40 -77 73 -179 73 -224 l0 -21 -655 0 -655 0 0 24 c0
14 11 60 25 103 78 249 287 426 550 466 41 7 169 -1 230 -14z m-2773 -365
c156 -174 284 -323 286 -331 3 -10 -3 -12 -20 -8 -71 16 -995 228 -1058 242
-41 9 -78 19 -82 22 -18 15 60 139 132 211 115 116 251 178 392 179 l67 1 283
-316z"/>
</g>
</svg>
