<?xml version="1.0" standalone="no"?>
<!DOCTYPE svg PUBLIC "-//W3C//DTD SVG 20010904//EN"
 "http://www.w3.org/TR/2001/REC-SVG-20010904/DTD/svg10.dtd">
<svg version="1.0" xmlns="http://www.w3.org/2000/svg"
 width="20.000000pt" height="20.000000pt" viewBox="0 0 512.000000 512.000000"
 preserveAspectRatio="xMidYMid meet">

<g transform="translate(0.000000,512.000000) scale(0.100000,-0.100000)"
fill="white" stroke="none">
<path d="M105 5015 l-25 -24 0 -2111 0 -2111 25 -24 24 -25 616 0 615 0 0
-295 0 -296 25 -24 24 -25 1791 0 1791 0 24 25 25 24 0 751 0 751 -25 24 c-24
25 -24 25 -240 25 l-215 0 0 615 0 616 -25 24 -24 25 -536 0 -535 0 0 1015 0
1016 -25 24 -24 25 -1631 0 -1631 0 -24 -25z m3175 -1095 l0 -960 -215 0
c-216 0 -216 0 -240 -25 -24 -23 -25 -29 -25 -160 l0 -135 -720 0 -720 0 0
-80 0 -80 720 0 720 0 0 -80 0 -80 -720 0 -720 0 0 -80 0 -80 720 0 720 0 0
-240 0 -240 -695 0 -696 0 -24 -25 -25 -24 0 -376 0 -375 -560 0 -560 0 0
2000 0 2000 1520 0 1520 0 0 -960z m160 -1335 c0 -286 -19 -265 240 -265 259
0 240 -21 240 265 l0 215 240 0 240 0 0 -560 0 -560 -720 0 -720 0 0 560 0
560 240 0 240 0 0 -215z m320 55 l0 -160 -80 0 -80 0 0 160 0 160 80 0 80 0 0
-160z m-1760 -1335 c0 -216 0 -216 25 -240 l24 -25 271 0 271 0 24 25 c25 24
25 24 25 240 l0 215 240 0 240 0 0 -640 0 -640 -800 0 -800 0 0 640 0 640 240
0 240 0 0 -215z m480 55 l0 -160 -160 0 -160 0 0 160 0 160 160 0 160 0 0
-160z m1280 -55 c0 -216 0 -216 25 -240 l24 -25 271 0 271 0 24 25 c25 24 25
24 25 240 l0 215 240 0 240 0 0 -640 0 -640 -800 0 -800 0 0 640 0 640 240 0
240 0 0 -215z m480 55 l0 -160 -160 0 -160 0 0 160 0 160 160 0 160 0 0 -160z"/>
<path d="M1150 4785 l-64 -65 -319 0 -318 0 -24 -25 -25 -24 0 -351 0 -351 25
-24 24 -25 351 0 351 0 24 25 25 24 0 318 0 319 65 64 c36 35 65 69 65 75 0
13 -92 105 -106 105 -5 0 -39 -29 -74 -65z"/>
<path d="M1360 4480 l0 -80 880 0 880 0 0 80 0 80 -880 0 -880 0 0 -80z"/>
<path d="M1360 4160 l0 -80 880 0 880 0 0 80 0 80 -880 0 -880 0 0 -80z"/>
<path d="M425 3735 l-25 -24 0 -351 0 -351 25 -24 24 -25 351 0 351 0 24 25
25 24 0 351 0 351 -25 24 -24 25 -351 0 -351 0 -24 -25z"/>
<path d="M1360 3520 l0 -80 880 0 880 0 0 80 0 80 -880 0 -880 0 0 -80z"/>
<path d="M1360 3200 l0 -80 880 0 880 0 0 80 0 80 -880 0 -880 0 0 -80z"/>
<path d="M1150 2865 l-64 -65 -319 0 -318 0 -24 -25 -25 -24 0 -351 0 -351 25
-24 24 -25 351 0 351 0 24 25 25 24 0 318 0 319 65 64 c36 35 65 69 65 75 0
13 -92 105 -106 105 -5 0 -39 -29 -74 -65z"/>
<path d="M425 1815 l-25 -24 0 -351 0 -351 25 -24 24 -25 351 0 351 0 24 25
25 24 0 351 0 351 -25 24 -24 25 -351 0 -351 0 -24 -25z"/>
<path d="M3920 1920 l0 -80 160 0 160 0 0 80 0 80 -160 0 -160 0 0 -80z"/>
<path d="M2640 800 l0 -80 160 0 160 0 0 80 0 80 -160 0 -160 0 0 -80z"/>
<path d="M2640 480 l0 -80 160 0 160 0 0 80 0 80 -160 0 -160 0 0 -80z"/>
<path d="M4400 800 l0 -80 160 0 160 0 0 80 0 80 -160 0 -160 0 0 -80z"/>
<path d="M4400 480 l0 -80 160 0 160 0 0 80 0 80 -160 0 -160 0 0 -80z"/>
</g>
</svg>
