<svg width="18" height="12" viewBox="0 0 18 12" fill="none" xmlns="http://www.w3.org/2000/svg">
<path d="M11.9732 6.00083C11.498 6.00083 11.0508 5.75976 10.8089 5.37406L9.00062 2.51878L7.19511 5.37406C6.95044 5.76244 6.50328 6.00351 6.028 6.00351C5.90144 6.00351 5.77489 5.98744 5.65396 5.95262L1.80108 4.90264V9.67037C1.80108 10.0641 2.08231 10.407 2.48166 10.5007L8.5619 11.9498C8.84876 12.0167 9.14968 12.0167 9.43372 11.9498L15.5196 10.5007C15.9189 10.4043 16.2002 10.0614 16.2002 9.67037V4.90264L12.3473 5.94994C12.2264 5.98476 12.0998 6.00083 11.9732 6.00083ZM17.9522 2.99555L16.5039 0.242055C16.4167 0.0759881 16.2283 -0.020438 16.0342 0.00366855L9.00062 0.85811L11.5795 4.93211C11.6864 5.10085 11.9001 5.18121 12.0998 5.12764L17.6654 3.61429C17.9438 3.53661 18.0788 3.24198 17.9522 2.99555V2.99555ZM1.49735 0.242055L0.0489998 2.99555C-0.080367 3.24198 0.0574368 3.53661 0.333044 3.61161L5.89863 5.12496C6.09831 5.17853 6.31204 5.09818 6.41891 4.92943L9.00062 0.85811L1.96419 0.00366855C1.77014 -0.0177595 1.58453 0.0759881 1.49735 0.242055V0.242055Z" fill="white"/>
</svg>
